<svg width="48" height="48" viewBox="0 0 48 48" fill="none" xmlns="http://www.w3.org/2000/svg">
<path d="M16.5868 31.4151L22.6681 25.3334L13.5359 25.3338H13.5141C8.45358 25.3338 4.35107 29.4363 4.35107 34.4963C4.35107 39.5572 8.45319 43.6593 13.5137 43.6593C13.8981 43.6593 14.2762 43.6327 14.6481 43.5867C12.6482 39.647 13.2928 34.7086 16.5868 31.4151Z" fill="#87C040"/>
<path d="M24.0008 34.4851V25.8849L17.5437 32.3427L17.5281 32.358C13.9496 35.9363 13.9496 41.7379 17.5281 45.3162C21.1065 48.8946 26.908 48.8946 30.4865 45.3162C30.7581 45.0446 31.002 44.7563 31.2326 44.4613C27.0345 43.088 24.0012 39.1421 24.0008 34.4851Z" fill="#87C040"/>
<path d="M31.4149 31.4132L25.3335 25.3319V34.4859C25.3335 39.5467 29.436 43.6488 34.4965 43.6488C39.557 43.6488 43.6595 39.5467 43.6595 34.4863C43.6595 34.1019 43.633 33.7238 43.587 33.3519C39.6472 35.3522 34.7088 34.7071 31.4149 31.4132Z" fill="#87C040"/>
<path d="M45.316 17.5136C45.0444 17.242 44.7564 16.9981 44.4614 16.7675C43.0882 20.9652 39.1418 23.9988 34.4852 23.9988H25.8853L32.3576 30.4715C35.936 34.0499 41.738 34.0499 45.316 30.4715C48.8945 26.8931 48.8945 21.0916 45.316 17.5136Z" fill="#87C040"/>
<path d="M34.4866 4.34073C34.1022 4.34073 33.7241 4.36687 33.3522 4.41292C35.3521 8.35305 34.7074 13.291 31.4135 16.5849L25.3325 22.6662H34.4866C39.5467 22.6662 43.6492 18.5637 43.6492 13.5033C43.6496 8.4428 39.5471 4.34073 34.4866 4.34073Z" fill="#ED9A2D"/>
<path d="M30.4717 2.68345C26.8933 -0.894548 21.0917 -0.894548 17.5133 2.68384C17.2421 2.95544 16.9982 3.24343 16.7676 3.53883C20.9653 4.91204 23.999 8.85802 23.999 13.5146V22.1148L30.4561 15.6573L30.4717 15.6421C34.0501 12.0637 34.0501 6.26223 30.4717 2.68345Z" fill="#5698C6"/>
<path d="M16.5946 16.5912L16.8552 16.8631L22.6607 22.6686H22.667V13.5357V13.5138C22.667 8.45335 18.5645 4.35089 13.5039 4.35089C8.44342 4.35089 4.34092 8.45296 4.34131 13.5134C4.34131 13.897 4.36745 14.274 4.41311 14.6451C8.35562 12.6463 13.3002 13.2969 16.5946 16.5912Z" fill="#5698C6"/>
<path d="M3.56535 31.1529C3.63715 30.9398 3.71442 30.7299 3.7991 30.523C3.80963 30.4969 3.819 30.4704 3.82992 30.445C3.9228 30.2226 4.02504 30.006 4.13235 29.7921C4.15577 29.7449 4.17996 29.6985 4.20455 29.6513C4.31498 29.439 4.43127 29.2302 4.55536 29.0269C4.56863 29.0051 4.58307 28.9844 4.59634 28.9633C4.71419 28.7733 4.83867 28.5887 4.96823 28.4072C4.99476 28.3698 5.02091 28.3319 5.04823 28.2948C5.18754 28.1052 5.33271 27.921 5.48372 27.7415C5.51455 27.7048 5.54577 27.6693 5.57738 27.6338C5.72489 27.4629 5.87708 27.2962 6.03512 27.1355C6.04917 27.1214 6.06205 27.1066 6.0761 27.0925C6.24429 26.9236 6.4195 26.762 6.59862 26.6051C6.63764 26.5708 6.67666 26.5369 6.71607 26.5033C6.89636 26.3495 7.08094 26.2017 7.27098 26.06C7.29596 26.0417 7.3221 26.0245 7.34708 26.0065C7.52463 25.8774 7.70648 25.7541 7.89223 25.6358C7.92891 25.6124 7.96521 25.5882 8.00228 25.5652C8.20286 25.4411 8.40812 25.3244 8.61728 25.2136C8.66138 25.1906 8.70586 25.1683 8.75035 25.1457C8.95912 25.0392 9.17063 24.9373 9.38682 24.8448C9.39735 24.8405 9.4075 24.8355 9.41804 24.8308C9.64164 24.736 9.87031 24.6513 10.1017 24.5717C10.1517 24.5545 10.2012 24.5373 10.2516 24.5209C10.4806 24.4464 10.7128 24.3777 10.9485 24.318C10.9844 24.3094 11.0215 24.3016 11.0574 24.2934C11.2759 24.2408 11.4968 24.1955 11.72 24.1569C11.7618 24.1498 11.8031 24.1413 11.8449 24.135C12.0872 24.096 12.3327 24.0667 12.5801 24.0449C12.6335 24.0402 12.6874 24.0367 12.7409 24.0324C12.9968 24.014 13.254 24.0012 13.5147 24.0012L22.115 24.0008L15.6422 17.5281C12.0638 13.9501 6.26185 13.9497 2.68382 17.5281C-0.894605 21.1065 -0.894605 26.908 2.68382 30.4864C2.95503 30.7576 3.23911 31.0081 3.53374 31.2383C3.54349 31.2094 3.55559 31.1817 3.56535 31.1529Z" fill="#5698C6"/>
<path d="M15.6639 17.5281L20.7888 22.653H13.9005L13.5099 22.6612C9.31487 22.6612 5.77859 19.8422 4.69141 15.9953C8.18124 14.0383 12.6798 14.5445 15.6487 17.5129L15.6639 17.5281Z" fill="#446BA6"/>
<path d="M22.6627 13.5118V20.7595L17.7919 15.8887L17.5101 15.6183C14.5436 12.6522 14.0363 8.15792 15.9878 4.66928C19.8394 5.75333 22.6627 9.29231 22.6627 13.49V13.5118Z" fill="#446BA6"/>
<path d="M30.4993 15.6351L25.3744 20.7603V13.872L25.3662 13.4814C25.3662 9.28647 28.1852 5.74984 32.0321 4.66306C33.9891 8.15286 33.483 12.6514 30.5145 15.6199L30.4993 15.6351Z" fill="#446BA6"/>
<path d="M34.4802 22.6471H27.2324L32.1033 17.7763L32.3737 17.4946C35.3399 14.5281 39.8342 14.0208 43.3228 15.9723C42.2388 19.8238 38.6998 22.6471 34.502 22.6471H34.4802Z" fill="#FFF101"/>
<path d="M32.3402 30.4352L27.2153 25.3104H34.1037L34.4943 25.3022C38.6893 25.3026 42.2256 28.1216 43.3128 31.9684C39.8225 33.925 35.3243 33.4193 32.3555 30.4505L32.3402 30.4352Z" fill="#45AB47"/>
<path d="M25.3545 34.4437V27.196L30.2254 32.0668L30.5075 32.3372C33.4736 35.3037 33.9809 39.7972 32.0294 43.2862C28.1778 42.2022 25.3545 38.6636 25.3545 34.4651V34.4437Z" fill="#45AB47"/>
<path d="M17.5657 32.3638L22.6906 27.2385V34.1268L22.6988 34.5174C22.6988 38.7124 19.8798 42.249 16.0329 43.3362C14.0759 39.8456 14.582 35.3475 17.5505 32.379L17.5657 32.3638Z" fill="#45AB47"/>
<path d="M13.5457 25.3483H20.7934L15.9226 30.2191L15.6521 30.5009C12.6856 33.4674 8.19169 33.9747 4.70264 32.0231C5.78709 28.1712 9.32571 25.3483 13.5238 25.3483H13.5457Z" fill="#45AB47"/>
</svg>
