<?xml version="1.0" encoding="UTF-8" standalone="no"?>
<svg
   width="96"
   height="96"
   viewBox="0 0 96 96"
   fill="none"
   version="1.1"
   id="svg9"
   sodipodi:docname="i-icon-base.svg"
   inkscape:version="1.3.2 (091e20e, 2023-11-25, custom)"
   xmlns:inkscape="http://www.inkscape.org/namespaces/inkscape"
   xmlns:sodipodi="http://sodipodi.sourceforge.net/DTD/sodipodi-0.dtd"
   xmlns="http://www.w3.org/2000/svg"
   xmlns:svg="http://www.w3.org/2000/svg">
  <defs
     id="defs9" />
  <sodipodi:namedview
     id="namedview9"
     pagecolor="#ffffff"
     bordercolor="#000000"
     borderopacity="0.25"
     inkscape:showpageshadow="2"
     inkscape:pageopacity="0.0"
     inkscape:pagecheckerboard="0"
     inkscape:deskcolor="#d1d1d1"
     showgrid="false"
     inkscape:zoom="9.0348837"
     inkscape:cx="30.492922"
     inkscape:cy="50.415702"
     inkscape:window-width="2400"
     inkscape:window-height="1261"
     inkscape:window-x="2391"
     inkscape:window-y="-9"
     inkscape:window-maximized="1"
     inkscape:current-layer="layer2" />
  <g
     inkscape:groupmode="layer"
     id="layer2"
     inkscape:label="Layer 2">
    <g
       inkscape:groupmode="layer"
       id="layer1"
       inkscape:label="Layer 1">
      <rect
         style="fill:#e7f3ff"
         id="rect9"
         width="91.976845"
         height="91.091393"
         x="1.8815961"
         y="2.4350061"
         ry="10.293436" />
    </g>
    <g
       id="g16"
       transform="matrix(1.3943061,0,0,1.4288932,14.854569,16.149292)"
       inkscape:label="g16">
      <path
         d="m 16.5868,31.4151 6.0813,-6.0817 -9.1322,4e-4 h -0.0218 c -5.06052,0 -9.16303,4.1025 -9.16303,9.1625 0,5.0609 4.10212,9.163 9.16263,9.163 0.3844,0 0.7625,-0.0266 1.1344,-0.0726 -1.9999,-3.9397 -1.3553,-8.8781 1.9387,-12.1716 z"
         fill="#87c040"
         id="path1" />
      <path
         d="m 24.0008,34.4851 v -8.6002 l -6.4571,6.4578 -0.0156,0.0153 c -3.5785,3.5783 -3.5785,9.3799 0,12.9582 3.5784,3.5784 9.3799,3.5784 12.9584,0 0.2716,-0.2716 0.5155,-0.5599 0.7461,-0.8549 -4.1981,-1.3733 -7.2314,-5.3192 -7.2318,-9.9762 z"
         fill="#87c040"
         id="path2" />
      <path
         d="m 31.4149,31.4132 -6.0814,-6.0813 v 9.154 c 0,5.0608 4.1025,9.1629 9.163,9.1629 5.0605,0 9.163,-4.1021 9.163,-9.1625 0,-0.3844 -0.0265,-0.7625 -0.0725,-1.1344 -3.9398,2.0003 -8.8782,1.3552 -12.1721,-1.9387 z"
         fill="#87c040"
         id="path3" />
      <path
         d="m 45.316,17.5136 c -0.2716,-0.2716 -0.5596,-0.5155 -0.8546,-0.7461 -1.3732,4.1977 -5.3196,7.2313 -9.9762,7.2313 h -8.5999 l 6.4723,6.4727 c 3.5784,3.5784 9.3804,3.5784 12.9584,0 3.5785,-3.5784 3.5785,-9.3799 0,-12.9579 z"
         fill="#87c040"
         id="path4" />
      <path
         d="m 34.4866,4.34073 c -0.3844,0 -0.7625,0.02614 -1.1344,0.07219 1.9999,3.94013 1.3552,8.87808 -1.9387,12.17198 l -6.081,6.0813 h 9.1541 c 5.0601,0 9.1626,-4.1025 9.1626,-9.1629 4e-4,-5.0605 -4.1021,-9.16257 -9.1626,-9.16257 z"
         fill="#ed9a2d"
         id="path5" />
      <path
         d="m 30.4717,2.68345 c -3.5784,-3.577998 -9.38,-3.577998 -12.9584,3.9e-4 -0.2712,0.2716 -0.5151,0.55959 -0.7457,0.85499 4.1977,1.37321 7.2314,5.31919 7.2314,9.97577 v 8.6002 l 6.4571,-6.4575 0.0156,-0.0152 c 3.5784,-3.5784 3.5784,-9.37987 0,-12.95865 z"
         fill="#5698c6"
         id="path6" />
      <path
         d="m 16.5946,16.5912 0.2606,0.2719 5.8055,5.8055 h 0.0063 v -9.1329 -0.0219 c 0,-5.06045 -4.1025,-9.16291 -9.1631,-9.16291 -5.06048,0 -9.16298,4.10207 -9.16259,9.16251 0,0.3836 0.02614,0.7606 0.0718,1.1317 3.94251,-1.9988 8.88709,-1.3482 12.18149,1.9461 z"
         fill="#5698c6"
         id="path7" />
      <path
         d="m 3.56535,31.1529 c 0.0718,-0.2131 0.14907,-0.423 0.23375,-0.6299 0.01053,-0.0261 0.0199,-0.0526 0.03082,-0.078 0.09288,-0.2224 0.19512,-0.439 0.30243,-0.6529 0.02342,-0.0472 0.04761,-0.0936 0.0722,-0.1408 0.11043,-0.2123 0.22672,-0.4211 0.35081,-0.6244 0.01327,-0.0218 0.02771,-0.0425 0.04098,-0.0636 0.11785,-0.19 0.24233,-0.3746 0.37189,-0.5561 0.02653,-0.0374 0.05268,-0.0753 0.08,-0.1124 0.13931,-0.1896 0.28448,-0.3738 0.43549,-0.5533 0.03083,-0.0367 0.06205,-0.0722 0.09366,-0.1077 0.14751,-0.1709 0.2997,-0.3376 0.45774,-0.4983 0.01405,-0.0141 0.02693,-0.0289 0.04098,-0.043 0.16819,-0.1689 0.3434,-0.3305 0.52252,-0.4874 0.03902,-0.0343 0.07804,-0.0682 0.11745,-0.1018 0.18029,-0.1538 0.36487,-0.3016 0.55491,-0.4433 0.02498,-0.0183 0.05112,-0.0355 0.0761,-0.0535 0.17755,-0.1291 0.3594,-0.2524 0.54515,-0.3707 0.03668,-0.0234 0.07298,-0.0476 0.11005,-0.0706 0.20058,-0.1241 0.40584,-0.2408 0.615,-0.3516 0.0441,-0.023 0.08858,-0.0453 0.13307,-0.0679 0.20877,-0.1065 0.42028,-0.2084 0.63647,-0.3009 0.01053,-0.0043 0.02068,-0.0093 0.03122,-0.014 0.2236,-0.0948 0.45227,-0.1795 0.68366,-0.2591 0.05,-0.0172 0.0995,-0.0344 0.1499,-0.0508 0.229,-0.0745 0.4612,-0.1432 0.6969,-0.2029 0.0359,-0.0086 0.073,-0.0164 0.1089,-0.0246 0.2185,-0.0526 0.4394,-0.0979 0.6626,-0.1365 0.0418,-0.0071 0.0831,-0.0156 0.1249,-0.0219 0.2423,-0.039 0.4878,-0.0683 0.7352,-0.0901 0.0534,-0.0047 0.1073,-0.0082 0.1608,-0.0125 0.2559,-0.0184 0.5131,-0.0312 0.7738,-0.0312 l 8.6003,-4e-4 -6.4728,-6.4727 c -3.5784,-3.578 -9.38035,-3.5784 -12.95838,0 -3.578425,3.5784 -3.578425,9.3799 0,12.9583 0.27121,0.2712 0.55529,0.5217 0.84992,0.7519 0.00975,-0.0289 0.02185,-0.0566 0.03161,-0.0854 z"
         fill="#5698c6"
         id="path8" />
      <path
         d="m 15.6639,17.5281 5.1249,5.1249 h -6.8883 l -0.3906,0.0082 c -4.19503,0 -7.73131,-2.819 -8.81849,-6.6659 3.48983,-1.957 7.98839,-1.4508 10.95729,1.5176 z"
         fill="#446ba6"
         id="path9" />
      <path
         d="m 22.6627,13.5118 v 7.2477 L 17.7919,15.8887 17.5101,15.6183 C 14.5436,12.6522 14.0363,8.15792 15.9878,4.66928 19.8394,5.75333 22.6627,9.29231 22.6627,13.49 Z"
         fill="#446ba6"
         id="path10" />
      <path
         d="m 30.4993,15.6351 -5.1249,5.1252 V 13.872 l -0.0082,-0.3906 c 0,-4.19493 2.819,-7.73156 6.6659,-8.81834 1.957,3.4898 1.4509,7.98834 -1.5176,10.95684 z"
         fill="#446ba6"
         id="path11" />
      <path
         d="m 34.4802,22.6471 h -7.2478 l 4.8709,-4.8708 0.2704,-0.2817 c 2.9662,-2.9665 7.4605,-3.4738 10.9491,-1.5223 -1.084,3.8515 -4.623,6.6748 -8.8208,6.6748 z"
         fill="#fff101"
         id="path12" />
      <path
         d="m 32.3402,30.4352 -5.1249,-5.1248 h 6.8884 l 0.3906,-0.0082 c 4.195,4e-4 7.7313,2.8194 8.8185,6.6662 -3.4903,1.9566 -7.9885,1.4509 -10.9573,-1.5179 z"
         fill="#45ab47"
         id="path13" />
      <path
         d="M 25.3545,34.4437 V 27.196 l 4.8709,4.8708 0.2821,0.2704 c 2.9661,2.9665 3.4734,7.46 1.5219,10.949 -3.8516,-1.084 -6.6749,-4.6226 -6.6749,-8.8211 z"
         fill="#45ab47"
         id="path14" />
      <path
         d="m 17.5657,32.3638 5.1249,-5.1253 v 6.8883 l 0.0082,0.3906 c 0,4.195 -2.819,7.7316 -6.6659,8.8188 -1.957,-3.4906 -1.4509,-7.9887 1.5176,-10.9572 z"
         fill="#45ab47"
         id="path15" />
      <path
         d="m 13.5457,25.3483 h 7.2477 l -4.8708,4.8708 -0.2705,0.2818 c -2.9665,2.9665 -7.46041,3.4738 -10.94946,1.5222 1.08445,-3.8519 4.62307,-6.6748 8.82116,-6.6748 z"
         fill="#45ab47"
         id="path16" />
    </g>
  </g>
</svg>
