<svg width="60" height="50" viewBox="0 0 60 50" fill="none" xmlns="http://www.w3.org/2000/svg">
<path d="M59.1596 8.11319H0V49.536H59.1596V8.11319Z" fill="#6C8CC7"/>
<path d="M0 9.21318V1.84874C0 0.831932 0.831932 0 1.84874 0H57.3062C58.323 0 59.155 0.831932 59.155 1.84874V9.21225H0V9.21318Z" fill="#D6D6D6"/>
<path d="M54.4943 7.14906H19.8203L23.1369 2.06503H54.4943V7.14906Z" fill="white"/>
<path d="M6.2286 6.11009C7.09699 6.11009 7.80095 5.40613 7.80095 4.53774C7.80095 3.66936 7.09699 2.96539 6.2286 2.96539C5.36022 2.96539 4.65625 3.66936 4.65625 4.53774C4.65625 5.40613 5.36022 6.11009 6.2286 6.11009Z" fill="#C02032"/>
<path d="M10.3961 6.11009C11.2645 6.11009 11.9684 5.40613 11.9684 4.53774C11.9684 3.66936 11.2645 2.96539 10.3961 2.96539C9.5277 2.96539 8.82373 3.66936 8.82373 4.53774C8.82373 5.40613 9.5277 6.11009 10.3961 6.11009Z" fill="#939393"/>
<path d="M14.565 6.11009C15.4334 6.11009 16.1374 5.40613 16.1374 4.53774C16.1374 3.66936 15.4334 2.96539 14.565 2.96539C13.6966 2.96539 12.9927 3.66936 12.9927 4.53774C12.9927 5.40613 13.6966 6.11009 14.565 6.11009Z" fill="#C9C9C9"/>
<path d="M24.9144 3.65219L25.1353 4.61261C25.1834 4.83816 25.2314 5.06832 25.2702 5.29849H25.2795C25.3229 5.06832 25.3923 4.83353 25.4533 4.61723L25.7269 3.65219H26.1613L26.4266 4.59135C26.4913 4.83908 26.5477 5.06925 26.5958 5.29942H26.605C26.6392 5.06925 26.6873 4.83908 26.7437 4.59135L26.9785 3.65219H27.5035L26.8389 5.76807H26.3434L26.092 4.90748C26.0273 4.68656 25.9792 4.48597 25.9312 4.22992H25.9219C25.8785 4.49059 25.823 4.6995 25.7611 4.90748L25.4921 5.76807H24.992L24.3662 3.65219H24.9144Z" fill="black"/>
<path d="M28.2386 3.65219L28.4595 4.61261C28.5076 4.83816 28.5556 5.06832 28.5945 5.29849H28.6037C28.6472 5.06832 28.7165 4.83353 28.7775 4.61723L29.0511 3.65219H29.4856L29.7508 4.59135C29.8156 4.83908 29.8719 5.06925 29.92 5.29942H29.9292C29.9635 5.06925 30.0115 4.83908 30.0679 4.59135L30.3027 3.65219H30.8277L30.1631 5.76807H29.6677L29.4162 4.90748C29.3515 4.68656 29.3035 4.48597 29.2554 4.22992H29.2461C29.2027 4.49059 29.1472 4.6995 29.0853 4.90748L28.8163 5.76807H28.3162L27.6904 3.65219H28.2386Z" fill="black"/>
<path d="M31.5627 3.65219L31.7837 4.61261C31.8317 4.83816 31.8798 5.06832 31.9186 5.29849H31.9279C31.9713 5.06832 32.0406 4.83353 32.1017 4.61723L32.3753 3.65219H32.8097L33.075 4.59135C33.1397 4.83908 33.1961 5.06925 33.2442 5.29942H33.2534C33.2876 5.06925 33.3357 4.83908 33.3921 4.59135L33.6269 3.65219H34.1519L33.4873 5.76807H32.9909L32.7395 4.90748C32.6748 4.68656 32.6267 4.48597 32.5786 4.22992H32.5694C32.5259 4.49059 32.4705 4.6995 32.4085 4.90748L32.1396 5.76807H31.6395L31.0137 3.65219H31.5627Z" fill="black"/>
<path d="M34.2378 5.47319C34.2378 5.2726 34.3764 5.13025 34.5678 5.13025C34.7638 5.13025 34.8978 5.2689 34.8978 5.47319C34.8978 5.66823 34.7675 5.81613 34.5678 5.81613C34.3737 5.81613 34.2378 5.66823 34.2378 5.47319Z" fill="black"/>
<path d="M59.1596 48.5247H0V50H59.1596V48.5247Z" fill="black"/>
<path d="M57.9745 48.5238H50.3698H47.0661H38.8937L36.8231 46.9496H22.3364L20.2659 48.5238H12.0935H8.78982H1.18504H0V49.9991H59.1596V48.5238H57.9745Z" fill="#403572"/>
<path d="M50.8808 6.10916L50.5508 5.78563L51.6933 4.61168L50.4824 3.43034L50.805 3.10034L52.3469 4.60244L50.8808 6.10916Z" fill="black"/>
<path d="M51.7681 4.37598H48.7158V4.83816H51.7681V4.37598Z" fill="black"/>
<path d="M45.074 32.6348H13.3589V33.5592H45.074V32.6348Z" fill="white"/>
<path d="M39.4532 36.8H18.5801V37.7244H39.4532V36.8Z" fill="white"/>
<path d="M52.4127 24.4249C52.4127 25.5295 51.5173 26.4249 50.4127 26.4249H8.74707C7.6425 26.4249 6.74707 25.5295 6.74707 24.4249V19.269C6.74707 18.1645 7.6425 17.269 8.74707 17.269H50.4127C51.5173 17.269 52.4127 18.1645 52.4127 19.269V24.4249Z" fill="white"/>
<path d="M45.0998 24.261C43.5571 24.261 42.3018 23.0057 42.3018 21.4629C42.3018 19.9192 43.5571 18.6639 45.0998 18.6639C46.6426 18.6639 47.8979 19.9192 47.8979 21.4629C47.8979 23.0057 46.6426 24.261 45.0998 24.261ZM45.0998 19.5883C44.0664 19.5883 43.2261 20.4295 43.2261 21.4629C43.2261 22.4963 44.0664 23.3366 45.0998 23.3366C46.1333 23.3366 46.9735 22.4963 46.9735 21.4629C46.9735 20.4295 46.1333 19.5883 45.0998 19.5883Z" fill="black"/>
<path d="M47.9141 24.9281L48.5679 24.2747L46.9591 22.665L46.3053 23.3185L47.9141 24.9281Z" fill="black"/>
<path d="M10.5778 23.0334C10.8061 23.1656 11.149 23.2793 11.5095 23.2793C11.9606 23.2793 12.212 23.0676 12.212 22.7543C12.212 22.4631 12.0179 22.2912 11.5271 22.1146C10.892 21.8863 10.4872 21.5498 10.4872 20.9952C10.4872 20.3666 11.0122 19.8869 11.8469 19.8869C12.2638 19.8869 12.5725 19.9784 12.7722 20.081L12.6003 20.6467C12.4644 20.5728 12.1954 20.4637 11.8358 20.4637C11.3903 20.4637 11.1962 20.704 11.1962 20.9268C11.1962 21.2235 11.4189 21.3612 11.9329 21.5609C12.6012 21.8123 12.9266 22.1497 12.9266 22.7034C12.9266 23.32 12.4579 23.857 11.4642 23.857C11.0594 23.857 10.636 23.7433 10.4243 23.6176L10.5778 23.0334Z" fill="black"/>
<path d="M14.0596 22.6045C14.0771 23.1074 14.4709 23.3246 14.9164 23.3246C15.2427 23.3246 15.4766 23.2784 15.6883 23.1989L15.7909 23.6832C15.5506 23.7803 15.2196 23.8552 14.8194 23.8552C13.9163 23.8552 13.3848 23.3006 13.3848 22.4501C13.3848 21.6783 13.8534 20.9536 14.7454 20.9536C15.6476 20.9536 15.9443 21.6959 15.9443 22.3069C15.9443 22.439 15.9333 22.5416 15.9222 22.6036L14.0596 22.6045ZM15.2816 22.1137C15.288 21.8567 15.1734 21.4343 14.7048 21.4343C14.2703 21.4343 14.0882 21.829 14.0596 22.1137H15.2816Z" fill="black"/>
<path d="M18.0734 23.7988L18.0272 23.49H18.0096C17.8377 23.7073 17.5465 23.8616 17.187 23.8616C16.6277 23.8616 16.3125 23.4558 16.3125 23.0334C16.3125 22.3309 16.9355 21.9759 17.9634 21.9824V21.9362C17.9634 21.7541 17.8895 21.4509 17.3986 21.4509C17.1241 21.4509 16.8394 21.5368 16.6499 21.657L16.5131 21.2004C16.7192 21.0737 17.0779 20.9545 17.5188 20.9545C18.4099 20.9545 18.6669 21.5193 18.6669 22.1257V23.1314C18.6669 23.3819 18.678 23.6278 18.7066 23.7997L18.0734 23.7988ZM17.981 22.439C17.4846 22.427 17.0104 22.5352 17.0104 22.9585C17.0104 23.2331 17.187 23.3588 17.4106 23.3588C17.6907 23.3588 17.895 23.1758 17.9588 22.9761C17.9764 22.9243 17.981 22.8679 17.981 22.8217V22.439Z" fill="black"/>
<path d="M19.4059 21.914C19.4059 21.5369 19.3995 21.2688 19.3828 21.0164H19.9938L20.0169 21.548H20.0391C20.1759 21.1532 20.5022 20.9536 20.7989 20.9536C20.8673 20.9536 20.9071 20.9591 20.9644 20.9711V21.6339C20.9071 21.6219 20.8442 21.6108 20.7583 21.6108C20.4218 21.6108 20.1935 21.828 20.1297 22.1423C20.1186 22.2043 20.1075 22.2791 20.1075 22.3586V23.7988H19.405L19.4059 21.914Z" fill="black"/>
<path d="M23.4311 23.7128C23.2832 23.7812 22.9911 23.8552 22.6426 23.8552C21.7746 23.8552 21.208 23.3005 21.208 22.439C21.208 21.6053 21.7793 20.9545 22.7563 20.9545C23.0133 20.9545 23.2758 21.0118 23.4357 21.0858L23.31 21.6108C23.1963 21.559 23.0299 21.5026 22.7794 21.5026C22.2424 21.5026 21.9216 21.8974 21.9281 22.4058C21.9281 22.977 22.2988 23.3024 22.7794 23.3024C23.0253 23.3024 23.1963 23.2506 23.3341 23.1942L23.4311 23.7128Z" fill="black"/>
<path d="M23.9478 19.7427H24.6558V21.3991H24.6678C24.7538 21.2679 24.8675 21.1588 25.0163 21.0793C25.1531 20.9989 25.3186 20.9536 25.497 20.9536C25.9712 20.9536 26.4676 21.2679 26.4676 22.159V23.7979H25.7651V22.2375C25.7651 21.8327 25.6162 21.5295 25.228 21.5295C24.9535 21.5295 24.7593 21.7116 24.6854 21.9233C24.6632 21.9806 24.6567 22.0554 24.6567 22.1349V23.797H23.9487V19.7427H23.9478Z" fill="black"/>
</svg>
