<?xml version="1.0" encoding="UTF-8" standalone="no"?>
<svg
   width="96"
   height="96"
   viewBox="0 0 96 96"
   fill="none"
   version="1.1"
   id="svg9"
   sodipodi:docname="i-Blacklist-r.svg"
   inkscape:version="1.3.2 (091e20e, 2023-11-25, custom)"
   xmlns:inkscape="http://www.inkscape.org/namespaces/inkscape"
   xmlns:sodipodi="http://sodipodi.sourceforge.net/DTD/sodipodi-0.dtd"
   xmlns="http://www.w3.org/2000/svg"
   xmlns:svg="http://www.w3.org/2000/svg">
  <defs
     id="defs9" />
  <sodipodi:namedview
     id="namedview9"
     pagecolor="#ffffff"
     bordercolor="#000000"
     borderopacity="0.25"
     inkscape:showpageshadow="2"
     inkscape:pageopacity="0.0"
     inkscape:pagecheckerboard="0"
     inkscape:deskcolor="#d1d1d1"
     showgrid="false"
     inkscape:zoom="9.0348837"
     inkscape:cx="30.492922"
     inkscape:cy="50.415702"
     inkscape:window-width="2400"
     inkscape:window-height="1261"
     inkscape:window-x="2391"
     inkscape:window-y="-9"
     inkscape:window-maximized="1"
     inkscape:current-layer="layer1" />
  <g
     inkscape:groupmode="layer"
     id="layer2"
     inkscape:label="Layer 2">
    <g
       inkscape:groupmode="layer"
       id="layer1"
       inkscape:label="Layer 1">
      <rect
         style="fill:#e7f3ff"
         id="rect9"
         width="91.976845"
         height="91.091393"
         x="1.8815961"
         y="2.4350061"
         ry="10.293436" />
      <g
         id="g25"
         transform="translate(18.155727,23.561133)">
        <path
           d="M 59.1596,8.11319 H 0 V 49.536 h 59.1596 z"
           fill="#6c8cc7"
           id="path1" />
        <path
           d="M 0,9.21318 V 1.84874 C 0,0.831932 0.831932,0 1.84874,0 H 57.3062 C 58.323,0 59.155,0.831932 59.155,1.84874 V 9.21225 H 0 Z"
           fill="#d6d6d6"
           id="path2" />
        <path
           d="M 54.4943,7.14906 H 19.8203 L 23.1369,2.06503 H 54.4943 Z"
           fill="#ffffff"
           id="path3" />
        <path
           d="m 6.2286,6.11009 c 0.86839,0 1.57235,-0.70396 1.57235,-1.57235 0,-0.86838 -0.70396,-1.57235 -1.57235,-1.57235 -0.86838,0 -1.57235,0.70397 -1.57235,1.57235 0,0.86839 0.70397,1.57235 1.57235,1.57235 z"
           fill="#c02032"
           id="path4" />
        <path
           d="m 10.3961,6.11009 c 0.8684,0 1.5723,-0.70396 1.5723,-1.57235 0,-0.86838 -0.7039,-1.57235 -1.5723,-1.57235 -0.8684,0 -1.57237,0.70397 -1.57237,1.57235 0,0.86839 0.70397,1.57235 1.57237,1.57235 z"
           fill="#939393"
           id="path5" />
        <path
           d="m 14.565,6.11009 c 0.8684,0 1.5724,-0.70396 1.5724,-1.57235 0,-0.86838 -0.704,-1.57235 -1.5724,-1.57235 -0.8684,0 -1.5723,0.70397 -1.5723,1.57235 0,0.86839 0.7039,1.57235 1.5723,1.57235 z"
           fill="#c9c9c9"
           id="path6" />
        <path
           d="m 24.9144,3.65219 0.2209,0.96042 c 0.0481,0.22555 0.0961,0.45571 0.1349,0.68588 h 0.0093 c 0.0434,-0.23017 0.1128,-0.46496 0.1738,-0.68126 l 0.2736,-0.96504 h 0.4344 l 0.2653,0.93916 c 0.0647,0.24773 0.1211,0.4779 0.1692,0.70807 h 0.0092 c 0.0342,-0.23017 0.0823,-0.46034 0.1387,-0.70807 l 0.2348,-0.93916 h 0.525 L 26.8389,5.76807 H 26.3434 L 26.092,4.90748 C 26.0273,4.68656 25.9792,4.48597 25.9312,4.22992 H 25.9219 C 25.8785,4.49059 25.823,4.6995 25.7611,4.90748 l -0.269,0.86059 H 24.992 L 24.3662,3.65219 Z"
           fill="#000000"
           id="path7" />
        <path
           d="m 28.2386,3.65219 0.2209,0.96042 c 0.0481,0.22555 0.0961,0.45571 0.135,0.68588 h 0.0092 c 0.0435,-0.23017 0.1128,-0.46496 0.1738,-0.68126 l 0.2736,-0.96504 h 0.4345 l 0.2652,0.93916 c 0.0648,0.24773 0.1211,0.4779 0.1692,0.70807 h 0.0092 c 0.0343,-0.23017 0.0823,-0.46034 0.1387,-0.70807 l 0.2348,-0.93916 h 0.525 L 30.1631,5.76807 H 29.6677 L 29.4162,4.90748 C 29.3515,4.68656 29.3035,4.48597 29.2554,4.22992 H 29.2461 C 29.2027,4.49059 29.1472,4.6995 29.0853,4.90748 l -0.269,0.86059 H 28.3162 L 27.6904,3.65219 Z"
           fill="#000000"
           id="path8" />
        <path
           d="m 31.5627,3.65219 0.221,0.96042 c 0.048,0.22555 0.0961,0.45571 0.1349,0.68588 h 0.0093 c 0.0434,-0.23017 0.1127,-0.46496 0.1738,-0.68126 l 0.2736,-0.96504 h 0.4344 l 0.2653,0.93916 c 0.0647,0.24773 0.1211,0.4779 0.1692,0.70807 h 0.0092 c 0.0342,-0.23017 0.0823,-0.46034 0.1387,-0.70807 l 0.2348,-0.93916 h 0.525 L 33.4873,5.76807 H 32.9909 L 32.7395,4.90748 C 32.6748,4.68656 32.6267,4.48597 32.5786,4.22992 H 32.5694 C 32.5259,4.49059 32.4705,4.6995 32.4085,4.90748 L 32.1396,5.76807 H 31.6395 L 31.0137,3.65219 Z"
           fill="#000000"
           id="path9" />
        <path
           d="m 34.2378,5.47319 c 0,-0.20059 0.1386,-0.34294 0.33,-0.34294 0.196,0 0.33,0.13865 0.33,0.34294 0,0.19504 -0.1303,0.34294 -0.33,0.34294 -0.1941,0 -0.33,-0.1479 -0.33,-0.34294 z"
           fill="#000000"
           id="path10" />
        <path
           d="M 59.1596,48.5247 H 0 V 50 h 59.1596 z"
           fill="#000000"
           id="path11" />
        <path
           d="M 57.9745,48.5238 H 50.3698 47.0661 38.8937 L 36.8231,46.9496 H 22.3364 l -2.0705,1.5742 H 12.0935 8.78982 1.18504 0 v 1.4753 h 59.1596 v -1.4753 z"
           fill="#403572"
           id="path12" />
        <path
           d="m 50.8808,6.10916 -0.33,-0.32353 1.1425,-1.17395 -1.2109,-1.18134 0.3226,-0.33 1.5419,1.5021 z"
           fill="#000000"
           id="path13" />
        <path
           d="m 51.7681,4.37598 h -3.0523 v 0.46218 h 3.0523 z"
           fill="#000000"
           id="path14" />
        <path
           d="M 45.074,32.6348 H 13.3589 v 0.9244 H 45.074 Z"
           fill="#ffffff"
           id="path15" />
        <path
           d="M 39.4532,36.8 H 18.5801 v 0.9244 h 20.8731 z"
           fill="#ffffff"
           id="path16" />
        <path
           d="m 52.4127,24.4249 c 0,1.1046 -0.8954,2 -2,2 H 8.74707 c -1.10457,0 -2,-0.8954 -2,-2 V 19.269 c 0,-1.1045 0.89543,-2 2,-2 H 50.4127 c 1.1046,0 2,0.8955 2,2 z"
           fill="#ffffff"
           id="path17" />
        <path
           d="m 45.0998,24.261 c -1.5427,0 -2.798,-1.2553 -2.798,-2.7981 0,-1.5437 1.2553,-2.799 2.798,-2.799 1.5428,0 2.7981,1.2553 2.7981,2.799 0,1.5428 -1.2553,2.7981 -2.7981,2.7981 z m 0,-4.6727 c -1.0334,0 -1.8737,0.8412 -1.8737,1.8746 0,1.0334 0.8403,1.8737 1.8737,1.8737 1.0335,0 1.8737,-0.8403 1.8737,-1.8737 0,-1.0334 -0.8402,-1.8746 -1.8737,-1.8746 z"
           fill="#000000"
           id="path18" />
        <path
           d="m 47.9141,24.9281 0.6538,-0.6534 -1.6088,-1.6097 -0.6538,0.6535 z"
           fill="#000000"
           id="path19" />
        <path
           d="m 10.5778,23.0334 c 0.2283,0.1322 0.5712,0.2459 0.9317,0.2459 0.4511,0 0.7025,-0.2117 0.7025,-0.525 0,-0.2912 -0.1941,-0.4631 -0.6849,-0.6397 -0.6351,-0.2283 -1.0399,-0.5648 -1.0399,-1.1194 0,-0.6286 0.525,-1.1083 1.3597,-1.1083 0.4169,0 0.7256,0.0915 0.9253,0.1941 l -0.1719,0.5657 c -0.1359,-0.0739 -0.4049,-0.183 -0.7645,-0.183 -0.4455,0 -0.6396,0.2403 -0.6396,0.4631 0,0.2967 0.2227,0.4344 0.7367,0.6341 0.6683,0.2514 0.9937,0.5888 0.9937,1.1425 0,0.6166 -0.4687,1.1536 -1.4624,1.1536 -0.4048,0 -0.8282,-0.1137 -1.0399,-0.2394 z"
           fill="#000000"
           id="path20" />
        <path
           d="m 14.0596,22.6045 c 0.0175,0.5029 0.4113,0.7201 0.8568,0.7201 0.3263,0 0.5602,-0.0462 0.7719,-0.1257 l 0.1026,0.4843 c -0.2403,0.0971 -0.5713,0.172 -0.9715,0.172 -0.9031,0 -1.4346,-0.5546 -1.4346,-1.4051 0,-0.7718 0.4686,-1.4965 1.3606,-1.4965 0.9022,0 1.1989,0.7423 1.1989,1.3533 0,0.1321 -0.011,0.2347 -0.0221,0.2967 z m 1.222,-0.4908 c 0.0064,-0.257 -0.1082,-0.6794 -0.5768,-0.6794 -0.4345,0 -0.6166,0.3947 -0.6452,0.6794 z"
           fill="#000000"
           id="path21" />
        <path
           d="M 18.0734,23.7988 18.0272,23.49 h -0.0176 c -0.1719,0.2173 -0.4631,0.3716 -0.8226,0.3716 -0.5593,0 -0.8745,-0.4058 -0.8745,-0.8282 0,-0.7025 0.623,-1.0575 1.6509,-1.051 v -0.0462 c 0,-0.1821 -0.0739,-0.4853 -0.5648,-0.4853 -0.2745,0 -0.5592,0.0859 -0.7487,0.2061 l -0.1368,-0.4566 c 0.2061,-0.1267 0.5648,-0.2459 1.0057,-0.2459 0.8911,0 1.1481,0.5648 1.1481,1.1712 v 1.0057 c 0,0.2505 0.0111,0.4964 0.0397,0.6683 z M 17.981,22.439 c -0.4964,-0.012 -0.9706,0.0962 -0.9706,0.5195 0,0.2746 0.1766,0.4003 0.4002,0.4003 0.2801,0 0.4844,-0.183 0.5482,-0.3827 0.0176,-0.0518 0.0222,-0.1082 0.0222,-0.1544 z"
           fill="#000000"
           id="path22" />
        <path
           d="m 19.4059,21.914 c 0,-0.3771 -0.0064,-0.6452 -0.0231,-0.8976 h 0.611 l 0.0231,0.5316 h 0.0222 c 0.1368,-0.3948 0.4631,-0.5944 0.7598,-0.5944 0.0684,0 0.1082,0.0055 0.1655,0.0175 v 0.6628 c -0.0573,-0.012 -0.1202,-0.0231 -0.2061,-0.0231 -0.3365,0 -0.5648,0.2172 -0.6286,0.5315 -0.0111,0.062 -0.0222,0.1368 -0.0222,0.2163 v 1.4402 H 19.405 Z"
           fill="#000000"
           id="path23" />
        <path
           d="m 23.4311,23.7128 c -0.1479,0.0684 -0.44,0.1424 -0.7885,0.1424 -0.868,0 -1.4346,-0.5547 -1.4346,-1.4162 0,-0.8337 0.5713,-1.4845 1.5483,-1.4845 0.257,0 0.5195,0.0573 0.6794,0.1313 l -0.1257,0.525 c -0.1137,-0.0518 -0.2801,-0.1082 -0.5306,-0.1082 -0.537,0 -0.8578,0.3948 -0.8513,0.9032 0,0.5712 0.3707,0.8966 0.8513,0.8966 0.2459,0 0.4169,-0.0518 0.5547,-0.1082 z"
           fill="#000000"
           id="path24" />
        <path
           d="m 23.9478,19.7427 h 0.708 v 1.6564 h 0.012 c 0.086,-0.1312 0.1997,-0.2403 0.3485,-0.3198 0.1368,-0.0804 0.3023,-0.1257 0.4807,-0.1257 0.4742,0 0.9706,0.3143 0.9706,1.2054 v 1.6389 h -0.7025 v -1.5604 c 0,-0.4048 -0.1489,-0.708 -0.5371,-0.708 -0.2745,0 -0.4687,0.1821 -0.5426,0.3938 -0.0222,0.0573 -0.0287,0.1321 -0.0287,0.2116 v 1.6621 h -0.708 v -4.0543 z"
           fill="#000000"
           id="path25" />
      </g>
    </g>
  </g>
</svg>
