<?xml version="1.0" encoding="UTF-8" standalone="no"?>
<svg
   width="96"
   height="96"
   viewBox="0 0 96 96"
   fill="none"
   version="1.1"
   id="svg9"
   sodipodi:docname="i-CDD-r.svg"
   inkscape:version="1.3.2 (091e20e, 2023-11-25, custom)"
   xmlns:inkscape="http://www.inkscape.org/namespaces/inkscape"
   xmlns:sodipodi="http://sodipodi.sourceforge.net/DTD/sodipodi-0.dtd"
   xmlns="http://www.w3.org/2000/svg"
   xmlns:svg="http://www.w3.org/2000/svg">
  <defs
     id="defs9" />
  <sodipodi:namedview
     id="namedview9"
     pagecolor="#ffffff"
     bordercolor="#000000"
     borderopacity="0.25"
     inkscape:showpageshadow="2"
     inkscape:pageopacity="0.0"
     inkscape:pagecheckerboard="0"
     inkscape:deskcolor="#d1d1d1"
     showgrid="false"
     inkscape:zoom="9.0348837"
     inkscape:cx="30.492922"
     inkscape:cy="50.415702"
     inkscape:window-width="2400"
     inkscape:window-height="1261"
     inkscape:window-x="2391"
     inkscape:window-y="-9"
     inkscape:window-maximized="1"
     inkscape:current-layer="layer1" />
  <g
     inkscape:groupmode="layer"
     id="layer2"
     inkscape:label="Layer 2">
    <g
       inkscape:groupmode="layer"
       id="layer1"
       inkscape:label="Layer 1">
      <rect
         style="fill:#e7f3ff"
         id="rect9"
         width="91.976845"
         height="91.091393"
         x="1.8815961"
         y="2.4350061"
         ry="10.293436" />
      <g
         id="g47"
         transform="translate(18.709138,26.328185)">
        <path
           d="M 59.1596,8.11316 H 0 V 49.536 h 59.1596 z"
           fill="#6c8cc7"
           id="path1" />
        <path
           d="M 0,9.21318 V 1.84874 C 0,0.831932 0.831932,0 1.84874,0 H 57.3062 C 58.323,0 59.155,0.831932 59.155,1.84874 V 9.21225 H 0 Z"
           fill="#d6d6d6"
           id="path2" />
        <path
           d="M 54.4943,7.14906 H 19.8203 L 23.1369,2.06503 H 54.4943 Z"
           fill="#ffffff"
           id="path3" />
        <path
           d="m 6.2286,6.11009 c 0.86839,0 1.57235,-0.70396 1.57235,-1.57235 0,-0.86838 -0.70396,-1.57235 -1.57235,-1.57235 -0.86838,0 -1.57235,0.70397 -1.57235,1.57235 0,0.86839 0.70397,1.57235 1.57235,1.57235 z"
           fill="#c02032"
           id="path4" />
        <path
           d="m 10.3961,6.11009 c 0.8684,0 1.5723,-0.70396 1.5723,-1.57235 0,-0.86838 -0.7039,-1.57235 -1.5723,-1.57235 -0.8684,0 -1.57237,0.70397 -1.57237,1.57235 0,0.86839 0.70397,1.57235 1.57237,1.57235 z"
           fill="#939393"
           id="path5" />
        <path
           d="m 14.565,6.11009 c 0.8684,0 1.5724,-0.70396 1.5724,-1.57235 0,-0.86838 -0.704,-1.57235 -1.5724,-1.57235 -0.8684,0 -1.5723,0.70397 -1.5723,1.57235 0,0.86839 0.7039,1.57235 1.5723,1.57235 z"
           fill="#c9c9c9"
           id="path6" />
        <path
           d="m 24.9144,3.65216 0.2209,0.96042 c 0.0481,0.22554 0.0961,0.45571 0.1349,0.68588 h 0.0093 C 25.3229,5.06829 25.3923,4.8335 25.4533,4.6172 l 0.2736,-0.96504 h 0.4344 l 0.2653,0.93916 c 0.0647,0.24773 0.1211,0.4779 0.1692,0.70806 h 0.0092 c 0.0342,-0.23016 0.0823,-0.46033 0.1387,-0.70806 l 0.2348,-0.93916 h 0.525 L 26.8389,5.76804 H 26.3434 L 26.092,4.90745 C 26.0273,4.68653 25.9792,4.48594 25.9312,4.22989 H 25.9219 C 25.8785,4.49056 25.823,4.69947 25.7611,4.90745 l -0.269,0.86059 H 24.992 L 24.3662,3.65216 Z"
           fill="#000000"
           id="path7" />
        <path
           d="m 28.2386,3.65216 0.2209,0.96042 c 0.0481,0.22554 0.0961,0.45571 0.135,0.68588 h 0.0092 C 28.6472,5.06829 28.7165,4.8335 28.7775,4.6172 l 0.2736,-0.96504 h 0.4345 l 0.2652,0.93916 c 0.0648,0.24773 0.1211,0.4779 0.1692,0.70806 h 0.0092 c 0.0343,-0.23016 0.0823,-0.46033 0.1387,-0.70806 l 0.2348,-0.93916 h 0.525 L 30.1631,5.76804 H 29.6677 L 29.4162,4.90745 C 29.3515,4.68653 29.3035,4.48594 29.2554,4.22989 h -0.0093 c -0.0434,0.26067 -0.0989,0.46958 -0.1608,0.67756 l -0.269,0.86059 H 28.3162 L 27.6904,3.65216 Z"
           fill="#000000"
           id="path8" />
        <path
           d="m 31.5627,3.65216 0.221,0.96042 c 0.048,0.22554 0.0961,0.45571 0.1349,0.68588 h 0.0093 C 31.9713,5.06829 32.0406,4.8335 32.1017,4.6172 l 0.2736,-0.96504 h 0.4344 l 0.2653,0.93916 c 0.0647,0.24773 0.1211,0.4779 0.1692,0.70806 h 0.0092 c 0.0342,-0.23016 0.0823,-0.46033 0.1387,-0.70806 l 0.2348,-0.93916 h 0.525 L 33.4873,5.76804 H 32.9909 L 32.7395,4.90745 C 32.6748,4.68653 32.6267,4.48594 32.5786,4.22989 H 32.5694 C 32.5259,4.49056 32.4705,4.69947 32.4085,4.90745 L 32.1396,5.76804 H 31.6395 L 31.0137,3.65216 Z"
           fill="#000000"
           id="path9" />
        <path
           d="m 34.2378,5.47319 c 0,-0.20059 0.1386,-0.34294 0.33,-0.34294 0.196,0 0.33,0.13865 0.33,0.34294 0,0.19504 -0.1303,0.34294 -0.33,0.34294 -0.1941,0 -0.33,-0.1479 -0.33,-0.34294 z"
           fill="#000000"
           id="path10" />
        <path
           d="M 59.1596,48.5247 H 0 V 50 h 59.1596 z"
           fill="#000000"
           id="path11" />
        <path
           d="M 57.9745,48.5238 H 50.3698 47.0661 38.8937 L 36.8231,46.9496 H 22.3364 l -2.0705,1.5742 H 12.0935 8.78982 1.18504 0 v 1.4753 h 59.1596 v -1.4753 z"
           fill="#403572"
           id="path12" />
        <path
           d="m 50.8808,6.10916 -0.33,-0.32353 1.1425,-1.17395 -1.2109,-1.18134 0.3226,-0.33 1.5419,1.5021 z"
           fill="#000000"
           id="path13" />
        <path
           d="m 51.7681,4.37598 h -3.0523 v 0.46218 h 3.0523 z"
           fill="#000000"
           id="path14" />
        <path
           d="m 14.4004,15.6436 h 0.5625 c -0.0293,0.2695 -0.1065,0.5107 -0.2315,0.7236 -0.125,0.2129 -0.3017,0.3818 -0.5302,0.5068 -0.2285,0.1231 -0.5137,0.1846 -0.8555,0.1846 -0.25,0 -0.4775,-0.0469 -0.6826,-0.1406 -0.2031,-0.0938 -0.3779,-0.2266 -0.5244,-0.3985 -0.1465,-0.1738 -0.2598,-0.3818 -0.3399,-0.624 -0.0781,-0.2441 -0.1172,-0.5156 -0.1172,-0.8144 v -0.4249 c 0,-0.2988 0.0391,-0.5693 0.1172,-0.8115 0.0801,-0.2441 0.1944,-0.4531 0.3428,-0.6269 0.1504,-0.1739 0.3311,-0.3076 0.542,-0.4014 0.2109,-0.0937 0.4482,-0.1406 0.7119,-0.1406 0.3223,0 0.5947,0.0605 0.8174,0.1816 0.2226,0.1211 0.3955,0.2891 0.5185,0.5039 0.125,0.2129 0.2022,0.46 0.2315,0.7412 H 14.4004 C 14.373,13.9033 14.3223,13.7324 14.248,13.5898 14.1738,13.4453 14.0684,13.334 13.9316,13.2559 c -0.1367,-0.0782 -0.3154,-0.1172 -0.5361,-0.1172 -0.1894,0 -0.3564,0.0361 -0.501,0.1084 -0.1425,0.0722 -0.2627,0.1748 -0.3603,0.3076 -0.0957,0.1328 -0.168,0.292 -0.2168,0.4775 -0.0488,0.1856 -0.0733,0.3916 -0.0733,0.6182 v 0.4307 c 0,0.2089 0.0215,0.4052 0.0645,0.5888 0.0449,0.1836 0.1123,0.3447 0.2021,0.4834 0.0899,0.1387 0.2041,0.2481 0.3428,0.3281 0.1387,0.0782 0.3027,0.1172 0.4922,0.1172 0.2402,0 0.4316,-0.0381 0.5742,-0.1142 0.1426,-0.0762 0.25,-0.1856 0.3223,-0.3282 0.0742,-0.1425 0.1269,-0.3134 0.1582,-0.5126 z"
           fill="#ffffff"
           id="path15" />
        <path
           d="m 16.8877,17 h -0.8906 l 0.0058,-0.46 h 0.8848 c 0.3047,0 0.5586,-0.0634 0.7617,-0.1904 0.2031,-0.1289 0.3555,-0.3086 0.457,-0.5391 0.1036,-0.2324 0.1553,-0.5039 0.1553,-0.8144 v -0.2607 c 0,-0.2442 -0.0293,-0.461 -0.0879,-0.6504 C 18.1152,13.8936 18.0293,13.7324 17.916,13.6016 17.8027,13.4688 17.6641,13.3682 17.5,13.2998 17.3379,13.2314 17.1514,13.1973 16.9404,13.1973 h -0.9609 v -0.4629 h 0.9609 c 0.2793,0 0.5342,0.0468 0.7647,0.1406 0.2304,0.0918 0.4287,0.2256 0.5947,0.4014 0.168,0.1738 0.2969,0.3847 0.3867,0.6328 0.0899,0.2461 0.1348,0.5234 0.1348,0.832 v 0.2549 c 0,0.3086 -0.0449,0.5869 -0.1348,0.835 -0.0898,0.246 -0.2197,0.456 -0.3896,0.6298 -0.168,0.1739 -0.3711,0.3077 -0.6094,0.4014 C 17.4512,16.9541 17.1846,17 16.8877,17 Z M 16.2988,12.7344 V 17 h -0.5654 v -4.2656 z"
           fill="#ffffff"
           id="path16" />
        <path
           d="m 20.8252,17 h -0.8906 l 0.0058,-0.46 h 0.8848 c 0.3047,0 0.5586,-0.0634 0.7617,-0.1904 0.2031,-0.1289 0.3555,-0.3086 0.457,-0.5391 0.1036,-0.2324 0.1553,-0.5039 0.1553,-0.8144 v -0.2607 c 0,-0.2442 -0.0293,-0.461 -0.0879,-0.6504 -0.0586,-0.1914 -0.1445,-0.3526 -0.2578,-0.4834 -0.1133,-0.1328 -0.2519,-0.2334 -0.416,-0.3018 -0.1621,-0.0684 -0.3486,-0.1025 -0.5596,-0.1025 H 19.917 v -0.4629 h 0.9609 c 0.2793,0 0.5342,0.0468 0.7647,0.1406 0.2304,0.0918 0.4287,0.2256 0.5947,0.4014 0.168,0.1738 0.2969,0.3847 0.3867,0.6328 0.0899,0.2461 0.1348,0.5234 0.1348,0.832 v 0.2549 c 0,0.3086 -0.0449,0.5869 -0.1348,0.835 -0.0898,0.246 -0.2197,0.456 -0.3896,0.6298 -0.168,0.1739 -0.3711,0.3077 -0.6094,0.4014 C 21.3887,16.9541 21.1221,17 20.8252,17 Z M 20.2363,12.7344 V 17 h -0.5654 v -4.2656 z"
           fill="#ffffff"
           id="path17" />
        <path
           d="m 28.249,14.876 v 1.5615 c -0.0527,0.0781 -0.1367,0.166 -0.2519,0.2637 -0.1153,0.0957 -0.2744,0.1797 -0.4776,0.2519 -0.2011,0.0703 -0.4609,0.1055 -0.7793,0.1055 -0.2597,0 -0.499,-0.0449 -0.7177,-0.1348 C 25.8057,16.832 25.6172,16.6992 25.457,16.5254 25.2988,16.3496 25.1758,16.1367 25.0879,15.8867 25.002,15.6348 24.959,15.3496 24.959,15.0312 v -0.331 c 0,-0.3184 0.0371,-0.6025 0.1113,-0.8525 0.0762,-0.25 0.1875,-0.462 0.334,-0.6358 0.1465,-0.1758 0.3262,-0.3086 0.5391,-0.3984 0.2128,-0.0918 0.457,-0.1377 0.7324,-0.1377 0.3262,0 0.5986,0.0566 0.8174,0.1699 0.2207,0.1113 0.3925,0.2656 0.5156,0.4629 0.125,0.1973 0.2051,0.4219 0.2402,0.6738 h -0.5654 c -0.0254,-0.1543 -0.0762,-0.2949 -0.1524,-0.4219 -0.0742,-0.1269 -0.1806,-0.2285 -0.3193,-0.3046 -0.1387,-0.0782 -0.3174,-0.1172 -0.5361,-0.1172 -0.1973,0 -0.3682,0.0361 -0.5127,0.1084 -0.1445,0.0722 -0.2637,0.1758 -0.3574,0.3105 -0.0938,0.1348 -0.1641,0.2979 -0.211,0.4893 -0.0449,0.1914 -0.0674,0.4072 -0.0674,0.6474 v 0.3369 c 0,0.2461 0.0284,0.4659 0.085,0.6592 0.0586,0.1934 0.1416,0.3584 0.249,0.4951 0.1075,0.1348 0.2354,0.2374 0.3838,0.3077 0.1504,0.0703 0.3164,0.1054 0.4981,0.1054 0.2011,0 0.3642,-0.0166 0.4892,-0.0498 0.125,-0.0351 0.2227,-0.0761 0.293,-0.123 0.0703,-0.0488 0.124,-0.0947 0.1611,-0.1377 V 15.333 h -0.9873 v -0.457 z"
           fill="#ffffff"
           id="path18" />
        <path
           d="m 30.9736,16.458 v -1.6318 c 0,-0.125 -0.0254,-0.2334 -0.0761,-0.3252 -0.0489,-0.0938 -0.1231,-0.166 -0.2227,-0.2168 -0.0996,-0.0508 -0.2227,-0.0762 -0.3691,-0.0762 -0.1368,0 -0.2569,0.0234 -0.3604,0.0703 -0.1015,0.0469 -0.1816,0.1084 -0.2402,0.1846 -0.0567,0.0762 -0.085,0.1582 -0.085,0.2461 h -0.542 c 0,-0.1133 0.0293,-0.2256 0.0879,-0.3369 0.0586,-0.1114 0.1426,-0.2119 0.252,-0.3018 0.1113,-0.0918 0.2441,-0.1641 0.3984,-0.2168 0.1563,-0.0547 0.3301,-0.082 0.5215,-0.082 0.2305,0 0.4336,0.039 0.6094,0.1172 0.1777,0.0781 0.3164,0.1963 0.416,0.3545 0.1015,0.1562 0.1523,0.3525 0.1523,0.5888 v 1.4766 c 0,0.1055 0.0088,0.2178 0.0264,0.3369 0.0195,0.1191 0.0478,0.2217 0.085,0.3076 V 17 h -0.5655 c -0.0273,-0.0625 -0.0488,-0.1455 -0.0644,-0.249 -0.0157,-0.1055 -0.0235,-0.2031 -0.0235,-0.293 z m 0.0938,-1.3799 0.0058,0.3809 h -0.5478 c -0.1543,0 -0.292,0.0127 -0.4131,0.0381 -0.1211,0.0234 -0.2227,0.0595 -0.3047,0.1084 -0.082,0.0488 -0.1445,0.1103 -0.1875,0.1845 -0.043,0.0723 -0.0644,0.1573 -0.0644,0.2549 0,0.0996 0.0224,0.1905 0.0673,0.2725 0.045,0.082 0.1124,0.1474 0.2022,0.1963 0.0918,0.0468 0.2041,0.0703 0.3369,0.0703 0.166,0 0.3125,-0.0352 0.4395,-0.1055 0.1269,-0.0703 0.2275,-0.1562 0.3017,-0.2578 0.0762,-0.1016 0.1172,-0.2002 0.1231,-0.2959 l 0.2314,0.2607 c -0.0137,0.0821 -0.0508,0.1729 -0.1113,0.2725 -0.0606,0.0996 -0.1416,0.1953 -0.2432,0.2871 -0.0996,0.0899 -0.2187,0.1651 -0.3574,0.2256 -0.1367,0.0586 -0.291,0.0879 -0.4629,0.0879 -0.2148,0 -0.4033,-0.042 -0.5654,-0.126 -0.1602,-0.084 -0.2852,-0.1963 -0.375,-0.3369 -0.0879,-0.1426 -0.1319,-0.3018 -0.1319,-0.4775 0,-0.17 0.0332,-0.3194 0.0997,-0.4483 0.0664,-0.1308 0.1621,-0.2392 0.2871,-0.3252 0.125,-0.0879 0.2754,-0.1543 0.4511,-0.1992 0.1758,-0.0449 0.3721,-0.0674 0.5889,-0.0674 z"
           fill="#ffffff"
           id="path19" />
        <path
           d="m 33.6953,13.8301 v 0.416 h -1.7139 v -0.416 z m -1.1338,-0.7705 h 0.542 v 3.1552 c 0,0.1075 0.0166,0.1885 0.0498,0.2432 0.0332,0.0547 0.0762,0.0908 0.1289,0.1084 0.0528,0.0176 0.1094,0.0264 0.1699,0.0264 0.045,0 0.0918,-0.0039 0.1407,-0.0117 0.0508,-0.0098 0.0888,-0.0176 0.1142,-0.0235 L 33.71,17 c -0.043,0.0137 -0.0996,0.0264 -0.17,0.0381 -0.0683,0.0137 -0.1513,0.0205 -0.249,0.0205 -0.1328,0 -0.2549,-0.0264 -0.3662,-0.0791 -0.1113,-0.0527 -0.2002,-0.1406 -0.2666,-0.2637 -0.0644,-0.125 -0.0967,-0.2929 -0.0967,-0.5039 z"
           fill="#ffffff"
           id="path20" />
        <path
           d="m 35.6465,17.0586 c -0.2207,0 -0.4209,-0.0371 -0.6006,-0.1113 -0.1777,-0.0762 -0.3311,-0.1827 -0.46,-0.3194 C 34.459,16.4912 34.3613,16.3291 34.293,16.1416 34.2246,15.9541 34.1904,15.749 34.1904,15.5264 v -0.1231 c 0,-0.2578 0.0381,-0.4873 0.1143,-0.6885 0.0762,-0.2031 0.1797,-0.375 0.3105,-0.5156 0.1309,-0.1406 0.2793,-0.2471 0.4453,-0.3193 0.1661,-0.0723 0.3379,-0.1084 0.5157,-0.1084 0.2265,0 0.4218,0.039 0.5859,0.1172 0.166,0.0781 0.3018,0.1875 0.4072,0.3281 0.1055,0.1387 0.1836,0.3027 0.2344,0.4922 0.0508,0.1875 0.0762,0.3926 0.0762,0.6152 v 0.2432 H 34.5127 V 15.125 h 1.8252 V 15.084 C 36.3301,14.9434 36.3008,14.8066 36.25,14.6738 36.2012,14.541 36.123,14.4316 36.0156,14.3457 c -0.1074,-0.0859 -0.2539,-0.1289 -0.4394,-0.1289 -0.1231,0 -0.2364,0.0264 -0.3399,0.0791 -0.1035,0.0508 -0.1924,0.127 -0.2666,0.2285 -0.0742,0.1016 -0.1318,0.2256 -0.1728,0.3721 -0.041,0.1465 -0.0615,0.3154 -0.0615,0.5068 v 0.1231 c 0,0.1504 0.0205,0.292 0.0615,0.4248 0.0429,0.1308 0.1045,0.2461 0.1845,0.3457 0.0821,0.0996 0.1807,0.1777 0.2959,0.2343 0.1172,0.0567 0.25,0.085 0.3985,0.085 0.1914,0 0.3535,-0.0391 0.4863,-0.1172 0.1328,-0.0781 0.249,-0.1826 0.3486,-0.3135 l 0.3282,0.2608 c -0.0684,0.1035 -0.1553,0.2021 -0.2608,0.2959 -0.1054,0.0937 -0.2353,0.1699 -0.3896,0.2285 -0.1524,0.0586 -0.333,0.0879 -0.542,0.0879 z"
           fill="#ffffff"
           id="path21" />
        <path
           d="m 38.3154,16.4375 0.8145,-2.6074 h 0.3574 L 39.417,14.3486 38.5879,17 H 38.2393 Z M 37.7676,13.8301 38.4619,16.4668 38.5117,17 h -0.3662 l -0.9199,-3.1699 z m 2.499,2.6162 0.6621,-2.6162 h 0.5391 L 40.5479,17 H 40.1846 Z M 39.5664,13.8301 40.3633,16.3936 40.4541,17 h -0.3457 l -0.8525,-2.6572 -0.0704,-0.5127 z"
           fill="#ffffff"
           id="path22" />
        <path
           d="m 43.8936,16.458 v -1.6318 c 0,-0.125 -0.0254,-0.2334 -0.0762,-0.3252 -0.0488,-0.0938 -0.1231,-0.166 -0.2227,-0.2168 -0.0996,-0.0508 -0.2226,-0.0762 -0.3691,-0.0762 -0.1367,0 -0.2568,0.0234 -0.3604,0.0703 -0.1015,0.0469 -0.1816,0.1084 -0.2402,0.1846 -0.0566,0.0762 -0.085,0.1582 -0.085,0.2461 h -0.542 c 0,-0.1133 0.0293,-0.2256 0.0879,-0.3369 0.0586,-0.1114 0.1426,-0.2119 0.252,-0.3018 0.1113,-0.0918 0.2441,-0.1641 0.3984,-0.2168 0.1563,-0.0547 0.3301,-0.082 0.5215,-0.082 0.2305,0 0.4336,0.039 0.6094,0.1172 0.1777,0.0781 0.3164,0.1963 0.416,0.3545 0.1016,0.1562 0.1523,0.3525 0.1523,0.5888 v 1.4766 c 0,0.1055 0.0088,0.2178 0.0264,0.3369 0.0195,0.1191 0.0479,0.2217 0.085,0.3076 V 17 H 43.9814 C 43.9541,16.9375 43.9326,16.8545 43.917,16.751 43.9014,16.6455 43.8936,16.5479 43.8936,16.458 Z m 0.0937,-1.3799 0.0059,0.3809 h -0.5479 c -0.1543,0 -0.292,0.0127 -0.4131,0.0381 -0.1211,0.0234 -0.2226,0.0595 -0.3047,0.1084 -0.082,0.0488 -0.1445,0.1103 -0.1875,0.1845 -0.0429,0.0723 -0.0644,0.1573 -0.0644,0.2549 0,0.0996 0.0224,0.1905 0.0674,0.2725 0.0449,0.082 0.1123,0.1474 0.2021,0.1963 0.0918,0.0468 0.2041,0.0703 0.3369,0.0703 0.166,0 0.3125,-0.0352 0.4395,-0.1055 0.1269,-0.0703 0.2275,-0.1562 0.3017,-0.2578 0.0762,-0.1016 0.1172,-0.2002 0.1231,-0.2959 l 0.2314,0.2607 c -0.0136,0.0821 -0.0507,0.1729 -0.1113,0.2725 -0.0605,0.0996 -0.1416,0.1953 -0.2432,0.2871 -0.0996,0.0899 -0.2187,0.1651 -0.3574,0.2256 -0.1367,0.0586 -0.291,0.0879 -0.4629,0.0879 -0.2148,0 -0.4033,-0.042 -0.5654,-0.126 -0.1602,-0.084 -0.2852,-0.1963 -0.375,-0.3369 -0.0879,-0.1426 -0.1318,-0.3018 -0.1318,-0.4775 0,-0.17 0.0332,-0.3194 0.0996,-0.4483 0.0664,-0.1308 0.1621,-0.2392 0.2871,-0.3252 0.125,-0.0879 0.2754,-0.1543 0.4512,-0.1992 0.1757,-0.0449 0.372,-0.0674 0.5888,-0.0674 z"
           fill="#ffffff"
           id="path23" />
        <path
           d="m 46.1318,16.6719 0.8819,-2.8418 h 0.5801 l -1.2715,3.6592 c -0.0293,0.0781 -0.0684,0.1621 -0.1172,0.2519 -0.0469,0.0918 -0.1074,0.1787 -0.1817,0.2608 -0.0742,0.082 -0.164,0.1484 -0.2695,0.1992 -0.1035,0.0527 -0.2275,0.0791 -0.3721,0.0791 -0.0429,0 -0.0976,-0.0059 -0.164,-0.0176 -0.0664,-0.0117 -0.1133,-0.0215 -0.1407,-0.0293 l -0.0029,-0.4395 c 0.0156,0.002 0.0401,0.004 0.0733,0.0059 0.0351,0.0039 0.0595,0.0059 0.0732,0.0059 0.1231,0 0.2275,-0.0166 0.3135,-0.0498 0.0859,-0.0313 0.1582,-0.085 0.2168,-0.1612 0.0605,-0.0742 0.1123,-0.1767 0.1552,-0.3076 z m -0.6474,-2.8418 0.8232,2.4609 0.1406,0.5713 -0.3896,0.1992 -1.166,-3.2314 z"
           fill="#ffffff"
           id="path24" />
        <rect
           x="6"
           y="21"
           width="48"
           height="22"
           rx="2"
           fill="#ffffff"
           id="rect24" />
        <path
           d="m 34.566,29.1992 h -9.7286 v 6.3166 h 9.7286 z"
           fill="#cccccc"
           id="path25" />
        <path
           d="m 31.476,29.1977 h -3.56 v 6.3177 h 3.56 z"
           fill="#ffffff"
           id="path26" />
        <path
           d="m 24.9717,29.3294 h -0.2476 v 6.1056 h 0.2476 z"
           fill="#666666"
           id="path27" />
        <path
           d="m 26.1787,29.3297 h -0.2475 v 6.1057 h 0.2475 z"
           fill="#666666"
           id="path28" />
        <path
           d="m 28.0503,29.3297 h -0.2476 v 6.1057 h 0.2476 z"
           fill="#666666"
           id="path29" />
        <path
           d="m 34.6787,29.3294 h -0.2475 v 6.1056 h 0.2475 z"
           fill="#666666"
           id="path30" />
        <path
           d="m 33.4717,29.3297 h -0.2476 v 6.1057 h 0.2476 z"
           fill="#666666"
           id="path31" />
        <path
           d="m 31.6001,29.3297 h -0.2476 v 6.1057 h 0.2476 z"
           fill="#666666"
           id="path32" />
        <path
           d="M 24.8901,27.0886 29.7037,25 l 4.8135,2.0886"
           fill="#cccccc"
           id="path33" />
        <path
           d="M 35.4029,35.3882 H 24 v 2.2477 h 11.4029 z"
           fill="#999999"
           id="path34" />
        <path
           d="M 35.4029,27.0887 H 24 v 2.2477 h 11.4029 z"
           fill="#403572"
           id="path35" />
        <path
           d="m 31.0074,27.8083 h -2.6119 v 0.8077 h 2.6119 z"
           fill="#c02032"
           id="path36" />
        <g
           opacity="0.3"
           id="g37">
          <path
             d="m 34.6532,29.3363 h -3.2758 v 0.7027 h 3.2758 z"
             fill="#666666"
             id="path37" />
        </g>
        <g
           opacity="0.3"
           id="g38">
          <path
             d="m 28.0253,29.3401 -3.2758,-0.0079 -0.0017,0.7027 3.2758,0.0079 z"
             fill="#666666"
             id="path38" />
        </g>
        <path
           d="M 36.0155,38.4374 35.4595,38.9961 37.454,41 38.01,40.4414 Z"
           fill="#000000"
           id="path39" />
        <path
           d="m 34.0282,39.3474 c -1.5972,0 -2.892,-1.2948 -2.892,-2.892 0,-1.5972 1.2948,-2.892 2.892,-2.892 1.5973,0 2.8921,1.2948 2.8921,2.892 -0.0018,1.5965 -1.2956,2.8903 -2.8921,2.892 z"
           fill="#ffffff"
           id="path40" />
        <path
           d="m 34.0284,33.8554 c 1.4359,-1e-4 2.6001,1.1639 2.6002,2.5998 1e-4,1.4359 -1.1639,2.6001 -2.5998,2.6002 -1.4359,1e-4 -2.6,-1.1639 -2.6001,-2.5998 0,-10e-5 0,-10e-5 0,-2e-4 0.0016,-1.4352 1.1645,-2.5982 2.5997,-2.6 z m 0,-0.5925 c -1.7631,0 -3.1925,1.4293 -3.1925,3.1925 0,1.7632 1.4294,3.1925 3.1925,3.1925 1.7632,0 3.1925,-1.4293 3.1925,-3.1925 0,-1.7632 -1.4293,-3.1925 -3.1925,-3.1925 z"
           fill="#e21b1b"
           id="path41" />
        <path
           d="m 33.8585,38.0704 v -0.383 C 33.6413,37.6848 33.4284,37.625 33.2397,37.5137 l 0.1031,-0.3711 c 0.1807,0.1105 0.3862,0.1704 0.5961,0.1737 0.2405,0 0.4047,-0.1224 0.4047,-0.3118 0,-0.1779 -0.1346,-0.2924 -0.4165,-0.399 -0.401,-0.15 -0.6608,-0.3396 -0.6608,-0.7069 0.0073,-0.3542 0.2736,-0.6446 0.6153,-0.6713 v -0.3869 h 0.3134 v 0.3673 c 0.1829,0.0021 0.363,0.0466 0.527,0.1302 l -0.103,0.3633 c -0.1603,-0.0869 -0.3382,-0.133 -0.5192,-0.1344 -0.2674,0 -0.363,0.1423 -0.363,0.2765 0,0.162 0.1377,0.2526 0.4615,0.387 0.4278,0.166 0.6189,0.379 0.6189,0.7306 -0.0076,0.3714 -0.2873,0.6758 -0.6457,0.7028 v 0.4067 z"
           fill="#000000"
           id="path42" />
        <path
           d="M 36.0155,38.4374 35.4595,38.9961 37.454,41 38.01,40.4414 Z"
           fill="#cccccc"
           id="path43" />
        <path
           d="m 34.0284,33.8554 c 1.4359,-1e-4 2.6001,1.1639 2.6002,2.5998 1e-4,1.4359 -1.1639,2.6001 -2.5998,2.6002 -1.4359,1e-4 -2.6,-1.1639 -2.6001,-2.5998 0,-10e-5 0,-10e-5 0,-2e-4 0.0016,-1.4352 1.1645,-2.5982 2.5997,-2.6 z m 0,-0.5925 c -1.7631,0 -3.1925,1.4293 -3.1925,3.1925 0,1.7632 1.4294,3.1925 3.1925,3.1925 1.7632,0 3.1925,-1.4293 3.1925,-3.1925 0,-1.7632 -1.4293,-3.1925 -3.1925,-3.1925 z"
           fill="#000000"
           id="path44" />
        <path
           d="m 33.8585,38.0704 v -0.383 C 33.6413,37.6848 33.4284,37.625 33.2397,37.5137 l 0.1031,-0.3711 c 0.1807,0.1105 0.3862,0.1704 0.5961,0.1737 0.2405,0 0.4047,-0.1224 0.4047,-0.3118 0,-0.1779 -0.1346,-0.2924 -0.4165,-0.399 -0.401,-0.15 -0.6608,-0.3396 -0.6608,-0.7069 0.0073,-0.3542 0.2736,-0.6446 0.6153,-0.6713 v -0.3869 h 0.3134 v 0.3673 c 0.1829,0.0021 0.363,0.0466 0.527,0.1302 l -0.103,0.3633 c -0.1603,-0.0869 -0.3382,-0.133 -0.5192,-0.1344 -0.2674,0 -0.363,0.1423 -0.363,0.2765 0,0.162 0.1377,0.2526 0.4615,0.387 0.4278,0.166 0.6189,0.379 0.6189,0.7306 -0.0076,0.3714 -0.2873,0.6758 -0.6457,0.7028 v 0.4067 z"
           fill="#000000"
           id="path45" />
        <path
           d="M 36.9056,41.4669 38.4668,39.9057 37.5611,39 35.9999,40.5612 Z"
           fill="#000000"
           id="path46" />
        <path
           d="m 37.4422,42.0001 1.5612,-1.5612 -0.5345,-0.5346 -1.5612,1.5612 z"
           fill="#cccccc"
           id="path47" />
      </g>
    </g>
  </g>
</svg>
