<svg width="60" height="50" viewBox="0 0 60 50" fill="none" xmlns="http://www.w3.org/2000/svg">
<path d="M59.1596 8.11316H0V49.536H59.1596V8.11316Z" fill="#6C8CC7"/>
<path d="M0 9.21318V1.84874C0 0.831932 0.831932 0 1.84874 0H57.3062C58.323 0 59.155 0.831932 59.155 1.84874V9.21225H0V9.21318Z" fill="#D6D6D6"/>
<path d="M54.4943 7.14906H19.8203L23.1369 2.06503H54.4943V7.14906Z" fill="white"/>
<path d="M6.2286 6.11009C7.09699 6.11009 7.80095 5.40613 7.80095 4.53774C7.80095 3.66936 7.09699 2.96539 6.2286 2.96539C5.36022 2.96539 4.65625 3.66936 4.65625 4.53774C4.65625 5.40613 5.36022 6.11009 6.2286 6.11009Z" fill="#C02032"/>
<path d="M10.3961 6.11009C11.2645 6.11009 11.9684 5.40613 11.9684 4.53774C11.9684 3.66936 11.2645 2.96539 10.3961 2.96539C9.5277 2.96539 8.82373 3.66936 8.82373 4.53774C8.82373 5.40613 9.5277 6.11009 10.3961 6.11009Z" fill="#939393"/>
<path d="M14.565 6.11009C15.4334 6.11009 16.1374 5.40613 16.1374 4.53774C16.1374 3.66936 15.4334 2.96539 14.565 2.96539C13.6966 2.96539 12.9927 3.66936 12.9927 4.53774C12.9927 5.40613 13.6966 6.11009 14.565 6.11009Z" fill="#C9C9C9"/>
<path d="M24.9144 3.65216L25.1353 4.61258C25.1834 4.83812 25.2314 5.06829 25.2702 5.29846H25.2795C25.3229 5.06829 25.3923 4.8335 25.4533 4.6172L25.7269 3.65216H26.1613L26.4266 4.59132C26.4913 4.83905 26.5477 5.06922 26.5958 5.29938H26.605C26.6392 5.06922 26.6873 4.83905 26.7437 4.59132L26.9785 3.65216H27.5035L26.8389 5.76804H26.3434L26.092 4.90745C26.0273 4.68653 25.9792 4.48594 25.9312 4.22989H25.9219C25.8785 4.49056 25.823 4.69947 25.7611 4.90745L25.4921 5.76804H24.992L24.3662 3.65216H24.9144Z" fill="black"/>
<path d="M28.2386 3.65216L28.4595 4.61258C28.5076 4.83812 28.5556 5.06829 28.5945 5.29846H28.6037C28.6472 5.06829 28.7165 4.8335 28.7775 4.6172L29.0511 3.65216H29.4856L29.7508 4.59132C29.8156 4.83905 29.8719 5.06922 29.92 5.29938H29.9292C29.9635 5.06922 30.0115 4.83905 30.0679 4.59132L30.3027 3.65216H30.8277L30.1631 5.76804H29.6677L29.4162 4.90745C29.3515 4.68653 29.3035 4.48594 29.2554 4.22989H29.2461C29.2027 4.49056 29.1472 4.69947 29.0853 4.90745L28.8163 5.76804H28.3162L27.6904 3.65216H28.2386Z" fill="black"/>
<path d="M31.5627 3.65216L31.7837 4.61258C31.8317 4.83812 31.8798 5.06829 31.9186 5.29846H31.9279C31.9713 5.06829 32.0406 4.8335 32.1017 4.6172L32.3753 3.65216H32.8097L33.075 4.59132C33.1397 4.83905 33.1961 5.06922 33.2442 5.29938H33.2534C33.2876 5.06922 33.3357 4.83905 33.3921 4.59132L33.6269 3.65216H34.1519L33.4873 5.76804H32.9909L32.7395 4.90745C32.6748 4.68653 32.6267 4.48594 32.5786 4.22989H32.5694C32.5259 4.49056 32.4705 4.69947 32.4085 4.90745L32.1396 5.76804H31.6395L31.0137 3.65216H31.5627Z" fill="black"/>
<path d="M34.2378 5.47319C34.2378 5.2726 34.3764 5.13025 34.5678 5.13025C34.7638 5.13025 34.8978 5.2689 34.8978 5.47319C34.8978 5.66823 34.7675 5.81613 34.5678 5.81613C34.3737 5.81613 34.2378 5.66823 34.2378 5.47319Z" fill="black"/>
<path d="M59.1596 48.5247H0V50H59.1596V48.5247Z" fill="black"/>
<path d="M57.9745 48.5238H50.3698H47.0661H38.8937L36.8231 46.9496H22.3364L20.2659 48.5238H12.0935H8.78982H1.18504H0V49.9991H59.1596V48.5238H57.9745Z" fill="#403572"/>
<path d="M50.8808 6.10916L50.5508 5.78563L51.6933 4.61168L50.4824 3.43034L50.805 3.10034L52.3469 4.60244L50.8808 6.10916Z" fill="black"/>
<path d="M51.7681 4.37598H48.7158V4.83816H51.7681V4.37598Z" fill="black"/>
<path d="M14.4004 15.6436H14.9629C14.9336 15.9131 14.8564 16.1543 14.7314 16.3672C14.6064 16.5801 14.4297 16.749 14.2012 16.874C13.9727 16.9971 13.6875 17.0586 13.3457 17.0586C13.0957 17.0586 12.8682 17.0117 12.6631 16.918C12.46 16.8242 12.2852 16.6914 12.1387 16.5195C11.9922 16.3457 11.8789 16.1377 11.7988 15.8955C11.7207 15.6514 11.6816 15.3799 11.6816 15.0811V14.6562C11.6816 14.3574 11.7207 14.0869 11.7988 13.8447C11.8789 13.6006 11.9932 13.3916 12.1416 13.2178C12.292 13.0439 12.4727 12.9102 12.6836 12.8164C12.8945 12.7227 13.1318 12.6758 13.3955 12.6758C13.7178 12.6758 13.9902 12.7363 14.2129 12.8574C14.4355 12.9785 14.6084 13.1465 14.7314 13.3613C14.8564 13.5742 14.9336 13.8213 14.9629 14.1025H14.4004C14.373 13.9033 14.3223 13.7324 14.248 13.5898C14.1738 13.4453 14.0684 13.334 13.9316 13.2559C13.7949 13.1777 13.6162 13.1387 13.3955 13.1387C13.2061 13.1387 13.0391 13.1748 12.8945 13.2471C12.752 13.3193 12.6318 13.4219 12.5342 13.5547C12.4385 13.6875 12.3662 13.8467 12.3174 14.0322C12.2686 14.2178 12.2441 14.4238 12.2441 14.6504V15.0811C12.2441 15.29 12.2656 15.4863 12.3086 15.6699C12.3535 15.8535 12.4209 16.0146 12.5107 16.1533C12.6006 16.292 12.7148 16.4014 12.8535 16.4814C12.9922 16.5596 13.1562 16.5986 13.3457 16.5986C13.5859 16.5986 13.7773 16.5605 13.9199 16.4844C14.0625 16.4082 14.1699 16.2988 14.2422 16.1562C14.3164 16.0137 14.3691 15.8428 14.4004 15.6436Z" fill="white"/>
<path d="M16.8877 17H15.9971L16.0029 16.54H16.8877C17.1924 16.54 17.4463 16.4766 17.6494 16.3496C17.8525 16.2207 18.0049 16.041 18.1064 15.8105C18.21 15.5781 18.2617 15.3066 18.2617 14.9961V14.7354C18.2617 14.4912 18.2324 14.2744 18.1738 14.085C18.1152 13.8936 18.0293 13.7324 17.916 13.6016C17.8027 13.4688 17.6641 13.3682 17.5 13.2998C17.3379 13.2314 17.1514 13.1973 16.9404 13.1973H15.9795V12.7344H16.9404C17.2197 12.7344 17.4746 12.7812 17.7051 12.875C17.9355 12.9668 18.1338 13.1006 18.2998 13.2764C18.4678 13.4502 18.5967 13.6611 18.6865 13.9092C18.7764 14.1553 18.8213 14.4326 18.8213 14.7412V14.9961C18.8213 15.3047 18.7764 15.583 18.6865 15.8311C18.5967 16.0771 18.4668 16.2871 18.2969 16.4609C18.1289 16.6348 17.9258 16.7686 17.6875 16.8623C17.4512 16.9541 17.1846 17 16.8877 17ZM16.2988 12.7344V17H15.7334V12.7344H16.2988Z" fill="white"/>
<path d="M20.8252 17H19.9346L19.9404 16.54H20.8252C21.1299 16.54 21.3838 16.4766 21.5869 16.3496C21.79 16.2207 21.9424 16.041 22.0439 15.8105C22.1475 15.5781 22.1992 15.3066 22.1992 14.9961V14.7354C22.1992 14.4912 22.1699 14.2744 22.1113 14.085C22.0527 13.8936 21.9668 13.7324 21.8535 13.6016C21.7402 13.4688 21.6016 13.3682 21.4375 13.2998C21.2754 13.2314 21.0889 13.1973 20.8779 13.1973H19.917V12.7344H20.8779C21.1572 12.7344 21.4121 12.7812 21.6426 12.875C21.873 12.9668 22.0713 13.1006 22.2373 13.2764C22.4053 13.4502 22.5342 13.6611 22.624 13.9092C22.7139 14.1553 22.7588 14.4326 22.7588 14.7412V14.9961C22.7588 15.3047 22.7139 15.583 22.624 15.8311C22.5342 16.0771 22.4043 16.2871 22.2344 16.4609C22.0664 16.6348 21.8633 16.7686 21.625 16.8623C21.3887 16.9541 21.1221 17 20.8252 17ZM20.2363 12.7344V17H19.6709V12.7344H20.2363Z" fill="white"/>
<path d="M28.249 14.876V16.4375C28.1963 16.5156 28.1123 16.6035 27.9971 16.7012C27.8818 16.7969 27.7227 16.8809 27.5195 16.9531C27.3184 17.0234 27.0586 17.0586 26.7402 17.0586C26.4805 17.0586 26.2412 17.0137 26.0225 16.9238C25.8057 16.832 25.6172 16.6992 25.457 16.5254C25.2988 16.3496 25.1758 16.1367 25.0879 15.8867C25.002 15.6348 24.959 15.3496 24.959 15.0312V14.7002C24.959 14.3818 24.9961 14.0977 25.0703 13.8477C25.1465 13.5977 25.2578 13.3857 25.4043 13.2119C25.5508 13.0361 25.7305 12.9033 25.9434 12.8135C26.1562 12.7217 26.4004 12.6758 26.6758 12.6758C27.002 12.6758 27.2744 12.7324 27.4932 12.8457C27.7139 12.957 27.8857 13.1113 28.0088 13.3086C28.1338 13.5059 28.2139 13.7305 28.249 13.9824H27.6836C27.6582 13.8281 27.6074 13.6875 27.5312 13.5605C27.457 13.4336 27.3506 13.332 27.2119 13.2559C27.0732 13.1777 26.8945 13.1387 26.6758 13.1387C26.4785 13.1387 26.3076 13.1748 26.1631 13.2471C26.0186 13.3193 25.8994 13.4229 25.8057 13.5576C25.7119 13.6924 25.6416 13.8555 25.5947 14.0469C25.5498 14.2383 25.5273 14.4541 25.5273 14.6943V15.0312C25.5273 15.2773 25.5557 15.4971 25.6123 15.6904C25.6709 15.8838 25.7539 16.0488 25.8613 16.1855C25.9688 16.3203 26.0967 16.4229 26.2451 16.4932C26.3955 16.5635 26.5615 16.5986 26.7432 16.5986C26.9443 16.5986 27.1074 16.582 27.2324 16.5488C27.3574 16.5137 27.4551 16.4727 27.5254 16.4258C27.5957 16.377 27.6494 16.3311 27.6865 16.2881V15.333H26.6992V14.876H28.249Z" fill="white"/>
<path d="M30.9736 16.458V14.8262C30.9736 14.7012 30.9482 14.5928 30.8975 14.501C30.8486 14.4072 30.7744 14.335 30.6748 14.2842C30.5752 14.2334 30.4521 14.208 30.3057 14.208C30.1689 14.208 30.0488 14.2314 29.9453 14.2783C29.8438 14.3252 29.7637 14.3867 29.7051 14.4629C29.6484 14.5391 29.6201 14.6211 29.6201 14.709H29.0781C29.0781 14.5957 29.1074 14.4834 29.166 14.3721C29.2246 14.2607 29.3086 14.1602 29.418 14.0703C29.5293 13.9785 29.6621 13.9062 29.8164 13.8535C29.9727 13.7988 30.1465 13.7715 30.3379 13.7715C30.5684 13.7715 30.7715 13.8105 30.9473 13.8887C31.125 13.9668 31.2637 14.085 31.3633 14.2432C31.4648 14.3994 31.5156 14.5957 31.5156 14.832V16.3086C31.5156 16.4141 31.5244 16.5264 31.542 16.6455C31.5615 16.7646 31.5898 16.8672 31.627 16.9531V17H31.0615C31.0342 16.9375 31.0127 16.8545 30.9971 16.751C30.9814 16.6455 30.9736 16.5479 30.9736 16.458ZM31.0674 15.0781L31.0732 15.459H30.5254C30.3711 15.459 30.2334 15.4717 30.1123 15.4971C29.9912 15.5205 29.8896 15.5566 29.8076 15.6055C29.7256 15.6543 29.6631 15.7158 29.6201 15.79C29.5771 15.8623 29.5557 15.9473 29.5557 16.0449C29.5557 16.1445 29.5781 16.2354 29.623 16.3174C29.668 16.3994 29.7354 16.4648 29.8252 16.5137C29.917 16.5605 30.0293 16.584 30.1621 16.584C30.3281 16.584 30.4746 16.5488 30.6016 16.4785C30.7285 16.4082 30.8291 16.3223 30.9033 16.2207C30.9795 16.1191 31.0205 16.0205 31.0264 15.9248L31.2578 16.1855C31.2441 16.2676 31.207 16.3584 31.1465 16.458C31.0859 16.5576 31.0049 16.6533 30.9033 16.7451C30.8037 16.835 30.6846 16.9102 30.5459 16.9707C30.4092 17.0293 30.2549 17.0586 30.083 17.0586C29.8682 17.0586 29.6797 17.0166 29.5176 16.9326C29.3574 16.8486 29.2324 16.7363 29.1426 16.5957C29.0547 16.4531 29.0107 16.2939 29.0107 16.1182C29.0107 15.9482 29.0439 15.7988 29.1104 15.6699C29.1768 15.5391 29.2725 15.4307 29.3975 15.3447C29.5225 15.2568 29.6729 15.1904 29.8486 15.1455C30.0244 15.1006 30.2207 15.0781 30.4375 15.0781H31.0674Z" fill="white"/>
<path d="M33.6953 13.8301V14.2461H31.9814V13.8301H33.6953ZM32.5615 13.0596H33.1035V16.2148C33.1035 16.3223 33.1201 16.4033 33.1533 16.458C33.1865 16.5127 33.2295 16.5488 33.2822 16.5664C33.335 16.584 33.3916 16.5928 33.4521 16.5928C33.4971 16.5928 33.5439 16.5889 33.5928 16.5811C33.6436 16.5713 33.6816 16.5635 33.707 16.5576L33.71 17C33.667 17.0137 33.6104 17.0264 33.54 17.0381C33.4717 17.0518 33.3887 17.0586 33.291 17.0586C33.1582 17.0586 33.0361 17.0322 32.9248 16.9795C32.8135 16.9268 32.7246 16.8389 32.6582 16.7158C32.5938 16.5908 32.5615 16.4229 32.5615 16.2119V13.0596Z" fill="white"/>
<path d="M35.6465 17.0586C35.4258 17.0586 35.2256 17.0215 35.0459 16.9473C34.8682 16.8711 34.7148 16.7646 34.5859 16.6279C34.459 16.4912 34.3613 16.3291 34.293 16.1416C34.2246 15.9541 34.1904 15.749 34.1904 15.5264V15.4033C34.1904 15.1455 34.2285 14.916 34.3047 14.7148C34.3809 14.5117 34.4844 14.3398 34.6152 14.1992C34.7461 14.0586 34.8945 13.9521 35.0605 13.8799C35.2266 13.8076 35.3984 13.7715 35.5762 13.7715C35.8027 13.7715 35.998 13.8105 36.1621 13.8887C36.3281 13.9668 36.4639 14.0762 36.5693 14.2168C36.6748 14.3555 36.7529 14.5195 36.8037 14.709C36.8545 14.8965 36.8799 15.1016 36.8799 15.3242V15.5674H34.5127V15.125H36.3379V15.084C36.3301 14.9434 36.3008 14.8066 36.25 14.6738C36.2012 14.541 36.123 14.4316 36.0156 14.3457C35.9082 14.2598 35.7617 14.2168 35.5762 14.2168C35.4531 14.2168 35.3398 14.2432 35.2363 14.2959C35.1328 14.3467 35.0439 14.4229 34.9697 14.5244C34.8955 14.626 34.8379 14.75 34.7969 14.8965C34.7559 15.043 34.7354 15.2119 34.7354 15.4033V15.5264C34.7354 15.6768 34.7559 15.8184 34.7969 15.9512C34.8398 16.082 34.9014 16.1973 34.9814 16.2969C35.0635 16.3965 35.1621 16.4746 35.2773 16.5312C35.3945 16.5879 35.5273 16.6162 35.6758 16.6162C35.8672 16.6162 36.0293 16.5771 36.1621 16.499C36.2949 16.4209 36.4111 16.3164 36.5107 16.1855L36.8389 16.4463C36.7705 16.5498 36.6836 16.6484 36.5781 16.7422C36.4727 16.8359 36.3428 16.9121 36.1885 16.9707C36.0361 17.0293 35.8555 17.0586 35.6465 17.0586Z" fill="white"/>
<path d="M38.3154 16.4375L39.1299 13.8301H39.4873L39.417 14.3486L38.5879 17H38.2393L38.3154 16.4375ZM37.7676 13.8301L38.4619 16.4668L38.5117 17H38.1455L37.2256 13.8301H37.7676ZM40.2666 16.4463L40.9287 13.8301H41.4678L40.5479 17H40.1846L40.2666 16.4463ZM39.5664 13.8301L40.3633 16.3936L40.4541 17H40.1084L39.2559 14.3428L39.1855 13.8301H39.5664Z" fill="white"/>
<path d="M43.8936 16.458V14.8262C43.8936 14.7012 43.8682 14.5928 43.8174 14.501C43.7686 14.4072 43.6943 14.335 43.5947 14.2842C43.4951 14.2334 43.3721 14.208 43.2256 14.208C43.0889 14.208 42.9688 14.2314 42.8652 14.2783C42.7637 14.3252 42.6836 14.3867 42.625 14.4629C42.5684 14.5391 42.54 14.6211 42.54 14.709H41.998C41.998 14.5957 42.0273 14.4834 42.0859 14.3721C42.1445 14.2607 42.2285 14.1602 42.3379 14.0703C42.4492 13.9785 42.582 13.9062 42.7363 13.8535C42.8926 13.7988 43.0664 13.7715 43.2578 13.7715C43.4883 13.7715 43.6914 13.8105 43.8672 13.8887C44.0449 13.9668 44.1836 14.085 44.2832 14.2432C44.3848 14.3994 44.4355 14.5957 44.4355 14.832V16.3086C44.4355 16.4141 44.4443 16.5264 44.4619 16.6455C44.4814 16.7646 44.5098 16.8672 44.5469 16.9531V17H43.9814C43.9541 16.9375 43.9326 16.8545 43.917 16.751C43.9014 16.6455 43.8936 16.5479 43.8936 16.458ZM43.9873 15.0781L43.9932 15.459H43.4453C43.291 15.459 43.1533 15.4717 43.0322 15.4971C42.9111 15.5205 42.8096 15.5566 42.7275 15.6055C42.6455 15.6543 42.583 15.7158 42.54 15.79C42.4971 15.8623 42.4756 15.9473 42.4756 16.0449C42.4756 16.1445 42.498 16.2354 42.543 16.3174C42.5879 16.3994 42.6553 16.4648 42.7451 16.5137C42.8369 16.5605 42.9492 16.584 43.082 16.584C43.248 16.584 43.3945 16.5488 43.5215 16.4785C43.6484 16.4082 43.749 16.3223 43.8232 16.2207C43.8994 16.1191 43.9404 16.0205 43.9463 15.9248L44.1777 16.1855C44.1641 16.2676 44.127 16.3584 44.0664 16.458C44.0059 16.5576 43.9248 16.6533 43.8232 16.7451C43.7236 16.835 43.6045 16.9102 43.4658 16.9707C43.3291 17.0293 43.1748 17.0586 43.0029 17.0586C42.7881 17.0586 42.5996 17.0166 42.4375 16.9326C42.2773 16.8486 42.1523 16.7363 42.0625 16.5957C41.9746 16.4531 41.9307 16.2939 41.9307 16.1182C41.9307 15.9482 41.9639 15.7988 42.0303 15.6699C42.0967 15.5391 42.1924 15.4307 42.3174 15.3447C42.4424 15.2568 42.5928 15.1904 42.7686 15.1455C42.9443 15.1006 43.1406 15.0781 43.3574 15.0781H43.9873Z" fill="white"/>
<path d="M46.1318 16.6719L47.0137 13.8301H47.5938L46.3223 17.4893C46.293 17.5674 46.2539 17.6514 46.2051 17.7412C46.1582 17.833 46.0977 17.9199 46.0234 18.002C45.9492 18.084 45.8594 18.1504 45.7539 18.2012C45.6504 18.2539 45.5264 18.2803 45.3818 18.2803C45.3389 18.2803 45.2842 18.2744 45.2178 18.2627C45.1514 18.251 45.1045 18.2412 45.0771 18.2334L45.0742 17.7939C45.0898 17.7959 45.1143 17.7979 45.1475 17.7998C45.1826 17.8037 45.207 17.8057 45.2207 17.8057C45.3438 17.8057 45.4482 17.7891 45.5342 17.7559C45.6201 17.7246 45.6924 17.6709 45.751 17.5947C45.8115 17.5205 45.8633 17.418 45.9062 17.2871L46.1318 16.6719ZM45.4844 13.8301L46.3076 16.291L46.4482 16.8623L46.0586 17.0615L44.8926 13.8301H45.4844Z" fill="white"/>
<rect x="6" y="21" width="48" height="22" rx="2" fill="white"/>
<path d="M34.566 29.1992H24.8374V35.5158H34.566V29.1992Z" fill="#CCCCCC"/>
<path d="M31.476 29.1977H27.916V35.5154H31.476V29.1977Z" fill="white"/>
<path d="M24.9717 29.3294H24.7241V35.435H24.9717V29.3294Z" fill="#666666"/>
<path d="M26.1787 29.3297H25.9312V35.4354H26.1787V29.3297Z" fill="#666666"/>
<path d="M28.0503 29.3297H27.8027V35.4354H28.0503V29.3297Z" fill="#666666"/>
<path d="M34.6787 29.3294H34.4312V35.435H34.6787V29.3294Z" fill="#666666"/>
<path d="M33.4717 29.3297H33.2241V35.4354H33.4717V29.3297Z" fill="#666666"/>
<path d="M31.6001 29.3297H31.3525V35.4354H31.6001V29.3297Z" fill="#666666"/>
<path d="M24.8901 27.0886L29.7037 25L34.5172 27.0886" fill="#CCCCCC"/>
<path d="M35.4029 35.3882H24V37.6359H35.4029V35.3882Z" fill="#999999"/>
<path d="M35.4029 27.0887H24V29.3364H35.4029V27.0887Z" fill="#403572"/>
<path d="M31.0074 27.8083H28.3955V28.616H31.0074V27.8083Z" fill="#C02032"/>
<g opacity="0.3">
<path d="M34.6532 29.3363H31.3774V30.039H34.6532V29.3363Z" fill="#666666"/>
</g>
<g opacity="0.3">
<path d="M28.0253 29.3401L24.7495 29.3322L24.7478 30.0349L28.0236 30.0428L28.0253 29.3401Z" fill="#666666"/>
</g>
<path d="M36.0155 38.4374L35.4595 38.9961L37.454 41L38.01 40.4414L36.0155 38.4374Z" fill="black"/>
<path d="M34.0282 39.3474C32.431 39.3474 31.1362 38.0526 31.1362 36.4554C31.1362 34.8582 32.431 33.5634 34.0282 33.5634C35.6255 33.5634 36.9203 34.8582 36.9203 36.4554C36.9185 38.0519 35.6247 39.3457 34.0282 39.3474Z" fill="white"/>
<path d="M34.0284 33.8554C35.4643 33.8553 36.6285 35.0193 36.6286 36.4552C36.6287 37.8911 35.4647 39.0553 34.0288 39.0554C32.5929 39.0555 31.4288 37.8915 31.4287 36.4556C31.4287 36.4555 31.4287 36.4555 31.4287 36.4554C31.4303 35.0202 32.5932 33.8572 34.0284 33.8554ZM34.0284 33.2629C32.2653 33.2629 30.8359 34.6922 30.8359 36.4554C30.8359 38.2186 32.2653 39.6479 34.0284 39.6479C35.7916 39.6479 37.2209 38.2186 37.2209 36.4554C37.2209 34.6922 35.7916 33.2629 34.0284 33.2629Z" fill="#E21B1B"/>
<path d="M33.8585 38.0704V37.6874C33.6413 37.6848 33.4284 37.625 33.2397 37.5137L33.3428 37.1426C33.5235 37.2531 33.729 37.313 33.9389 37.3163C34.1794 37.3163 34.3436 37.1939 34.3436 37.0045C34.3436 36.8266 34.209 36.7121 33.9271 36.6055C33.5261 36.4555 33.2663 36.2659 33.2663 35.8986C33.2736 35.5444 33.5399 35.254 33.8816 35.2273V34.8404H34.195V35.2077C34.3779 35.2098 34.558 35.2543 34.722 35.3379L34.619 35.7012C34.4587 35.6143 34.2808 35.5682 34.0998 35.5668C33.8324 35.5668 33.7368 35.7091 33.7368 35.8433C33.7368 36.0053 33.8745 36.0959 34.1983 36.2303C34.6261 36.3963 34.8172 36.6093 34.8172 36.9609C34.8096 37.3323 34.5299 37.6367 34.1715 37.6637V38.0704H33.8585Z" fill="black"/>
<path d="M36.0155 38.4374L35.4595 38.9961L37.454 41L38.01 40.4414L36.0155 38.4374Z" fill="#CCCCCC"/>
<path d="M34.0284 33.8554C35.4643 33.8553 36.6285 35.0193 36.6286 36.4552C36.6287 37.8911 35.4647 39.0553 34.0288 39.0554C32.5929 39.0555 31.4288 37.8915 31.4287 36.4556C31.4287 36.4555 31.4287 36.4555 31.4287 36.4554C31.4303 35.0202 32.5932 33.8572 34.0284 33.8554ZM34.0284 33.2629C32.2653 33.2629 30.8359 34.6922 30.8359 36.4554C30.8359 38.2186 32.2653 39.6479 34.0284 39.6479C35.7916 39.6479 37.2209 38.2186 37.2209 36.4554C37.2209 34.6922 35.7916 33.2629 34.0284 33.2629Z" fill="black"/>
<path d="M33.8585 38.0704V37.6874C33.6413 37.6848 33.4284 37.625 33.2397 37.5137L33.3428 37.1426C33.5235 37.2531 33.729 37.313 33.9389 37.3163C34.1794 37.3163 34.3436 37.1939 34.3436 37.0045C34.3436 36.8266 34.209 36.7121 33.9271 36.6055C33.5261 36.4555 33.2663 36.2659 33.2663 35.8986C33.2736 35.5444 33.5399 35.254 33.8816 35.2273V34.8404H34.195V35.2077C34.3779 35.2098 34.558 35.2543 34.722 35.3379L34.619 35.7012C34.4587 35.6143 34.2808 35.5682 34.0998 35.5668C33.8324 35.5668 33.7368 35.7091 33.7368 35.8433C33.7368 36.0053 33.8745 36.0959 34.1983 36.2303C34.6261 36.3963 34.8172 36.6093 34.8172 36.9609C34.8096 37.3323 34.5299 37.6367 34.1715 37.6637V38.0704H33.8585Z" fill="black"/>
<path d="M36.9056 41.4669L38.4668 39.9057L37.5611 39L35.9999 40.5612L36.9056 41.4669Z" fill="black"/>
<path d="M37.4422 42.0001L39.0034 40.4389L38.4689 39.9043L36.9077 41.4655L37.4422 42.0001Z" fill="#CCCCCC"/>
</svg>
