<svg width="55" height="50" viewBox="0 0 55 50" fill="none" xmlns="http://www.w3.org/2000/svg">
<path d="M5.8042 24.3543C5.8042 30.178 8.11764 35.7631 12.2356 39.8811C16.3535 43.999 21.9387 46.3125 27.7623 46.3125C33.586 46.3125 39.1711 43.999 43.2891 39.8811C47.407 35.7631 49.7205 30.178 49.7205 24.3543C49.7205 18.5307 47.407 12.9455 43.2891 8.82757C39.1711 4.70962 33.586 2.39618 27.7623 2.39618C21.9387 2.39618 16.3535 4.70962 12.2356 8.82757C8.11764 12.9455 5.8042 18.5307 5.8042 24.3543Z" fill="#403572"/>
<path d="M47.6435 33.6816C44.1338 41.1427 36.5473 46.3125 27.7624 46.3125C15.6432 46.3125 5.80422 36.4735 5.80422 24.3543C5.79796 19.9029 7.15153 15.5558 9.68376 11.8948C8.31204 14.8127 7.60296 17.9979 7.60737 21.2221C7.60737 33.3412 17.4464 43.1802 29.5655 43.1802C37.059 43.1802 43.6804 39.4184 47.6435 33.6816Z" fill="#3F5A98"/>
<path d="M47.6436 33.6816C43.6804 39.4184 37.0591 43.1802 29.5656 43.1802C17.4464 43.1802 7.60744 33.3412 7.60744 21.2221C7.60303 17.9979 8.31211 14.8126 9.68383 11.8948C10.2273 11.1085 10.8211 10.3583 11.4617 9.6488C11.3998 9.88436 11.3415 10.1211 11.2874 10.3596C10.4293 12.7445 9.99198 15.2602 9.99476 17.7948C9.99476 29.9133 19.8338 39.7529 31.9529 39.7529C38.3258 39.7529 44.0685 37.0317 48.0811 32.6893C47.9436 33.0237 47.7977 33.3545 47.6436 33.6816Z" fill="#403572"/>
<path d="M48.081 32.6893C44.0684 37.0317 38.3256 39.7529 31.9528 39.7529C19.8336 39.7529 9.99463 29.9133 9.99463 17.7948C9.99463 15.1854 10.4504 12.6821 11.2872 10.3596C10.9239 11.9606 10.741 13.5973 10.7419 15.239C10.7419 27.3582 20.5815 37.1972 32.7001 37.1972C39.1654 37.1972 44.9817 34.397 49.0014 29.9445C48.7557 30.8788 48.4482 31.7957 48.081 32.6893Z" fill="#3A5AA3"/>
<path d="M14.63 40.8535C11.3829 38.8902 10.1769 37.908 8.35016 34.5725C6.62153 31.4173 5.71792 27.8766 5.72317 24.2789C5.72317 19.8517 7.06581 15.7355 9.36598 12.3158C10.1003 11.2241 11.8982 10.0716 12.8145 9.1347C12.0289 10.2041 10.37 11.4826 9.77819 12.6915C7.3261 17.7011 6.60472 23.7843 8.18292 29.8568C8.56802 31.3435 9.08434 32.7931 9.72578 34.1886C11.2716 37.5476 11.9983 38.6105 14.63 40.8535ZM30.1075 22.1124C30.1075 22.1124 30.8006 21.1749 32.4094 22.0347C32.4094 22.0347 32.9948 21.9858 33.5124 21.3875C33.5124 21.3875 34.6743 21.4105 35.7554 23.2166C35.7554 23.2166 37.1423 23.3921 35.4192 21.5041C33.6961 19.6162 32.2928 20.3063 32.3965 19.5125C32.5001 18.7187 33.7103 18.9254 34.1048 17.9314C34.4994 16.9379 33.2109 15.8886 32.751 15.2443C32.2905 14.6001 32.751 14.0206 34.2232 14.205C35.6954 14.3887 36.0717 13.7898 35.5752 13.0678C35.0788 12.3453 36.5805 12.3529 37.4644 12.8464C38.3477 13.3393 41.2497 13.4441 41.7096 12.8093C42.1701 12.1745 43.3661 9.94736 44.1947 12.0638C45.0226 14.1802 47.2698 13.3552 47.7474 19.393C48.2244 25.4308 48.9187 26.0827 48.056 28.139C47.1932 30.1948 45.7988 27.1968 45.1375 26.6362C44.4756 26.0756 44.26 26.7369 44.2889 28.0743C44.3177 29.411 44.1022 32.2005 43.3832 31.4244C42.6642 30.6477 41.2385 25.5915 39.9742 26.7033C38.7098 27.8151 38.1204 30.9209 36.395 30.3026C34.6695 29.6842 35.769 28.2156 34.3198 27.7097C32.8705 27.2033 31.3877 27.1727 31.2246 26.0308C31.0621 24.8884 30.0044 25.704 30.2182 24.2459C30.4314 22.7885 29.8278 22.378 30.1075 22.1124Z" fill="#6C8CC7"/>
<path d="M45.5956 32.0363C45.5956 32.0363 45.5384 32.6299 45.6668 32.5716C45.7946 32.5138 45.804 32.4991 45.8788 32.5645C45.9536 32.6299 45.9542 32.3878 46.0684 32.3896C46.1827 32.3908 46.0643 32.5356 46.1585 32.5403C46.2528 32.5451 46.3876 31.5298 46.576 31.0057C46.576 31.0057 46.8057 30.8703 46.6114 30.464C46.4171 30.0576 47.0413 29.4446 46.7351 29.3386C46.4288 29.2326 46.5702 29.8927 46.3111 30.1283C46.0519 30.3638 46.2522 30.623 46.2345 30.8467C46.2168 31.0705 46.2722 31.1341 45.9265 31.1847C45.5808 31.2354 45.4631 31.8478 45.5956 32.0363ZM18.364 13.7869C18.364 13.7869 17.6144 12.6097 19.0766 11.9195C20.5387 11.23 19.4888 10.7648 19.5641 10.4797C19.6389 10.1953 20.7189 9.72244 21.4015 10.0675C22.0834 10.4126 22.2559 10.405 22.8937 10.3673C23.5308 10.3302 24.9718 11.4632 23.704 11.5751C22.4361 11.6875 22.8036 12.6321 22.1287 12.9248C21.4539 13.2169 21.0281 13.2021 20.1083 13.228C19.189 13.2545 19.7814 13.6821 19.2114 13.9818C18.6414 14.2821 18.619 14.0642 18.364 13.7869ZM20.2255 19.0267C20.2255 19.0267 18.7044 18.2577 18.4677 19.7646C18.2309 21.2715 18.2492 22.5253 19.119 22.3156C19.9887 22.1054 20.7148 22.2915 21.5787 21.026C22.4426 19.7599 22.7005 19.4602 23.8223 20.5578C24.9442 21.6555 25.407 23.0835 26.4322 21.6484C27.4575 20.2127 27.2478 21.344 28.2436 20.4318C29.2394 19.5202 30.1887 20.8688 31.7634 20.9812C33.338 21.0937 32.1232 20.8387 31.7934 19.6769C31.7934 19.6769 32.3705 19.3206 32.0631 18.4432C31.7557 17.5657 32.6214 18.1364 32.6596 18.0887C32.6979 18.0404 34.1525 17.9196 33.4853 17.0281C32.8181 16.1359 32.3911 16.8473 31.824 15.3451C31.2569 13.8422 32.3411 12.0703 30.4225 12.2311C30.4225 12.2311 28.7024 13.9306 27.0582 13.1686C25.4135 12.4071 23.5674 12.7929 22.8642 13.9365C22.1611 15.0801 22.3018 14.8363 22.18 15.9799C22.0581 17.1235 21.087 17.7577 19.8945 17.5628C18.7026 17.3679 20.1889 18.9537 20.2255 19.0267Z" fill="#6C8CC7"/>
<path d="M18.3382 23.8926C18.3382 23.8926 20.358 23.4003 21.1907 22.4163C22.0234 21.4323 22.203 21.735 22.4998 20.6167C22.4998 20.6167 23.207 19.9206 24.4837 22.4752C24.4837 22.4752 25.89 24.2442 26.9329 21.9593C26.9329 21.9593 27.3192 21.268 28.2567 22.8968C28.2567 22.8968 28.7843 23.4003 29.2177 22.3462C29.2177 22.3462 29.8855 22.686 29.2878 24.1741C28.6901 25.6622 29.7365 25.4219 30.3778 25.5868C31.0185 25.7511 30.2312 26.8135 31.2564 27.7468C32.2817 28.6808 33.3717 28.0536 33.9005 28.2303C34.4293 28.4076 30.7123 31.0346 30.8224 32.7741C30.9319 34.5131 31.7564 35.0531 29.5045 35.8404C27.2526 36.6277 28.8273 36.8651 28.7496 37.3026C28.6712 37.7407 27.9451 38.7665 26.7933 38.7124C25.6414 38.6588 25.6897 39.5586 25.0119 38.2148C24.3341 36.8709 22.9161 36.0418 24.2093 34.1668C25.5025 32.2918 23.111 32.4885 23.4667 31.0263C23.823 29.5641 22.1512 30.8273 21.1907 30.2272C20.2302 29.6277 17.6792 29.8821 17.8252 26.7334C17.9719 23.5846 16.5368 25.8707 18.3382 23.8926ZM10.6509 11.4378C10.6509 11.4378 13.9169 7.45405 14.7372 7.36572C14.7372 7.36572 14.166 8.34738 14.166 8.50815C14.166 8.6695 13.6077 8.88091 14.0441 9.44741C14.0441 9.44741 14.2478 9.59169 14.2996 9.87435C14.3514 10.1576 14.4474 10.2583 15.1241 9.66294C15.1241 9.66294 15.551 9.70416 15.5751 10.1788C15.5993 10.654 15.6805 10.5245 15.8101 10.654C15.9402 10.7836 15.3402 11.3524 14.0299 11.4296C14.0299 11.4296 13.1961 11.515 12.712 12.2829C12.2285 13.0508 12.2592 13.1238 12.3092 13.1085C12.3593 13.0932 14.5246 11.2194 15.1694 11.7611C15.1694 11.7611 15.392 11.8913 14.6818 12.3447C14.6818 12.3447 14.3903 12.6056 15.1694 13.0125C15.9491 13.4194 14.6742 13.8799 14.6924 14.1502C14.7107 14.4205 15.2271 14.7673 14.7937 14.9299C14.3609 15.093 13.1819 14.8504 13.0441 14.9729C12.9063 15.0959 12.99 15.113 12.8598 15.219C12.7297 15.3244 12.4959 15.3415 12.636 15.7708C12.7762 16.1995 12.851 16.8396 11.158 16.4074C11.158 16.4074 11.6302 15.7979 11.3811 15.7331C11.1315 15.6677 10.9931 15.706 10.6209 16.5505C10.6209 16.5505 9.44431 18.088 8.53273 18.5915C8.53273 18.5915 8.19059 19.3129 8.1688 19.6751C8.1688 19.6751 7.92618 19.8564 7.89262 19.423C7.85846 18.9902 7.69004 18.8241 7.55166 19.0302C7.41327 19.2358 7.36086 19.8765 7.45626 20.1527C7.55165 20.4294 7.85846 20.8464 7.11942 22.1902C7.11942 22.1902 6.63006 23.1548 7.49394 23.8461C8.35783 24.5375 10.4277 28.0389 9.74818 28.6249C9.06861 29.2108 10.383 28.944 10.6939 29.2014C11.0048 29.4587 10.8629 29.6277 11.3776 29.7543C11.8917 29.8809 11.7492 31.0022 13.0453 31.6788C14.3408 32.3554 12.8162 33.36 13.1348 33.9896C13.4534 34.6191 13.5782 35.8457 12.7438 36.2862C11.91 36.7267 12.7379 37.7861 13.1348 38.1794C13.5317 38.5734 15.4438 41.0108 15.1529 41.029C14.8626 41.0479 10.9978 39.4797 9.0427 34.6815C7.08762 29.8827 6.43337 28.1114 6.32561 26.1368C6.21784 24.1617 6.38037 18.7358 7.71831 16.6317C9.05565 14.5271 8.31013 14.4582 10.6509 11.4378ZM32.105 37.554C32.105 37.554 31.3418 38.6947 32.0879 38.7742C32.8334 38.8531 32.781 38.9144 32.9477 38.3261C33.1143 37.7384 33.2986 37.484 33.755 37.1242C34.2114 36.7644 34.106 36.1237 34.0624 35.6938C34.0183 35.2633 33.811 34.8688 33.6602 35.3952C33.5095 35.9217 33.7203 36.106 33.1673 36.2114C32.6144 36.3168 32.632 36.1502 32.5001 36.5535C32.3688 36.9575 32.0002 36.9487 32.0791 37.2207C32.158 37.4928 32.105 37.554 32.105 37.554Z" fill="#6C8CC7"/>
<path d="M25.8282 1.42047C24.8766 1.42047 24.104 12.1139 24.104 25.2848C24.104 38.4563 24.8766 49.1492 25.8282 49.1492C25.5903 43.1832 25.3972 34.5438 25.3972 25.2848C25.3972 16.0259 25.5903 7.387 25.8282 1.42047Z" fill="#DEE5F6"/>
<path d="M0.914062 23.8137C0.914062 25.2288 12.538 26.3777 26.8554 26.3777C41.1728 26.3777 52.7967 25.2288 52.7967 23.8137C46.3114 24.1676 36.9199 24.455 26.8554 24.455C16.7908 24.455 7.39939 24.1676 0.914062 23.8137Z" fill="#DEE5F6"/>
<path d="M23.6797 0.50119C16.8728 0.50119 11.3462 11.4549 11.3462 24.9468C11.3462 38.4392 16.8728 49.3929 23.6797 49.3929C17.8062 48.2758 13.0375 37.7066 13.0375 24.9468C13.0375 12.1875 17.8062 1.61829 23.6797 0.50119Z" fill="#DEE5F6"/>
<path d="M1.48193 25.7982C1.48193 32.6057 13.0163 38.1323 27.2236 38.1323C41.4309 38.1323 52.9659 32.6057 52.9659 25.7982C51.7893 31.6717 40.6595 36.4404 27.2236 36.4404C13.7877 36.4404 2.65852 31.6717 1.48193 25.7982Z" fill="#DEE5F6"/>
<path d="M23.3355 0C10.4561 0 0 10.9072 0 24.3413C0 37.776 10.4561 48.6827 23.3355 48.6827C11.5438 47.9972 1.97098 37.3261 1.97098 24.3413C1.97098 11.3565 11.5438 0.685456 23.3355 0ZM31.4509 0.250274C44.3297 0.250274 54.7858 11.1575 54.7858 24.5916C54.7858 38.0263 44.3297 48.933 31.4509 48.933C43.242 48.2481 52.8148 37.577 52.8148 24.5916C52.8148 11.6068 43.242 0.93573 31.4509 0.250274Z" fill="#DEE5F6"/>
<path d="M29.106 0.96106C35.9134 0.96106 41.44 11.9148 41.44 25.4066C41.44 38.899 35.9134 49.8528 29.106 49.8528C34.9794 48.7357 39.7482 38.1665 39.7482 25.4066C39.7482 12.6474 34.9794 2.07816 29.106 0.96106Z" fill="#DEE5F6"/>
<path d="M1.37744 21.5307C1.37744 14.7232 13.0479 9.19659 27.423 9.19659C41.7981 9.19659 53.4686 14.7232 53.4686 21.5307C52.2778 15.6566 41.0173 10.8879 27.423 10.8879C13.8287 10.8879 2.56816 15.6566 1.37744 21.5307Z" fill="#DEE5F6"/>
</svg>
