<?xml version="1.0" encoding="UTF-8" standalone="no"?>
<svg
   width="96"
   height="96"
   viewBox="0 0 96 96"
   fill="none"
   version="1.1"
   id="svg9"
   sodipodi:docname="i-CDD-r.svg"
   inkscape:version="1.3.2 (091e20e, 2023-11-25, custom)"
   xmlns:inkscape="http://www.inkscape.org/namespaces/inkscape"
   xmlns:sodipodi="http://sodipodi.sourceforge.net/DTD/sodipodi-0.dtd"
   xmlns="http://www.w3.org/2000/svg"
   xmlns:svg="http://www.w3.org/2000/svg">
  <defs
     id="defs9">
    <linearGradient
       id="paint0_linear_111_71"
       x1="29.0924"
       y1="23.2836"
       x2="29.0924"
       y2="36.9011"
       gradientUnits="userSpaceOnUse">
      <stop
         offset="0.51"
         stop-color="white"
         id="stop26" />
      <stop
         offset="0.955"
         stop-color="#CBC8C8"
         id="stop27" />
    </linearGradient>
    <linearGradient
       id="paint0_linear_111_206"
       x1="25.584299"
       y1="19.414801"
       x2="28.408899"
       y2="16.5867"
       gradientUnits="userSpaceOnUse">
      <stop
         offset="0.36"
         stop-color="#403572"
         id="stop24" />
      <stop
         offset="1"
         stop-color="white"
         id="stop25" />
    </linearGradient>
    <linearGradient
       id="paint1_linear_111_206"
       x1="27.0002"
       y1="19.4286"
       x2="27.0002"
       y2="16.5714"
       gradientUnits="userSpaceOnUse">
      <stop
         stop-color="#D3E6F5"
         id="stop26-7" />
      <stop
         offset="1"
         stop-color="#F0F7FC"
         id="stop27-6" />
    </linearGradient>
  </defs>
  <sodipodi:namedview
     id="namedview9"
     pagecolor="#ffffff"
     bordercolor="#000000"
     borderopacity="0.25"
     inkscape:showpageshadow="2"
     inkscape:pageopacity="0.0"
     inkscape:pagecheckerboard="0"
     inkscape:deskcolor="#d1d1d1"
     showgrid="false"
     inkscape:zoom="9.0348837"
     inkscape:cx="30.492922"
     inkscape:cy="50.415702"
     inkscape:window-width="2400"
     inkscape:window-height="1261"
     inkscape:window-x="2391"
     inkscape:window-y="-9"
     inkscape:window-maximized="1"
     inkscape:current-layer="layer1" />
  <g
     inkscape:groupmode="layer"
     id="layer2"
     inkscape:label="Layer 2">
    <g
       inkscape:groupmode="layer"
       id="layer1"
       inkscape:label="Layer 1">
      <rect
         style="fill:#e7f3ff"
         id="rect9"
         width="91.976845"
         height="91.091393"
         x="1.8815961"
         y="2.4350061"
         ry="10.293436" />
      <g
         id="g14"
         transform="matrix(1.1838446,0,0,1.2264582,14.400257,19.797941)">
        <path
           d="m 5.8042,24.3543 c 0,5.8237 2.31344,11.4088 6.4314,15.5268 4.1179,4.1179 9.7031,6.4314 15.5267,6.4314 5.8237,0 11.4088,-2.3135 15.5268,-6.4314 4.1179,-4.118 6.4314,-9.7031 6.4314,-15.5268 0,-5.8236 -2.3135,-11.4088 -6.4314,-15.52673 C 39.1711,4.70962 33.586,2.39618 27.7623,2.39618 21.9387,2.39618 16.3535,4.70962 12.2356,8.82757 8.11764,12.9455 5.8042,18.5307 5.8042,24.3543 Z"
           fill="#403572"
           id="path1" />
        <path
           d="m 47.6435,33.6816 c -3.5097,7.4611 -11.0962,12.6309 -19.8811,12.6309 -12.1192,0 -21.95818,-9.839 -21.95818,-21.9582 -0.00626,-4.4514 1.34731,-8.7985 3.87954,-12.4595 -1.37172,2.9179 -2.0808,6.1031 -2.07639,9.3273 0,12.1191 9.83903,21.9581 21.95813,21.9581 7.4935,0 14.1149,-3.7618 18.078,-9.4986 z"
           fill="#3f5a98"
           id="path2" />
        <path
           d="m 47.6436,33.6816 c -3.9632,5.7368 -10.5845,9.4986 -18.078,9.4986 -12.1192,0 -21.95816,-9.839 -21.95816,-21.9581 -0.00441,-3.2242 0.70467,-6.4095 2.07639,-9.3273 0.54347,-0.7863 1.13727,-1.5365 1.77787,-2.246 -0.0619,0.23556 -0.1202,0.4723 -0.1743,0.7108 -0.8581,2.3849 -1.29542,4.9006 -1.29264,7.4352 0,12.1185 9.83904,21.9581 21.95814,21.9581 6.3729,0 12.1156,-2.7212 16.1282,-7.0636 -0.1375,0.3344 -0.2834,0.6652 -0.4375,0.9923 z"
           fill="#403572"
           id="path3" />
        <path
           d="m 48.081,32.6893 c -4.0126,4.3424 -9.7554,7.0636 -16.1282,7.0636 -12.1192,0 -21.95817,-9.8396 -21.95817,-21.9581 0,-2.6094 0.45577,-5.1127 1.29257,-7.4352 -0.3633,1.601 -0.5462,3.2377 -0.5453,4.8794 0,12.1192 9.8396,21.9582 21.9582,21.9582 6.4653,0 12.2816,-2.8002 16.3013,-7.2527 -0.2457,0.9343 -0.5532,1.8512 -0.9204,2.7448 z"
           fill="#3a5aa3"
           id="path4" />
        <path
           d="M 14.63,40.8535 C 11.3829,38.8902 10.1769,37.908 8.35016,34.5725 6.62153,31.4173 5.71792,27.8766 5.72317,24.2789 c 0,-4.4272 1.34264,-8.5434 3.64281,-11.9631 0.73432,-1.0917 2.53222,-2.2442 3.44852,-3.1811 -0.7856,1.0694 -2.4445,2.3479 -3.03631,3.5568 -2.45209,5.0096 -3.17347,11.0928 -1.59527,17.1653 0.3851,1.4867 0.90142,2.9363 1.54286,4.3318 1.54582,3.359 2.27252,4.4219 4.90422,6.6649 z M 30.1075,22.1124 c 0,0 0.6931,-0.9375 2.3019,-0.0777 0,0 0.5854,-0.0489 1.103,-0.6472 0,0 1.1619,0.023 2.243,1.8291 0,0 1.3869,0.1755 -0.3362,-1.7125 -1.7231,-1.8879 -3.1264,-1.1978 -3.0227,-1.9916 0.1036,-0.7938 1.3138,-0.5871 1.7083,-1.5811 0.3946,-0.9935 -0.8939,-2.0428 -1.3538,-2.6871 -0.4605,-0.6442 0,-1.2237 1.4722,-1.0393 1.4722,0.1837 1.8485,-0.4152 1.352,-1.1372 -0.4964,-0.7225 1.0053,-0.7149 1.8892,-0.2214 0.8833,0.4929 3.7853,0.5977 4.2452,-0.0371 0.4605,-0.6348 1.6565,-2.86194 2.4851,-0.7455 0.8279,2.1164 3.0751,1.2914 3.5527,7.3292 0.477,6.0378 1.1713,6.6897 0.3086,8.746 -0.8628,2.0558 -2.2572,-0.9422 -2.9185,-1.5028 -0.6619,-0.5606 -0.8775,0.1007 -0.8486,1.4381 0.0288,1.3367 -0.1867,4.1262 -0.9057,3.3501 -0.719,-0.7767 -2.1447,-5.8329 -3.409,-4.7211 -1.2644,1.1118 -1.8538,4.2176 -3.5792,3.5993 -1.7255,-0.6184 -0.626,-2.087 -2.0752,-2.5929 -1.4493,-0.5064 -2.9321,-0.537 -3.0952,-1.6789 -0.1625,-1.1424 -1.2202,-0.3268 -1.0064,-1.7849 0.2132,-1.4574 -0.3904,-1.8679 -0.1107,-2.1335 z"
           fill="#6c8cc7"
           id="path5" />
        <path
           d="m 45.5956,32.0363 c 0,0 -0.0572,0.5936 0.0712,0.5353 0.1278,-0.0578 0.1372,-0.0725 0.212,-0.0071 0.0748,0.0654 0.0754,-0.1767 0.1896,-0.1749 0.1143,0.0012 -0.0041,0.146 0.0901,0.1507 0.0943,0.0048 0.2291,-1.0105 0.4175,-1.5346 0,0 0.2297,-0.1354 0.0354,-0.5417 -0.1943,-0.4064 0.4299,-1.0194 0.1237,-1.1254 -0.3063,-0.106 -0.1649,0.5541 -0.424,0.7897 -0.2592,0.2355 -0.0589,0.4947 -0.0766,0.7184 -0.0177,0.2238 0.0377,0.2874 -0.308,0.338 -0.3457,0.0507 -0.4634,0.6631 -0.3309,0.8516 z M 18.364,13.7869 c 0,0 -0.7496,-1.1772 0.7126,-1.8674 1.4621,-0.6895 0.4122,-1.1547 0.4875,-1.4398 0.0748,-0.2844 1.1548,-0.75726 1.8374,-0.4122 0.6819,0.3451 0.8544,0.3375 1.4922,0.2998 0.6371,-0.0371 2.0781,1.0959 0.8103,1.2078 -1.2679,0.1124 -0.9004,1.057 -1.5753,1.3497 -0.6748,0.2921 -1.1006,0.2773 -2.0204,0.3032 -0.9193,0.0265 -0.3269,0.4541 -0.8969,0.7538 -0.57,0.3003 -0.5924,0.0824 -0.8474,-0.1949 z m 1.8615,5.2398 c 0,0 -1.5211,-0.769 -1.7578,0.7379 -0.2368,1.5069 -0.2185,2.7607 0.6513,2.551 0.8697,-0.2102 1.5958,-0.0241 2.4597,-1.2896 0.8639,-1.2661 1.1218,-1.5658 2.2436,-0.4682 1.1219,1.0977 1.5847,2.5257 2.6099,1.0906 1.0253,-1.4357 0.8156,-0.3044 1.8114,-1.2166 0.9958,-0.9116 1.9451,0.437 3.5198,0.5494 1.5746,0.1125 0.3598,-0.1425 0.03,-1.3043 0,0 0.5771,-0.3563 0.2697,-1.2337 -0.3074,-0.8775 0.5583,-0.3068 0.5965,-0.3545 0.0383,-0.0483 1.4929,-0.1691 0.8257,-1.0606 -0.6672,-0.8922 -1.0942,-0.1808 -1.6613,-1.683 -0.5671,-1.5029 0.5171,-3.2748 -1.4015,-3.114 0,0 -1.7201,1.6995 -3.3643,0.9375 -1.6447,-0.7615 -3.4908,-0.3757 -4.194,0.7679 -0.7031,1.1436 -0.5624,0.8998 -0.6842,2.0434 -0.1219,1.1436 -1.093,1.7778 -2.2855,1.5829 -1.1919,-0.1949 0.2944,1.3909 0.331,1.4639 z"
           fill="#6c8cc7"
           id="path6" />
        <path
           d="m 18.3382,23.8926 c 0,0 2.0198,-0.4923 2.8525,-1.4763 0.8327,-0.984 1.0123,-0.6813 1.3091,-1.7996 0,0 0.7072,-0.6961 1.9839,1.8585 0,0 1.4063,1.769 2.4492,-0.5159 0,0 0.3863,-0.6913 1.3238,0.9375 0,0 0.5276,0.5035 0.961,-0.5506 0,0 0.6678,0.3398 0.0701,1.8279 -0.5977,1.4881 0.4487,1.2478 1.09,1.4127 0.6407,0.1643 -0.1466,1.2267 0.8786,2.16 1.0253,0.934 2.1153,0.3068 2.6441,0.4835 0.5288,0.1773 -3.1882,2.8043 -3.0781,4.5438 0.1095,1.739 0.934,2.279 -1.3179,3.0663 -2.2519,0.7873 -0.6772,1.0247 -0.7549,1.4622 -0.0784,0.4381 -0.8045,1.4639 -1.9563,1.4098 -1.1519,-0.0536 -1.1036,0.8462 -1.7814,-0.4976 -0.6778,-1.3439 -2.0958,-2.173 -0.8026,-4.048 1.2932,-1.875 -1.0983,-1.6783 -0.7426,-3.1405 0.3563,-1.4622 -1.3155,-0.199 -2.276,-0.7991 -0.9605,-0.5995 -3.5115,-0.3451 -3.3655,-3.4938 0.1467,-3.1488 -1.2884,-0.8627 0.513,-2.8408 z M 10.6509,11.4378 c 0,0 3.266,-3.98375 4.0863,-4.07208 0,0 -0.5712,0.98166 -0.5712,1.14243 0,0.16135 -0.5583,0.37276 -0.1219,0.93926 0,0 0.2037,0.14428 0.2555,0.42694 0.0518,0.28325 0.1478,0.38395 0.8245,-0.21141 0,0 0.4269,0.04122 0.451,0.51586 0.0242,0.4752 0.1054,0.3457 0.235,0.4752 0.1301,0.1296 -0.4699,0.6984 -1.7802,0.7756 0,0 -0.8338,0.0854 -1.3179,0.8533 -0.4835,0.7679 -0.4528,0.8409 -0.4028,0.8256 0.0501,-0.0153 2.2154,-1.8891 2.8602,-1.3474 0,0 0.2226,0.1302 -0.4876,0.5836 0,0 -0.2915,0.2609 0.4876,0.6678 0.7797,0.4069 -0.4952,0.8674 -0.477,1.1377 0.0183,0.2703 0.5347,0.6171 0.1013,0.7797 -0.4328,0.1631 -1.6118,-0.0795 -1.7496,0.043 -0.1378,0.123 -0.0541,0.1401 -0.1843,0.2461 -0.1301,0.1054 -0.3639,0.1225 -0.2238,0.5518 0.1402,0.4287 0.215,1.0688 -1.478,0.6366 0,0 0.4722,-0.6095 0.2231,-0.6743 -0.2496,-0.0654 -0.388,-0.0271 -0.7602,0.8174 0,0 -1.17659,1.5375 -2.08817,2.041 0,0 -0.34214,0.7214 -0.36393,1.0836 0,0 -0.24262,0.1813 -0.27618,-0.2521 -0.03416,-0.4328 -0.20258,-0.5989 -0.34096,-0.3928 -0.13839,0.2056 -0.1908,0.8463 -0.0954,1.1225 0.09539,0.2767 0.4022,0.6937 -0.33684,2.0375 0,0 -0.48936,0.9646 0.37452,1.6559 0.86389,0.6914 2.93376,4.1928 2.25424,4.7788 -0.67957,0.5859 0.63482,0.3191 0.94572,0.5765 0.3109,0.2573 0.169,0.4263 0.6837,0.5529 0.5141,0.1266 0.3716,1.2479 1.6677,1.9245 1.2955,0.6766 -0.2291,1.6812 0.0895,2.3108 0.3186,0.6295 0.4434,1.8561 -0.391,2.2966 -0.8338,0.4405 -0.0059,1.4999 0.391,1.8932 0.3969,0.394 2.309,2.8314 2.0181,2.8496 C 14.8626,41.0479 10.9978,39.4797 9.0427,34.6815 7.08762,29.8827 6.43337,28.1114 6.32561,26.1368 6.21784,24.1617 6.38037,18.7358 7.71831,16.6317 9.05565,14.5271 8.31013,14.4582 10.6509,11.4378 Z M 32.105,37.554 c 0,0 -0.7632,1.1407 -0.0171,1.2202 0.7455,0.0789 0.6931,0.1402 0.8598,-0.4481 0.1666,-0.5877 0.3509,-0.8421 0.8073,-1.2019 0.4564,-0.3598 0.351,-1.0005 0.3074,-1.4304 -0.0441,-0.4305 -0.2514,-0.825 -0.4022,-0.2986 -0.1507,0.5265 0.0601,0.7108 -0.4929,0.8162 -0.5529,0.1054 -0.5353,-0.0612 -0.6672,0.3421 -0.1313,0.404 -0.4999,0.3952 -0.421,0.6672 0.0789,0.2721 0.0259,0.3333 0.0259,0.3333 z"
           fill="#6c8cc7"
           id="path7" />
        <path
           d="m 25.8282,1.42047 c -0.9516,0 -1.7242,10.69343 -1.7242,23.86433 0,13.1715 0.7726,23.8644 1.7242,23.8644 -0.2379,-5.966 -0.431,-14.6054 -0.431,-23.8644 0,-9.2589 0.1931,-17.8978 0.431,-23.86433 z"
           fill="#dee5f6"
           id="path8" />
        <path
           d="m 0.914062,23.8137 c 0,1.4151 11.623938,2.564 25.941338,2.564 14.3174,0 25.9413,-1.1489 25.9413,-2.564 -6.4853,0.3539 -15.8768,0.6413 -25.9413,0.6413 -10.0646,0 -19.45601,-0.2874 -25.941338,-0.6413 z"
           fill="#dee5f6"
           id="path9" />
        <path
           d="m 23.6797,0.50119 c -6.8069,0 -12.3335,10.95371 -12.3335,24.44561 0,13.4924 5.5266,24.4461 12.3335,24.4461 -5.8735,-1.1171 -10.6422,-11.6863 -10.6422,-24.4461 0,-12.7593 4.7687,-23.32851 10.6422,-24.44561 z"
           fill="#dee5f6"
           id="path10" />
        <path
           d="m 1.48193,25.7982 c 0,6.8075 11.53437,12.3341 25.74167,12.3341 14.2073,0 25.7423,-5.5266 25.7423,-12.3341 -1.1766,5.8735 -12.3064,10.6422 -25.7423,10.6422 -13.4359,0 -24.56508,-4.7687 -25.74167,-10.6422 z"
           fill="#dee5f6"
           id="path11" />
        <path
           d="M 23.3355,0 C 10.4561,0 0,10.9072 0,24.3413 0,37.776 10.4561,48.6827 23.3355,48.6827 11.5438,47.9972 1.97098,37.3261 1.97098,24.3413 1.97098,11.3565 11.5438,0.685456 23.3355,0 Z m 8.1154,0.250274 c 12.8788,0 23.3349,10.907226 23.3349,24.341326 0,13.4347 -10.4561,24.3414 -23.3349,24.3414 C 43.242,48.2481 52.8148,37.577 52.8148,24.5916 52.8148,11.6068 43.242,0.93573 31.4509,0.250274 Z"
           fill="#dee5f6"
           id="path12" />
        <path
           d="m 29.106,0.96106 c 6.8074,0 12.334,10.95374 12.334,24.44554 0,13.4924 -5.5266,24.4462 -12.334,24.4462 5.8734,-1.1171 10.6422,-11.6863 10.6422,-24.4462 0,-12.7592 -4.7688,-23.32844 -10.6422,-24.44554 z"
           fill="#dee5f6"
           id="path13" />
        <path
           d="m 1.37744,21.5307 c 0,-6.8075 11.67046,-12.33411 26.04556,-12.33411 14.3751,0 26.0456,5.52661 26.0456,12.33411 C 52.2778,15.6566 41.0173,10.8879 27.423,10.8879 c -13.5943,0 -24.85484,4.7687 -26.04556,10.6428 z"
           fill="#dee5f6"
           id="path14" />
      </g>
    </g>
  </g>
</svg>
