<svg width="38" height="49" viewBox="0 0 38 49" fill="none" xmlns="http://www.w3.org/2000/svg">
<path d="M29.7642 48.6172H3.1111C1.60521 48.6134 0.385664 47.3938 0.381836 45.8879V3.11122C0.385664 1.60533 1.60521 0.385786 3.1111 0.381958H34.0591C35.5642 0.387317 36.783 1.6061 36.7868 3.11122V41.6138" fill="white"/>
<path d="M29.7643 49H3.11121C1.39401 48.9977 0.00229687 47.6059 0 45.8888V3.11121C0.00143555 1.39411 1.39325 0.00229687 3.11121 0H34.0592C35.7764 0.00229687 37.1674 1.39411 37.1697 3.11121V41.6138H36.4041V3.11121C36.4018 1.81664 35.353 0.767061 34.0584 0.765529H3.11121C1.81587 0.767061 0.766295 1.81587 0.764764 3.11121V45.8879C0.766295 47.1825 1.81587 48.2321 3.11045 48.2336H29.7651L29.7643 49Z" fill="#8E8E8E"/>
<path d="M29.7642 43.0898V48.9954L37.1457 41.6138H31.2402C30.4263 41.6161 29.7672 42.2761 29.7642 43.0898Z" fill="#333333"/>
<path d="M13.8597 15.1061H11.5063V21.5423H13.8597V15.1061Z" fill="#403572"/>
<path d="M9.9383 17.7382H7.58496V21.5431H9.9383V17.7382Z" fill="#C02032"/>
<path d="M17.7825 11.5295H15.4292V21.5431H17.7825V11.5295Z" fill="#C02032"/>
<path d="M21.7015 5.09329H19.3481V21.543H21.7015V5.09329Z" fill="#403572"/>
<path d="M25.6287 8.41199H23.2754V21.5414H25.6287V8.41199Z" fill="#C02032"/>
<path d="M29.5482 13.6982H27.1948V21.5652H29.5482V13.6982Z" fill="#403572"/>
<path d="M17.8385 26.7971C13.1188 26.7971 9.29248 30.6234 9.29248 35.3431C9.29248 40.0628 13.1188 43.8891 17.8385 43.8891C22.5559 43.8891 26.3814 40.0659 26.3845 35.3485H17.8385V26.7971Z" fill="#D6D6D6"/>
<path d="M25.3395 27.8474L19.2915 33.8954H27.8398V33.8885C27.8429 31.6224 26.9434 29.449 25.3395 27.8474Z" fill="#403572"/>
<path d="M19.293 25.3424V33.8953L25.3409 27.8474C23.7394 26.2397 21.5622 25.3378 19.293 25.3424Z" fill="#C02032"/>
</svg>
