<?xml version="1.0" encoding="UTF-8" standalone="no"?>
<svg
   width="96"
   height="96"
   viewBox="0 0 96 96"
   fill="none"
   version="1.1"
   id="svg9"
   sodipodi:docname="i-CDD-r.svg"
   inkscape:version="1.3.2 (091e20e, 2023-11-25, custom)"
   xmlns:inkscape="http://www.inkscape.org/namespaces/inkscape"
   xmlns:sodipodi="http://sodipodi.sourceforge.net/DTD/sodipodi-0.dtd"
   xmlns="http://www.w3.org/2000/svg"
   xmlns:svg="http://www.w3.org/2000/svg">
  <defs
     id="defs9">
    <linearGradient
       id="paint0_linear_111_71"
       x1="29.0924"
       y1="23.2836"
       x2="29.0924"
       y2="36.9011"
       gradientUnits="userSpaceOnUse">
      <stop
         offset="0.51"
         stop-color="white"
         id="stop26" />
      <stop
         offset="0.955"
         stop-color="#CBC8C8"
         id="stop27" />
    </linearGradient>
    <linearGradient
       id="paint0_linear_111_206"
       x1="25.584299"
       y1="19.414801"
       x2="28.408899"
       y2="16.5867"
       gradientUnits="userSpaceOnUse">
      <stop
         offset="0.36"
         stop-color="#403572"
         id="stop24" />
      <stop
         offset="1"
         stop-color="white"
         id="stop25" />
    </linearGradient>
    <linearGradient
       id="paint1_linear_111_206"
       x1="27.0002"
       y1="19.4286"
       x2="27.0002"
       y2="16.5714"
       gradientUnits="userSpaceOnUse">
      <stop
         stop-color="#D3E6F5"
         id="stop26-7" />
      <stop
         offset="1"
         stop-color="#F0F7FC"
         id="stop27-6" />
    </linearGradient>
  </defs>
  <sodipodi:namedview
     id="namedview9"
     pagecolor="#ffffff"
     bordercolor="#000000"
     borderopacity="0.25"
     inkscape:showpageshadow="2"
     inkscape:pageopacity="0.0"
     inkscape:pagecheckerboard="0"
     inkscape:deskcolor="#d1d1d1"
     showgrid="false"
     inkscape:zoom="9.0348837"
     inkscape:cx="30.492922"
     inkscape:cy="50.415702"
     inkscape:window-width="2400"
     inkscape:window-height="1261"
     inkscape:window-x="2391"
     inkscape:window-y="-9"
     inkscape:window-maximized="1"
     inkscape:current-layer="layer1" />
  <g
     inkscape:groupmode="layer"
     id="layer2"
     inkscape:label="Layer 2">
    <g
       inkscape:groupmode="layer"
       id="layer1"
       inkscape:label="Layer 1">
      <rect
         style="fill:#e7f3ff"
         id="rect9"
         width="91.976845"
         height="91.091393"
         x="1.8815961"
         y="2.4350061"
         ry="10.293436" />
      <g
         id="g12"
         transform="matrix(1.3454191,0,0,1.336564,22.625483,18.14157)">
        <path
           d="M 29.7642,48.6172 H 3.1111 C 1.60521,48.6134 0.385664,47.3938 0.381836,45.8879 V 3.11122 C 0.385664,1.60533 1.60521,0.385786 3.1111,0.381958 h 30.948 C 35.5642,0.387317 36.783,1.6061 36.7868,3.11122 V 41.6138"
           fill="#ffffff"
           id="path1" />
        <path
           d="M 29.7643,49 H 3.11121 C 1.39401,48.9977 0.00229687,47.6059 0,45.8888 V 3.11121 C 0.00143555,1.39411 1.39325,0.00229687 3.11121,0 H 34.0592 c 1.7172,0.00229687 3.1082,1.39411 3.1105,3.11121 V 41.6138 H 36.4041 V 3.11121 C 36.4018,1.81664 35.353,0.767061 34.0584,0.765529 H 3.11121 C 1.81587,0.767061 0.766295,1.81587 0.764764,3.11121 V 45.8879 c 0.001531,1.2946 1.051106,2.3442 2.345686,2.3457 H 29.7651 Z"
           fill="#8e8e8e"
           id="path2" />
        <path
           d="m 29.7642,43.0898 v 5.9056 l 7.3815,-7.3816 h -5.9055 c -0.8139,0.0023 -1.473,0.6623 -1.476,1.476 z"
           fill="#333333"
           id="path3" />
        <path
           d="m 13.8597,15.1061 h -2.3534 v 6.4362 h 2.3534 z"
           fill="#403572"
           id="path4" />
        <path
           d="M 9.9383,17.7382 H 7.58496 v 3.8049 H 9.9383 Z"
           fill="#c02032"
           id="path5" />
        <path
           d="m 17.7825,11.5295 h -2.3533 v 10.0136 h 2.3533 z"
           fill="#c02032"
           id="path6" />
        <path
           d="M 21.7015,5.09329 H 19.3481 V 21.543 h 2.3534 z"
           fill="#403572"
           id="path7" />
        <path
           d="M 25.6287,8.41199 H 23.2754 V 21.5414 h 2.3533 z"
           fill="#c02032"
           id="path8" />
        <path
           d="m 29.5482,13.6982 h -2.3534 v 7.867 h 2.3534 z"
           fill="#403572"
           id="path9" />
        <path
           d="m 17.8385,26.7971 c -4.7197,0 -8.54602,3.8263 -8.54602,8.546 0,4.7197 3.82632,8.546 8.54602,8.546 4.7174,0 8.5429,-3.8232 8.546,-8.5406 h -8.546 z"
           fill="#d6d6d6"
           id="path10" />
        <path
           d="m 25.3395,27.8474 -6.048,6.048 h 8.5483 v -0.0069 c 0.0031,-2.2661 -0.8964,-4.4395 -2.5003,-6.0411 z"
           fill="#403572"
           id="path11" />
        <path
           d="m 19.293,25.3424 v 8.5529 l 6.0479,-6.0479 c -1.6015,-1.6077 -3.7787,-2.5096 -6.0479,-2.505 z"
           fill="#c02032"
           id="path12" />
      </g>
    </g>
  </g>
</svg>
