<?xml version="1.0" encoding="UTF-8" standalone="no"?>
<svg
   width="96"
   height="96"
   viewBox="0 0 96 96"
   fill="none"
   version="1.1"
   id="svg9"
   sodipodi:docname="i-CDD-r.svg"
   inkscape:version="1.3.2 (091e20e, 2023-11-25, custom)"
   xmlns:inkscape="http://www.inkscape.org/namespaces/inkscape"
   xmlns:sodipodi="http://sodipodi.sourceforge.net/DTD/sodipodi-0.dtd"
   xmlns="http://www.w3.org/2000/svg"
   xmlns:svg="http://www.w3.org/2000/svg">
  <defs
     id="defs9">
    <linearGradient
       id="paint0_linear_111_71"
       x1="29.0924"
       y1="23.2836"
       x2="29.0924"
       y2="36.9011"
       gradientUnits="userSpaceOnUse">
      <stop
         offset="0.51"
         stop-color="white"
         id="stop26" />
      <stop
         offset="0.955"
         stop-color="#CBC8C8"
         id="stop27" />
    </linearGradient>
    <linearGradient
       id="paint0_linear_111_206"
       x1="25.584299"
       y1="19.414801"
       x2="28.408899"
       y2="16.5867"
       gradientUnits="userSpaceOnUse">
      <stop
         offset="0.36"
         stop-color="#403572"
         id="stop24" />
      <stop
         offset="1"
         stop-color="white"
         id="stop25" />
    </linearGradient>
    <linearGradient
       id="paint1_linear_111_206"
       x1="27.0002"
       y1="19.4286"
       x2="27.0002"
       y2="16.5714"
       gradientUnits="userSpaceOnUse">
      <stop
         stop-color="#D3E6F5"
         id="stop26-7" />
      <stop
         offset="1"
         stop-color="#F0F7FC"
         id="stop27-6" />
    </linearGradient>
  </defs>
  <sodipodi:namedview
     id="namedview9"
     pagecolor="#ffffff"
     bordercolor="#000000"
     borderopacity="0.25"
     inkscape:showpageshadow="2"
     inkscape:pageopacity="0.0"
     inkscape:pagecheckerboard="0"
     inkscape:deskcolor="#d1d1d1"
     showgrid="false"
     inkscape:zoom="9.0348837"
     inkscape:cx="30.492922"
     inkscape:cy="50.415702"
     inkscape:window-width="2400"
     inkscape:window-height="1261"
     inkscape:window-x="2391"
     inkscape:window-y="-9"
     inkscape:window-maximized="1"
     inkscape:current-layer="layer1" />
  <g
     inkscape:groupmode="layer"
     id="layer2"
     inkscape:label="Layer 2">
    <g
       inkscape:groupmode="layer"
       id="layer1"
       inkscape:label="Layer 1">
      <rect
         style="fill:#e7f3ff"
         id="rect9"
         width="91.976845"
         height="91.091393"
         x="1.8815961"
         y="2.4350061"
         ry="10.293436" />
      <g
         id="g27"
         transform="matrix(1.0633416,0,0,1.0410241,15.384814,24.114544)">
        <path
           d="M 3.26369,0 H 57.8952 c 1.7949,0 3.2632,1.46873 3.2632,3.26364 V 36.917 H 4.88281e-4 V 3.26364 C 4.88281e-4,1.46873 1.46879,0 3.26369,0 Z"
           fill="#666666"
           id="path1" />
        <path
           d="M 2.21625,34.7009 H 58.9424 V 3.2632 c 0,-0.572 -0.4756,-1.04753 -1.0475,-1.04753 H 3.26335 c -0.57156,0 -1.04753,0.47553 -1.04753,1.04753 v 31.4379 z"
           fill="#6c8cc7"
           id="path2" />
        <path
           d="m 61.1583,36.917 v 3.5688 c 0,1.7954 -1.6188,3.2637 -3.5975,3.2637 H 3.59757 C 1.61881,43.7495 0,42.2812 0,40.4858 V 36.917 h 61.1579 z"
           fill="#c2c2c4"
           fill-opacity="0.1"
           id="path3" />
        <path
           d="m 14.0817,6.94415 h 32.9948 4.9116 c 0.5954,0 1.0822,0.48718 1.0822,1.08218 V 14.4658 34.7014 H 8.08838 V 14.4658 8.02633 c 0,-0.59543 0.48675,-1.08218 1.08217,-1.08218 h 4.91165 z"
           fill="#ffffff"
           id="path4" />
        <path
           d="M 9.17012,6.95505 H 51.9882 c 0.5955,0 1.0822,0.48675 1.0822,1.08217 V 10.2013 H 8.08838 V 8.03722 c 0,-0.59542 0.48675,-1.08217 1.08217,-1.08217 z"
           fill="#d6d6d6"
           id="path5" />
        <path
           d="m 26.3088,7.98547 h 23.6303 c 0.161,0 0.292,0.15086 0.292,0.3341 v 0.61979 c 0,0.1834 -0.1314,0.33409 -0.292,0.33409 H 26.3088 c -0.1599,0 -0.2917,-0.14986 -0.2917,-0.33409 V 8.31957 c -2e-4,-0.18357 0.1311,-0.3341 0.2917,-0.3341 z"
           fill="#ffffff"
           id="path6" />
        <path
           d="m 10.6452,7.87207 c 0.3439,0 0.6231,0.27859 0.6231,0.62303 0,0.34414 -0.2791,0.62303 -0.6231,0.62303 -0.3445,0 -0.6237,-0.2786 -0.6237,-0.62303 10e-5,-0.34487 0.2792,-0.62303 0.6237,-0.62303 z"
           fill="#c02032"
           id="path7" />
        <path
           d="m 13.1045,7.87207 c 0.3445,0 0.623,0.27859 0.623,0.62303 0,0.34414 -0.2786,0.62303 -0.623,0.62303 -0.3439,0 -0.6231,-0.2786 -0.6231,-0.62303 0,-0.34487 0.2791,-0.62303 0.6231,-0.62303 z"
           fill="#939393"
           id="path8" />
        <path
           d="m 15.5732,7.90643 c 0.3446,0 0.6231,0.2786 0.6231,0.62303 0,0.34415 -0.2786,0.62303 -0.6231,0.62303 -0.3438,0 -0.623,-0.2786 -0.623,-0.62303 0,-0.34486 0.279,-0.62303 0.623,-0.62303 z"
           fill="#c9c9c9"
           id="path9" />
        <path
           d="m 30.5793,41.3137 c 0.6204,0 1.1233,-0.5029 1.1233,-1.1233 0,-0.6203 -0.5029,-1.1233 -1.1233,-1.1233 -0.6203,0 -1.1232,0.503 -1.1232,1.1233 0,0.6204 0.5029,1.1233 1.1232,1.1233 z"
           fill="#b6b6b8"
           id="path10" />
        <path
           d="m 37.6328,48.8832 5.1888,1.6624 H 18.3369 l 4.1865,-1.6624 v -5.1337 h 15.1091 v 5.1337 z"
           fill="#c2c2c4"
           id="path11" />
        <path
           d="M 37.6325,48.8832 22.5234,43.7495 h 15.1091 z"
           fill="#b0b0b0"
           id="path12" />
        <path
           d="m 22.5232,48.8832 h 15.1091 l 5.1888,1.6623 v 0.7161 H 30.5789 18.3364 v -0.7161 l 4.1866,-1.6623 z"
           fill="#b0b0b0"
           id="path13" />
        <path
           d="M 27.1592,8.25 V 9 H 27.0688 V 8.25 Z M 27.1377,8.71582 27.1001,8.71436 c 3e-4,-0.03614 0.0057,-0.0695 0.0161,-0.1001 0.0104,-0.03093 0.0251,-0.05778 0.044,-0.08057 0.0188,-0.02279 0.0413,-0.04036 0.0673,-0.05273 0.0264,-0.0127 0.0555,-0.01905 0.0874,-0.01905 0.0261,0 0.0495,0.00358 0.0704,0.01075 0.0208,0.00683 0.0385,0.0179 0.0532,0.0332 0.015,0.0153 0.0263,0.03516 0.0342,0.05957 0.0078,0.02409 0.0117,0.05355 0.0117,0.08838 V 9 H 27.3936 V 8.65283 c 0,-0.02767 -0.0041,-0.0498 -0.0123,-0.0664 C 27.3732,8.5695 27.3613,8.55729 27.3457,8.5498 27.3301,8.54199 27.3109,8.53809 27.2881,8.53809 c -0.0225,0 -0.043,0.00472 -0.0615,0.01416 -0.0183,0.00944 -0.0341,0.02246 -0.0474,0.03906 -0.013,0.0166 -0.0233,0.03564 -0.0308,0.05713 -0.0071,0.02116 -0.0107,0.04362 -0.0107,0.06738 z M 27.9408,8.47168 V 8.54102 H 27.6552 V 8.47168 Z M 27.7519,8.34326 h 0.0903 v 0.52588 c 0,0.0179 0.0028,0.03141 0.0083,0.04053 0.0055,0.00911 0.0127,0.01513 0.0215,0.01806 0.0088,0.00293 0.0182,0.0044 0.0283,0.0044 0.0075,0 0.0153,-6.5e-4 0.0234,-0.00195 0.0085,-0.00163 0.0148,-0.00293 0.0191,-0.00391 L 27.9433,9 c -0.0072,0.00228 -0.0166,0.00439 -0.0284,0.00635 -0.0114,0.00228 -0.0252,0.00342 -0.0415,0.00342 -0.0221,0 -0.0424,-0.0044 -0.061,-0.01319 C 27.7938,8.98779 27.779,8.97314 27.768,8.95264 27.7572,8.9318 27.7519,8.90381 27.7519,8.86865 Z M 28.368,8.47168 V 8.54102 H 28.0823 V 8.47168 Z M 28.179,8.34326 h 0.0903 v 0.52588 c 0,0.0179 0.0028,0.03141 0.0083,0.04053 0.0056,0.00911 0.0127,0.01513 0.0215,0.01806 0.0088,0.00293 0.0183,0.0044 0.0283,0.0044 0.0075,0 0.0153,-6.5e-4 0.0235,-0.00195 0.0084,-0.00163 0.0148,-0.00293 0.019,-0.00391 L 28.3704,9 c -0.0072,0.00228 -0.0166,0.00439 -0.0283,0.00635 -0.0114,0.00228 -0.0252,0.00342 -0.0415,0.00342 -0.0221,0 -0.0425,-0.0044 -0.061,-0.01319 C 28.221,8.98779 28.2062,8.97314 28.1951,8.95264 28.1844,8.9318 28.179,8.90381 28.179,8.86865 Z m 0.4853,0.22998 V 9.20312 H 28.5734 V 8.47168 h 0.083 z m 0.3559,0.15821 V 8.7417 c 0,0.03841 -0.0045,0.07406 -0.0137,0.10693 -0.0091,0.03255 -0.0224,0.06088 -0.04,0.08496 -0.0172,0.02409 -0.0386,0.04281 -0.064,0.05616 -0.0254,0.01334 -0.0545,0.02002 -0.0874,0.02002 -0.0335,0 -0.0631,-0.00554 -0.0888,-0.01661 C 28.7006,8.9821 28.6787,8.96598 28.6608,8.94482 28.6429,8.92367 28.6286,8.89827 28.6179,8.86865 28.6075,8.83903 28.6003,8.80566 28.5964,8.76855 V 8.71387 c 0.0039,-0.03907 0.0112,-0.07406 0.022,-0.10498 0.0107,-0.03093 0.0249,-0.05729 0.0424,-0.0791 0.0179,-0.02214 0.0396,-0.0389 0.065,-0.0503 0.0254,-0.01172 0.0547,-0.01758 0.0879,-0.01758 0.0332,0 0.0626,0.00651 0.0884,0.01954 0.0257,0.01269 0.0473,0.03092 0.0649,0.05468 0.0176,0.02377 0.0308,0.05225 0.0395,0.08545 0.0092,0.03288 0.0137,0.0695 0.0137,0.10987 z M 28.9294,8.7417 V 8.73145 c 0,-0.02637 -0.0028,-0.05111 -0.0083,-0.07422 C 28.9156,8.63379 28.9069,8.61328 28.8952,8.5957 28.8838,8.5778 28.8692,8.5638 28.8513,8.55371 28.8334,8.54329 28.812,8.53809 28.7873,8.53809 c -0.0228,0 -0.0426,0.0039 -0.0596,0.01171 -0.0166,0.00782 -0.0307,0.0184 -0.0424,0.03174 -0.0118,0.01302 -0.0214,0.028 -0.0289,0.04492 -0.0071,0.01661 -0.0125,0.03386 -0.0161,0.05176 v 0.12647 c 0.0065,0.02278 0.0157,0.04427 0.0274,0.06445 0.0117,0.01986 0.0273,0.03597 0.0469,0.04834 0.0195,0.01204 0.0441,0.01807 0.0737,0.01807 0.0244,0 0.0454,-0.00505 0.063,-0.01514 0.0179,-0.01042 0.0325,-0.02458 0.0439,-0.04248 0.0117,-0.0179 0.0204,-0.03841 0.0259,-0.06152 0.0055,-0.02344 0.0083,-0.04834 0.0083,-0.07471 z m 0.6137,0.11816 c 0,-0.01302 -0.003,-0.02506 -0.0088,-0.03613 C 29.5287,8.81234 29.5172,8.80208 29.4996,8.79297 29.4824,8.78353 29.4563,8.77539 29.4215,8.76855 29.3922,8.76237 29.3657,8.75505 29.3419,8.74658 29.3185,8.73812 29.2984,8.72786 29.2818,8.71582 29.2656,8.70378 29.253,8.68962 29.2442,8.67334 29.2354,8.65706 29.2311,8.63802 29.2311,8.61621 c 0,-0.02083 0.0045,-0.04053 0.0136,-0.05908 0.0095,-0.01856 0.0227,-0.03499 0.0396,-0.04932 0.0172,-0.01432 0.0379,-0.02555 0.062,-0.03369 0.0241,-0.00814 0.0509,-0.01221 0.0806,-0.01221 0.0423,0 0.0784,0.00749 0.1084,0.02247 0.0299,0.01497 0.0529,0.03499 0.0688,0.06005 0.016,0.02474 0.0239,0.05225 0.0239,0.08252 H 29.5377 C 29.5377,8.6123 29.5333,8.59814 29.5245,8.58447 29.516,8.57048 29.5035,8.55892 29.4869,8.5498 29.4706,8.54069 29.4506,8.53613 29.4269,8.53613 c -0.0251,0 -0.0455,0.00391 -0.0611,0.01172 -0.0153,0.00749 -0.0265,0.01709 -0.0337,0.02881 -0.0068,0.01172 -0.0102,0.02409 -0.0102,0.03711 0,0.00977 0.0016,0.01855 0.0049,0.02637 0.0035,0.00748 0.0097,0.01448 0.0185,0.02099 0.0088,0.00619 0.0212,0.01205 0.0371,0.01758 0.016,0.00553 0.0363,0.01107 0.0611,0.0166 0.0433,0.00977 0.0789,0.02149 0.1069,0.03516 0.028,0.01367 0.0488,0.03043 0.0625,0.05029 0.0137,0.01986 0.0205,0.04395 0.0205,0.07227 0,0.02311 -0.0049,0.04427 -0.0146,0.06347 -0.0095,0.01921 -0.0233,0.03581 -0.0416,0.04981 -0.0179,0.01367 -0.0393,0.02441 -0.0644,0.03223 -0.0247,0.00748 -0.0526,0.01123 -0.0835,0.01123 -0.0466,0 -0.0859,-0.00831 -0.1182,-0.02491 C 29.2789,8.96826 29.2545,8.94678 29.2379,8.92041 29.2213,8.89404 29.213,8.86621 29.213,8.83691 h 0.0908 c 0.0013,0.02474 0.0085,0.04444 0.0215,0.05909 0.013,0.01432 0.029,0.02457 0.0478,0.03076 0.0189,0.00586 0.0376,0.00879 0.0562,0.00879 0.0247,0 0.0454,-0.00326 0.062,-0.00977 0.0169,-0.00651 0.0298,-0.01546 0.0386,-0.02685 0.0088,-0.0114 0.0132,-0.02442 0.0132,-0.03907 z m 0.305,0.09229 c 0,-0.0153 0.0048,-0.02816 0.0142,-0.03858 0.0098,-0.01074 0.0238,-0.01611 0.042,-0.01611 0.0182,0 0.0321,0.00537 0.0415,0.01611 0.0098,0.01042 0.0146,0.02328 0.0146,0.03858 0,0.01497 -0.0048,0.02767 -0.0146,0.03808 -0.0094,0.01042 -0.0233,0.01563 -0.0415,0.01563 -0.0182,0 -0.0322,-0.00521 -0.042,-0.01563 C 29.8529,8.97982 29.8481,8.96712 29.8481,8.95215 Z m 5e-4,-0.43115 c 0,-0.0153 0.0048,-0.02816 0.0142,-0.03858 0.0098,-0.01074 0.0238,-0.01611 0.042,-0.01611 0.0182,0 0.032,0.00537 0.0415,0.01611 0.0098,0.01042 0.0146,0.02328 0.0146,0.03858 0,0.01497 -0.0048,0.02767 -0.0146,0.03808 -0.0095,0.01042 -0.0233,0.01563 -0.0415,0.01563 -0.0182,0 -0.0322,-0.00521 -0.042,-0.01563 C 29.8534,8.54867 29.8486,8.53597 29.8486,8.521 Z m 0.6601,-0.23194 -0.2964,0.77198 h -0.0776 l 0.2968,-0.77198 z m 0.4037,0 -0.2964,0.77198 h -0.0776 l 0.2969,-0.77198 z"
           fill="#696a6c"
           id="path14" />
        <path
           d="M 31.2316,9 H 31.1413 V 8.42578 c 0,-0.04004 0.0078,-0.07389 0.0234,-0.10156 0.0157,-0.02767 0.038,-0.04867 0.0669,-0.06299 0.029,-0.01432 0.0634,-0.02148 0.1031,-0.02148 0.0234,0 0.0464,0.00293 0.0688,0.00879 0.0225,0.00553 0.0456,0.01253 0.0694,0.02099 L 31.4577,8.3457 C 31.4427,8.33984 31.4253,8.33431 31.4055,8.3291 31.3859,8.32357 31.3645,8.3208 31.341,8.3208 c -0.0387,0 -0.0667,0.00879 -0.084,0.02637 -0.0169,0.01725 -0.0254,0.04345 -0.0254,0.07861 z m 0.108,-0.52832 V 8.54102 H 31.0578 V 8.47168 Z m 0.1777,0 V 9 H 31.427 V 8.47168 Z m 0.3388,0.08301 V 9 H 31.7657 V 8.47168 h 0.0879 z m 0.165,-0.08594 -5e-4,0.08398 C 32.0131,8.55111 32.006,8.55013 31.9991,8.5498 c -0.0065,-6.5e-4 -0.014,-9.7e-4 -0.0224,-9.7e-4 -0.0209,0 -0.0393,0.00325 -0.0552,0.00976 C 31.9055,8.5651 31.892,8.57422 31.881,8.58594 31.8699,8.59766 31.8611,8.61165 31.8546,8.62793 31.8484,8.64388 31.8443,8.66146 31.8424,8.68066 L 31.817,8.69531 c 0,-0.0319 0.0031,-0.06185 0.0093,-0.08984 0.0065,-0.028 0.0164,-0.05274 0.0298,-0.07422 0.0133,-0.02181 0.0302,-0.03874 0.0507,-0.05078 0.0209,-0.01237 0.0456,-0.01856 0.0743,-0.01856 0.0065,0 0.014,8.2e-4 0.0224,0.00245 0.0085,0.0013 0.0143,0.00276 0.0176,0.00439 z m 0.393,0.54102 c -0.0368,0 -0.0702,-0.00619 -0.1001,-0.01856 C 32.2843,8.97852 32.2588,8.96077 32.2373,8.93799 32.2161,8.9152 32.1999,8.88818 32.1885,8.85693 32.1771,8.82568 32.1714,8.7915 32.1714,8.75439 v -0.0205 c 0,-0.04297 0.0063,-0.08122 0.019,-0.11475 0.0127,-0.03385 0.03,-0.0625 0.0518,-0.08594 0.0218,-0.02343 0.0465,-0.04118 0.0742,-0.05322 0.0277,-0.01204 0.0563,-0.01807 0.0859,-0.01807 0.0378,0 0.0704,0.00651 0.0977,0.01954 0.0277,0.01302 0.0503,0.03125 0.0679,0.05468 0.0175,0.02311 0.0306,0.05046 0.039,0.08203 0.0085,0.03125 0.0127,0.06543 0.0127,0.10254 V 8.76123 H 32.2251 V 8.6875 h 0.3042 V 8.68066 C 32.528,8.65723 32.5231,8.63444 32.5146,8.6123 32.5065,8.59017 32.4935,8.57194 32.4756,8.55762 32.4577,8.54329 32.4333,8.53613 32.4023,8.53613 c -0.0205,0 -0.0393,0.0044 -0.0566,0.01319 -0.0172,0.00846 -0.0321,0.02116 -0.0444,0.03808 -0.0124,0.01693 -0.022,0.0376 -0.0288,0.06201 -0.0069,0.02442 -0.0103,0.05258 -0.0103,0.08448 v 0.0205 c 0,0.02507 0.0034,0.04867 0.0103,0.07081 0.0071,0.02181 0.0174,0.04101 0.0307,0.05761 0.0137,0.0166 0.0301,0.02962 0.0493,0.03907 0.0196,0.00944 0.0417,0.01416 0.0664,0.01416 0.0319,0 0.059,-0.00652 0.0811,-0.01954 0.0221,-0.01302 0.0415,-0.03043 0.0581,-0.05224 l 0.0547,0.04345 C 32.6014,8.92497 32.5869,8.94141 32.5693,8.95703 32.5518,8.97266 32.5301,8.98535 32.5044,8.99512 32.479,9.00488 32.4489,9.00977 32.4141,9.00977 Z M 33.1327,8.85986 C 33.1327,8.84684 33.1298,8.8348 33.1239,8.82373 33.1184,8.81234 33.1068,8.80208 33.0893,8.79297 33.072,8.78353 33.046,8.77539 33.0111,8.76855 32.9818,8.76237 32.9553,8.75505 32.9315,8.74658 32.9081,8.73812 32.8881,8.72786 32.8715,8.71582 32.8552,8.70378 32.8427,8.68962 32.8339,8.67334 32.8251,8.65706 32.8207,8.63802 32.8207,8.61621 c 0,-0.02083 0.0046,-0.04053 0.0137,-0.05908 0.0094,-0.01856 0.0226,-0.03499 0.0395,-0.04932 0.0173,-0.01432 0.0379,-0.02555 0.062,-0.03369 0.0241,-0.00814 0.051,-0.01221 0.0806,-0.01221 0.0423,0 0.0785,0.00749 0.1084,0.02247 0.03,0.01497 0.0529,0.03499 0.0688,0.06005 0.016,0.02474 0.024,0.05225 0.024,0.08252 H 33.1273 C 33.1273,8.6123 33.1229,8.59814 33.1142,8.58447 33.1057,8.57048 33.0932,8.55892 33.0766,8.5498 33.0603,8.54069 33.0403,8.53613 33.0165,8.53613 c -0.0251,0 -0.0454,0.00391 -0.061,0.01172 -0.0153,0.00749 -0.0266,0.01709 -0.0337,0.02881 -0.0069,0.01172 -0.0103,0.02409 -0.0103,0.03711 0,0.00977 0.0017,0.01855 0.0049,0.02637 0.0036,0.00748 0.0098,0.01448 0.0186,0.02099 0.0087,0.00619 0.0211,0.01205 0.0371,0.01758 0.0159,0.00553 0.0363,0.01107 0.061,0.0166 0.0433,0.00977 0.0789,0.02149 0.1069,0.03516 0.028,0.01367 0.0489,0.03043 0.0625,0.05029 0.0137,0.01986 0.0205,0.04395 0.0205,0.07227 0,0.02311 -0.0048,0.04427 -0.0146,0.06347 -0.0094,0.01921 -0.0233,0.03581 -0.0415,0.04981 -0.0179,0.01367 -0.0394,0.02441 -0.0645,0.03223 -0.0247,0.00748 -0.0525,0.01123 -0.0835,0.01123 -0.0465,0 -0.0859,-0.00831 -0.1181,-0.02491 C 32.8686,8.96826 32.8441,8.94678 32.8275,8.92041 32.8109,8.89404 32.8026,8.86621 32.8026,8.83691 h 0.0909 c 0.0013,0.02474 0.0084,0.04444 0.0214,0.05909 0.0131,0.01432 0.029,0.02457 0.0479,0.03076 0.0189,0.00586 0.0376,0.00879 0.0561,0.00879 0.0248,0 0.0455,-0.00326 0.0621,-0.00977 0.0169,-0.00651 0.0297,-0.01546 0.0385,-0.02685 0.0088,-0.0114 0.0132,-0.02442 0.0132,-0.03907 z m 0.4428,0.04639 0.1357,-0.43457 h 0.0596 L 33.7591,8.55811 33.6209,9 H 33.5628 Z M 33.4842,8.47168 33.5999,8.91113 33.6082,9 h -0.061 L 33.3938,8.47168 Z m 0.4165,0.43603 0.1103,-0.43603 h 0.0899 L 33.9476,9 H 33.887 Z M 33.784,8.47168 33.9168,8.89893 33.9319,9 H 33.8743 L 33.7322,8.55713 33.7205,8.47168 Z m 0.8212,0.43799 V 8.6377 c 0,-0.02084 -0.0043,-0.0389 -0.0127,-0.0542 C 34.5843,8.56787 34.572,8.55583 34.5554,8.54736 34.5388,8.5389 34.5183,8.53467 34.4938,8.53467 c -0.0227,0 -0.0428,0.0039 -0.06,0.01172 -0.0169,0.00781 -0.0303,0.01806 -0.04,0.03076 -0.0095,0.01269 -0.0142,0.02637 -0.0142,0.04101 h -0.0903 c 0,-0.01888 0.0048,-0.03759 0.0146,-0.05615 0.0098,-0.01855 0.0238,-0.03532 0.042,-0.05029 0.0186,-0.0153 0.0407,-0.02734 0.0664,-0.03613 0.026,-0.00912 0.055,-0.01368 0.0869,-0.01368 0.0384,0 0.0723,0.00651 0.1016,0.01954 0.0296,0.01302 0.0527,0.03271 0.0693,0.05908 0.0169,0.02604 0.0254,0.05875 0.0254,0.09814 v 0.2461 c 0,0.01757 0.0015,0.03629 0.0044,0.05615 0.0033,0.01985 0.008,0.03694 0.0142,0.05127 V 9 H 34.6198 C 34.6153,8.98958 34.6117,8.97575 34.6091,8.9585 34.6065,8.94092 34.6052,8.92464 34.6052,8.90967 Z m 0.0156,-0.22998 10e-4,0.06347 h -0.0913 c -0.0257,0 -0.0487,0.00212 -0.0689,0.00635 -0.0202,0.00391 -0.0371,0.00993 -0.0508,0.01807 -0.0136,0.00814 -0.024,0.01839 -0.0312,0.03076 -0.0072,0.01204 -0.0108,0.0262 -0.0108,0.04248 0,0.0166 0.0038,0.03174 0.0113,0.04541 0.0075,0.01367 0.0187,0.02458 0.0337,0.03272 0.0153,0.00781 0.034,0.01171 0.0561,0.01171 0.0277,0 0.0521,-0.00586 0.0733,-0.01757 C 34.5643,8.90137 34.5811,8.88704 34.5935,8.87012 34.6062,8.85319 34.613,8.83675 34.614,8.8208 l 0.0385,0.04346 c -0.0022,0.01367 -0.0084,0.02881 -0.0185,0.04541 -0.0101,0.0166 -0.0236,0.03255 -0.0405,0.04785 -0.0166,0.01497 -0.0365,0.02751 -0.0596,0.0376 -0.0228,0.00976 -0.0485,0.01465 -0.0772,0.01465 -0.0358,0 -0.0672,-0.007 -0.0942,-0.021 C 34.3358,8.97477 34.315,8.95605 34.3,8.93262 34.2854,8.90885 34.278,8.88232 34.278,8.85303 c 0,-0.02832 0.0056,-0.05323 0.0166,-0.07471 0.0111,-0.02181 0.027,-0.03988 0.0479,-0.0542 0.0208,-0.01465 0.0459,-0.02572 0.0752,-0.0332 0.0293,-0.00749 0.062,-0.01123 0.0981,-0.01123 z M 35.0279,8.58447 V 9 H 34.9376 V 8.47168 H 35.023 Z M 35.0064,8.71582 34.9688,8.71436 c 4e-4,-0.03614 0.0057,-0.0695 0.0162,-0.1001 0.0104,-0.03093 0.025,-0.05778 0.0439,-0.08057 0.0189,-0.02279 0.0413,-0.04036 0.0674,-0.05273 0.0264,-0.0127 0.0555,-0.01905 0.0874,-0.01905 0.026,0 0.0495,0.00358 0.0703,0.01075 0.0208,0.00683 0.0386,0.0179 0.0532,0.0332 0.015,0.0153 0.0264,0.03516 0.0342,0.05957 0.0078,0.02409 0.0117,0.05355 0.0117,0.08838 V 9 H 35.2623 V 8.65283 c 0,-0.02767 -0.0041,-0.0498 -0.0122,-0.0664 C 35.242,8.5695 35.2301,8.55729 35.2145,8.5498 35.1988,8.54199 35.1796,8.53809 35.1568,8.53809 c -0.0224,0 -0.0429,0.00472 -0.0615,0.01416 -0.0182,0.00944 -0.034,0.02246 -0.0474,0.03906 -0.013,0.0166 -0.0232,0.03564 -0.0307,0.05713 C 35.01,8.6696 35.0064,8.69206 35.0064,8.71582 Z m 0.5854,0.23633 c 0,-0.0153 0.0047,-0.02816 0.0142,-0.03858 0.0097,-0.01074 0.0237,-0.01611 0.0419,-0.01611 0.0183,0 0.0321,0.00537 0.0416,0.01611 0.0097,0.01042 0.0146,0.02328 0.0146,0.03858 0,0.01497 -0.0049,0.02767 -0.0146,0.03808 -0.0095,0.01042 -0.0233,0.01563 -0.0416,0.01563 -0.0182,0 -0.0322,-0.00521 -0.0419,-0.01563 C 35.5965,8.97982 35.5918,8.96712 35.5918,8.95215 Z M 36.0888,9 H 35.9984 V 8.41602 c 0,-0.03809 0.0069,-0.07015 0.0205,-0.0962 0.014,-0.02636 0.0341,-0.04622 0.0601,-0.05957 0.026,-0.01367 0.057,-0.0205 0.0928,-0.0205 0.0104,0 0.0208,6.5e-4 0.0312,0.00195 0.0108,0.0013 0.0212,0.00325 0.0313,0.00586 L 36.2294,8.32129 C 36.2226,8.31966 36.2147,8.31852 36.206,8.31787 c -0.0085,-6.5e-4 -0.017,-9.8e-4 -0.0254,-9.8e-4 -0.0192,0 -0.0358,0.00391 -0.0498,0.01172 -0.0137,0.00749 -0.0241,0.01856 -0.0313,0.03321 -0.0071,0.01464 -0.0107,0.03271 -0.0107,0.0542 z M 36.2011,8.47168 V 8.54102 H 35.9149 V 8.47168 Z m 0.5238,0.40625 V 8.47168 h 0.0908 V 9 H 36.7293 Z M 36.742,8.7666 36.7796,8.76562 c 0,0.03516 -0.0038,0.06771 -0.0112,0.09766 -0.0072,0.02962 -0.0189,0.05534 -0.0352,0.07715 -0.0163,0.02181 -0.0376,0.0389 -0.064,0.05127 -0.0263,0.01204 -0.0584,0.01807 -0.0962,0.01807 -0.0257,0 -0.0493,-0.00375 -0.0708,-0.01123 C 36.4811,8.99105 36.4629,8.97949 36.4476,8.96387 36.4323,8.94824 36.4204,8.9279 36.4119,8.90283 36.4038,8.87777 36.3997,8.84766 36.3997,8.8125 V 8.47168 H 36.49 v 0.3418 c 0,0.02376 0.0026,0.04345 0.0079,0.05908 0.0055,0.0153 0.0128,0.02751 0.0219,0.03662 0.0095,0.00879 0.0199,0.01497 0.0313,0.01855 0.0117,0.00359 0.0237,0.00538 0.0361,0.00538 0.0384,0 0.0689,-0.00733 0.0913,-0.02198 C 36.701,8.89616 36.7171,8.87614 36.7269,8.85107 36.7369,8.82568 36.742,8.79753 36.742,8.7666 Z M 37.1438,8.58447 V 9 H 37.0534 V 8.47168 h 0.0855 z M 37.1223,8.71582 37.0847,8.71436 c 3e-4,-0.03614 0.0057,-0.0695 0.0161,-0.1001 0.0104,-0.03093 0.025,-0.05778 0.0439,-0.08057 0.0189,-0.02279 0.0414,-0.04036 0.0674,-0.05273 0.0264,-0.0127 0.0555,-0.01905 0.0874,-0.01905 0.0261,0 0.0495,0.00358 0.0703,0.01075 0.0209,0.00683 0.0386,0.0179 0.0532,0.0332 0.015,0.0153 0.0264,0.03516 0.0342,0.05957 0.0078,0.02409 0.0117,0.05355 0.0117,0.08838 V 9 H 37.3781 V 8.65283 c 0,-0.02767 -0.004,-0.0498 -0.0122,-0.0664 C 37.3578,8.5695 37.3459,8.55729 37.3303,8.5498 37.3146,8.54199 37.2954,8.53809 37.2727,8.53809 c -0.0225,0 -0.043,0.00472 -0.0616,0.01416 -0.0182,0.00944 -0.034,0.02246 -0.0473,0.03906 -0.0131,0.0166 -0.0233,0.03564 -0.0308,0.05713 -0.0072,0.02116 -0.0107,0.04362 -0.0107,0.06738 z m 0.9169,0.18164 V 8.25 H 38.13 V 9 H 38.047 Z M 37.6837,8.7417 V 8.73145 c 0,-0.04037 0.0049,-0.07699 0.0146,-0.10987 0.0101,-0.0332 0.0243,-0.06168 0.0425,-0.08545 0.0186,-0.02376 0.0405,-0.04199 0.0659,-0.05468 0.0258,-0.01303 0.0544,-0.01954 0.086,-0.01954 0.0332,0 0.0621,0.00586 0.0869,0.01758 0.0251,0.0114 0.0462,0.02816 0.0635,0.0503 0.0175,0.02181 0.0314,0.04817 0.0415,0.0791 0.0101,0.03092 0.0171,0.06591 0.021,0.10498 v 0.04492 c -0.0036,0.03874 -0.0106,0.07357 -0.021,0.10449 -0.0101,0.03093 -0.024,0.05729 -0.0415,0.0791 -0.0173,0.02181 -0.0384,0.03858 -0.0635,0.0503 -0.0251,0.01139 -0.0544,0.01709 -0.0879,0.01709 -0.0309,0 -0.0592,-0.00668 -0.085,-0.02002 C 37.7813,8.9764 37.7594,8.95768 37.7408,8.93359 37.7226,8.90951 37.7084,8.88118 37.6983,8.84863 37.6886,8.81576 37.6837,8.78011 37.6837,8.7417 Z M 37.7745,8.73145 V 8.7417 c 0,0.02637 0.0026,0.05111 0.0078,0.07422 0.0056,0.02311 0.014,0.04346 0.0254,0.06103 0.0114,0.01758 0.0259,0.03142 0.0435,0.04151 0.0175,0.00976 0.0385,0.01465 0.063,0.01465 0.0299,0 0.0545,-0.00635 0.0737,-0.01905 C 38.0074,8.90137 38.023,8.8846 38.0348,8.86377 38.0465,8.84294 38.0556,8.82031 38.0621,8.7959 V 8.67822 C 38.0582,8.66032 38.0525,8.64307 38.045,8.62646 38.0379,8.60954 38.0284,8.59456 38.0167,8.58154 38.0053,8.5682 37.9911,8.55762 37.9742,8.5498 37.9576,8.54199 37.9379,8.53809 37.9151,8.53809 c -0.0247,0 -0.046,0.0052 -0.0639,0.01562 C 37.8336,8.5638 37.8191,8.5778 37.8077,8.5957 37.7963,8.61328 37.7879,8.63379 37.7823,8.65723 37.7771,8.68034 37.7745,8.70508 37.7745,8.73145 Z m 0.5976,0.2207 c 0,-0.0153 0.0047,-0.02816 0.0141,-0.03858 0.0098,-0.01074 0.0238,-0.01611 0.042,-0.01611 0.0183,0 0.0321,0.00537 0.0415,0.01611 0.0098,0.01042 0.0147,0.02328 0.0147,0.03858 0,0.01497 -0.0049,0.02767 -0.0147,0.03808 -0.0094,0.01042 -0.0232,0.01563 -0.0415,0.01563 -0.0182,0 -0.0322,-0.00521 -0.042,-0.01563 C 38.3768,8.97982 38.3721,8.96712 38.3721,8.95215 Z M 38.7338,8.25 h 0.0908 V 8.89746 L 38.8168,9 h -0.083 z m 0.4477,0.48145 V 8.7417 c 0,0.03841 -0.0045,0.07406 -0.0136,0.10693 -0.0091,0.03255 -0.0225,0.06088 -0.0401,0.08496 -0.0175,0.02409 -0.039,0.04281 -0.0644,0.05616 -0.0254,0.01334 -0.0545,0.02002 -0.0874,0.02002 -0.0336,0 -0.063,-0.0057 -0.0884,-0.01709 C 38.8625,8.98096 38.8414,8.96419 38.8241,8.94238 38.8069,8.92057 38.793,8.89421 38.7826,8.86328 38.7725,8.83236 38.7655,8.79753 38.7616,8.75879 V 8.71387 c 0.0039,-0.03907 0.0109,-0.07406 0.021,-0.10498 0.0104,-0.03093 0.0243,-0.05729 0.0415,-0.0791 0.0173,-0.02214 0.0384,-0.0389 0.0635,-0.0503 0.0251,-0.01172 0.0542,-0.01758 0.0874,-0.01758 0.0332,0 0.0627,0.00651 0.0884,0.01954 0.0257,0.01269 0.0472,0.03092 0.0644,0.05468 0.0176,0.02377 0.031,0.05225 0.0401,0.08545 0.0091,0.03288 0.0136,0.0695 0.0136,0.10987 z M 39.0907,8.7417 V 8.73145 c 0,-0.02637 -0.0024,-0.05111 -0.0073,-0.07422 C 39.0785,8.63379 39.0707,8.61328 39.06,8.5957 39.0492,8.5778 39.0351,8.5638 39.0175,8.55371 38.9999,8.54329 38.9783,8.53809 38.9525,8.53809 c -0.0227,0 -0.0426,0.0039 -0.0595,0.01171 -0.0166,0.00782 -0.0308,0.0184 -0.0425,0.03174 -0.0117,0.01302 -0.0213,0.028 -0.0288,0.04492 -0.0072,0.01661 -0.0126,0.03386 -0.0161,0.05176 V 8.7959 c 0.0052,0.02278 0.0136,0.04476 0.0254,0.06592 0.012,0.02083 0.028,0.03792 0.0478,0.05127 0.0202,0.01334 0.0451,0.02002 0.0747,0.02002 0.0244,0 0.0453,-0.00489 0.0625,-0.01465 0.0176,-0.01009 0.0318,-0.02393 0.0425,-0.04151 0.0111,-0.01757 0.0192,-0.03792 0.0244,-0.06103 0.0052,-0.02311 0.0078,-0.04785 0.0078,-0.07422 z M 39.4861,8.55469 V 9 H 39.3958 V 8.47168 h 0.0879 z m 0.1651,-0.08594 -5e-4,0.08398 C 39.6432,8.55111 39.636,8.55013 39.6292,8.5498 c -0.0065,-6.5e-4 -0.014,-9.7e-4 -0.0225,-9.7e-4 -0.0208,0 -0.0392,0.00325 -0.0551,0.00976 C 39.5356,8.5651 39.5221,8.57422 39.511,8.58594 39.5,8.59766 39.4912,8.61165 39.4847,8.62793 39.4785,8.64388 39.4744,8.66146 39.4725,8.68066 l -0.0254,0.01465 c 0,-0.0319 0.0031,-0.06185 0.0092,-0.08984 0.0066,-0.028 0.0165,-0.05274 0.0298,-0.07422 0.0134,-0.02181 0.0303,-0.03874 0.0508,-0.05078 0.0208,-0.01237 0.0456,-0.01856 0.0742,-0.01856 0.0065,0 0.014,8.2e-4 0.0225,0.00245 0.0085,0.0013 0.0143,0.00276 0.0176,0.00439 z M 39.9255,8.25 V 9 H 39.8347 V 8.25 Z M 40.2482,8.47168 40.0178,8.71826 39.8889,8.85205 39.8815,8.75586 39.9738,8.64551 40.1379,8.47168 Z M 40.1657,9 39.9772,8.74805 40.0241,8.66748 40.2722,9 Z M 40.7286,8.28516 V 9 H 40.6383 V 8.39795 L 40.4562,8.46436 V 8.38281 l 0.2583,-0.09765 z m 0.6899,0.0039 -0.2964,0.77198 h -0.0777 l 0.2969,-0.77198 z"
           fill="#202124"
           id="path15" />
        <path
           d="M 23,25.4909 35.2272,15.9814 34.7007,15.3306 37,15 36.1351,17.115 35.6086,16.4642 23.4513,26 c 0,0 -0.4352,-0.5038 -0.4513,-0.5091 z"
           fill="#3b3b3b"
           id="path16" />
        <path
           d="m 27,27 h -1 v 3 h 1 z"
           fill="#e21b1b"
           id="path17" />
        <path
           d="m 33,23 h -2 v 7 h 2 z"
           fill="#e21b1b"
           id="path18" />
        <path
           d="m 36,21 h -2 v 9 h 2 z"
           fill="#403572"
           id="path19" />
        <path
           d="m 38,18 h -2 v 12 h 2 z"
           fill="#e21b1b"
           id="path20" />
        <path
           d="m 24.8417,28.56 h -1.579 v 1.3108 h 1.579 z"
           fill="#403572"
           id="path21" />
        <path
           d="m 30.1054,25.4702 h -1.579 v 4.4055 h 1.579 z"
           fill="#403572"
           id="path22" />
        <path
           d="m 28.9989,18.0047 c 10e-5,0.0741 -0.0044,0.1482 -0.0134,0.2217 -0.0236,0.22 -0.0844,0.4344 -0.1799,0.6341 -0.1622,0.341 -0.4181,0.629 -0.7378,0.8307 C 27.7481,19.8929 27.3777,20 26.9994,20 26.6212,20 26.2507,19.8929 25.931,19.6912 25.6113,19.4895 25.3555,19.2015 25.1933,18.8605 25.0978,18.6608 25.0369,18.4464 25.0133,18.2264 25.0043,18.1529 24.9999,18.0788 25,18.0047 c -10e-5,-0.0742 0.0051,-0.1483 0.0156,-0.2217 -0.0011,-0.0192 -0.0011,-0.0385 0,-0.0577 0.019,-0.1318 0.0526,-0.2612 0.0999,-0.3857 0.1365,-0.3913 0.3916,-0.7305 0.73,-0.9706 0.3384,-0.24 0.7432,-0.369 1.1584,-0.369 0.4151,0 0.82,0.129 1.1584,0.369 0.3384,0.2401 0.5935,0.5793 0.7299,0.9706 0.0447,0.1226 0.0759,0.2497 0.0933,0.3791 0.0124,0.0948 0.0168,0.1905 0.0134,0.286 z"
           fill="url(#paint0_linear_111_206)"
           id="path23"
           style="fill:url(#paint0_linear_111_206)" />
        <path
           d="m 27.1429,17.7619 h -0.2854 c -0.0379,0 -0.0742,-0.0125 -0.101,-0.0349 -0.0267,-0.0223 -0.0418,-0.0526 -0.0418,-0.0841 0,-0.0316 0.0151,-0.0619 0.0418,-0.0842 0.0268,-0.0223 0.0631,-0.0349 0.101,-0.0349 h 0.7137 c 0.0757,0 0.1483,-0.0251 0.2018,-0.0697 0.0536,-0.0447 0.0836,-0.1052 0.0836,-0.1684 0,-0.0631 -0.03,-0.1237 -0.0836,-0.1683 -0.0535,-0.0447 -0.1261,-0.0698 -0.2018,-0.0698 h -0.2855 v -0.2381 c 0,-0.0631 -0.0301,-0.1237 -0.0836,-0.1683 -0.0536,-0.0447 -0.1262,-0.0698 -0.2019,-0.0698 -0.0757,0 -0.1483,0.0251 -0.2019,0.0698 -0.0535,0.0446 -0.0836,0.1052 -0.0836,0.1683 v 0.25 c -0.1734,0.0294 -0.3276,0.1115 -0.4326,0.2303 -0.1049,0.1189 -0.1532,0.266 -0.1354,0.4129 0.0178,0.1469 0.1004,0.283 0.2317,0.3819 0.1313,0.099 0.3021,0.1537 0.4791,0.1535 h 0.2854 c 0.0379,0 0.0742,0.0126 0.101,0.0349 0.0267,0.0223 0.0418,0.0526 0.0418,0.0842 0,0.0315 -0.0151,0.0618 -0.0418,0.0841 -0.0268,0.0224 -0.0631,0.0349 -0.101,0.0349 h -0.7136 c -0.0758,0 -0.1484,0.0251 -0.2019,0.0697 -0.0535,0.0447 -0.0836,0.1053 -0.0836,0.1684 0,0.0631 0.0301,0.1237 0.0836,0.1684 0.0535,0.0446 0.1261,0.0697 0.2019,0.0697 h 0.2854 v 0.2381 c 0,0.0631 0.0301,0.1237 0.0836,0.1683 0.0536,0.0447 0.1262,0.0698 0.2019,0.0698 0.0757,0 0.1483,-0.0251 0.2019,-0.0698 0.0535,-0.0446 0.0836,-0.1052 0.0836,-0.1683 v -0.2381 c 0,0 0,0 0,-0.0119 0.1734,-0.0294 0.3276,-0.1115 0.4326,-0.2303 0.1049,-0.1189 0.1532,-0.266 0.1354,-0.4129 -0.0177,-0.1468 -0.1003,-0.2829 -0.2317,-0.3819 -0.1313,-0.0989 -0.3021,-0.1536 -0.4791,-0.1535 z"
           fill="url(#paint1_linear_111_206)"
           id="path24"
           style="fill:url(#paint1_linear_111_206)" />
      </g>
    </g>
  </g>
</svg>
