<svg width="62" height="52" viewBox="0 0 62 52" fill="none" xmlns="http://www.w3.org/2000/svg">
<path d="M3.26369 0H57.8952C59.6901 0 61.1584 1.46873 61.1584 3.26364V36.917H0.000488281V3.26364C0.000488281 1.46873 1.46879 0 3.26369 0Z" fill="#666666"/>
<path d="M2.21625 34.7009H58.9424V3.2632C58.9424 2.6912 58.4668 2.21567 57.8949 2.21567H3.26335C2.69179 2.21567 2.21582 2.6912 2.21582 3.2632V34.7011L2.21625 34.7009Z" fill="#6C8CC7"/>
<path d="M61.1583 36.917V40.4858C61.1583 42.2812 59.5395 43.7495 57.5608 43.7495H3.59757C1.61881 43.7495 0 42.2812 0 40.4858V36.917H61.1579H61.1583Z" fill="#C2C2C4" fill-opacity="0.1"/>
<path d="M14.0817 6.94415H47.0765H51.9881C52.5835 6.94415 53.0703 7.43133 53.0703 8.02633V14.4658V34.7014H8.08838V14.4658V8.02633C8.08838 7.4309 8.57513 6.94415 9.17055 6.94415H14.0822H14.0817Z" fill="white"/>
<path d="M9.17012 6.95505H51.9882C52.5837 6.95505 53.0704 7.4418 53.0704 8.03722V10.2013H8.08838V8.03722C8.08838 7.4418 8.57513 6.95505 9.17055 6.95505H9.17012Z" fill="#D6D6D6"/>
<path d="M26.3088 7.98547H49.9391C50.1001 7.98547 50.2311 8.13633 50.2311 8.31957V8.93936C50.2311 9.12276 50.0997 9.27345 49.9391 9.27345H26.3088C26.1489 9.27345 26.0171 9.12359 26.0171 8.93936V8.31957C26.0169 8.136 26.1482 7.98547 26.3088 7.98547Z" fill="white"/>
<path d="M10.6452 7.87207C10.9891 7.87207 11.2683 8.15066 11.2683 8.4951C11.2683 8.83924 10.9892 9.11813 10.6452 9.11813C10.3007 9.11813 10.0215 8.83953 10.0215 8.4951C10.0216 8.15023 10.3007 7.87207 10.6452 7.87207Z" fill="#C02032"/>
<path d="M13.1045 7.87207C13.449 7.87207 13.7275 8.15066 13.7275 8.4951C13.7275 8.83924 13.4489 9.11813 13.1045 9.11813C12.7606 9.11813 12.4814 8.83953 12.4814 8.4951C12.4814 8.15023 12.7605 7.87207 13.1045 7.87207Z" fill="#939393"/>
<path d="M15.5732 7.90643C15.9178 7.90643 16.1963 8.18503 16.1963 8.52946C16.1963 8.87361 15.9177 9.15249 15.5732 9.15249C15.2294 9.15249 14.9502 8.87389 14.9502 8.52946C14.9502 8.1846 15.2292 7.90643 15.5732 7.90643Z" fill="#C9C9C9"/>
<path d="M30.5793 41.3137C31.1997 41.3137 31.7026 40.8108 31.7026 40.1904C31.7026 39.5701 31.1997 39.0671 30.5793 39.0671C29.959 39.0671 29.4561 39.5701 29.4561 40.1904C29.4561 40.8108 29.959 41.3137 30.5793 41.3137Z" fill="#B6B6B8"/>
<path d="M37.6328 48.8832L42.8216 50.5456H18.3369L22.5234 48.8832V43.7495H37.6325V48.8832H37.6328Z" fill="#C2C2C4"/>
<path d="M37.6325 48.8832L22.5234 43.7495H37.6325V48.8832Z" fill="#B0B0B0"/>
<path d="M22.5232 48.8832H37.6323L42.8211 50.5455V51.2616H30.5789H18.3364V50.5455L22.523 48.8832H22.5232Z" fill="#B0B0B0"/>
<path d="M27.1592 8.25V9H27.0688V8.25H27.1592ZM27.1377 8.71582L27.1001 8.71436C27.1004 8.67822 27.1058 8.64486 27.1162 8.61426C27.1266 8.58333 27.1413 8.55648 27.1602 8.53369C27.179 8.5109 27.2015 8.49333 27.2275 8.48096C27.2539 8.46826 27.283 8.46191 27.3149 8.46191C27.341 8.46191 27.3644 8.46549 27.3853 8.47266C27.4061 8.47949 27.4238 8.49056 27.4385 8.50586C27.4535 8.52116 27.4648 8.54102 27.4727 8.56543C27.4805 8.58952 27.4844 8.61898 27.4844 8.65381V9H27.3936V8.65283C27.3936 8.62516 27.3895 8.60303 27.3813 8.58643C27.3732 8.5695 27.3613 8.55729 27.3457 8.5498C27.3301 8.54199 27.3109 8.53809 27.2881 8.53809C27.2656 8.53809 27.2451 8.54281 27.2266 8.55225C27.2083 8.56169 27.1925 8.57471 27.1792 8.59131C27.1662 8.60791 27.1559 8.62695 27.1484 8.64844C27.1413 8.6696 27.1377 8.69206 27.1377 8.71582ZM27.9408 8.47168V8.54102H27.6552V8.47168H27.9408ZM27.7519 8.34326H27.8422V8.86914C27.8422 8.88704 27.845 8.90055 27.8505 8.90967C27.856 8.91878 27.8632 8.9248 27.872 8.92773C27.8808 8.93066 27.8902 8.93213 27.9003 8.93213C27.9078 8.93213 27.9156 8.93148 27.9237 8.93018C27.9322 8.92855 27.9385 8.92725 27.9428 8.92627L27.9433 9C27.9361 9.00228 27.9267 9.00439 27.9149 9.00635C27.9035 9.00863 27.8897 9.00977 27.8734 9.00977C27.8513 9.00977 27.831 9.00537 27.8124 8.99658C27.7938 8.98779 27.779 8.97314 27.768 8.95264C27.7572 8.9318 27.7519 8.90381 27.7519 8.86865V8.34326ZM28.368 8.47168V8.54102H28.0823V8.47168H28.368ZM28.179 8.34326H28.2693V8.86914C28.2693 8.88704 28.2721 8.90055 28.2776 8.90967C28.2832 8.91878 28.2903 8.9248 28.2991 8.92773C28.3079 8.93066 28.3174 8.93213 28.3274 8.93213C28.3349 8.93213 28.3427 8.93148 28.3509 8.93018C28.3593 8.92855 28.3657 8.92725 28.3699 8.92627L28.3704 9C28.3632 9.00228 28.3538 9.00439 28.3421 9.00635C28.3307 9.00863 28.3169 9.00977 28.3006 9.00977C28.2785 9.00977 28.2581 9.00537 28.2396 8.99658C28.221 8.98779 28.2062 8.97314 28.1951 8.95264C28.1844 8.9318 28.179 8.90381 28.179 8.86865V8.34326ZM28.6643 8.57324V9.20312H28.5734V8.47168H28.6564L28.6643 8.57324ZM29.0202 8.73145V8.7417C29.0202 8.78011 29.0157 8.81576 29.0065 8.84863C28.9974 8.88118 28.9841 8.90951 28.9665 8.93359C28.9493 8.95768 28.9279 8.9764 28.9025 8.98975C28.8771 9.00309 28.848 9.00977 28.8151 9.00977C28.7816 9.00977 28.752 9.00423 28.7263 8.99316C28.7006 8.9821 28.6787 8.96598 28.6608 8.94482C28.6429 8.92367 28.6286 8.89827 28.6179 8.86865C28.6075 8.83903 28.6003 8.80566 28.5964 8.76855V8.71387C28.6003 8.6748 28.6076 8.63981 28.6184 8.60889C28.6291 8.57796 28.6433 8.5516 28.6608 8.52979C28.6787 8.50765 28.7004 8.49089 28.7258 8.47949C28.7512 8.46777 28.7805 8.46191 28.8137 8.46191C28.8469 8.46191 28.8763 8.46842 28.9021 8.48145C28.9278 8.49414 28.9494 8.51237 28.967 8.53613C28.9846 8.5599 28.9978 8.58838 29.0065 8.62158C29.0157 8.65446 29.0202 8.69108 29.0202 8.73145ZM28.9294 8.7417V8.73145C28.9294 8.70508 28.9266 8.68034 28.9211 8.65723C28.9156 8.63379 28.9069 8.61328 28.8952 8.5957C28.8838 8.5778 28.8692 8.5638 28.8513 8.55371C28.8334 8.54329 28.812 8.53809 28.7873 8.53809C28.7645 8.53809 28.7447 8.54199 28.7277 8.5498C28.7111 8.55762 28.697 8.5682 28.6853 8.58154C28.6735 8.59456 28.6639 8.60954 28.6564 8.62646C28.6493 8.64307 28.6439 8.66032 28.6403 8.67822V8.80469C28.6468 8.82747 28.656 8.84896 28.6677 8.86914C28.6794 8.889 28.695 8.90511 28.7146 8.91748C28.7341 8.92952 28.7587 8.93555 28.7883 8.93555C28.8127 8.93555 28.8337 8.9305 28.8513 8.92041C28.8692 8.90999 28.8838 8.89583 28.8952 8.87793C28.9069 8.86003 28.9156 8.83952 28.9211 8.81641C28.9266 8.79297 28.9294 8.76807 28.9294 8.7417ZM29.5431 8.85986C29.5431 8.84684 29.5401 8.8348 29.5343 8.82373C29.5287 8.81234 29.5172 8.80208 29.4996 8.79297C29.4824 8.78353 29.4563 8.77539 29.4215 8.76855C29.3922 8.76237 29.3657 8.75505 29.3419 8.74658C29.3185 8.73812 29.2984 8.72786 29.2818 8.71582C29.2656 8.70378 29.253 8.68962 29.2442 8.67334C29.2354 8.65706 29.2311 8.63802 29.2311 8.61621C29.2311 8.59538 29.2356 8.57568 29.2447 8.55713C29.2542 8.53857 29.2674 8.52214 29.2843 8.50781C29.3015 8.49349 29.3222 8.48226 29.3463 8.47412C29.3704 8.46598 29.3972 8.46191 29.4269 8.46191C29.4692 8.46191 29.5053 8.4694 29.5353 8.48438C29.5652 8.49935 29.5882 8.51937 29.6041 8.54443C29.6201 8.56917 29.628 8.59668 29.628 8.62695H29.5377C29.5377 8.6123 29.5333 8.59814 29.5245 8.58447C29.516 8.57048 29.5035 8.55892 29.4869 8.5498C29.4706 8.54069 29.4506 8.53613 29.4269 8.53613C29.4018 8.53613 29.3814 8.54004 29.3658 8.54785C29.3505 8.55534 29.3393 8.56494 29.3321 8.57666C29.3253 8.58838 29.3219 8.60075 29.3219 8.61377C29.3219 8.62354 29.3235 8.63232 29.3268 8.64014C29.3303 8.64762 29.3365 8.65462 29.3453 8.66113C29.3541 8.66732 29.3665 8.67318 29.3824 8.67871C29.3984 8.68424 29.4187 8.68978 29.4435 8.69531C29.4868 8.70508 29.5224 8.7168 29.5504 8.73047C29.5784 8.74414 29.5992 8.7609 29.6129 8.78076C29.6266 8.80062 29.6334 8.82471 29.6334 8.85303C29.6334 8.87614 29.6285 8.8973 29.6188 8.9165C29.6093 8.93571 29.5955 8.95231 29.5772 8.96631C29.5593 8.97998 29.5379 8.99072 29.5128 8.99854C29.4881 9.00602 29.4602 9.00977 29.4293 9.00977C29.3827 9.00977 29.3434 9.00146 29.3111 8.98486C29.2789 8.96826 29.2545 8.94678 29.2379 8.92041C29.2213 8.89404 29.213 8.86621 29.213 8.83691H29.3038C29.3051 8.86165 29.3123 8.88135 29.3253 8.896C29.3383 8.91032 29.3543 8.92057 29.3731 8.92676C29.392 8.93262 29.4107 8.93555 29.4293 8.93555C29.454 8.93555 29.4747 8.93229 29.4913 8.92578C29.5082 8.91927 29.5211 8.91032 29.5299 8.89893C29.5387 8.88753 29.5431 8.87451 29.5431 8.85986ZM29.8481 8.95215C29.8481 8.93685 29.8529 8.92399 29.8623 8.91357C29.8721 8.90283 29.8861 8.89746 29.9043 8.89746C29.9225 8.89746 29.9364 8.90283 29.9458 8.91357C29.9556 8.92399 29.9604 8.93685 29.9604 8.95215C29.9604 8.96712 29.9556 8.97982 29.9458 8.99023C29.9364 9.00065 29.9225 9.00586 29.9043 9.00586C29.8861 9.00586 29.8721 9.00065 29.8623 8.99023C29.8529 8.97982 29.8481 8.96712 29.8481 8.95215ZM29.8486 8.521C29.8486 8.5057 29.8534 8.49284 29.8628 8.48242C29.8726 8.47168 29.8866 8.46631 29.9048 8.46631C29.923 8.46631 29.9368 8.47168 29.9463 8.48242C29.9561 8.49284 29.9609 8.5057 29.9609 8.521C29.9609 8.53597 29.9561 8.54867 29.9463 8.55908C29.9368 8.5695 29.923 8.57471 29.9048 8.57471C29.8866 8.57471 29.8726 8.5695 29.8628 8.55908C29.8534 8.54867 29.8486 8.53597 29.8486 8.521ZM30.5087 8.28906L30.2123 9.06104H30.1347L30.4315 8.28906H30.5087ZM30.9124 8.28906L30.616 9.06104H30.5384L30.8353 8.28906H30.9124Z" fill="#696A6C"/>
<path d="M31.2316 9H31.1413V8.42578C31.1413 8.38574 31.1491 8.35189 31.1647 8.32422C31.1804 8.29655 31.2027 8.27555 31.2316 8.26123C31.2606 8.24691 31.295 8.23975 31.3347 8.23975C31.3581 8.23975 31.3811 8.24268 31.4035 8.24854C31.426 8.25407 31.4491 8.26107 31.4729 8.26953L31.4577 8.3457C31.4427 8.33984 31.4253 8.33431 31.4055 8.3291C31.3859 8.32357 31.3645 8.3208 31.341 8.3208C31.3023 8.3208 31.2743 8.32959 31.257 8.34717C31.2401 8.36442 31.2316 8.39062 31.2316 8.42578V9ZM31.3396 8.47168V8.54102H31.0578V8.47168H31.3396ZM31.5173 8.47168V9H31.427V8.47168H31.5173ZM31.8561 8.55469V9H31.7657V8.47168H31.8536L31.8561 8.55469ZM32.0211 8.46875L32.0206 8.55273C32.0131 8.55111 32.006 8.55013 31.9991 8.5498C31.9926 8.54915 31.9851 8.54883 31.9767 8.54883C31.9558 8.54883 31.9374 8.55208 31.9215 8.55859C31.9055 8.5651 31.892 8.57422 31.881 8.58594C31.8699 8.59766 31.8611 8.61165 31.8546 8.62793C31.8484 8.64388 31.8443 8.66146 31.8424 8.68066L31.817 8.69531C31.817 8.66341 31.8201 8.63346 31.8263 8.60547C31.8328 8.57747 31.8427 8.55273 31.8561 8.53125C31.8694 8.50944 31.8863 8.49251 31.9068 8.48047C31.9277 8.4681 31.9524 8.46191 31.9811 8.46191C31.9876 8.46191 31.9951 8.46273 32.0035 8.46436C32.012 8.46566 32.0178 8.46712 32.0211 8.46875ZM32.4141 9.00977C32.3773 9.00977 32.3439 9.00358 32.314 8.99121C32.2843 8.97852 32.2588 8.96077 32.2373 8.93799C32.2161 8.9152 32.1999 8.88818 32.1885 8.85693C32.1771 8.82568 32.1714 8.7915 32.1714 8.75439V8.73389C32.1714 8.69092 32.1777 8.65267 32.1904 8.61914C32.2031 8.58529 32.2204 8.55664 32.2422 8.5332C32.264 8.50977 32.2887 8.49202 32.3164 8.47998C32.3441 8.46794 32.3727 8.46191 32.4023 8.46191C32.4401 8.46191 32.4727 8.46842 32.5 8.48145C32.5277 8.49447 32.5503 8.5127 32.5679 8.53613C32.5854 8.55924 32.5985 8.58659 32.6069 8.61816C32.6154 8.64941 32.6196 8.68359 32.6196 8.7207V8.76123H32.2251V8.6875H32.5293V8.68066C32.528 8.65723 32.5231 8.63444 32.5146 8.6123C32.5065 8.59017 32.4935 8.57194 32.4756 8.55762C32.4577 8.54329 32.4333 8.53613 32.4023 8.53613C32.3818 8.53613 32.363 8.54053 32.3457 8.54932C32.3285 8.55778 32.3136 8.57048 32.3013 8.5874C32.2889 8.60433 32.2793 8.625 32.2725 8.64941C32.2656 8.67383 32.2622 8.70199 32.2622 8.73389V8.75439C32.2622 8.77946 32.2656 8.80306 32.2725 8.8252C32.2796 8.84701 32.2899 8.86621 32.3032 8.88281C32.3169 8.89941 32.3333 8.91243 32.3525 8.92188C32.3721 8.93132 32.3942 8.93604 32.4189 8.93604C32.4508 8.93604 32.4779 8.92952 32.5 8.9165C32.5221 8.90348 32.5415 8.88607 32.5581 8.86426L32.6128 8.90771C32.6014 8.92497 32.5869 8.94141 32.5693 8.95703C32.5518 8.97266 32.5301 8.98535 32.5044 8.99512C32.479 9.00488 32.4489 9.00977 32.4141 9.00977ZM33.1327 8.85986C33.1327 8.84684 33.1298 8.8348 33.1239 8.82373C33.1184 8.81234 33.1068 8.80208 33.0893 8.79297C33.072 8.78353 33.046 8.77539 33.0111 8.76855C32.9818 8.76237 32.9553 8.75505 32.9315 8.74658C32.9081 8.73812 32.8881 8.72786 32.8715 8.71582C32.8552 8.70378 32.8427 8.68962 32.8339 8.67334C32.8251 8.65706 32.8207 8.63802 32.8207 8.61621C32.8207 8.59538 32.8253 8.57568 32.8344 8.55713C32.8438 8.53857 32.857 8.52214 32.8739 8.50781C32.8912 8.49349 32.9118 8.48226 32.9359 8.47412C32.96 8.46598 32.9869 8.46191 33.0165 8.46191C33.0588 8.46191 33.095 8.4694 33.1249 8.48438C33.1549 8.49935 33.1778 8.51937 33.1937 8.54443C33.2097 8.56917 33.2177 8.59668 33.2177 8.62695H33.1273C33.1273 8.6123 33.1229 8.59814 33.1142 8.58447C33.1057 8.57048 33.0932 8.55892 33.0766 8.5498C33.0603 8.54069 33.0403 8.53613 33.0165 8.53613C32.9914 8.53613 32.9711 8.54004 32.9555 8.54785C32.9402 8.55534 32.9289 8.56494 32.9218 8.57666C32.9149 8.58838 32.9115 8.60075 32.9115 8.61377C32.9115 8.62354 32.9132 8.63232 32.9164 8.64014C32.92 8.64762 32.9262 8.65462 32.935 8.66113C32.9437 8.66732 32.9561 8.67318 32.9721 8.67871C32.988 8.68424 33.0084 8.68978 33.0331 8.69531C33.0764 8.70508 33.112 8.7168 33.14 8.73047C33.168 8.74414 33.1889 8.7609 33.2025 8.78076C33.2162 8.80062 33.223 8.82471 33.223 8.85303C33.223 8.87614 33.2182 8.8973 33.2084 8.9165C33.199 8.93571 33.1851 8.95231 33.1669 8.96631C33.149 8.97998 33.1275 8.99072 33.1024 8.99854C33.0777 9.00602 33.0499 9.00977 33.0189 9.00977C32.9724 9.00977 32.933 9.00146 32.9008 8.98486C32.8686 8.96826 32.8441 8.94678 32.8275 8.92041C32.8109 8.89404 32.8026 8.86621 32.8026 8.83691H32.8935C32.8948 8.86165 32.9019 8.88135 32.9149 8.896C32.928 8.91032 32.9439 8.92057 32.9628 8.92676C32.9817 8.93262 33.0004 8.93555 33.0189 8.93555C33.0437 8.93555 33.0644 8.93229 33.081 8.92578C33.0979 8.91927 33.1107 8.91032 33.1195 8.89893C33.1283 8.88753 33.1327 8.87451 33.1327 8.85986ZM33.5755 8.90625L33.7112 8.47168H33.7708L33.7591 8.55811L33.6209 9H33.5628L33.5755 8.90625ZM33.4842 8.47168L33.5999 8.91113L33.6082 9H33.5472L33.3938 8.47168H33.4842ZM33.9007 8.90771L34.011 8.47168H34.1009L33.9476 9H33.887L33.9007 8.90771ZM33.784 8.47168L33.9168 8.89893L33.9319 9H33.8743L33.7322 8.55713L33.7205 8.47168H33.784ZM34.6052 8.90967V8.6377C34.6052 8.61686 34.6009 8.5988 34.5925 8.5835C34.5843 8.56787 34.572 8.55583 34.5554 8.54736C34.5388 8.5389 34.5183 8.53467 34.4938 8.53467C34.4711 8.53467 34.451 8.53857 34.4338 8.54639C34.4169 8.5542 34.4035 8.56445 34.3938 8.57715C34.3843 8.58984 34.3796 8.60352 34.3796 8.61816H34.2893C34.2893 8.59928 34.2941 8.58057 34.3039 8.56201C34.3137 8.54346 34.3277 8.52669 34.3459 8.51172C34.3645 8.49642 34.3866 8.48438 34.4123 8.47559C34.4383 8.46647 34.4673 8.46191 34.4992 8.46191C34.5376 8.46191 34.5715 8.46842 34.6008 8.48145C34.6304 8.49447 34.6535 8.51416 34.6701 8.54053C34.687 8.56657 34.6955 8.59928 34.6955 8.63867V8.88477C34.6955 8.90234 34.697 8.92106 34.6999 8.94092C34.7032 8.96077 34.7079 8.97786 34.7141 8.99219V9H34.6198C34.6153 8.98958 34.6117 8.97575 34.6091 8.9585C34.6065 8.94092 34.6052 8.92464 34.6052 8.90967ZM34.6208 8.67969L34.6218 8.74316H34.5305C34.5048 8.74316 34.4818 8.74528 34.4616 8.74951C34.4414 8.75342 34.4245 8.75944 34.4108 8.76758C34.3972 8.77572 34.3868 8.78597 34.3796 8.79834C34.3724 8.81038 34.3688 8.82454 34.3688 8.84082C34.3688 8.85742 34.3726 8.87256 34.3801 8.88623C34.3876 8.8999 34.3988 8.91081 34.4138 8.91895C34.4291 8.92676 34.4478 8.93066 34.4699 8.93066C34.4976 8.93066 34.522 8.9248 34.5432 8.91309C34.5643 8.90137 34.5811 8.88704 34.5935 8.87012C34.6062 8.85319 34.613 8.83675 34.614 8.8208L34.6525 8.86426C34.6503 8.87793 34.6441 8.89307 34.634 8.90967C34.6239 8.92627 34.6104 8.94222 34.5935 8.95752C34.5769 8.97249 34.557 8.98503 34.5339 8.99512C34.5111 9.00488 34.4854 9.00977 34.4567 9.00977C34.4209 9.00977 34.3895 9.00277 34.3625 8.98877C34.3358 8.97477 34.315 8.95605 34.3 8.93262C34.2854 8.90885 34.278 8.88232 34.278 8.85303C34.278 8.82471 34.2836 8.7998 34.2946 8.77832C34.3057 8.75651 34.3216 8.73844 34.3425 8.72412C34.3633 8.70947 34.3884 8.6984 34.4177 8.69092C34.447 8.68343 34.4797 8.67969 34.5158 8.67969H34.6208ZM35.0279 8.58447V9H34.9376V8.47168H35.023L35.0279 8.58447ZM35.0064 8.71582L34.9688 8.71436C34.9692 8.67822 34.9745 8.64486 34.985 8.61426C34.9954 8.58333 35.01 8.55648 35.0289 8.53369C35.0478 8.5109 35.0702 8.49333 35.0963 8.48096C35.1227 8.46826 35.1518 8.46191 35.1837 8.46191C35.2097 8.46191 35.2332 8.46549 35.254 8.47266C35.2748 8.47949 35.2926 8.49056 35.3072 8.50586C35.3222 8.52116 35.3336 8.54102 35.3414 8.56543C35.3492 8.58952 35.3531 8.61898 35.3531 8.65381V9H35.2623V8.65283C35.2623 8.62516 35.2582 8.60303 35.2501 8.58643C35.242 8.5695 35.2301 8.55729 35.2145 8.5498C35.1988 8.54199 35.1796 8.53809 35.1568 8.53809C35.1344 8.53809 35.1139 8.54281 35.0953 8.55225C35.0771 8.56169 35.0613 8.57471 35.0479 8.59131C35.0349 8.60791 35.0247 8.62695 35.0172 8.64844C35.01 8.6696 35.0064 8.69206 35.0064 8.71582ZM35.5918 8.95215C35.5918 8.93685 35.5965 8.92399 35.606 8.91357C35.6157 8.90283 35.6297 8.89746 35.6479 8.89746C35.6662 8.89746 35.68 8.90283 35.6895 8.91357C35.6992 8.92399 35.7041 8.93685 35.7041 8.95215C35.7041 8.96712 35.6992 8.97982 35.6895 8.99023C35.68 9.00065 35.6662 9.00586 35.6479 9.00586C35.6297 9.00586 35.6157 9.00065 35.606 8.99023C35.5965 8.97982 35.5918 8.96712 35.5918 8.95215ZM36.0888 9H35.9984V8.41602C35.9984 8.37793 36.0053 8.34587 36.0189 8.31982C36.0329 8.29346 36.053 8.2736 36.079 8.26025C36.105 8.24658 36.136 8.23975 36.1718 8.23975C36.1822 8.23975 36.1926 8.2404 36.203 8.2417C36.2138 8.243 36.2242 8.24495 36.2343 8.24756L36.2294 8.32129C36.2226 8.31966 36.2147 8.31852 36.206 8.31787C36.1975 8.31722 36.189 8.31689 36.1806 8.31689C36.1614 8.31689 36.1448 8.3208 36.1308 8.32861C36.1171 8.3361 36.1067 8.34717 36.0995 8.36182C36.0924 8.37646 36.0888 8.39453 36.0888 8.41602V9ZM36.2011 8.47168V8.54102H35.9149V8.47168H36.2011ZM36.7249 8.87793V8.47168H36.8157V9H36.7293L36.7249 8.87793ZM36.742 8.7666L36.7796 8.76562C36.7796 8.80078 36.7758 8.83333 36.7684 8.86328C36.7612 8.8929 36.7495 8.91862 36.7332 8.94043C36.7169 8.96224 36.6956 8.97933 36.6692 8.9917C36.6429 9.00374 36.6108 9.00977 36.573 9.00977C36.5473 9.00977 36.5237 9.00602 36.5022 8.99854C36.4811 8.99105 36.4629 8.97949 36.4476 8.96387C36.4323 8.94824 36.4204 8.9279 36.4119 8.90283C36.4038 8.87777 36.3997 8.84766 36.3997 8.8125V8.47168H36.49V8.81348C36.49 8.83724 36.4926 8.85693 36.4979 8.87256C36.5034 8.88786 36.5107 8.90007 36.5198 8.90918C36.5293 8.91797 36.5397 8.92415 36.5511 8.92773C36.5628 8.93132 36.5748 8.93311 36.5872 8.93311C36.6256 8.93311 36.6561 8.92578 36.6785 8.91113C36.701 8.89616 36.7171 8.87614 36.7269 8.85107C36.7369 8.82568 36.742 8.79753 36.742 8.7666ZM37.1438 8.58447V9H37.0534V8.47168H37.1389L37.1438 8.58447ZM37.1223 8.71582L37.0847 8.71436C37.085 8.67822 37.0904 8.64486 37.1008 8.61426C37.1112 8.58333 37.1258 8.55648 37.1447 8.53369C37.1636 8.5109 37.1861 8.49333 37.2121 8.48096C37.2385 8.46826 37.2676 8.46191 37.2995 8.46191C37.3256 8.46191 37.349 8.46549 37.3698 8.47266C37.3907 8.47949 37.4084 8.49056 37.423 8.50586C37.438 8.52116 37.4494 8.54102 37.4572 8.56543C37.465 8.58952 37.4689 8.61898 37.4689 8.65381V9H37.3781V8.65283C37.3781 8.62516 37.3741 8.60303 37.3659 8.58643C37.3578 8.5695 37.3459 8.55729 37.3303 8.5498C37.3146 8.54199 37.2954 8.53809 37.2727 8.53809C37.2502 8.53809 37.2297 8.54281 37.2111 8.55225C37.1929 8.56169 37.1771 8.57471 37.1638 8.59131C37.1507 8.60791 37.1405 8.62695 37.133 8.64844C37.1258 8.6696 37.1223 8.69206 37.1223 8.71582ZM38.0392 8.89746V8.25H38.13V9H38.047L38.0392 8.89746ZM37.6837 8.7417V8.73145C37.6837 8.69108 37.6886 8.65446 37.6983 8.62158C37.7084 8.58838 37.7226 8.5599 37.7408 8.53613C37.7594 8.51237 37.7813 8.49414 37.8067 8.48145C37.8325 8.46842 37.8611 8.46191 37.8927 8.46191C37.9259 8.46191 37.9548 8.46777 37.9796 8.47949C38.0047 8.49089 38.0258 8.50765 38.0431 8.52979C38.0606 8.5516 38.0745 8.57796 38.0846 8.60889C38.0947 8.63981 38.1017 8.6748 38.1056 8.71387V8.75879C38.102 8.79753 38.095 8.83236 38.0846 8.86328C38.0745 8.89421 38.0606 8.92057 38.0431 8.94238C38.0258 8.96419 38.0047 8.98096 37.9796 8.99268C37.9545 9.00407 37.9252 9.00977 37.8917 9.00977C37.8608 9.00977 37.8325 9.00309 37.8067 8.98975C37.7813 8.9764 37.7594 8.95768 37.7408 8.93359C37.7226 8.90951 37.7084 8.88118 37.6983 8.84863C37.6886 8.81576 37.6837 8.78011 37.6837 8.7417ZM37.7745 8.73145V8.7417C37.7745 8.76807 37.7771 8.79281 37.7823 8.81592C37.7879 8.83903 37.7963 8.85938 37.8077 8.87695C37.8191 8.89453 37.8336 8.90837 37.8512 8.91846C37.8687 8.92822 37.8897 8.93311 37.9142 8.93311C37.9441 8.93311 37.9687 8.92676 37.9879 8.91406C38.0074 8.90137 38.023 8.8846 38.0348 8.86377C38.0465 8.84294 38.0556 8.82031 38.0621 8.7959V8.67822C38.0582 8.66032 38.0525 8.64307 38.045 8.62646C38.0379 8.60954 38.0284 8.59456 38.0167 8.58154C38.0053 8.5682 37.9911 8.55762 37.9742 8.5498C37.9576 8.54199 37.9379 8.53809 37.9151 8.53809C37.8904 8.53809 37.8691 8.54329 37.8512 8.55371C37.8336 8.5638 37.8191 8.5778 37.8077 8.5957C37.7963 8.61328 37.7879 8.63379 37.7823 8.65723C37.7771 8.68034 37.7745 8.70508 37.7745 8.73145ZM38.3721 8.95215C38.3721 8.93685 38.3768 8.92399 38.3862 8.91357C38.396 8.90283 38.41 8.89746 38.4282 8.89746C38.4465 8.89746 38.4603 8.90283 38.4697 8.91357C38.4795 8.92399 38.4844 8.93685 38.4844 8.95215C38.4844 8.96712 38.4795 8.97982 38.4697 8.99023C38.4603 9.00065 38.4465 9.00586 38.4282 9.00586C38.41 9.00586 38.396 9.00065 38.3862 8.99023C38.3768 8.97982 38.3721 8.96712 38.3721 8.95215ZM38.7338 8.25H38.8246V8.89746L38.8168 9H38.7338V8.25ZM39.1815 8.73145V8.7417C39.1815 8.78011 39.177 8.81576 39.1679 8.84863C39.1588 8.88118 39.1454 8.90951 39.1278 8.93359C39.1103 8.95768 39.0888 8.9764 39.0634 8.98975C39.038 9.00309 39.0089 9.00977 38.976 9.00977C38.9424 9.00977 38.913 9.00407 38.8876 8.99268C38.8625 8.98096 38.8414 8.96419 38.8241 8.94238C38.8069 8.92057 38.793 8.89421 38.7826 8.86328C38.7725 8.83236 38.7655 8.79753 38.7616 8.75879V8.71387C38.7655 8.6748 38.7725 8.63981 38.7826 8.60889C38.793 8.57796 38.8069 8.5516 38.8241 8.52979C38.8414 8.50765 38.8625 8.49089 38.8876 8.47949C38.9127 8.46777 38.9418 8.46191 38.975 8.46191C39.0082 8.46191 39.0377 8.46842 39.0634 8.48145C39.0891 8.49414 39.1106 8.51237 39.1278 8.53613C39.1454 8.5599 39.1588 8.58838 39.1679 8.62158C39.177 8.65446 39.1815 8.69108 39.1815 8.73145ZM39.0907 8.7417V8.73145C39.0907 8.70508 39.0883 8.68034 39.0834 8.65723C39.0785 8.63379 39.0707 8.61328 39.06 8.5957C39.0492 8.5778 39.0351 8.5638 39.0175 8.55371C38.9999 8.54329 38.9783 8.53809 38.9525 8.53809C38.9298 8.53809 38.9099 8.54199 38.893 8.5498C38.8764 8.55762 38.8622 8.5682 38.8505 8.58154C38.8388 8.59456 38.8292 8.60954 38.8217 8.62646C38.8145 8.64307 38.8091 8.66032 38.8056 8.67822V8.7959C38.8108 8.81868 38.8192 8.84066 38.831 8.86182C38.843 8.88265 38.859 8.89974 38.8788 8.91309C38.899 8.92643 38.9239 8.93311 38.9535 8.93311C38.9779 8.93311 38.9988 8.92822 39.016 8.91846C39.0336 8.90837 39.0478 8.89453 39.0585 8.87695C39.0696 8.85938 39.0777 8.83903 39.0829 8.81592C39.0881 8.79281 39.0907 8.76807 39.0907 8.7417ZM39.4861 8.55469V9H39.3958V8.47168H39.4837L39.4861 8.55469ZM39.6512 8.46875L39.6507 8.55273C39.6432 8.55111 39.636 8.55013 39.6292 8.5498C39.6227 8.54915 39.6152 8.54883 39.6067 8.54883C39.5859 8.54883 39.5675 8.55208 39.5516 8.55859C39.5356 8.5651 39.5221 8.57422 39.511 8.58594C39.5 8.59766 39.4912 8.61165 39.4847 8.62793C39.4785 8.64388 39.4744 8.66146 39.4725 8.68066L39.4471 8.69531C39.4471 8.66341 39.4502 8.63346 39.4563 8.60547C39.4629 8.57747 39.4728 8.55273 39.4861 8.53125C39.4995 8.50944 39.5164 8.49251 39.5369 8.48047C39.5577 8.4681 39.5825 8.46191 39.6111 8.46191C39.6176 8.46191 39.6251 8.46273 39.6336 8.46436C39.6421 8.46566 39.6479 8.46712 39.6512 8.46875ZM39.9255 8.25V9H39.8347V8.25H39.9255ZM40.2482 8.47168L40.0178 8.71826L39.8889 8.85205L39.8815 8.75586L39.9738 8.64551L40.1379 8.47168H40.2482ZM40.1657 9L39.9772 8.74805L40.0241 8.66748L40.2722 9H40.1657ZM40.7286 8.28516V9H40.6383V8.39795L40.4562 8.46436V8.38281L40.7145 8.28516H40.7286ZM41.4185 8.28906L41.1221 9.06104H41.0444L41.3413 8.28906H41.4185Z" fill="#202124"/>
<path d="M23 25.4909L35.2272 15.9814L34.7007 15.3306L37 15L36.1351 17.115L35.6086 16.4642L23.4513 26C23.4513 26 23.0161 25.4962 23 25.4909Z" fill="#3B3B3B"/>
<path d="M27 27H26V30H27V27Z" fill="#E21B1B"/>
<path d="M33 23H31V30H33V23Z" fill="#E21B1B"/>
<path d="M36 21H34V30H36V21Z" fill="#403572"/>
<path d="M38 18H36V30H38V18Z" fill="#E21B1B"/>
<path d="M24.8417 28.56H23.2627V29.8708H24.8417V28.56Z" fill="#403572"/>
<path d="M30.1054 25.4702H28.5264V29.8757H30.1054V25.4702Z" fill="#403572"/>
<path d="M28.9989 18.0047C28.999 18.0788 28.9945 18.1529 28.9855 18.2264C28.9619 18.4464 28.9011 18.6608 28.8056 18.8605C28.6434 19.2015 28.3875 19.4895 28.0678 19.6912C27.7481 19.8929 27.3777 20 26.9994 20C26.6212 20 26.2507 19.8929 25.931 19.6912C25.6113 19.4895 25.3555 19.2015 25.1933 18.8605C25.0978 18.6608 25.0369 18.4464 25.0133 18.2264C25.0043 18.1529 24.9999 18.0788 25 18.0047C24.9999 17.9305 25.0051 17.8564 25.0156 17.783C25.0145 17.7638 25.0145 17.7445 25.0156 17.7253C25.0346 17.5935 25.0682 17.4641 25.1155 17.3396C25.252 16.9483 25.5071 16.6091 25.8455 16.369C26.1839 16.129 26.5887 16 27.0039 16C27.419 16 27.8239 16.129 28.1623 16.369C28.5007 16.6091 28.7558 16.9483 28.8922 17.3396C28.9369 17.4622 28.9681 17.5893 28.9855 17.7187C28.9979 17.8135 29.0023 17.9092 28.9989 18.0047Z" fill="url(#paint0_linear_111_206)"/>
<path d="M27.1429 17.7619H26.8575C26.8196 17.7619 26.7833 17.7494 26.7565 17.727C26.7298 17.7047 26.7147 17.6744 26.7147 17.6429C26.7147 17.6113 26.7298 17.581 26.7565 17.5587C26.7833 17.5364 26.8196 17.5238 26.8575 17.5238H27.5712C27.6469 17.5238 27.7195 17.4987 27.773 17.4541C27.8266 17.4094 27.8566 17.3489 27.8566 17.2857C27.8566 17.2226 27.8266 17.162 27.773 17.1174C27.7195 17.0727 27.6469 17.0476 27.5712 17.0476H27.2857V16.8095C27.2857 16.7464 27.2556 16.6858 27.2021 16.6412C27.1485 16.5965 27.0759 16.5714 27.0002 16.5714C26.9245 16.5714 26.8519 16.5965 26.7983 16.6412C26.7448 16.6858 26.7147 16.7464 26.7147 16.8095V17.0595C26.5413 17.0889 26.3871 17.171 26.2821 17.2898C26.1772 17.4087 26.1289 17.5558 26.1467 17.7027C26.1645 17.8496 26.2471 17.9857 26.3784 18.0846C26.5097 18.1836 26.6805 18.2383 26.8575 18.2381H27.1429C27.1808 18.2381 27.2171 18.2507 27.2439 18.273C27.2706 18.2953 27.2857 18.3256 27.2857 18.3572C27.2857 18.3887 27.2706 18.419 27.2439 18.4413C27.2171 18.4637 27.1808 18.4762 27.1429 18.4762H26.4293C26.3535 18.4762 26.2809 18.5013 26.2274 18.5459C26.1739 18.5906 26.1438 18.6512 26.1438 18.7143C26.1438 18.7774 26.1739 18.838 26.2274 18.8827C26.2809 18.9273 26.3535 18.9524 26.4293 18.9524H26.7147V19.1905C26.7147 19.2536 26.7448 19.3142 26.7983 19.3588C26.8519 19.4035 26.9245 19.4286 27.0002 19.4286C27.0759 19.4286 27.1485 19.4035 27.2021 19.3588C27.2556 19.3142 27.2857 19.2536 27.2857 19.1905V18.9524C27.2857 18.9524 27.2857 18.9524 27.2857 18.9405C27.4591 18.9111 27.6133 18.829 27.7183 18.7102C27.8232 18.5913 27.8715 18.4442 27.8537 18.2973C27.836 18.1505 27.7534 18.0144 27.622 17.9154C27.4907 17.8165 27.3199 17.7618 27.1429 17.7619Z" fill="url(#paint1_linear_111_206)"/>
<defs>
<linearGradient id="paint0_linear_111_206" x1="25.5843" y1="19.4148" x2="28.4089" y2="16.5867" gradientUnits="userSpaceOnUse">
<stop offset="0.36" stop-color="#403572"/>
<stop offset="1" stop-color="white"/>
</linearGradient>
<linearGradient id="paint1_linear_111_206" x1="27.0002" y1="19.4286" x2="27.0002" y2="16.5714" gradientUnits="userSpaceOnUse">
<stop stop-color="#D3E6F5"/>
<stop offset="1" stop-color="#F0F7FC"/>
</linearGradient>
</defs>
</svg>
