<svg width="35" height="48" viewBox="0 0 35 48" fill="none" xmlns="http://www.w3.org/2000/svg">
<path d="M17.3456 47.5775L17.5094 47.6876L17.6731 47.5775C21.3434 41.0336 24.4498 31.2659 17.5094 22.8142C10.5552 31.2659 13.6616 41.0565 17.3456 47.5775Z" fill="#C02032"/>
<path d="M18.583 46.9035C26.0647 41.2492 31.4679 31.5365 28.3434 14.8717C24.432 16.7519 21.4392 18.788 19.2061 20.9616C26.0328 30.1424 22.6399 40.1394 18.583 46.9035Z" fill="#C02032"/>
<path d="M16.4091 46.9035C12.343 40.1394 8.95917 30.1424 15.7859 20.9616C13.5483 18.788 10.5601 16.7335 6.6487 14.8717C3.52412 31.5365 8.92733 41.2492 16.4091 46.9035Z" fill="#C02032"/>
<path d="M17.496 18.9164C20.1242 16.2054 23.1584 13.9276 26.4877 12.1661C22.5808 6.81448 17.728 0.298076 17.505 0C17.2822 0.298076 12.4294 6.81448 8.52246 12.1707C11.8461 13.9307 14.8743 16.2071 17.496 18.9164Z" fill="#C02032"/>
<path d="M8.22209 42.7441C9.13173 43.2669 12.6975 44.9499 15.1262 46.2798C8.34944 40.9649 3.21458 32.3298 4.10147 18.3065L3.81039 18.765C2.10028 21.4891 -5.91812 33.6597 8.22209 42.7441Z" fill="#C02032"/>
<path d="M30.8901 18.3065C31.7998 32.3206 26.6513 40.9557 19.8745 46.2798C22.3077 44.9499 25.8508 43.2761 26.774 42.7533C40.9189 33.6689 32.9004 21.4982 31.1904 18.7742L30.8901 18.3065Z" fill="#C02032"/>
</svg>
