<?xml version="1.0" encoding="UTF-8" standalone="no"?>
<svg
   width="96"
   height="96"
   viewBox="0 0 96 96"
   fill="none"
   version="1.1"
   id="svg9"
   sodipodi:docname="i-idcard.svg"
   inkscape:version="1.3.2 (091e20e, 2023-11-25, custom)"
   xmlns:inkscape="http://www.inkscape.org/namespaces/inkscape"
   xmlns:sodipodi="http://sodipodi.sourceforge.net/DTD/sodipodi-0.dtd"
   xmlns="http://www.w3.org/2000/svg"
   xmlns:svg="http://www.w3.org/2000/svg">
  <defs
     id="defs9" />
  <sodipodi:namedview
     id="namedview9"
     pagecolor="#ffffff"
     bordercolor="#000000"
     borderopacity="0.25"
     inkscape:showpageshadow="2"
     inkscape:pageopacity="0.0"
     inkscape:pagecheckerboard="0"
     inkscape:deskcolor="#d1d1d1"
     showgrid="false"
     inkscape:zoom="9.0348837"
     inkscape:cx="30.492921"
     inkscape:cy="28.389961"
     inkscape:window-width="1920"
     inkscape:window-height="991"
     inkscape:window-x="-9"
     inkscape:window-y="-9"
     inkscape:window-maximized="1"
     inkscape:current-layer="svg9" />
  <path
     fill-rule="evenodd"
     clip-rule="evenodd"
     d="m 23.050095,28.33462 h 52.089 c 2.4506,0 4.4555,2.2057 4.4555,4.89709 v 33.20581 c 0,2.6914 -2.0068,4.8971 -4.4555,4.8971 h -52.089 c -2.4487,0 -4.4555,-2.2036 -4.4555,-4.8971 V 33.23171 c 0,-2.69362 2.00478,-4.89709 4.4555,-4.89709 z"
     fill="#6c8cc7"
     id="path1" />
  <path
     fill-rule="evenodd"
     clip-rule="evenodd"
     d="m 23.050095,28.33462 h 52.089 c 2.4506,0 4.4555,2.20662 4.4555,4.89709 v 4.70302 h -61 v -4.70302 c 0,-2.69362 2.00478,-4.89709 4.4555,-4.89709 z"
     fill="#403572"
     id="path2" />
  <path
     fill-rule="evenodd"
     clip-rule="evenodd"
     d="m 49.895595,57.42462 c -0.3716,0 -0.6706,-0.4417 -0.6706,-0.9831 0,-0.5413 0.299,-0.9829 0.6706,-0.9829 h 23.1246 c 0.3716,0 0.6707,0.4416 0.6707,0.9829 0,0.5414 -0.2991,0.9831 -0.6707,0.9831 z m 4e-4,5.9474 c -0.3715,0 -0.671,-0.4412 -0.671,-0.983 0,-0.5414 0.2995,-0.9829 0.671,-0.9829 h 23.1242 c 0.3716,0 0.6711,0.4415 0.6711,0.9829 0,0.5418 -0.2995,0.983 -0.6711,0.983 z m -4e-4,-17.8179 c -0.3716,0 -0.6706,-0.4416 -0.6706,-0.9831 0,-0.5417 0.299,-0.9829 0.6706,-0.9829 h 16.5665 c 0.3716,0 0.6711,0.4412 0.6711,0.9829 0,0.5415 -0.2995,0.9831 -0.6711,0.9831 z m 0,5.9352 c -0.3716,0 -0.6706,-0.4411 -0.6706,-0.9829 0,-0.5413 0.299,-0.983 0.6706,-0.983 h 23.1008 c 0.3715,0 0.6706,0.4417 0.6706,0.983 0,0.5418 -0.2991,0.9829 -0.6706,0.9829 z"
     fill="#ffffff"
     id="path3" />
  <path
     d="m 37.592295,55.00432 c 0.6864,1.679 2.3069,1.9755 3.6735,2.2658 1.9988,0.4244 4.4755,2.499 4.4755,4.8502 v 0.9581 c -2e-4,0.0779 -0.0284,0.1525 -0.0785,0.2075 -0.0501,0.055 -0.118,0.0859 -0.1889,0.086 h -20.70814 c -0.07082,-1e-4 -0.13874,-0.031 -0.18885,-0.086 -0.05011,-0.055 -0.07834,-0.1296 -0.0785,-0.2075 v -0.8669 c 0,-2.825 2.59905,-4.4937 4.69939,-4.8026 1.5281,-0.2246 2.7998,-0.4525 3.3376,-2.4827 0.1392,0.134 0.2853,0.2692 0.4344,0.415 1.392,1.3602 2.9604,1.4192 4.3014,-0.0022 0.1102,-0.1172 0.2179,-0.2275 0.3211,-0.3347 z"
     fill="#dee5f6"
     id="path4" />
  <path
     d="m 37.592195,55.00462 c 0.3591,0.8782 0.9738,1.3784 1.6735,1.6968 -2.367,1.9087 -5.6348,1.7984 -8.069,0.1672 0.7373,-0.4366 1.1065,-1.0686 1.3378,-1.9428 0.1391,0.134 0.2858,0.2692 0.4352,0.4154 1.392,1.3602 2.9604,1.4192 4.3015,-0.0022 0.1102,-0.1172 0.2179,-0.2275 0.321,-0.3344 z"
     fill="#d2a75f"
     id="path5" />
  <path
     d="m 35.251495,58.11192 c -1.4155,0.007 -2.8393,-0.4291 -4.0548,-1.2433 0.7346,-0.4348 1.1132,-1.0768 1.3381,-1.9428 0.1397,0.134 0.2855,0.2692 0.4349,0.4154 0.731,0.7143 1.5115,1.0697 2.2818,1.0405 z"
     fill="#dbb26f"
     id="path6" />
  <path
     fill-rule="evenodd"
     clip-rule="evenodd"
     d="m 30.335695,50.35312 c 0.1837,-0.5777 0.6106,-0.3919 1.2193,-0.1477 l -0.0055,-0.0295 0.0055,0.0036 c 0.4298,-4.958 3.3114,-2.1915 5.5021,-4.6918 l 0.0739,-0.0644 c 0.1276,0.0698 0.2521,0.1461 0.3732,0.2286 0.9338,0.6897 1.5,1.9463 1.3308,4.4023 l 0.0059,-0.0053 c -0.0178,0.145 -0.038,0.2896 -0.0605,0.4338 0.5537,-0.461 1.3513,-0.4178 1.1005,0.6029 l -0.3429,1.067 c -0.0822,0.2559 -0.1367,0.3483 -0.4305,0.331 -0.1297,-0.0078 -0.2602,-0.0627 -0.3903,-0.1572 0.1202,1.5746 -0.5753,2.0885 -1.4458,3.0119 -1.3407,1.4223 -2.9095,1.3635 -4.301,0.0026 -0.8154,-0.7968 -1.5393,-1.2808 -1.5754,-2.9191 -0.2111,0.0713 -0.4109,0.0842 -0.5854,-0.025 -0.3481,-0.2173 -0.4746,-0.8505 -0.4934,-1.2559 -0.008,-0.1628 -0.0017,-0.6217 0.0195,-0.7878 z"
     fill="#e9be79"
     id="path7" />
  <path
     fill-rule="evenodd"
     clip-rule="evenodd"
     d="m 30.335295,50.35312 c 0.1839,-0.5779 0.6107,-0.3919 1.2194,-0.148 l -0.0055,-0.0288 0.0055,0.0033 c 0.3173,-3.6607 1.9708,-3.1102 3.6966,-3.5777 v 9.7797 c -0.7701,0.0296 -1.5503,-0.3256 -2.2814,-1.0405 -0.8152,-0.797 -1.5392,-1.2807 -1.5751,-2.9192 -0.2113,0.0712 -0.4112,0.0841 -0.5857,-0.025 -0.5064,-0.3167 -0.5473,-1.4625 -0.4738,-2.0438 z"
     fill="#f2cd8c"
     id="path8" />
  <path
     fill-rule="evenodd"
     clip-rule="evenodd"
     d="m 29.283095,45.17602 c 2.6852,-3.6469 5.7801,-5.6305 8.1042,-2.3861 2.8479,0.1643 3.8358,5.2717 1.4472,7.2644 0.1913,-2.7742 -0.5558,-4.0183 -1.7111,-4.6436 -2.1989,2.6353 -5.1345,-0.2394 -5.5687,4.7687 l -1.0538,-0.6031 c -0.1047,-1.4365 0.2015,-3.9285 -1.2178,-4.4003 z"
     fill="#333231"
     id="path9" />
</svg>
