<?xml version="1.0" encoding="UTF-8" standalone="no"?>
<svg
   width="96"
   height="96"
   viewBox="0 0 96 96"
   fill="none"
   version="1.1"
   id="svg9"
   sodipodi:docname="i-CDD-r.svg"
   inkscape:version="1.3.2 (091e20e, 2023-11-25, custom)"
   xmlns:inkscape="http://www.inkscape.org/namespaces/inkscape"
   xmlns:sodipodi="http://sodipodi.sourceforge.net/DTD/sodipodi-0.dtd"
   xmlns="http://www.w3.org/2000/svg"
   xmlns:svg="http://www.w3.org/2000/svg">
  <defs
     id="defs9">
    <linearGradient
       id="paint0_linear_111_71"
       x1="29.0924"
       y1="23.2836"
       x2="29.0924"
       y2="36.9011"
       gradientUnits="userSpaceOnUse">
      <stop
         offset="0.51"
         stop-color="white"
         id="stop26" />
      <stop
         offset="0.955"
         stop-color="#CBC8C8"
         id="stop27" />
    </linearGradient>
  </defs>
  <sodipodi:namedview
     id="namedview9"
     pagecolor="#ffffff"
     bordercolor="#000000"
     borderopacity="0.25"
     inkscape:showpageshadow="2"
     inkscape:pageopacity="0.0"
     inkscape:pagecheckerboard="0"
     inkscape:deskcolor="#d1d1d1"
     showgrid="false"
     inkscape:zoom="9.0348837"
     inkscape:cx="30.492922"
     inkscape:cy="50.415702"
     inkscape:window-width="2400"
     inkscape:window-height="1261"
     inkscape:window-x="2391"
     inkscape:window-y="-9"
     inkscape:window-maximized="1"
     inkscape:current-layer="layer2" />
  <g
     inkscape:groupmode="layer"
     id="layer2"
     inkscape:label="Layer 2">
    <g
       inkscape:groupmode="layer"
       id="layer1"
       inkscape:label="Layer 1">
      <rect
         style="fill:#e7f3ff"
         id="rect9"
         width="91.976845"
         height="91.091393"
         x="1.8815961"
         y="2.4350061"
         ry="10.293436" />
    </g>
    <g
       id="g27"
       transform="translate(18.266409,26.438867)">
      <path
         d="M 59.1596,8.11319 H 0 V 49.536 h 59.1596 z"
         fill="#6c8cc7"
         id="path1" />
      <path
         d="M 0,9.21318 V 1.84874 C 0,0.831932 0.831932,0 1.84874,0 H 57.3062 C 58.323,0 59.155,0.831932 59.155,1.84874 V 9.21225 H 0 Z"
         fill="#d6d6d6"
         id="path2" />
      <path
         d="M 54.4943,7.14906 H 19.8203 L 23.1369,2.06503 H 54.4943 Z"
         fill="#ffffff"
         id="path3" />
      <path
         d="m 6.2286,6.11009 c 0.86839,0 1.57235,-0.70396 1.57235,-1.57235 0,-0.86838 -0.70396,-1.57235 -1.57235,-1.57235 -0.86838,0 -1.57235,0.70397 -1.57235,1.57235 0,0.86839 0.70397,1.57235 1.57235,1.57235 z"
         fill="#c02032"
         id="path4" />
      <path
         d="m 10.3961,6.11009 c 0.8684,0 1.5723,-0.70396 1.5723,-1.57235 0,-0.86838 -0.7039,-1.57235 -1.5723,-1.57235 -0.8684,0 -1.57237,0.70397 -1.57237,1.57235 0,0.86839 0.70397,1.57235 1.57237,1.57235 z"
         fill="#939393"
         id="path5" />
      <path
         d="m 14.565,6.11009 c 0.8684,0 1.5724,-0.70396 1.5724,-1.57235 0,-0.86838 -0.704,-1.57235 -1.5724,-1.57235 -0.8684,0 -1.5723,0.70397 -1.5723,1.57235 0,0.86839 0.7039,1.57235 1.5723,1.57235 z"
         fill="#c9c9c9"
         id="path6" />
      <path
         d="m 24.9144,3.65216 0.2209,0.96042 c 0.0481,0.22554 0.0961,0.45571 0.1349,0.68588 h 0.0093 C 25.3229,5.06829 25.3923,4.8335 25.4533,4.6172 l 0.2736,-0.96504 h 0.4344 l 0.2653,0.93916 c 0.0647,0.24773 0.1211,0.4779 0.1692,0.70806 h 0.0092 c 0.0342,-0.23016 0.0823,-0.46033 0.1387,-0.70806 l 0.2348,-0.93916 h 0.525 L 26.8389,5.76804 H 26.3434 L 26.092,4.90745 C 26.0273,4.68653 25.9792,4.48594 25.9312,4.22989 H 25.9219 C 25.8785,4.49056 25.823,4.69947 25.7611,4.90745 l -0.269,0.86059 H 24.992 L 24.3662,3.65216 Z"
         fill="#000000"
         id="path7" />
      <path
         d="m 28.2386,3.65216 0.2209,0.96042 c 0.0481,0.22554 0.0961,0.45571 0.135,0.68588 h 0.0092 C 28.6472,5.06829 28.7165,4.8335 28.7775,4.6172 l 0.2736,-0.96504 h 0.4345 l 0.2652,0.93916 c 0.0648,0.24773 0.1211,0.4779 0.1692,0.70806 h 0.0092 c 0.0343,-0.23016 0.0823,-0.46033 0.1387,-0.70806 l 0.2348,-0.93916 h 0.525 L 30.1631,5.76804 H 29.6677 L 29.4162,4.90745 C 29.3515,4.68653 29.3035,4.48594 29.2554,4.22989 h -0.0093 c -0.0434,0.26067 -0.0989,0.46958 -0.1608,0.67756 l -0.269,0.86059 H 28.3162 L 27.6904,3.65216 Z"
         fill="#000000"
         id="path8" />
      <path
         d="m 31.5627,3.65216 0.221,0.96042 c 0.048,0.22554 0.0961,0.45571 0.1349,0.68588 h 0.0093 C 31.9713,5.06829 32.0406,4.8335 32.1017,4.6172 l 0.2736,-0.96504 h 0.4344 l 0.2653,0.93916 c 0.0647,0.24773 0.1211,0.4779 0.1692,0.70806 h 0.0092 c 0.0342,-0.23016 0.0823,-0.46033 0.1387,-0.70806 l 0.2348,-0.93916 h 0.525 L 33.4873,5.76804 H 32.9909 L 32.7395,4.90745 C 32.6748,4.68653 32.6267,4.48594 32.5786,4.22989 H 32.5694 C 32.5259,4.49056 32.4705,4.69947 32.4085,4.90745 L 32.1396,5.76804 H 31.6395 L 31.0137,3.65216 Z"
         fill="#000000"
         id="path9" />
      <path
         d="m 34.2378,5.47319 c 0,-0.20059 0.1386,-0.34294 0.33,-0.34294 0.196,0 0.33,0.13865 0.33,0.34294 0,0.19504 -0.1303,0.34294 -0.33,0.34294 -0.1941,0 -0.33,-0.1479 -0.33,-0.34294 z"
         fill="#000000"
         id="path10" />
      <path
         d="M 59.1596,48.5247 H 0 V 50 h 59.1596 z"
         fill="#000000"
         id="path11" />
      <path
         d="M 57.9745,48.5238 H 50.3698 47.0661 38.8937 L 36.8231,46.9496 H 22.3364 l -2.0705,1.5742 H 12.0935 8.78982 1.18504 0 v 1.4753 h 59.1596 v -1.4753 z"
         fill="#403572"
         id="path12" />
      <path
         d="m 50.8808,6.10916 -0.33,-0.32353 1.1425,-1.17395 -1.2109,-1.18134 0.3226,-0.33 1.5419,1.5021 z"
         fill="#000000"
         id="path13" />
      <path
         d="m 51.7681,4.37598 h -3.0523 v 0.46218 h 3.0523 z"
         fill="#000000"
         id="path14" />
      <path
         d="M 34.7702,37.9622 35.835,36.8975 34.5178,35.5803 33.4531,36.645 Z"
         fill="#cccccc"
         id="path15" />
      <path
         d="m 35.5132,40.2404 2.5947,-2.5947 -1.5052,-1.5052 -2.5947,2.5947 z"
         fill="#000000"
         id="path16" />
      <path
         d="m 29.0923,38.1846 c 4.4692,0 8.0923,-3.6231 8.0923,-8.0923 C 37.1846,25.623 33.5615,22 29.0923,22 24.623,22 21,25.623 21,30.0923 c 0,4.4692 3.623,8.0923 8.0923,8.0923 z"
         fill="#000000"
         id="path17" />
      <path
         d="m 29.0924,36.9011 c 3.7604,0 6.8088,-3.0484 6.8088,-6.8088 0,-3.7603 -3.0484,-6.8087 -6.8088,-6.8087 -3.7603,0 -6.8087,3.0484 -6.8087,6.8087 0,3.7604 3.0484,6.8088 6.8087,6.8088 z"
         fill="url(#paint0_linear_111_71)"
         id="path18"
         style="fill:url(#paint0_linear_111_71)" />
      <path
         d="M 36.4053,41.1265 39,38.5318 38.1116,37.6434 35.5169,40.2381 Z"
         fill="#cccccc"
         id="path19" />
      <path
         d="m 29.2532,29.3136 c 0.9809,0 1.7761,-0.7952 1.7761,-1.7762 0,-0.9809 -0.7952,-1.7761 -1.7761,-1.7761 -0.981,0 -1.7761,0.7952 -1.7761,1.7761 0,0.981 0.7951,1.7762 1.7761,1.7762 z"
         fill="#000000"
         id="path20" />
      <path
         d="m 29.1693,33.4423 -1.7157,-3.7202 c 0,0 -1.7998,0.0236 -1.7998,1.6799 0,1.6562 0,2.0403 0,2.0403 0,0 3.5269,0 3.5155,0 z"
         fill="#403572"
         id="path21" />
      <path
         d="m 29.3374,33.4423 1.7158,-3.7202 c 0,0 1.7997,0.0236 1.7997,1.6799 0,1.6562 0,2.0403 0,2.0403 0,0 -3.5277,0 -3.5155,0 z"
         fill="#403572"
         id="path22" />
      <path
         d="m 29.2534,29.7221 h -1.2363 l 1.2363,2.7359 1.2363,-2.7359 z"
         fill="#c02032"
         id="path23" />
      <path
         d="M 26.9844,18.2617 V 19 h -2.502 V 18.2617 Z M 24.7661,14.0234 V 19 h -0.9399 v -4.9766 z"
         fill="#ffffff"
         id="path24" />
      <path
         d="M 30.9116,18.2617 V 19 H 28.2661 V 18.2617 Z M 28.5532,14.0234 V 19 h -0.9399 v -4.9766 z m 2.0132,2.0542 v 0.7212 h -2.3003 v -0.7212 z m 0.335,-2.0542 v 0.7417 h -2.6353 v -0.7417 z"
         fill="#ffffff"
         id="path25" />
      <path
         d="M 33.0513,19 H 31.978 l 0.0069,-0.7383 h 1.0664 c 0.2894,0 0.532,-0.0638 0.728,-0.1914 0.196,-0.1299 0.3441,-0.3156 0.4443,-0.5571 0.1003,-0.2438 0.1504,-0.5355 0.1504,-0.875 v -0.2564 c 0,-0.262 -0.0285,-0.4933 -0.0854,-0.6938 -0.057,-0.2005 -0.1413,-0.3692 -0.253,-0.5059 -0.1093,-0.1367 -0.2449,-0.2404 -0.4067,-0.311 -0.1618,-0.0706 -0.3475,-0.106 -0.5571,-0.106 h -1.1143 v -0.7417 h 1.1143 c 0.3327,0 0.6357,0.0559 0.9092,0.1675 0.2757,0.1117 0.5138,0.2723 0.7143,0.482 0.2028,0.2073 0.3578,0.4557 0.4649,0.7451 0.1093,0.2894 0.164,0.6129 0.164,0.9707 v 0.2495 c 0,0.3555 -0.0547,0.679 -0.164,0.9707 -0.1071,0.2894 -0.2621,0.5377 -0.4649,0.7451 -0.2005,0.2074 -0.4398,0.3669 -0.7178,0.4785 C 33.6995,18.9442 33.3908,19 33.0513,19 Z M 32.5044,14.0234 V 19 h -0.9399 v -4.9766 z"
         fill="#ffffff"
         id="path26" />
    </g>
  </g>
</svg>
