<svg width="60" height="50" viewBox="0 0 60 50" fill="none" xmlns="http://www.w3.org/2000/svg">
<path d="M59.1596 8.11319H0V49.536H59.1596V8.11319Z" fill="#6C8CC7"/>
<path d="M0 9.21318V1.84874C0 0.831932 0.831932 0 1.84874 0H57.3062C58.323 0 59.155 0.831932 59.155 1.84874V9.21225H0V9.21318Z" fill="#D6D6D6"/>
<path d="M54.4943 7.14906H19.8203L23.1369 2.06503H54.4943V7.14906Z" fill="white"/>
<path d="M6.2286 6.11009C7.09699 6.11009 7.80095 5.40613 7.80095 4.53774C7.80095 3.66936 7.09699 2.96539 6.2286 2.96539C5.36022 2.96539 4.65625 3.66936 4.65625 4.53774C4.65625 5.40613 5.36022 6.11009 6.2286 6.11009Z" fill="#C02032"/>
<path d="M10.3961 6.11009C11.2645 6.11009 11.9684 5.40613 11.9684 4.53774C11.9684 3.66936 11.2645 2.96539 10.3961 2.96539C9.5277 2.96539 8.82373 3.66936 8.82373 4.53774C8.82373 5.40613 9.5277 6.11009 10.3961 6.11009Z" fill="#939393"/>
<path d="M14.565 6.11009C15.4334 6.11009 16.1374 5.40613 16.1374 4.53774C16.1374 3.66936 15.4334 2.96539 14.565 2.96539C13.6966 2.96539 12.9927 3.66936 12.9927 4.53774C12.9927 5.40613 13.6966 6.11009 14.565 6.11009Z" fill="#C9C9C9"/>
<path d="M24.9144 3.65216L25.1353 4.61258C25.1834 4.83812 25.2314 5.06829 25.2702 5.29846H25.2795C25.3229 5.06829 25.3923 4.8335 25.4533 4.6172L25.7269 3.65216H26.1613L26.4266 4.59132C26.4913 4.83905 26.5477 5.06922 26.5958 5.29938H26.605C26.6392 5.06922 26.6873 4.83905 26.7437 4.59132L26.9785 3.65216H27.5035L26.8389 5.76804H26.3434L26.092 4.90745C26.0273 4.68653 25.9792 4.48594 25.9312 4.22989H25.9219C25.8785 4.49056 25.823 4.69947 25.7611 4.90745L25.4921 5.76804H24.992L24.3662 3.65216H24.9144Z" fill="black"/>
<path d="M28.2386 3.65216L28.4595 4.61258C28.5076 4.83812 28.5556 5.06829 28.5945 5.29846H28.6037C28.6472 5.06829 28.7165 4.8335 28.7775 4.6172L29.0511 3.65216H29.4856L29.7508 4.59132C29.8156 4.83905 29.8719 5.06922 29.92 5.29938H29.9292C29.9635 5.06922 30.0115 4.83905 30.0679 4.59132L30.3027 3.65216H30.8277L30.1631 5.76804H29.6677L29.4162 4.90745C29.3515 4.68653 29.3035 4.48594 29.2554 4.22989H29.2461C29.2027 4.49056 29.1472 4.69947 29.0853 4.90745L28.8163 5.76804H28.3162L27.6904 3.65216H28.2386Z" fill="black"/>
<path d="M31.5627 3.65216L31.7837 4.61258C31.8317 4.83812 31.8798 5.06829 31.9186 5.29846H31.9279C31.9713 5.06829 32.0406 4.8335 32.1017 4.6172L32.3753 3.65216H32.8097L33.075 4.59132C33.1397 4.83905 33.1961 5.06922 33.2442 5.29938H33.2534C33.2876 5.06922 33.3357 4.83905 33.3921 4.59132L33.6269 3.65216H34.1519L33.4873 5.76804H32.9909L32.7395 4.90745C32.6748 4.68653 32.6267 4.48594 32.5786 4.22989H32.5694C32.5259 4.49056 32.4705 4.69947 32.4085 4.90745L32.1396 5.76804H31.6395L31.0137 3.65216H31.5627Z" fill="black"/>
<path d="M34.2378 5.47319C34.2378 5.2726 34.3764 5.13025 34.5678 5.13025C34.7638 5.13025 34.8978 5.2689 34.8978 5.47319C34.8978 5.66823 34.7675 5.81613 34.5678 5.81613C34.3737 5.81613 34.2378 5.66823 34.2378 5.47319Z" fill="black"/>
<path d="M59.1596 48.5247H0V50H59.1596V48.5247Z" fill="black"/>
<path d="M57.9745 48.5238H50.3698H47.0661H38.8937L36.8231 46.9496H22.3364L20.2659 48.5238H12.0935H8.78982H1.18504H0V49.9991H59.1596V48.5238H57.9745Z" fill="#403572"/>
<path d="M50.8808 6.10916L50.5508 5.78563L51.6933 4.61168L50.4824 3.43034L50.805 3.10034L52.3469 4.60244L50.8808 6.10916Z" fill="black"/>
<path d="M51.7681 4.37598H48.7158V4.83816H51.7681V4.37598Z" fill="black"/>
<path d="M34.7702 37.9622L35.835 36.8975L34.5178 35.5803L33.4531 36.645L34.7702 37.9622Z" fill="#CCCCCC"/>
<path d="M35.5132 40.2404L38.1079 37.6457L36.6027 36.1405L34.008 38.7352L35.5132 40.2404Z" fill="black"/>
<path d="M29.0923 38.1846C33.5615 38.1846 37.1846 34.5615 37.1846 30.0923C37.1846 25.623 33.5615 22 29.0923 22C24.623 22 21 25.623 21 30.0923C21 34.5615 24.623 38.1846 29.0923 38.1846Z" fill="black"/>
<path d="M29.0924 36.9011C32.8528 36.9011 35.9012 33.8527 35.9012 30.0923C35.9012 26.332 32.8528 23.2836 29.0924 23.2836C25.3321 23.2836 22.2837 26.332 22.2837 30.0923C22.2837 33.8527 25.3321 36.9011 29.0924 36.9011Z" fill="url(#paint0_linear_111_71)"/>
<path d="M36.4053 41.1265L39 38.5318L38.1116 37.6434L35.5169 40.2381L36.4053 41.1265Z" fill="#CCCCCC"/>
<path d="M29.2532 29.3136C30.2341 29.3136 31.0293 28.5184 31.0293 27.5374C31.0293 26.5565 30.2341 25.7613 29.2532 25.7613C28.2722 25.7613 27.4771 26.5565 27.4771 27.5374C27.4771 28.5184 28.2722 29.3136 29.2532 29.3136Z" fill="black"/>
<path d="M29.1693 33.4423L27.4536 29.7221C27.4536 29.7221 25.6538 29.7457 25.6538 31.402C25.6538 33.0582 25.6538 33.4423 25.6538 33.4423C25.6538 33.4423 29.1807 33.4423 29.1693 33.4423Z" fill="#403572"/>
<path d="M29.3374 33.4423L31.0532 29.7221C31.0532 29.7221 32.8529 29.7457 32.8529 31.402C32.8529 33.0582 32.8529 33.4423 32.8529 33.4423C32.8529 33.4423 29.3252 33.4423 29.3374 33.4423Z" fill="#403572"/>
<path d="M29.2534 29.7221H28.0171L29.2534 32.458L30.4897 29.7221H29.2534Z" fill="#C02032"/>
<path d="M26.9844 18.2617V19H24.4824V18.2617H26.9844ZM24.7661 14.0234V19H23.8262V14.0234H24.7661Z" fill="white"/>
<path d="M30.9116 18.2617V19H28.2661V18.2617H30.9116ZM28.5532 14.0234V19H27.6133V14.0234H28.5532ZM30.5664 16.0776V16.7988H28.2661V16.0776H30.5664ZM30.9014 14.0234V14.7651H28.2661V14.0234H30.9014Z" fill="white"/>
<path d="M33.0513 19H31.978L31.9849 18.2617H33.0513C33.3407 18.2617 33.5833 18.1979 33.7793 18.0703C33.9753 17.9404 34.1234 17.7547 34.2236 17.5132C34.3239 17.2694 34.374 16.9777 34.374 16.6382V16.3818C34.374 16.1198 34.3455 15.8885 34.2886 15.688C34.2316 15.4875 34.1473 15.3188 34.0356 15.1821C33.9263 15.0454 33.7907 14.9417 33.6289 14.8711C33.4671 14.8005 33.2814 14.7651 33.0718 14.7651H31.9575V14.0234H33.0718C33.4045 14.0234 33.7075 14.0793 33.981 14.1909C34.2567 14.3026 34.4948 14.4632 34.6953 14.6729C34.8981 14.8802 35.0531 15.1286 35.1602 15.418C35.2695 15.7074 35.3242 16.0309 35.3242 16.3887V16.6382C35.3242 16.9937 35.2695 17.3172 35.1602 17.6089C35.0531 17.8983 34.8981 18.1466 34.6953 18.354C34.4948 18.5614 34.2555 18.7209 33.9775 18.8325C33.6995 18.9442 33.3908 19 33.0513 19ZM32.5044 14.0234V19H31.5645V14.0234H32.5044Z" fill="white"/>
<defs>
<linearGradient id="paint0_linear_111_71" x1="29.0924" y1="23.2836" x2="29.0924" y2="36.9011" gradientUnits="userSpaceOnUse">
<stop offset="0.51" stop-color="white"/>
<stop offset="0.955" stop-color="#CBC8C8"/>
</linearGradient>
</defs>
</svg>
