<?xml version="1.0" encoding="UTF-8" standalone="no"?>
<svg
   width="96"
   height="96"
   viewBox="0 0 96 96"
   fill="none"
   version="1.1"
   id="svg9"
   sodipodi:docname="i-CDD-r.svg"
   inkscape:version="1.3.2 (091e20e, 2023-11-25, custom)"
   xmlns:inkscape="http://www.inkscape.org/namespaces/inkscape"
   xmlns:sodipodi="http://sodipodi.sourceforge.net/DTD/sodipodi-0.dtd"
   xmlns="http://www.w3.org/2000/svg"
   xmlns:svg="http://www.w3.org/2000/svg">
  <defs
     id="defs9">
    <linearGradient
       id="paint0_linear_111_71"
       x1="29.0924"
       y1="23.2836"
       x2="29.0924"
       y2="36.9011"
       gradientUnits="userSpaceOnUse">
      <stop
         offset="0.51"
         stop-color="white"
         id="stop26" />
      <stop
         offset="0.955"
         stop-color="#CBC8C8"
         id="stop27" />
    </linearGradient>
    <linearGradient
       id="paint0_linear_111_206"
       x1="25.584299"
       y1="19.414801"
       x2="28.408899"
       y2="16.5867"
       gradientUnits="userSpaceOnUse">
      <stop
         offset="0.36"
         stop-color="#403572"
         id="stop24" />
      <stop
         offset="1"
         stop-color="white"
         id="stop25" />
    </linearGradient>
    <linearGradient
       id="paint1_linear_111_206"
       x1="27.0002"
       y1="19.4286"
       x2="27.0002"
       y2="16.5714"
       gradientUnits="userSpaceOnUse">
      <stop
         stop-color="#D3E6F5"
         id="stop26-7" />
      <stop
         offset="1"
         stop-color="#F0F7FC"
         id="stop27-6" />
    </linearGradient>
  </defs>
  <sodipodi:namedview
     id="namedview9"
     pagecolor="#ffffff"
     bordercolor="#000000"
     borderopacity="0.25"
     inkscape:showpageshadow="2"
     inkscape:pageopacity="0.0"
     inkscape:pagecheckerboard="0"
     inkscape:deskcolor="#d1d1d1"
     showgrid="false"
     inkscape:zoom="9.0348837"
     inkscape:cx="30.492922"
     inkscape:cy="50.415702"
     inkscape:window-width="2400"
     inkscape:window-height="1261"
     inkscape:window-x="2391"
     inkscape:window-y="-9"
     inkscape:window-maximized="1"
     inkscape:current-layer="layer2" />
  <g
     inkscape:groupmode="layer"
     id="layer2"
     inkscape:label="Layer 2">
    <g
       inkscape:groupmode="layer"
       id="layer1"
       inkscape:label="Layer 1">
      <rect
         style="fill:#e7f3ff"
         id="rect9"
         width="91.976845"
         height="91.091393"
         x="1.8815961"
         y="2.4350061"
         ry="10.293436" />
    </g>
    <g
       id="g11"
       transform="matrix(1.1555532,0,0,1.0609881,26.16731,26.332046)">
      <path
         d="M 4.74894,49 C 2.1262,49 0,46.841 0,44.1778 V 0 H 31.2511 C 33.8738,0 36,2.15901 36,4.82222 V 49 Z"
         fill="#ffffff"
         id="path1" />
      <path
         d="m 31.8355,0.765625 c 2.4267,0 4.3938,1.953875 4.3938,4.364065 V 48.2344 H 5.16458 c -2.42658,0 -4.393747,-1.9538 -4.393747,-4.3641 V 0.765625 Z M 31.8355,0 H 0 V 43.8703 C 0,46.7034 2.31221,49 5.16458,49 H 37 V 5.12969 C 37.0001,2.29659 34.6879,0 31.8355,0 Z"
         fill="#8e8e8e"
         id="path2" />
      <path
         d="m 12.7707,12.1353 h -1.2136 v -0.6834 h 1.2136 c 0.2113,0 0.3821,-0.0366 0.5123,-0.1099 0.1302,-0.0732 0.2252,-0.174 0.2849,-0.3022 0.0619,-0.1305 0.0929,-0.2793 0.0929,-0.4464 0,-0.158 -0.031,-0.3056 -0.0929,-0.443 C 13.5082,10.0108 13.4132,9.89858 13.283,9.81387 13.1528,9.72917 12.982,9.68681 12.7707,9.68681 h -0.967 V 14 H 11 V 9 h 1.7707 c 0.3607,0 0.667,0.06868 0.9189,0.20604 0.254,0.13508 0.4472,0.32281 0.5796,0.56319 0.1323,0.23807 0.1985,0.51057 0.1985,0.81727 0,0.3228 -0.0662,0.5999 -0.1985,0.8311 -0.1324,0.2312 -0.3256,0.4086 -0.5796,0.5323 -0.2519,0.1236 -0.5582,0.1854 -0.9189,0.1854 z"
         fill="#403572"
         id="path3" />
      <path
         d="m 16.5425,14 h -0.9958 l 0.0064,-0.6834 h 0.9894 c 0.2882,0 0.5294,-0.0675 0.7237,-0.2026 0.1963,-0.1351 0.3436,-0.3285 0.4418,-0.5803 0.1004,-0.2519 0.1505,-0.5518 0.1505,-0.8998 v -0.2713 c 0,-0.2701 -0.0288,-0.5093 -0.0864,-0.7177 C 17.7166,10.4366 17.6333,10.2614 17.5223,10.1195 17.4134,9.97756 17.279,9.86996 17.1189,9.7967 16.9609,9.72344 16.7784,9.68681 16.5713,9.68681 H 15.5275 V 9 h 1.0438 c 0.3096,0 0.5924,0.05609 0.8486,0.16827 0.2561,0.10989 0.477,0.269 0.6627,0.47733 0.1879,0.20834 0.332,0.4579 0.4323,0.7486 0.1003,0.2908 0.1505,0.6159 0.1505,0.9753 v 0.2644 c 0,0.3595 -0.0502,0.6846 -0.1505,0.9753 -0.1003,0.2908 -0.2444,0.5403 -0.4323,0.7486 -0.1878,0.2061 -0.4119,0.3652 -0.6724,0.4774 C 17.152,13.9451 16.8627,14 16.5425,14 Z M 15.9918,9 v 5 H 15.1881 V 9 Z"
         fill="#403572"
         id="path4" />
      <path
         d="m 21.2429,12.1353 h -1.2135 v -0.6834 h 1.2135 c 0.2114,0 0.3821,-0.0366 0.5124,-0.1099 0.1302,-0.0732 0.2252,-0.174 0.2849,-0.3022 0.0619,-0.1305 0.0929,-0.2793 0.0929,-0.4464 0,-0.158 -0.031,-0.3056 -0.0929,-0.443 C 21.9805,10.0108 21.8855,9.89858 21.7553,9.81387 21.625,9.72917 21.4543,9.68681 21.2429,9.68681 H 20.276 V 14 H 19.4723 V 9 h 1.7706 c 0.3608,0 0.6671,0.06868 0.919,0.20604 0.254,0.13508 0.4472,0.32281 0.5795,0.56319 0.1324,0.23807 0.1986,0.51057 0.1986,0.81727 0,0.3228 -0.0662,0.5999 -0.1986,0.8311 -0.1323,0.2312 -0.3255,0.4086 -0.5795,0.5323 -0.2519,0.1236 -0.5582,0.1854 -0.919,0.1854 z"
         fill="#403572"
         id="path5" />
      <path
         d="M 24.9892,9.66621 23.5964,14 h -0.8421 l 1.7546,-5 h 0.5379 z M 26.1547,14 24.7587,9.66621 24.6978,9 h 0.5411 L 27,14 Z m -0.0672,-1.8544 v 0.6834 h -2.536 v -0.6834 z"
         fill="#403572"
         id="path6" />
      <path
         d="M 13,29 H 6 v -7 h 7"
         fill="#cccccc"
         id="path7" />
      <path
         d="M 10.2372,28 7,25.0089 8.00599,24.1165 10.1518,26.0991 13.917,22 15,22.8155 Z"
         fill="#e81241"
         id="path8" />
      <path
         d="M 32.6662,25.4331 H 18.0259 v 0.4983 h 14.6403 z"
         fill="#999999"
         id="path9" />
      <path
         d="M 13,39 H 6 v -7 h 7"
         fill="#cccccc"
         id="path10" />
      <path
         d="M 32.6662,35.4331 H 18.0259 v 0.4983 h 14.6403 z"
         fill="#999999"
         id="path11" />
    </g>
  </g>
</svg>
