<svg width="37" height="49" viewBox="0 0 37 49" fill="none" xmlns="http://www.w3.org/2000/svg">
<path d="M4.74894 49C2.1262 49 0 46.841 0 44.1778V0H31.2511C33.8738 0 36 2.15901 36 4.82222V49H4.74894Z" fill="white"/>
<path d="M31.8355 0.765625C34.2622 0.765625 36.2293 2.7195 36.2293 5.12969V48.2344H5.16458C2.738 48.2344 0.770833 46.2806 0.770833 43.8703V0.765625H31.8355ZM31.8355 0H0V43.8703C0 46.7034 2.31221 49 5.16458 49H37V5.12969C37.0001 2.29659 34.6879 0 31.8355 0Z" fill="#8E8E8E"/>
<path d="M12.7707 12.1353H11.5571V11.4519H12.7707C12.982 11.4519 13.1528 11.4153 13.283 11.342C13.4132 11.2688 13.5082 11.168 13.5679 11.0398C13.6298 10.9093 13.6608 10.7605 13.6608 10.5934C13.6608 10.4354 13.6298 10.2878 13.5679 10.1504C13.5082 10.0108 13.4132 9.89858 13.283 9.81387C13.1528 9.72917 12.982 9.68681 12.7707 9.68681H11.8037V14H11V9H12.7707C13.1314 9 13.4377 9.06868 13.6896 9.20604C13.9436 9.34112 14.1368 9.52885 14.2692 9.76923C14.4015 10.0073 14.4677 10.2798 14.4677 10.5865C14.4677 10.9093 14.4015 11.1864 14.2692 11.4176C14.1368 11.6488 13.9436 11.8262 13.6896 11.9499C13.4377 12.0735 13.1314 12.1353 12.7707 12.1353Z" fill="#403572"/>
<path d="M16.5425 14H15.5467L15.5531 13.3166H16.5425C16.8307 13.3166 17.0719 13.2491 17.2662 13.114C17.4625 12.9789 17.6098 12.7855 17.708 12.5337C17.8084 12.2818 17.8585 11.9819 17.8585 11.6339V11.3626C17.8585 11.0925 17.8297 10.8533 17.7721 10.6449C17.7166 10.4366 17.6333 10.2614 17.5223 10.1195C17.4134 9.97756 17.279 9.86996 17.1189 9.7967C16.9609 9.72344 16.7784 9.68681 16.5713 9.68681H15.5275V9H16.5713C16.8809 9 17.1637 9.05609 17.4199 9.16827C17.676 9.27816 17.8969 9.43727 18.0826 9.6456C18.2705 9.85394 18.4146 10.1035 18.5149 10.3942C18.6152 10.685 18.6654 11.0101 18.6654 11.3695V11.6339C18.6654 11.9934 18.6152 12.3185 18.5149 12.6092C18.4146 12.9 18.2705 13.1495 18.0826 13.3578C17.8948 13.5639 17.6707 13.723 17.4102 13.8352C17.152 13.9451 16.8627 14 16.5425 14ZM15.9918 9V14H15.1881V9H15.9918Z" fill="#403572"/>
<path d="M21.2429 12.1353H20.0294V11.4519H21.2429C21.4543 11.4519 21.625 11.4153 21.7553 11.342C21.8855 11.2688 21.9805 11.168 22.0402 11.0398C22.1021 10.9093 22.1331 10.7605 22.1331 10.5934C22.1331 10.4354 22.1021 10.2878 22.0402 10.1504C21.9805 10.0108 21.8855 9.89858 21.7553 9.81387C21.625 9.72917 21.4543 9.68681 21.2429 9.68681H20.276V14H19.4723V9H21.2429C21.6037 9 21.91 9.06868 22.1619 9.20604C22.4159 9.34112 22.6091 9.52885 22.7414 9.76923C22.8738 10.0073 22.94 10.2798 22.94 10.5865C22.94 10.9093 22.8738 11.1864 22.7414 11.4176C22.6091 11.6488 22.4159 11.8262 22.1619 11.9499C21.91 12.0735 21.6037 12.1353 21.2429 12.1353Z" fill="#403572"/>
<path d="M24.9892 9.66621L23.5964 14H22.7543L24.5089 9H25.0468L24.9892 9.66621ZM26.1547 14L24.7587 9.66621L24.6978 9H25.2389L27 14H26.1547ZM26.0875 12.1456V12.829H23.5515V12.1456H26.0875Z" fill="#403572"/>
<path d="M13 29H6V22H13" fill="#CCCCCC"/>
<path d="M10.2372 28L7 25.0089L8.00599 24.1165L10.1518 26.0991L13.917 22L15 22.8155L10.2372 28Z" fill="#E81241"/>
<path d="M32.6662 25.4331H18.0259V25.9314H32.6662V25.4331Z" fill="#999999"/>
<path d="M13 39H6V32H13" fill="#CCCCCC"/>
<path d="M32.6662 35.4331H18.0259V35.9314H32.6662V35.4331Z" fill="#999999"/>
</svg>
