<?xml version="1.0" encoding="UTF-8" standalone="no"?>
<svg
   width="96"
   height="96"
   viewBox="0 0 96 96"
   fill="none"
   version="1.1"
   id="svg9"
   sodipodi:docname="i-CDD-r.svg"
   inkscape:version="1.3.2 (091e20e, 2023-11-25, custom)"
   xmlns:inkscape="http://www.inkscape.org/namespaces/inkscape"
   xmlns:sodipodi="http://sodipodi.sourceforge.net/DTD/sodipodi-0.dtd"
   xmlns="http://www.w3.org/2000/svg"
   xmlns:svg="http://www.w3.org/2000/svg">
  <defs
     id="defs9">
    <linearGradient
       id="paint0_linear_111_71"
       x1="29.0924"
       y1="23.2836"
       x2="29.0924"
       y2="36.9011"
       gradientUnits="userSpaceOnUse">
      <stop
         offset="0.51"
         stop-color="white"
         id="stop26" />
      <stop
         offset="0.955"
         stop-color="#CBC8C8"
         id="stop27" />
    </linearGradient>
    <linearGradient
       id="paint0_linear_111_206"
       x1="25.584299"
       y1="19.414801"
       x2="28.408899"
       y2="16.5867"
       gradientUnits="userSpaceOnUse">
      <stop
         offset="0.36"
         stop-color="#403572"
         id="stop24" />
      <stop
         offset="1"
         stop-color="white"
         id="stop25" />
    </linearGradient>
    <linearGradient
       id="paint1_linear_111_206"
       x1="27.0002"
       y1="19.4286"
       x2="27.0002"
       y2="16.5714"
       gradientUnits="userSpaceOnUse">
      <stop
         stop-color="#D3E6F5"
         id="stop26-7" />
      <stop
         offset="1"
         stop-color="#F0F7FC"
         id="stop27-6" />
    </linearGradient>
  </defs>
  <sodipodi:namedview
     id="namedview9"
     pagecolor="#ffffff"
     bordercolor="#000000"
     borderopacity="0.25"
     inkscape:showpageshadow="2"
     inkscape:pageopacity="0.0"
     inkscape:pagecheckerboard="0"
     inkscape:deskcolor="#d1d1d1"
     showgrid="false"
     inkscape:zoom="9.0348837"
     inkscape:cx="30.492922"
     inkscape:cy="50.415702"
     inkscape:window-width="2400"
     inkscape:window-height="1261"
     inkscape:window-x="2391"
     inkscape:window-y="-9"
     inkscape:window-maximized="1"
     inkscape:current-layer="layer1" />
  <g
     inkscape:groupmode="layer"
     id="layer2"
     inkscape:label="Layer 2">
    <g
       inkscape:groupmode="layer"
       id="layer1"
       inkscape:label="Layer 1">
      <rect
         style="fill:#e7f3ff"
         id="rect9"
         width="91.976845"
         height="91.091393"
         x="1.8815961"
         y="2.4350061"
         ry="10.293436" />
      <g
         id="g39"
         transform="matrix(1.1983161,0,0,1.2257915,11.957529,23.339768)">
        <path
           d="M 59.1596,8.11319 H 0 V 49.536 h 59.1596 z"
           fill="#6c8cc7"
           id="path1" />
        <path
           d="M 0,9.21318 V 1.84874 C 0,0.831932 0.831932,0 1.84874,0 H 57.3062 C 58.323,0 59.155,0.831932 59.155,1.84874 V 9.21225 H 0 Z"
           fill="#d6d6d6"
           id="path2" />
        <path
           d="M 54.4943,7.14906 H 19.8203 L 23.1369,2.06503 H 54.4943 Z"
           fill="#ffffff"
           id="path3" />
        <path
           d="m 6.2286,6.11009 c 0.86839,0 1.57235,-0.70396 1.57235,-1.57235 0,-0.86838 -0.70396,-1.57235 -1.57235,-1.57235 -0.86838,0 -1.57235,0.70397 -1.57235,1.57235 0,0.86839 0.70397,1.57235 1.57235,1.57235 z"
           fill="#c02032"
           id="path4" />
        <path
           d="m 10.3961,6.11009 c 0.8684,0 1.5723,-0.70396 1.5723,-1.57235 0,-0.86838 -0.7039,-1.57235 -1.5723,-1.57235 -0.8684,0 -1.57237,0.70397 -1.57237,1.57235 0,0.86839 0.70397,1.57235 1.57237,1.57235 z"
           fill="#939393"
           id="path5" />
        <path
           d="m 14.565,6.11009 c 0.8684,0 1.5724,-0.70396 1.5724,-1.57235 0,-0.86838 -0.704,-1.57235 -1.5724,-1.57235 -0.8684,0 -1.5723,0.70397 -1.5723,1.57235 0,0.86839 0.7039,1.57235 1.5723,1.57235 z"
           fill="#c9c9c9"
           id="path6" />
        <path
           d="M 59.1596,48.5247 H 0 V 50 h 59.1596 z"
           fill="#000000"
           id="path11" />
        <path
           d="M 57.9745,48.5238 H 50.3698 47.0661 38.8937 L 36.8231,46.9496 H 22.3364 l -2.0705,1.5742 H 12.0935 8.78982 1.18504 0 v 1.4753 h 59.1596 v -1.4753 z"
           fill="#403572"
           id="path12" />
        <path
           d="m 50.8808,6.10916 -0.33,-0.32353 1.1425,-1.17395 -1.2109,-1.18134 0.3226,-0.33 1.5419,1.5021 z"
           fill="#000000"
           id="path13" />
        <path
           d="m 51.7681,4.37598 h -3.0523 v 0.46218 h 3.0523 z"
           fill="#000000"
           id="path14" />
        <path
           d="M 56,12 H 3 v 32.7337 h 53 z"
           fill="#ffffff"
           id="path15" />
        <rect
           x="23"
           y="15"
           width="3"
           height="3"
           fill="#d9d9d9"
           id="rect15" />
        <path
           d="m 36,16 h -9 v 0.4983 h 9 z"
           fill="#d9d9d9"
           id="path16" />
        <rect
           x="22.049999"
           y="14.05"
           width="14.9"
           height="4.9000001"
           stroke="#000000"
           stroke-width="0.1"
           id="rect16" />
        <path
           d="m 24,16 h 0.4393 l 0.1078,0.1062 H 25.25 V 17 h -1.2499 z"
           fill="#4668c5"
           id="path17" />
        <path
           d="M 25.25,16.1875 H 24 V 17 h 1.25 z"
           fill="#4668c5"
           id="path18" />
        <path
           d="m 25.1875,16.125 h -1.125 v 0.0625 h 1.125 z"
           fill="#ffffff"
           id="path19" />
        <rect
           x="41"
           y="15"
           width="3"
           height="3"
           fill="#d9d9d9"
           id="rect19" />
        <path
           d="m 54,16 h -9 v 0.4983 h 9 z"
           fill="#d9d9d9"
           id="path20" />
        <rect
           x="40.049999"
           y="14.05"
           width="14.9"
           height="4.9000001"
           stroke="#000000"
           stroke-width="0.1"
           id="rect20" />
        <path
           d="m 42,16 h 0.4393 l 0.1078,0.1062 H 43.25 V 17 h -1.2499 z"
           fill="#4668c5"
           id="path21" />
        <path
           d="M 43.25,16.1875 H 42 V 17 h 1.25 z"
           fill="#4668c5"
           id="path22" />
        <path
           d="m 43.1875,16.125 h -1.125 v 0.0625 h 1.125 z"
           fill="#ffffff"
           id="path23" />
        <rect
           x="4.0500002"
           y="14.05"
           width="14.9"
           height="4.9000001"
           stroke="#000000"
           stroke-width="0.1"
           id="rect23" />
        <rect
           x="5"
           y="15"
           width="3"
           height="3"
           fill="#d9d9d9"
           id="rect24" />
        <path
           d="m 6,16 h 0.43932 l 0.10783,0.1062 H 7.25 V 17 H 6.0001 Z"
           fill="#4668c5"
           id="path24" />
        <path
           d="M 7.25,16.1875 H 6 V 17 h 1.25 z"
           fill="#4668c5"
           id="path25" />
        <path
           d="m 7.1875,16.125 h -1.125 v 0.0625 h 1.125 z"
           fill="#ffffff"
           id="path26" />
        <path
           d="M 18,16 H 9 v 0.4983 h 9 z"
           fill="#d9d9d9"
           id="path27" />
        <rect
           x="23"
           y="22"
           width="3"
           height="3"
           fill="#d9d9d9"
           id="rect27" />
        <path
           d="m 36,23 h -9 v 0.4983 h 9 z"
           fill="#d9d9d9"
           id="path28" />
        <rect
           x="22.049999"
           y="21.049999"
           width="14.9"
           height="4.9000001"
           stroke="#000000"
           stroke-width="0.1"
           id="rect28" />
        <path
           d="m 24,23 h 0.4393 l 0.1078,0.1062 H 25.25 V 24 h -1.2499 z"
           fill="#4668c5"
           id="path29" />
        <path
           d="M 25.25,23.1875 H 24 V 24 h 1.25 z"
           fill="#4668c5"
           id="path30" />
        <path
           d="m 25.1875,23.125 h -1.125 v 0.0625 h 1.125 z"
           fill="#ffffff"
           id="path31" />
        <rect
           x="41"
           y="22"
           width="3"
           height="3"
           fill="#d9d9d9"
           id="rect31" />
        <path
           d="m 54,23 h -9 v 0.4983 h 9 z"
           fill="#d9d9d9"
           id="path32" />
        <rect
           x="40.049999"
           y="21.049999"
           width="14.9"
           height="4.9000001"
           stroke="#000000"
           stroke-width="0.1"
           id="rect32" />
        <path
           d="m 42,23 h 0.4393 l 0.1078,0.1062 H 43.25 V 24 h -1.2499 z"
           fill="#4668c5"
           id="path33" />
        <path
           d="M 43.25,23.1875 H 42 V 24 h 1.25 z"
           fill="#4668c5"
           id="path34" />
        <path
           d="m 43.1875,23.125 h -1.125 v 0.0625 h 1.125 z"
           fill="#ffffff"
           id="path35" />
        <rect
           x="4.0500002"
           y="21.049999"
           width="14.9"
           height="4.9000001"
           stroke="#000000"
           stroke-width="0.1"
           id="rect35" />
        <rect
           x="5"
           y="22"
           width="3"
           height="3"
           fill="#d9d9d9"
           id="rect36" />
        <path
           d="m 6,23 h 0.43932 l 0.10783,0.1062 H 7.25 V 24 H 6.0001 Z"
           fill="#4668c5"
           id="path36" />
        <path
           d="M 7.25,23.1875 H 6 V 24 h 1.25 z"
           fill="#4668c5"
           id="path37" />
        <path
           d="m 7.1875,23.125 h -1.125 v 0.0625 h 1.125 z"
           fill="#ffffff"
           id="path38" />
        <path
           d="M 18,23 H 9 v 0.4983 h 9 z"
           fill="#d9d9d9"
           id="path39" />
        <text
           xml:space="preserve"
           style="font-size:5.33333px;fill:#000912;fill-opacity:1"
           x="23.101673"
           y="6.2419562"
           id="text39"><tspan
             sodipodi:role="line"
             id="tspan39"
             x="23.101673"
             y="6.2419562">report</tspan></text>
      </g>
    </g>
  </g>
</svg>
