<?xml version="1.0" encoding="UTF-8" standalone="no"?>
<svg
   width="96"
   height="96"
   viewBox="0 0 96 96"
   fill="none"
   version="1.1"
   id="svg9"
   sodipodi:docname="i-CDD-r.svg"
   inkscape:version="1.3.2 (091e20e, 2023-11-25, custom)"
   xmlns:inkscape="http://www.inkscape.org/namespaces/inkscape"
   xmlns:sodipodi="http://sodipodi.sourceforge.net/DTD/sodipodi-0.dtd"
   xmlns="http://www.w3.org/2000/svg"
   xmlns:svg="http://www.w3.org/2000/svg">
  <defs
     id="defs9">
    <linearGradient
       id="paint0_linear_111_71"
       x1="29.0924"
       y1="23.2836"
       x2="29.0924"
       y2="36.9011"
       gradientUnits="userSpaceOnUse">
      <stop
         offset="0.51"
         stop-color="white"
         id="stop26" />
      <stop
         offset="0.955"
         stop-color="#CBC8C8"
         id="stop27" />
    </linearGradient>
  </defs>
  <sodipodi:namedview
     id="namedview9"
     pagecolor="#ffffff"
     bordercolor="#000000"
     borderopacity="0.25"
     inkscape:showpageshadow="2"
     inkscape:pageopacity="0.0"
     inkscape:pagecheckerboard="0"
     inkscape:deskcolor="#d1d1d1"
     showgrid="false"
     inkscape:zoom="9.0348837"
     inkscape:cx="30.492922"
     inkscape:cy="50.415702"
     inkscape:window-width="2400"
     inkscape:window-height="1261"
     inkscape:window-x="2391"
     inkscape:window-y="-9"
     inkscape:window-maximized="1"
     inkscape:current-layer="layer1" />
  <g
     inkscape:groupmode="layer"
     id="layer2"
     inkscape:label="Layer 2">
    <g
       inkscape:groupmode="layer"
       id="layer1"
       inkscape:label="Layer 1">
      <rect
         style="fill:#e7f3ff"
         id="rect9"
         width="91.976845"
         height="91.091393"
         x="1.8815961"
         y="2.4350061"
         ry="10.293436" />
      <g
         id="g54"
         transform="matrix(1.0633416,0,0,1.0604565,16.712998,24.667954)">
        <path
           d="M 3.26369,0 H 57.8952 c 1.7949,0 3.2632,1.46873 3.2632,3.26364 V 36.917 H 4.88281e-4 V 3.26364 C 4.88281e-4,1.46873 1.46879,0 3.26369,0 Z"
           fill="#666666"
           id="path1" />
        <path
           d="M 2.21625,34.7009 H 58.9424 V 3.2632 c 0,-0.572 -0.4756,-1.04753 -1.0475,-1.04753 H 3.26335 c -0.57156,0 -1.04753,0.47553 -1.04753,1.04753 v 31.4379 z"
           fill="#6c8cc7"
           id="path2" />
        <path
           d="m 61.1583,36.917 v 3.5688 c 0,1.7954 -1.6188,3.2636 -3.5975,3.2636 H 3.59757 C 1.61881,43.7494 0,42.2812 0,40.4858 V 36.917 h 61.1579 z"
           fill="#c2c2c4"
           fill-opacity="0.1"
           id="path3" />
        <path
           d="m 13.9934,6.94412 h 32.9947 4.9116 c 0.5955,0 1.0822,0.48718 1.0822,1.08218 v 6.4394 20.2356 H 8 V 14.4657 8.0263 C 8,7.43087 8.48675,6.94412 9.08218,6.94412 h 4.91162 z"
           fill="#ffffff"
           id="path4" />
        <path
           d="M 9.17012,6.95505 H 51.9882 c 0.5955,0 1.0822,0.48675 1.0822,1.08217 V 10.2013 H 8.08838 V 8.03722 c 0,-0.59542 0.48675,-1.08217 1.08217,-1.08217 z"
           fill="#d6d6d6"
           id="path5" />
        <path
           d="m 26.3088,7.98547 h 23.6303 c 0.161,0 0.292,0.15086 0.292,0.3341 v 0.61979 c 0,0.1834 -0.1314,0.33409 -0.292,0.33409 H 26.3088 c -0.1599,0 -0.2917,-0.14986 -0.2917,-0.33409 V 8.31957 c -2e-4,-0.18357 0.1311,-0.3341 0.2917,-0.3341 z"
           fill="#ffffff"
           id="path6" />
        <path
           d="m 10.6452,7.87207 c 0.3439,0 0.6231,0.27859 0.6231,0.62303 0,0.34414 -0.2791,0.62303 -0.6231,0.62303 -0.3445,0 -0.6237,-0.2786 -0.6237,-0.62303 10e-5,-0.34487 0.2792,-0.62303 0.6237,-0.62303 z"
           fill="#c02032"
           id="path7" />
        <path
           d="m 13.1045,7.87207 c 0.3445,0 0.623,0.27859 0.623,0.62303 0,0.34414 -0.2786,0.62303 -0.623,0.62303 -0.3439,0 -0.6231,-0.2786 -0.6231,-0.62303 0,-0.34487 0.2791,-0.62303 0.6231,-0.62303 z"
           fill="#939393"
           id="path8" />
        <path
           d="m 15.5732,7.90643 c 0.3446,0 0.6231,0.2786 0.6231,0.62303 0,0.34415 -0.2786,0.62303 -0.6231,0.62303 -0.3438,0 -0.623,-0.2786 -0.623,-0.62303 0,-0.34486 0.279,-0.62303 0.623,-0.62303 z"
           fill="#c9c9c9"
           id="path9" />
        <path
           d="m 30.5793,41.3137 c 0.6204,0 1.1233,-0.5029 1.1233,-1.1232 0,-0.6204 -0.5029,-1.1233 -1.1233,-1.1233 -0.6203,0 -1.1232,0.5029 -1.1232,1.1233 0,0.6203 0.5029,1.1232 1.1232,1.1232 z"
           fill="#b6b6b8"
           id="path10" />
        <path
           d="m 37.6328,48.8832 5.1888,1.6624 H 18.3369 l 4.1865,-1.6624 v -5.1337 h 15.1091 v 5.1337 z"
           fill="#c2c2c4"
           id="path11" />
        <path
           d="M 37.6325,48.8832 22.5234,43.7495 h 15.1091 z"
           fill="#b0b0b0"
           id="path12" />
        <path
           d="m 22.5232,48.8832 h 15.1091 l 5.1888,1.6623 v 0.7161 H 30.5789 18.3364 v -0.7161 l 4.1866,-1.6623 z"
           fill="#b0b0b0"
           id="path13" />
        <path
           d="m 27.4644,8.23547 v 0.75 H 27.374 v -0.75 z M 27.4429,8.70129 27.4053,8.69983 c 3e-4,-0.03613 0.0057,-0.0695 0.0161,-0.1001 0.0104,-0.03092 0.0251,-0.05778 0.0439,-0.08056 0.0189,-0.02279 0.0414,-0.04037 0.0674,-0.05274 0.0264,-0.01269 0.0555,-0.01904 0.0874,-0.01904 0.0261,0 0.0495,0.00358 0.0703,0.01074 0.0209,0.00684 0.0386,0.0179 0.0533,0.0332 0.0149,0.0153 0.0263,0.03516 0.0341,0.05957 0.0078,0.02409 0.0118,0.05355 0.0118,0.08838 V 8.98547 H 27.6987 V 8.63831 C 27.6987,8.61064 27.6947,8.5885 27.6865,8.5719 27.6784,8.55497 27.6665,8.54277 27.6509,8.53528 27.6353,8.52747 27.616,8.52356 27.5933,8.52356 c -0.0225,0 -0.043,0.00472 -0.0616,0.01416 -0.0182,0.00944 -0.034,0.02246 -0.0473,0.03906 -0.013,0.0166 -0.0233,0.03565 -0.0308,0.05713 -0.0071,0.02116 -0.0107,0.04362 -0.0107,0.06738 z M 28.246,8.45715 V 8.52649 H 27.9604 V 8.45715 Z M 28.057,8.32874 h 0.0904 v 0.52587 c 0,0.01791 0.0027,0.03142 0.0083,0.04053 0.0055,0.00912 0.0127,0.01514 0.0214,0.01807 0.0088,0.00293 0.0183,0.00439 0.0284,0.00439 0.0075,0 0.0153,-6.5e-4 0.0234,-0.00195 0.0085,-0.00163 0.0148,-0.00293 0.019,-0.00391 l 5e-4,0.07373 c -0.0071,0.00228 -0.0166,0.0044 -0.0283,0.00635 -0.0114,0.00228 -0.0252,0.00342 -0.0415,0.00342 -0.0221,0 -0.0425,-0.0044 -0.061,-0.01318 C 28.099,8.97327 28.0842,8.95862 28.0731,8.93811 28.0624,8.91728 28.057,8.88928 28.057,8.85413 Z m 0.6161,0.12841 V 8.52649 H 28.3875 V 8.45715 Z M 28.4842,8.32874 h 0.0903 v 0.52587 c 0,0.01791 0.0028,0.03142 0.0083,0.04053 0.0055,0.00912 0.0127,0.01514 0.0215,0.01807 0.0088,0.00293 0.0182,0.00439 0.0283,0.00439 0.0075,0 0.0153,-6.5e-4 0.0235,-0.00195 0.0084,-0.00163 0.0148,-0.00293 0.019,-0.00391 l 5e-4,0.07373 c -0.0072,0.00228 -0.0166,0.0044 -0.0283,0.00635 -0.0114,0.00228 -0.0253,0.00342 -0.0415,0.00342 -0.0222,0 -0.0425,-0.0044 -0.0611,-0.01318 C 28.5262,8.97327 28.5114,8.95862 28.5003,8.93811 28.4896,8.91728 28.4842,8.88928 28.4842,8.85413 Z m 0.4852,0.22998 V 9.1886 H 28.8786 V 8.45715 h 0.083 z m 0.356,0.1582 v 0.01025 c 0,0.03841 -0.0046,0.07406 -0.0137,0.10694 -0.0091,0.03255 -0.0224,0.06087 -0.04,0.08496 -0.0173,0.02409 -0.0386,0.0428 -0.064,0.05615 -0.0254,0.01335 -0.0545,0.02002 -0.0874,0.02002 -0.0335,0 -0.0631,-0.00553 -0.0889,-0.0166 C 29.0057,8.96757 28.9839,8.95146 28.966,8.9303 28.9481,8.90914 28.9338,8.88375 28.923,8.85413 28.9126,8.8245 28.9055,8.79114 28.9016,8.75403 V 8.69934 c 0.0039,-0.03906 0.0112,-0.07406 0.0219,-0.10498 0.0108,-0.03092 0.0249,-0.05729 0.0425,-0.0791 0.0179,-0.02214 0.0396,-0.0389 0.065,-0.05029 0.0253,-0.01172 0.0546,-0.01758 0.0878,-0.01758 0.0333,0 0.0627,0.00651 0.0884,0.01953 0.0257,0.01269 0.0474,0.03092 0.065,0.05469 0.0175,0.02376 0.0307,0.05224 0.0395,0.08545 0.0091,0.03287 0.0137,0.06949 0.0137,0.10986 z M 29.2346,8.72717 V 8.71692 C 29.2346,8.69055 29.2318,8.66581 29.2263,8.6427 29.2207,8.61926 29.2121,8.59875 29.2004,8.58118 29.189,8.56327 29.1743,8.54928 29.1564,8.53918 29.1385,8.52877 29.1172,8.52356 29.0925,8.52356 c -0.0228,0 -0.0427,0.00391 -0.0596,0.01172 -0.0166,0.00781 -0.0308,0.01839 -0.0425,0.03174 -0.0117,0.01302 -0.0213,0.02799 -0.0288,0.04492 -0.0071,0.0166 -0.0125,0.03385 -0.0161,0.05176 v 0.12646 c 0.0065,0.02279 0.0156,0.04427 0.0274,0.06445 0.0117,0.01986 0.0273,0.03597 0.0468,0.04834 0.0196,0.01205 0.0441,0.01807 0.0738,0.01807 0.0244,0 0.0454,-0.00505 0.0629,-0.01514 0.0179,-0.01041 0.0326,-0.02457 0.044,-0.04248 0.0117,-0.0179 0.0203,-0.03841 0.0259,-0.06152 0.0055,-0.02344 0.0083,-0.04834 0.0083,-0.07471 z m 0.6136,0.11817 C 29.8482,8.83232 29.8453,8.82027 29.8395,8.8092 29.8339,8.79781 29.8224,8.78756 29.8048,8.77844 29.7875,8.769 29.7615,8.76086 29.7267,8.75403 29.6974,8.74784 29.6708,8.74052 29.6471,8.73206 29.6236,8.72359 29.6036,8.71334 29.587,8.70129 29.5707,8.68925 29.5582,8.67509 29.5494,8.65881 29.5406,8.64254 29.5362,8.62349 29.5362,8.60168 c 0,-0.02083 0.0046,-0.04052 0.0137,-0.05908 0.0094,-0.01855 0.0226,-0.03499 0.0396,-0.04931 0.0172,-0.01433 0.0379,-0.02556 0.062,-0.0337 0.0241,-0.00813 0.0509,-0.0122 0.0805,-0.0122 0.0423,0 0.0785,0.00748 0.1084,0.02246 0.03,0.01497 0.0529,0.03499 0.0689,0.06006 0.0159,0.02474 0.0239,0.05224 0.0239,0.08252 h -0.0903 c 0,-0.01465 -0.0044,-0.02881 -0.0132,-0.04248 -0.0085,-0.014 -0.021,-0.02556 -0.0376,-0.03467 -0.0163,-0.00912 -0.0363,-0.01367 -0.0601,-0.01367 -0.025,0 -0.0454,0.0039 -0.061,0.01172 -0.0153,0.00748 -0.0265,0.01709 -0.0337,0.0288 -0.0068,0.01172 -0.0102,0.02409 -0.0102,0.03711 0,0.00977 0.0016,0.01856 0.0048,0.02637 0.0036,0.00749 0.0098,0.01449 0.0186,0.021 0.0088,0.00618 0.0211,0.01204 0.0371,0.01757 0.0159,0.00554 0.0363,0.01107 0.061,0.01661 0.0433,0.00976 0.079,0.02148 0.107,0.03515 0.028,0.01367 0.0488,0.03044 0.0625,0.0503 0.0136,0.01985 0.0205,0.04394 0.0205,0.07226 0,0.02311 -0.0049,0.04427 -0.0147,0.06348 -0.0094,0.0192 -0.0232,0.0358 -0.0415,0.0498 -0.0179,0.01367 -0.0394,0.02442 -0.0644,0.03223 -0.0248,0.00749 -0.0526,0.01123 -0.0835,0.01123 -0.0466,0 -0.086,-0.0083 -0.1182,-0.0249 C 29.5841,8.95374 29.5597,8.93225 29.5431,8.90588 29.5265,8.87952 29.5182,8.85168 29.5182,8.82239 h 0.0908 c 0.0013,0.02474 0.0084,0.04443 0.0215,0.05908 0.013,0.01432 0.0289,0.02458 0.0478,0.03076 0.0189,0.00586 0.0376,0.00879 0.0562,0.00879 0.0247,0 0.0454,-0.00325 0.062,-0.00977 0.0169,-0.00651 0.0298,-0.01546 0.0386,-0.02685 0.0087,-0.01139 0.0131,-0.02441 0.0131,-0.03906 z m 0.3051,0.09228 c 0,-0.0153 0.0047,-0.02816 0.0142,-0.03857 0.0097,-0.01074 0.0237,-0.01612 0.042,-0.01612 0.0182,0 0.032,0.00538 0.0415,0.01612 0.0097,0.01041 0.0146,0.02327 0.0146,0.03857 0,0.01498 -0.0049,0.02767 -0.0146,0.03809 -0.0095,0.01041 -0.0233,0.01562 -0.0415,0.01562 -0.0183,0 -0.0323,-0.00521 -0.042,-0.01562 C 30.158,8.96529 30.1533,8.9526 30.1533,8.93762 Z m 5e-4,-0.43115 c 0,-0.0153 0.0047,-0.02816 0.0142,-0.03857 0.0097,-0.01075 0.0237,-0.01612 0.042,-0.01612 0.0182,0 0.032,0.00537 0.0415,0.01612 0.0097,0.01041 0.0146,0.02327 0.0146,0.03857 0,0.01497 -0.0049,0.02767 -0.0146,0.03809 -0.0095,0.01041 -0.0233,0.01562 -0.0415,0.01562 -0.0183,0 -0.0323,-0.00521 -0.042,-0.01562 C 30.1585,8.53414 30.1538,8.52144 30.1538,8.50647 Z m 0.6601,-0.23193 -0.2964,0.77197 h -0.0777 l 0.2969,-0.77197 z m 0.4037,0 -0.2964,0.77197 h -0.0776 l 0.2968,-0.77197 z"
           fill="#696a6c"
           id="path14" />
        <path
           d="M 31.7238,8.84534 C 31.7238,8.83232 31.7209,8.82027 31.715,8.8092 31.7095,8.79781 31.6979,8.78756 31.6804,8.77844 31.6631,8.769 31.6371,8.76086 31.6022,8.75403 31.5729,8.74784 31.5464,8.74052 31.5227,8.73206 31.4992,8.72359 31.4792,8.71334 31.4626,8.70129 31.4463,8.68925 31.4338,8.67509 31.425,8.65881 31.4162,8.64254 31.4118,8.62349 31.4118,8.60168 c 0,-0.02083 0.0046,-0.04052 0.0137,-0.05908 0.0094,-0.01855 0.0226,-0.03499 0.0395,-0.04931 0.0173,-0.01433 0.038,-0.02556 0.0621,-0.0337 0.024,-0.00813 0.0509,-0.0122 0.0805,-0.0122 0.0423,0 0.0785,0.00748 0.1084,0.02246 0.03,0.01497 0.0529,0.03499 0.0689,0.06006 0.0159,0.02474 0.0239,0.05224 0.0239,0.08252 h -0.0903 c 0,-0.01465 -0.0044,-0.02881 -0.0132,-0.04248 -0.0085,-0.014 -0.021,-0.02556 -0.0376,-0.03467 -0.0163,-0.00912 -0.0363,-0.01367 -0.0601,-0.01367 -0.025,0 -0.0454,0.0039 -0.061,0.01172 -0.0153,0.00748 -0.0265,0.01709 -0.0337,0.0288 -0.0068,0.01172 -0.0103,0.02409 -0.0103,0.03711 0,0.00977 0.0017,0.01856 0.0049,0.02637 0.0036,0.00749 0.0098,0.01449 0.0186,0.021 0.0088,0.00618 0.0211,0.01204 0.0371,0.01757 0.0159,0.00554 0.0363,0.01107 0.061,0.01661 0.0433,0.00976 0.079,0.02148 0.107,0.03515 0.0279,0.01367 0.0488,0.03044 0.0625,0.0503 0.0136,0.01985 0.0205,0.04394 0.0205,0.07226 0,0.02311 -0.0049,0.04427 -0.0147,0.06348 -0.0094,0.0192 -0.0233,0.0358 -0.0415,0.0498 -0.0179,0.01367 -0.0394,0.02442 -0.0644,0.03223 -0.0248,0.00749 -0.0526,0.01123 -0.0835,0.01123 -0.0466,0 -0.086,-0.0083 -0.1182,-0.0249 C 31.4597,8.95374 31.4353,8.93225 31.4187,8.90588 31.4021,8.87952 31.3938,8.85168 31.3938,8.82239 h 0.0908 c 0.0013,0.02474 0.0084,0.04443 0.0215,0.05908 0.013,0.01432 0.0289,0.02458 0.0478,0.03076 0.0189,0.00586 0.0376,0.00879 0.0562,0.00879 0.0247,0 0.0454,-0.00325 0.062,-0.00977 0.0169,-0.00651 0.0298,-0.01546 0.0385,-0.02685 0.0088,-0.01139 0.0132,-0.02441 0.0132,-0.03906 z m 0.6205,0.0498 V 8.62317 c 0,-0.02083 -0.0042,-0.0389 -0.0127,-0.0542 C 32.3235,8.55334 32.3111,8.5413 32.2945,8.53284 32.2779,8.52437 32.2574,8.52014 32.233,8.52014 c -0.0228,0 -0.0428,0.00391 -0.0601,0.01172 -0.0169,0.00781 -0.0302,0.01807 -0.04,0.03076 -0.0094,0.0127 -0.0141,0.02637 -0.0141,0.04102 h -0.0904 c 0,-0.01888 0.0049,-0.0376 0.0147,-0.05615 0.0097,-0.01856 0.0237,-0.03532 0.042,-0.0503 0.0185,-0.0153 0.0406,-0.02734 0.0664,-0.03613 0.026,-0.00912 0.055,-0.01367 0.0869,-0.01367 0.0384,0 0.0722,0.00651 0.1015,0.01953 0.0297,0.01302 0.0528,0.03271 0.0694,0.05908 0.0169,0.02604 0.0254,0.05876 0.0254,0.09815 v 0.24609 c 0,0.01758 0.0014,0.03629 0.0044,0.05615 0.0032,0.01986 0.0079,0.03695 0.0141,0.05127 V 8.98547 H 32.359 C 32.3544,8.97506 32.3508,8.96122 32.3482,8.94397 32.3456,8.92639 32.3443,8.91012 32.3443,8.89514 Z m 0.0157,-0.22998 9e-4,0.06348 h -0.0913 c -0.0257,0 -0.0486,0.00211 -0.0688,0.00635 -0.0202,0.0039 -0.0371,0.00992 -0.0508,0.01806 -0.0137,0.00814 -0.0241,0.01839 -0.0312,0.03076 -0.0072,0.01205 -0.0108,0.02621 -0.0108,0.04248 0,0.01661 0.0038,0.03174 0.0112,0.04541 0.0075,0.01368 0.0188,0.02458 0.0337,0.03272 0.0153,0.00781 0.034,0.01172 0.0562,0.01172 0.0277,0 0.0521,-0.00586 0.0732,-0.01758 0.0212,-0.01172 0.0379,-0.02604 0.0503,-0.04297 0.0127,-0.01693 0.0195,-0.03337 0.0205,-0.04932 l 0.0386,0.04346 c -0.0023,0.01367 -0.0085,0.02881 -0.0186,0.04541 -0.01,0.0166 -0.0236,0.03255 -0.0405,0.04785 -0.0166,0.01498 -0.0364,0.02751 -0.0596,0.0376 -0.0227,0.00977 -0.0485,0.01465 -0.0771,0.01465 -0.0358,0 -0.0672,-0.007 -0.0942,-0.021 C 32.075,8.96025 32.0541,8.94153 32.0392,8.91809 32.0245,8.89433 32.0172,8.8678 32.0172,8.8385 c 0,-0.02832 0.0055,-0.05322 0.0166,-0.07471 0.0111,-0.02181 0.027,-0.03987 0.0478,-0.0542 0.0209,-0.01464 0.0459,-0.02571 0.0752,-0.0332 0.0293,-0.00749 0.062,-0.01123 0.0982,-0.01123 z m 0.4071,-0.125 V 8.98547 H 32.6768 V 8.45715 h 0.0878 z m 0.165,-0.08594 -5e-4,0.08399 C 32.9242,8.53658 32.917,8.5356 32.9102,8.53528 32.9036,8.53463 32.8962,8.5343 32.8877,8.5343 c -0.0208,0 -0.0392,0.00326 -0.0552,0.00977 C 32.8166,8.55058 32.8031,8.55969 32.792,8.57141 32.7809,8.58313 32.7721,8.59713 32.7656,8.6134 32.7594,8.62935 32.7554,8.64693 32.7534,8.66614 L 32.728,8.68079 c 0,-0.0319 0.0031,-0.06185 0.0093,-0.08985 0.0065,-0.02799 0.0164,-0.05273 0.0298,-0.07422 0.0133,-0.02181 0.0303,-0.03873 0.0508,-0.05078 0.0208,-0.01237 0.0455,-0.01855 0.0742,-0.01855 0.0065,0 0.014,8.1e-4 0.0225,0.00244 0.0084,0.0013 0.0143,0.00277 0.0175,0.00439 z m 0.4755,0.44092 V 8.62317 c 0,-0.02083 -0.0042,-0.0389 -0.0127,-0.0542 C 33.3868,8.55334 33.3744,8.5413 33.3578,8.53284 33.3412,8.52437 33.3207,8.52014 33.2963,8.52014 c -0.0228,0 -0.0428,0.00391 -0.0601,0.01172 -0.0169,0.00781 -0.0302,0.01807 -0.04,0.03076 -0.0094,0.0127 -0.0142,0.02637 -0.0142,0.04102 h -0.0903 c 0,-0.01888 0.0049,-0.0376 0.0146,-0.05615 0.0098,-0.01856 0.0238,-0.03532 0.042,-0.0503 0.0186,-0.0153 0.0407,-0.02734 0.0664,-0.03613 0.0261,-0.00912 0.0551,-0.01367 0.087,-0.01367 0.0384,0 0.0722,0.00651 0.1015,0.01953 0.0296,0.01302 0.0528,0.03271 0.0694,0.05908 0.0169,0.02604 0.0253,0.05876 0.0253,0.09815 v 0.24609 c 0,0.01758 0.0015,0.03629 0.0044,0.05615 0.0033,0.01986 0.008,0.03695 0.0142,0.05127 V 8.98547 H 33.4223 C 33.4177,8.97506 33.4141,8.96122 33.4115,8.94397 33.4089,8.92639 33.4076,8.91012 33.4076,8.89514 Z m 0.0156,-0.22998 10e-4,0.06348 h -0.0913 c -0.0257,0 -0.0487,0.00211 -0.0688,0.00635 -0.0202,0.0039 -0.0371,0.00992 -0.0508,0.01806 -0.0137,0.00814 -0.0241,0.01839 -0.0313,0.03076 -0.0071,0.01205 -0.0107,0.02621 -0.0107,0.04248 0,0.01661 0.0037,0.03174 0.0112,0.04541 0.0075,0.01368 0.0187,0.02458 0.0337,0.03272 0.0153,0.00781 0.034,0.01172 0.0562,0.01172 0.0276,0 0.052,-0.00586 0.0732,-0.01758 0.0212,-0.01172 0.0379,-0.02604 0.0503,-0.04297 0.0127,-0.01693 0.0195,-0.03337 0.0205,-0.04932 l 0.0386,0.04346 c -0.0023,0.01367 -0.0085,0.02881 -0.0186,0.04541 -0.0101,0.0166 -0.0236,0.03255 -0.0405,0.04785 -0.0166,0.01498 -0.0365,0.02751 -0.0596,0.0376 -0.0228,0.00977 -0.0485,0.01465 -0.0771,0.01465 -0.0358,0 -0.0672,-0.007 -0.0943,-0.021 C 33.1382,8.96025 33.1174,8.94153 33.1024,8.91809 33.0878,8.89433 33.0805,8.8678 33.0805,8.8385 c 0,-0.02832 0.0055,-0.05322 0.0166,-0.07471 0.011,-0.02181 0.027,-0.03987 0.0478,-0.0542 0.0209,-0.01464 0.0459,-0.02571 0.0752,-0.0332 0.0293,-0.00749 0.062,-0.01123 0.0982,-0.01123 z m 0.3183,0.27246 c 0,-0.0153 0.0047,-0.02816 0.0142,-0.03857 0.0097,-0.01074 0.0237,-0.01612 0.042,-0.01612 0.0182,0 0.032,0.00538 0.0415,0.01612 0.0097,0.01041 0.0146,0.02327 0.0146,0.03857 0,0.01498 -0.0049,0.02767 -0.0146,0.03809 -0.0095,0.01041 -0.0233,0.01562 -0.0415,0.01562 -0.0183,0 -0.0323,-0.00521 -0.042,-0.01562 C 33.7462,8.96529 33.7415,8.9526 33.7415,8.93762 Z m 0.497,0.04785 H 34.1481 V 8.40149 c 0,-0.03809 0.0069,-0.07015 0.0206,-0.09619 0.0139,-0.02637 0.034,-0.04623 0.06,-0.05957 0.0261,-0.01367 0.057,-0.02051 0.0928,-0.02051 0.0104,0 0.0208,6.5e-4 0.0312,0.00195 0.0108,0.0013 0.0212,0.00326 0.0313,0.00586 L 34.3791,8.30676 C 34.3723,8.30514 34.3645,8.304 34.3557,8.30334 c -0.0085,-6.5e-4 -0.017,-9.7e-4 -0.0254,-9.7e-4 -0.0192,0 -0.0358,0.0039 -0.0498,0.01172 -0.0137,0.00748 -0.0241,0.01855 -0.0313,0.0332 C 34.2421,8.36194 34.2385,8.38 34.2385,8.40149 Z M 34.3508,8.45715 V 8.52649 H 34.0646 V 8.45715 Z M 34.8746,8.8634 V 8.45715 h 0.0908 V 8.98547 H 34.879 Z m 0.0171,-0.11132 0.0376,-9.8e-4 c 0,0.03515 -0.0037,0.06771 -0.0112,0.09765 -0.0072,0.02963 -0.0189,0.05534 -0.0352,0.07715 -0.0163,0.02181 -0.0376,0.0389 -0.064,0.05127 -0.0263,0.01205 -0.0584,0.01807 -0.0961,0.01807 -0.0258,0 -0.0494,-0.00374 -0.0708,-0.01123 C 34.6308,8.97652 34.6126,8.96497 34.5973,8.94934 34.582,8.93372 34.5701,8.91337 34.5616,8.88831 34.5535,8.86324 34.5494,8.83313 34.5494,8.79797 V 8.45715 h 0.0903 v 0.3418 c 0,0.02376 0.0027,0.04346 0.0079,0.05908 0.0055,0.0153 0.0128,0.02751 0.0219,0.03662 0.0095,0.00879 0.0199,0.01498 0.0313,0.01856 0.0117,0.00358 0.0237,0.00537 0.0361,0.00537 0.0384,0 0.0689,-0.00733 0.0913,-0.02197 0.0225,-0.01498 0.0386,-0.035 0.0484,-0.06006 C 34.8867,8.81116 34.8917,8.783 34.8917,8.75208 Z M 35.2935,8.56995 V 8.98547 H 35.2031 V 8.45715 h 0.0855 z M 35.272,8.70129 35.2344,8.69983 c 3e-4,-0.03613 0.0057,-0.0695 0.0161,-0.1001 0.0104,-0.03092 0.0251,-0.05778 0.0439,-0.08056 0.0189,-0.02279 0.0414,-0.04037 0.0674,-0.05274 0.0264,-0.01269 0.0555,-0.01904 0.0874,-0.01904 0.0261,0 0.0495,0.00358 0.0703,0.01074 0.0209,0.00684 0.0386,0.0179 0.0533,0.0332 0.0149,0.0153 0.0263,0.03516 0.0341,0.05957 0.0078,0.02409 0.0118,0.05355 0.0118,0.08838 V 8.98547 H 35.5278 V 8.63831 C 35.5278,8.61064 35.5238,8.5885 35.5156,8.5719 35.5075,8.55497 35.4956,8.54277 35.48,8.53528 35.4644,8.52747 35.4451,8.52356 35.4224,8.52356 c -0.0225,0 -0.043,0.00472 -0.0616,0.01416 -0.0182,0.00944 -0.034,0.02246 -0.0473,0.03906 -0.013,0.0166 -0.0233,0.03565 -0.0308,0.05713 -0.0071,0.02116 -0.0107,0.04362 -0.0107,0.06738 z m 0.9169,0.18164 V 8.23547 h 0.0908 v 0.75 h -0.083 z M 35.8334,8.72717 V 8.71692 c 0,-0.04037 0.0049,-0.07699 0.0146,-0.10986 0.0101,-0.03321 0.0243,-0.06169 0.0425,-0.08545 0.0186,-0.02377 0.0406,-0.042 0.0659,-0.05469 0.0258,-0.01302 0.0544,-0.01953 0.086,-0.01953 0.0332,0 0.0622,0.00586 0.0869,0.01758 0.0251,0.01139 0.0462,0.02815 0.0635,0.05029 0.0176,0.02181 0.0314,0.04818 0.0415,0.0791 0.0101,0.03092 0.0171,0.06592 0.021,0.10498 v 0.04492 c -0.0036,0.03874 -0.0106,0.07357 -0.021,0.10449 -0.0101,0.03093 -0.0239,0.0573 -0.0415,0.07911 -0.0173,0.02181 -0.0384,0.03857 -0.0635,0.05029 -0.0251,0.01139 -0.0544,0.01709 -0.0879,0.01709 -0.0309,0 -0.0592,-0.00667 -0.085,-0.02002 C 35.9311,8.96187 35.9091,8.94316 35.8905,8.91907 35.8723,8.89498 35.8581,8.86666 35.848,8.83411 35.8383,8.80123 35.8334,8.76558 35.8334,8.72717 Z m 0.0908,-0.01025 v 0.01025 c 0,0.02637 0.0026,0.05111 0.0078,0.07422 0.0056,0.02311 0.014,0.04346 0.0254,0.06104 0.0114,0.01757 0.0259,0.03141 0.0435,0.0415 0.0176,0.00977 0.0386,0.01465 0.063,0.01465 0.0299,0 0.0545,-0.00635 0.0737,-0.01904 0.0195,-0.0127 0.0352,-0.02946 0.0469,-0.0503 0.0117,-0.02083 0.0208,-0.04345 0.0273,-0.06787 V 8.6637 C 36.2079,8.64579 36.2022,8.62854 36.1947,8.61194 36.1876,8.59501 36.1781,8.58004 36.1664,8.56702 36.155,8.55367 36.1409,8.54309 36.1239,8.53528 36.1073,8.52747 36.0876,8.52356 36.0648,8.52356 c -0.0247,0 -0.046,0.00521 -0.0639,0.01562 -0.0176,0.0101 -0.0321,0.02409 -0.0435,0.042 C 35.946,8.59875 35.9376,8.61926 35.932,8.6427 35.9268,8.66581 35.9242,8.69055 35.9242,8.71692 Z m 0.5976,0.2207 c 0,-0.0153 0.0047,-0.02816 0.0141,-0.03857 0.0098,-0.01074 0.0238,-0.01612 0.042,-0.01612 0.0183,0 0.0321,0.00538 0.0415,0.01612 0.0098,0.01041 0.0147,0.02327 0.0147,0.03857 0,0.01498 -0.0049,0.02767 -0.0147,0.03809 -0.0094,0.01041 -0.0232,0.01562 -0.0415,0.01562 -0.0182,0 -0.0322,-0.00521 -0.042,-0.01562 C 36.5265,8.96529 36.5218,8.9526 36.5218,8.93762 Z m 0.3617,-0.70215 h 0.0908 v 0.64746 l -0.0078,0.10254 h -0.083 z m 0.4478,0.48145 v 0.01025 c 0,0.03841 -0.0046,0.07406 -0.0137,0.10694 -0.0091,0.03255 -0.0225,0.06087 -0.0401,0.08496 -0.0175,0.02409 -0.039,0.0428 -0.0644,0.05615 -0.0254,0.01335 -0.0545,0.02002 -0.0874,0.02002 -0.0335,0 -0.063,-0.0057 -0.0884,-0.01709 C 37.0122,8.96643 36.9911,8.94967 36.9738,8.92786 36.9566,8.90605 36.9427,8.87968 36.9323,8.84875 36.9222,8.81783 36.9152,8.783 36.9113,8.74426 V 8.69934 c 0.0039,-0.03906 0.0109,-0.07406 0.021,-0.10498 0.0104,-0.03092 0.0243,-0.05729 0.0415,-0.0791 0.0173,-0.02214 0.0384,-0.0389 0.0635,-0.05029 0.0251,-0.01172 0.0542,-0.01758 0.0874,-0.01758 0.0332,0 0.0627,0.00651 0.0884,0.01953 0.0257,0.01269 0.0472,0.03092 0.0644,0.05469 0.0176,0.02376 0.031,0.05224 0.0401,0.08545 0.0091,0.03287 0.0137,0.06949 0.0137,0.10986 z M 37.2404,8.72717 V 8.71692 C 37.2404,8.69055 37.238,8.66581 37.2331,8.6427 37.2282,8.61926 37.2204,8.59875 37.2097,8.58118 37.1989,8.56327 37.1848,8.54928 37.1672,8.53918 37.1496,8.52877 37.128,8.52356 37.1022,8.52356 c -0.0227,0 -0.0426,0.00391 -0.0595,0.01172 -0.0166,0.00781 -0.0308,0.01839 -0.0425,0.03174 -0.0117,0.01302 -0.0213,0.02799 -0.0288,0.04492 -0.0072,0.0166 -0.0125,0.03385 -0.0161,0.05176 v 0.11767 c 0.0052,0.02279 0.0136,0.04476 0.0254,0.06592 0.012,0.02083 0.028,0.03792 0.0478,0.05127 0.0202,0.01335 0.0451,0.02002 0.0747,0.02002 0.0244,0 0.0453,-0.00488 0.0625,-0.01465 C 37.1833,8.89384 37.1975,8.88 37.2082,8.86243 37.2193,8.84485 37.2274,8.8245 37.2326,8.80139 37.2378,8.77828 37.2404,8.75354 37.2404,8.72717 Z M 37.6358,8.54016 V 8.98547 H 37.5455 V 8.45715 h 0.0879 z m 0.1651,-0.08594 -5e-4,0.08399 C 37.7929,8.53658 37.7857,8.5356 37.7789,8.53528 37.7724,8.53463 37.7649,8.5343 37.7564,8.5343 c -0.0208,0 -0.0392,0.00326 -0.0551,0.00977 -0.016,0.00651 -0.0295,0.01562 -0.0406,0.02734 -0.011,0.01172 -0.0198,0.02572 -0.0263,0.04199 -0.0062,0.01595 -0.0103,0.03353 -0.0122,0.05274 l -0.0254,0.01465 c 0,-0.0319 0.0031,-0.06185 0.0093,-0.08985 0.0065,-0.02799 0.0164,-0.05273 0.0297,-0.07422 0.0134,-0.02181 0.0303,-0.03873 0.0508,-0.05078 0.0209,-0.01237 0.0456,-0.01855 0.0742,-0.01855 0.0065,0 0.014,8.1e-4 0.0225,0.00244 0.0085,0.0013 0.0143,0.00277 0.0176,0.00439 z m 0.2743,-0.21875 v 0.75 h -0.0908 v -0.75 z M 38.3979,8.45715 38.1675,8.70374 38.0386,8.83752 38.0312,8.74133 38.1235,8.63098 38.2876,8.45715 Z M 38.3154,8.98547 38.127,8.73352 38.1738,8.65295 38.4219,8.98547 Z M 38.8783,8.27063 V 8.98547 H 38.788 V 8.38342 L 38.6059,8.44983 V 8.36829 l 0.2583,-0.09766 z m 0.6899,0.00391 -0.2964,0.77197 H 39.1941 L 39.491,8.27454 Z"
           fill="#202124"
           id="path15" />
        <path
           fill-rule="evenodd"
           clip-rule="evenodd"
           d="M 32.4112,25.3926 C 32.1833,25.3926 32,25.1246 32,24.7963 c 0,-0.3284 0.1833,-0.5962 0.4112,-0.5962 h 14.1773 c 0.2279,0 0.4112,0.2678 0.4112,0.5962 0,0.3283 -0.1833,0.5963 -0.4112,0.5963 z M 32.4114,29 C 32.1836,29 32,28.7324 32,28.4037 c 0,-0.3283 0.1836,-0.5961 0.4114,-0.5961 H 46.5885 C 46.8164,27.8076 47,28.0754 47,28.4037 47,28.7324 46.8164,29 46.5885,29 Z m -2e-4,-10.8076 C 32.1833,18.1924 32,17.9246 32,17.5962 32,17.2676 32.1833,17 32.4112,17 h 10.1567 c 0.2278,0 0.4114,0.2676 0.4114,0.5962 0,0.3284 -0.1836,0.5962 -0.4114,0.5962 z m 0,3.6001 C 32.1833,21.7925 32,21.5249 32,21.1963 c 0,-0.3283 0.1833,-0.5962 0.4112,-0.5962 h 14.1627 c 0.2278,0 0.4112,0.2679 0.4112,0.5962 0,0.3286 -0.1834,0.5962 -0.4112,0.5962 z"
           fill="#d6d6d6"
           id="path16" />
        <path
           d="m 27.998,24.1635 c -0.021,0.2091 -0.213,0.3137 -0.3766,0.4088 -0.1521,0.0875 -0.3042,0.1769 -0.4545,0.2643 -0.2434,0.1408 -0.4849,0.2815 -0.7283,0.4222 -0.3042,0.1769 -0.6066,0.3537 -0.9109,0.5287 -0.3346,0.1939 -0.6693,0.3898 -1.0059,0.5838 -0.3366,0.1958 -0.6732,0.3917 -1.0117,0.5876 -0.31,0.1806 -0.618,0.3594 -0.928,0.54 -0.2529,0.1464 -0.5039,0.2929 -0.7568,0.4393 -0.1655,0.0951 -0.3309,0.1921 -0.4964,0.2871 -0.1255,0.0723 -0.2434,0.1446 -0.386,0.1864 -0.3708,0.1065 -0.7816,0.0704 -1.1163,-0.1236 -0.1198,-0.0704 -0.2415,-0.1388 -0.3613,-0.2092 -0.2206,-0.1274 -0.4392,-0.2529 -0.6598,-0.3803 -0.2891,-0.1674 -0.5781,-0.3347 -0.8672,-0.5001 -0.329,-0.1902 -0.6598,-0.3804 -0.9888,-0.5705 -0.3404,-0.1959 -0.6808,-0.3937 -1.0212,-0.5895 -0.3214,-0.1864 -0.6427,-0.3708 -0.966,-0.5572 l -0.8215,-0.4735 c -0.1959,-0.1141 -0.3937,-0.2263 -0.5895,-0.3404 -0.0894,-0.0514 -0.1788,-0.1027 -0.2682,-0.1559 -0.1407,-0.0818 -0.2795,-0.2111 -0.2795,-0.3861 0,0.1598 0,0.3195 -0.0019,0.4811 0,0.0571 -0.0038,0.116 0,0.175 0.0114,0.154 0.1331,0.2738 0.2605,0.3499 0.078,0.0475 0.1578,0.0913 0.2377,0.1369 0.2054,0.1179 0.4108,0.2377 0.6161,0.3556 0.2967,0.1712 0.5915,0.3423 0.8881,0.5135 0.3518,0.2034 0.7055,0.4069 1.0573,0.6104 0.367,0.213 0.734,0.424 1.103,0.637 0.3499,0.2016 0.6979,0.4032 1.0478,0.6047 0.2909,0.1674 0.58,0.3347 0.8709,0.5021 0.1959,0.1141 0.3936,0.2263 0.5895,0.3404 0.1141,0.0646 0.2263,0.1388 0.3499,0.1844 0.386,0.1407 0.8386,0.1103 1.1942,-0.097 0.1351,-0.0779 0.2701,-0.1578 0.4051,-0.2358 0.2491,-0.1445 0.4982,-0.289 0.7454,-0.4335 0.3252,-0.1883 0.6485,-0.3766 0.9737,-0.5667 0.3632,-0.2111 0.7264,-0.4222 1.0877,-0.6333 l 1.0896,-0.6332 c 0.3252,-0.1902 0.6504,-0.3784 0.9775,-0.5686 0.2529,-0.1464 0.5058,-0.2928 0.7587,-0.4412 0.1388,-0.0817 0.2796,-0.1616 0.4184,-0.2434 0.0418,-0.0247 0.0856,-0.0494 0.1255,-0.0779 0.1065,-0.0799 0.1902,-0.1902 0.1921,-0.329 0.0019,-0.0704 0,-0.1388 0,-0.2092 0,-0.1388 0,-0.2796 0.0019,-0.4184 0.0076,0.0133 0.0057,0.0248 0.0057,0.0343 0,0.0038 0,-0.0057 0,0 z"
           fill="#a0a8be"
           id="path17" />
        <path
           d="m 27.7277,23.7526 c 0.3613,0.2092 0.3632,0.5496 0.0038,0.7588 l -6.5493,3.8071 c -0.3594,0.2091 -0.947,0.2091 -1.3083,0 L 13.281,24.5114 c -0.3613,-0.2092 -0.3632,-0.5496 -0.0038,-0.7588 l 6.5492,-3.807 c 0.3594,-0.2092 0.947,-0.2092 1.3083,0 z"
           fill="#e4ecf9"
           id="path18" />
        <path
           d="m 21.692,20.6797 c 0.0209,-0.0019 0.0419,-0.0057 0.0609,-0.0076 0.019,-0.0019 0.0399,-0.0038 0.057,-0.0057 h 0.0038 c 0.019,-0.0019 0.0362,-0.0038 0.0533,-0.0038 h 0.0665 c 0.0114,0 0.0229,0.0019 0.0343,0.0038 0.0019,0 0.0057,0 0.0076,0.0019 0.0076,0.0019 0.0133,0.0038 0.0209,0.0057 0.0038,0 0.0057,0.0019 0.0095,0.0019 0.0057,0.0019 0.0114,0.0038 0.0152,0.0057 0.0019,0.0019 0.0057,0.0019 0.0076,0.0038 0.0057,0.0019 0.0095,0.0038 0.0152,0.0076 0.0038,0.0019 0.0057,0.0038 0.0095,0.0038 l -0.3156,-0.1845 -0.0019,-0.0019 c -0.0019,-0.0019 -0.0038,-0.0019 -0.0057,-0.0038 -0.0038,-0.0019 -0.0096,-0.0057 -0.0153,-0.0076 0,0 -0.0019,0 -0.0019,-0.0019 -0.0019,0 -0.0038,-0.0019 -0.0057,-0.0019 -0.0057,-0.0019 -0.0114,-0.0038 -0.0152,-0.0057 -0.0019,0 -0.0019,-0.0019 -0.0038,-0.0019 -0.0019,0 -0.0038,0 -0.0057,-0.0019 -0.0076,-0.0019 -0.0133,-0.0038 -0.0209,-0.0057 -0.0019,0 -0.0038,0 -0.0057,-0.0019 H 21.654 c -0.0114,-0.0019 -0.0228,-0.0038 -0.0342,-0.0038 h -0.0076 c -0.0191,-0.0019 -0.0381,-0.0019 -0.0571,0 h -0.0019 -0.0019 c -0.0171,0 -0.0361,0.0019 -0.0532,0.0038 h -0.0038 l -0.0571,0.0057 c -0.0209,0.0019 -0.0418,0.0057 -0.0627,0.0076 h -0.0039 c -0.0209,0.0019 -0.0437,0.0057 -0.0665,0.0076 -0.2834,0.0247 -0.5971,0.0457 -0.8805,0.0723 -0.0798,0.0209 -0.1616,0.0418 -0.2415,0.0627 l 0.3157,0.1845 c 0.0799,-0.0209 0.1616,-0.0418 0.2415,-0.0628 0.2814,-0.0285 0.5971,-0.0475 0.8805,-0.0722 0.0228,-0.0019 0.0456,-0.0038 0.0665,-0.0076 0.0019,0.0038 0.0038,0.0038 0.0057,0.0038 z"
           fill="#403572"
           id="path19" />
        <path
           d="m 20.469,20.8109 -0.3157,-0.1845 h 0.0019 z"
           fill="#28289e"
           id="path20" />
        <path
           d="m 20.4714,20.8109 -0.3156,-0.1845 0.0114,0.0057 0.3156,0.1845 c -0.0038,0 -0.0076,-0.0038 -0.0114,-0.0057 z"
           fill="#2929a3"
           id="path21" />
        <path
           d="M 20.4827,20.8166 20.167,20.6321 c 0.0038,0.0019 0.0076,0.0019 0.0095,0.0038 l 0.3157,0.1845 c -0.0019,0 -0.0057,-0.0019 -0.0095,-0.0038 z"
           fill="#2a2aa8"
           id="path22" />
        <path
           d="m 20.4924,20.8204 -0.3156,-0.1845 c 0.0019,0 0.0038,0.0019 0.0057,0.0019 l 0.3156,0.1845 c 0,0 -0.0019,0 -0.0057,-0.0019 z"
           fill="#2c2cad"
           id="path23" />
        <path
           d="m 20.1023,20.5656 -0.3157,-0.1845 c 0.0019,0 0.0019,-0.0019 0.0038,-0.0019 l 0.3157,0.1845 c -0.0019,0 -0.0038,0.0019 -0.0038,0.0019 z"
           fill="#2a2abc"
           id="path24" />
        <path
           d="m 20.1062,20.5637 -0.3157,-0.1845 c 0.0381,-0.0152 0.0761,-0.0304 0.1141,-0.0475 l 0.3157,0.1844 c -0.038,0.0171 -0.0761,0.0324 -0.1141,0.0476 z"
           fill="#403572"
           id="path25" />
        <path
           d="m 20.22,20.5161 -0.3157,-0.1844 c 0.0114,-0.0057 0.0247,-0.0095 0.0361,-0.0152 l 0.3157,0.1844 c -0.0133,0.0057 -0.0247,0.0114 -0.0361,0.0152 z"
           fill="#403572"
           id="path26" />
        <path
           d="M 18.6723,21.0828 C 18.6571,20.9117 18.6419,20.7424 18.6267,20.5713 L 18.311,20.3868 c 0.0152,0.1712 0.0305,0.3404 0.0457,0.5115 0.038,0.097 0.1274,0.059 0.154,0.2111 l 0.3157,0.1845 c -0.0266,-0.1521 -0.116,-0.1141 -0.1541,-0.2111 z"
           fill="#403572"
           id="path27" />
        <path
           d="m 18.5109,21.1113 -0.1141,0.0989 c -0.0038,0.0114 -0.0076,0.0247 -0.0114,0.038 -0.0038,0.0096 -0.0076,0.021 -0.0095,0.0324 -0.0019,0.0057 -0.0038,0.0133 -0.0057,0.019 -0.0038,0.0095 -0.0057,0.019 -0.0095,0.0285 -0.0019,0.0057 -0.0038,0.0095 -0.0057,0.0152 -0.0038,0.0152 -0.0095,0.0286 -0.0152,0.0438 0,0.0019 0,0.0019 -0.0019,0.0038 l -0.0286,0.0855 v 0.0019 c -0.0095,0.0286 -0.0209,0.0571 -0.0304,0.0856 0,0.0019 0,0.0019 -0.0019,0.0038 -0.0114,0.0285 -0.0228,0.0552 -0.0342,0.0818 -0.0019,0.0038 -0.0038,0.0057 -0.0038,0.0095 -0.0057,0.0133 -0.0114,0.0247 -0.0171,0.038 -0.0019,0.0057 -0.0038,0.0095 -0.0076,0.0152 -0.0038,0.0077 -0.0057,0.0134 -0.0095,0.0191 -0.0038,0.0057 -0.0058,0.0114 -0.0096,0.0171 l -0.0057,0.0114 c -0.0038,0.0076 -0.0076,0.0133 -0.0114,0.0209 -0.0019,0.0019 -0.0019,0.0038 -0.0038,0.0057 -0.0057,0.0095 -0.0114,0.0171 -0.0171,0.0247 -0.0799,0.0723 -0.1616,0.1446 -0.2415,0.2168 -0.2814,0.2986 -0.5952,0.6409 -0.8785,0.9413 -0.0286,0.0304 -0.0552,0.059 -0.0837,0.0856 l -0.0095,0.0095 c -0.0286,0.0285 -0.0552,0.0571 -0.0818,0.0837 -0.0247,0.0247 -0.0475,0.0494 -0.0723,0.0741 -0.0038,0.0038 -0.0076,0.0095 -0.0133,0.0134 l -0.0684,0.0741 -0.0038,0.0038 c -0.0019,0.0019 -0.0038,0.0057 -0.0057,0.0076 -0.0172,0.019 -0.0343,0.04 -0.0495,0.0609 -0.0019,0.0019 -0.0038,0.0057 -0.0057,0.0076 0,0.0019 -0.0019,0.0019 -0.0019,0.0038 -0.0076,0.0095 -0.0152,0.0209 -0.0228,0.0304 -0.0038,0.0057 -0.0095,0.0114 -0.0133,0.019 l -0.0019,0.0019 c -0.0038,0.0038 -0.0057,0.0095 -0.0095,0.0133 -0.0057,0.0096 -0.0133,0.0191 -0.019,0.0286 -0.0019,0.0019 -0.0038,0.0057 -0.0038,0.0076 -0.0019,0.0038 -0.0058,0.0095 -0.0077,0.0133 -0.0038,0.0057 -0.0076,0.0114 -0.0114,0.019 -0.0038,0.0057 -0.0076,0.0133 -0.0114,0.019 l -0.0057,0.0114 c -0.0019,0.0019 -0.0019,0.0038 -0.0038,0.0057 -0.0057,0.0114 -0.0133,0.0248 -0.019,0.0362 -0.0019,0.0019 -0.0019,0.0038 -0.0019,0.0057 -0.0019,0.0038 -0.0038,0.0076 -0.0038,0.0095 -0.0038,0.0076 -0.0057,0.0133 -0.0095,0.0209 -0.0038,0.0076 -0.0076,0.0171 -0.0095,0.0247 -0.0019,0.0038 -0.0019,0.0076 -0.0038,0.0095 0,0.0019 -0.0019,0.0038 -0.0019,0.0057 -0.0057,0.0152 -0.0114,0.0286 -0.0152,0.0438 0,0.0019 -0.0019,0.0038 -0.0019,0.0057 l -0.0057,0.0171 c -0.0038,0.0095 -0.0057,0.019 -0.0096,0.0285 -0.0019,0.0076 -0.0038,0.0171 -0.0076,0.0247 0,0.213 -0.0152,0.9375 -0.0095,1.2133 l 0.3157,0.1844 c -0.0057,-0.2776 0.0095,-1.0002 0.0095,-1.2132 0.0038,-0.019 0.0095,-0.0361 0.0152,-0.0552 l 0.0057,-0.0171 c 0.0057,-0.019 0.0133,-0.038 0.019,-0.0551 0.0019,-0.0038 0.0019,-0.0076 0.0038,-0.0095 0.0058,-0.0152 0.0134,-0.0305 0.0191,-0.0457 0.0019,-0.0038 0.0038,-0.0076 0.0038,-0.0095 0.0076,-0.0171 0.0171,-0.0323 0.0247,-0.0494 l 0.0057,-0.0114 c 0.0076,-0.0133 0.0152,-0.0247 0.0228,-0.0381 0.0019,-0.0038 0.0057,-0.0095 0.0076,-0.0133 0.0076,-0.0114 0.0152,-0.0247 0.0228,-0.0361 0.0038,-0.0038 0.0057,-0.0095 0.0095,-0.0133 0.0058,-0.0076 0.0096,-0.0133 0.0153,-0.0209 0.0076,-0.0095 0.0152,-0.0209 0.0228,-0.0305 0.0019,-0.0038 0.0057,-0.0076 0.0095,-0.0114 0.0152,-0.0209 0.0323,-0.0399 0.0494,-0.0608 l 0.0114,-0.0114 c 0.0229,-0.0248 0.0438,-0.0495 0.0685,-0.0742 0.0038,-0.0038 0.0076,-0.0095 0.0133,-0.0133 0.0228,-0.0247 0.0476,-0.0494 0.0723,-0.0742 0.0266,-0.0266 0.0551,-0.0551 0.0817,-0.0836 l 0.0096,-0.0095 c 0.0266,-0.0286 0.0551,-0.0571 0.0836,-0.0875 0.2834,-0.3024 0.5952,-0.6447 0.8786,-0.9413 0.0798,-0.0723 0.1616,-0.1446 0.2415,-0.2168 0.0019,-0.0019 0.0019,-0.0038 0.0038,-0.0057 L 18.49,21.9671 c 0,-0.0019 0.0019,-0.0019 0.0019,-0.0038 0.0019,-0.0019 0.0019,-0.0038 0.0038,-0.0057 0.0019,-0.0038 0.0038,-0.0077 0.0076,-0.0115 0.0019,-0.0038 0.0038,-0.0057 0.0057,-0.0095 l 0.0057,-0.0114 c 0.0019,-0.0019 0.0019,-0.0038 0.0038,-0.0057 l 0.0057,-0.0114 c 0.0038,-0.0057 0.0057,-0.0133 0.0095,-0.019 0.0019,-0.0019 0.0019,-0.0038 0.0038,-0.0076 0.0019,-0.0019 0.0019,-0.0057 0.0038,-0.0076 0.0057,-0.0114 0.0115,-0.0247 0.0172,-0.038 0.0019,-0.002 0.0019,-0.0039 0.0038,-0.0077 0,0 0,-0.0019 0.0019,-0.0019 0.0114,-0.0266 0.0228,-0.0532 0.0342,-0.0817 v -0.0019 -0.0019 c 0.0114,-0.0286 0.0209,-0.0571 0.0304,-0.0856 v -0.0019 c 0.0095,-0.0285 0.0209,-0.0571 0.0285,-0.0856 0,-0.0019 0,-0.0019 0.0019,-0.0038 0.0057,-0.0152 0.0096,-0.0304 0.0153,-0.0437 0.0019,-0.0057 0.0038,-0.0095 0.0057,-0.0152 0.0038,-0.0095 0.0057,-0.0191 0.0095,-0.0286 0.0019,-0.0057 0.0038,-0.0133 0.0057,-0.019 0.0038,-0.0114 0.0076,-0.0228 0.0095,-0.0323 0.0038,-0.0133 0.0076,-0.0266 0.0114,-0.038 l 0.1141,-0.0989 z m 1.8446,-3.9154 -0.3157,-0.1845 h -0.0019 l -0.0114,-0.0057 c -0.0019,0 -0.0038,-0.0019 -0.0038,-0.0019 h -0.0019 c 0,0 -0.0019,0 -0.0019,-0.0019 C 20.0151,17.0019 20.0132,17 20.0094,17 H 20.0037 L 19.823,17.0685 19.7108,17.0114 C 19.6975,17.0095 19.6842,17.0076 19.669,17.0076 h -0.0627 c -0.0038,0 -0.0077,0 -0.0115,0.0019 -0.0133,0 -0.0247,0.0019 -0.038,0.0038 -0.0057,0 -0.0133,0 -0.019,0.0019 -0.0038,0 -0.0095,0.0019 -0.0133,0.0019 -0.0038,0 -0.0095,0.0019 -0.0133,0.0019 -0.019,0.0038 -0.0362,0.0076 -0.0552,0.0133 h -0.0019 c -0.0038,0.0019 -0.0076,0.0019 -0.0114,0.0038 -0.0171,0.0038 -0.0323,0.0095 -0.0494,0.0152 -0.0076,0.0019 -0.0133,0.0057 -0.0209,0.0077 l -0.0286,0.0114 c -0.0038,0.0019 -0.0057,0.0019 -0.0095,0.0038 -0.0152,0.0057 -0.0304,0.0133 -0.0456,0.0209 -0.0076,0.0038 -0.0152,0.0076 -0.0228,0.0095 -0.0229,0.0114 -0.0457,0.0228 -0.0666,0.0361 -0.0209,0.0114 -0.0418,0.0247 -0.0627,0.0381 l -0.0172,0.0114 c -0.0152,0.0095 -0.0304,0.0209 -0.0475,0.0323 -0.0057,0.0038 -0.0095,0.0076 -0.0152,0.0114 -0.019,0.0133 -0.0399,0.0285 -0.059,0.0437 -0.0038,0.0019 -0.0076,0.0057 -0.0095,0.0076 -0.0171,0.0134 -0.0323,0.0248 -0.0475,0.0381 -0.0057,0.0038 -0.0114,0.0095 -0.0171,0.0133 -0.0152,0.0133 -0.0305,0.0247 -0.0457,0.038 -0.0038,0.0038 -0.0076,0.0057 -0.0114,0.0095 -0.019,0.0152 -0.0361,0.0324 -0.0532,0.0476 -0.0038,0.0038 -0.0095,0.0076 -0.0133,0.0114 -0.0133,0.0133 -0.0267,0.0247 -0.04,0.038 -0.0057,0.0038 -0.0095,0.0095 -0.0152,0.0133 -0.0152,0.0152 -0.0304,0.0305 -0.0456,0.0438 l -0.0019,0.0019 -0.0438,0.0437 c -0.0038,0.0038 -0.0076,0.0076 -0.0114,0.0133 l -0.0304,0.0304 c -0.0038,0.0057 -0.0095,0.0095 -0.0133,0.0134 l -0.0285,0.0285 -0.0095,0.0095 c -0.0115,0.0133 -0.0248,0.0247 -0.0362,0.0361 l 0.3157,0.1845 c 0.0114,-0.0114 0.0228,-0.0247 0.0361,-0.0362 0.0038,-0.0038 0.0057,-0.0076 0.0095,-0.0095 l 0.0286,-0.0285 0.0133,-0.0133 c 0.0095,-0.0095 0.019,-0.0209 0.0304,-0.0304 0.0038,-0.0038 0.0076,-0.0095 0.0133,-0.0133 l 0.0437,-0.0438 0.0039,-0.0038 c 0.0152,-0.0152 0.0304,-0.0285 0.0456,-0.0437 0.0057,-0.0038 0.0095,-0.0095 0.0152,-0.0133 0.0133,-0.0133 0.0266,-0.0248 0.0399,-0.0381 0.0038,-0.0038 0.0095,-0.0076 0.0133,-0.0114 0.0172,-0.0152 0.0362,-0.0323 0.0533,-0.0475 0.0038,-0.0038 0.0076,-0.0057 0.0114,-0.0095 0.0152,-0.0133 0.0304,-0.0266 0.0456,-0.0381 0.0057,-0.0038 0.0115,-0.0095 0.0172,-0.0133 0.0152,-0.0133 0.0323,-0.0247 0.0475,-0.038 0.0038,-0.0019 0.0076,-0.0057 0.0114,-0.0076 0.019,-0.0152 0.038,-0.0285 0.059,-0.0437 0.0057,-0.0038 0.0095,-0.0076 0.0152,-0.0115 0.0152,-0.0114 0.0304,-0.0209 0.0475,-0.0323 l 0.0171,-0.0114 c 0.0209,-0.0133 0.0419,-0.0266 0.0628,-0.038 0.0228,-0.0133 0.0456,-0.0247 0.0665,-0.0362 0.0076,-0.0038 0.0153,-0.0076 0.0229,-0.0095 0.0152,-0.0076 0.0304,-0.0152 0.0456,-0.0209 0.0114,-0.0057 0.0247,-0.0095 0.0361,-0.0152 0.0076,-0.0019 0.0133,-0.0057 0.0209,-0.0076 0.0172,-0.0057 0.0324,-0.0114 0.0495,-0.0152 0.0038,-0.0019 0.0076,-0.0019 0.0114,-0.0038 0.019,-0.0057 0.038,-0.0095 0.057,-0.0133 0.0039,0 0.0096,-0.0019 0.0134,-0.0019 0.0114,-0.0019 0.0228,-0.0038 0.0323,-0.0038 0.0133,-0.0019 0.0247,-0.0038 0.038,-0.0038 0.0114,0 0.0209,0 0.0323,-0.0019 h 0.0305 c 0.0171,0 0.0361,0.0019 0.0532,0.0038 l 0.1122,0.057 0.1807,-0.0684 c 0.0057,0 0.0114,0.0019 0.019,0.0038 h 0.0019 c 0,0.0038 0.0057,0.0076 0.0114,0.0095 z m -1.9834,2.2344 c 0,-0.0057 -0.0019,-0.0133 -0.0019,-0.019 -0.0038,-0.0305 -0.0076,-0.059 -0.0095,-0.0875 0,-0.0076 -0.0019,-0.0133 -0.0019,-0.0209 -0.0019,-0.0228 -0.0038,-0.0457 -0.0038,-0.0685 0,-0.0076 0,-0.0152 -0.0019,-0.0228 -0.0019,-0.0285 -0.0019,-0.0551 -0.0019,-0.0837 v -0.0057 c 0,-0.0247 0,-0.0513 0.0019,-0.076 v -0.0229 c 0.0019,-0.0228 0.0019,-0.0437 0.0038,-0.0646 0,-0.0038 0,-0.0095 0.0019,-0.0152 0.0019,-0.0248 0.0057,-0.0514 0.0076,-0.0761 0,-0.0076 0.0019,-0.0152 0.0038,-0.0209 0.0019,-0.0152 0.0038,-0.0304 0.0076,-0.0438 0.0019,-0.0076 0.0019,-0.0152 0.0038,-0.0228 0.0019,-0.0152 0.0057,-0.0285 0.0076,-0.0437 0.0019,-0.0057 0.0019,-0.0133 0.0038,-0.019 0.0057,-0.0305 0.0133,-0.059 0.0209,-0.0875 0.0019,-0.0057 0.0038,-0.0114 0.0038,-0.0171 0.0076,-0.0247 0.0133,-0.0476 0.021,-0.0704 0,-0.0019 0,-0.0019 0.0019,-0.0038 0.0057,-0.019 0.0133,-0.038 0.0209,-0.057 0.0019,-0.0057 0.0057,-0.0133 0.0076,-0.019 0.0057,-0.0134 0.0095,-0.0267 0.0152,-0.0381 0.0019,-0.0057 0.0057,-0.0133 0.0076,-0.019 0.0057,-0.0114 0.0114,-0.0247 0.0171,-0.0361 0.0019,-0.0057 0.0057,-0.0114 0.0076,-0.0171 0.0076,-0.0153 0.0152,-0.0305 0.0228,-0.0438 0.0019,-0.0019 0.0019,-0.0038 0.0038,-0.0057 0.0096,-0.0171 0.0191,-0.0323 0.0286,-0.0494 0.0019,-0.0038 0.0057,-0.0095 0.0076,-0.0133 0.0076,-0.0114 0.0152,-0.0248 0.0209,-0.0362 0.0038,-0.0057 0.0076,-0.0114 0.0095,-0.0171 0.0076,-0.0114 0.0152,-0.0247 0.0247,-0.0361 0.0038,-0.0038 0.0057,-0.0095 0.0095,-0.0133 0.0133,-0.0171 0.0248,-0.0343 0.0381,-0.0514 0.0019,-0.0019 0.0038,-0.0057 0.0057,-0.0076 l 0.0513,-0.0627 c 0,0 0,-0.0019 0.0019,-0.0019 0.0266,-0.0305 0.0533,-0.059 0.0799,-0.0856 l 0.0209,-0.0209 -0.3157,-0.1845 -0.0171,0.0171 -0.0038,0.0038 c -0.0285,0.0267 -0.0551,0.0552 -0.0799,0.0856 l -0.0019,0.0019 c -0.0171,0.0209 -0.0342,0.0399 -0.0513,0.0628 -0.0019,0.0019 -0.0019,0.0038 -0.0038,0.0057 l -0.0019,0.0019 c -0.0133,0.0171 -0.0266,0.0342 -0.038,0.0513 -0.0019,0.0019 -0.0019,0.0038 -0.0038,0.0038 -0.0019,0.0038 -0.0038,0.0057 -0.0057,0.0095 -0.0077,0.0114 -0.0153,0.0228 -0.0248,0.0362 -0.0019,0.0038 -0.0038,0.0057 -0.0057,0.0095 -0.0019,0.0019 -0.0019,0.0038 -0.0038,0.0076 -0.0076,0.0114 -0.0152,0.0228 -0.0209,0.0361 l -0.0057,0.0114 c 0,0.0019 -0.0019,0.0019 -0.0019,0.0038 -0.0095,0.0171 -0.019,0.0323 -0.0285,0.0495 -0.0019,0.0019 -0.0019,0.0038 -0.0038,0.0057 -0.0076,0.0152 -0.0152,0.0285 -0.0228,0.0437 0,0.0019 -0.002,0.0019 -0.002,0.0038 -0.0019,0.0038 -0.0038,0.0076 -0.0057,0.0133 -0.0057,0.0114 -0.0114,0.0247 -0.0171,0.0361 -0.0019,0.002 -0.0019,0.0058 -0.0038,0.0077 -0.0019,0.0038 -0.0038,0.0076 -0.0038,0.0114 -0.0057,0.0133 -0.0114,0.0247 -0.0152,0.038 l -0.0057,0.0114 c 0,0.0019 -0.0019,0.0057 -0.0019,0.0076 -0.0076,0.019 -0.0133,0.038 -0.0209,0.0571 0,0.0019 0,0.0019 -0.0019,0.0038 -0.0076,0.0228 -0.0152,0.0475 -0.0209,0.0703 0,0.0038 -0.0019,0.0057 -0.0019,0.0095 0,0.0019 -0.0019,0.0057 -0.0019,0.0076 -0.0076,0.0286 -0.0153,0.0571 -0.021,0.0875 0,0.0019 0,0.0038 -0.0019,0.0057 -0.0019,0.0057 -0.0019,0.0095 -0.0019,0.0152 -0.0038,0.0133 -0.0057,0.0286 -0.0076,0.0438 -0.0019,0.0076 -0.0019,0.0152 -0.0038,0.0247 -0.0019,0.0152 -0.0038,0.0304 -0.0057,0.0437 0,0.0057 -0.0019,0.0095 -0.0019,0.0152 v 0.0057 c -0.0038,0.0248 -0.0057,0.0495 -0.0076,0.0761 0,0.0038 0,0.0095 -0.0019,0.0152 -0.0019,0.0209 -0.0038,0.0438 -0.0038,0.0647 v 0.0228 c 0,0.0247 -0.0019,0.0494 -0.0019,0.0742 v 0.0076 c 0,0.0266 0.0019,0.0551 0.0019,0.0836 0,0.0077 0,0.0153 0.0019,0.0229 0.0019,0.0228 0.0019,0.0456 0.0038,0.0684 0,0.0076 0.0019,0.0133 0.0019,0.0209 0.0019,0.0286 0.0057,0.059 0.0095,0.0875 0,0.0057 0.0019,0.0133 0.0019,0.019 l 0.0114,0.0742 c 0.0019,0.0076 0.0019,0.0171 0.0038,0.0266 0.0057,0.0304 0.0115,0.0628 0.0172,0.0932 0.0019,0.0076 0.0019,0.0171 0.0038,0.0247 v 0.0571 c 0,0.0038 0,0.0076 -0.0019,0.0114 0,0.0057 -0.0019,0.0133 -0.0038,0.019 0,0.0019 -0.0019,0.0057 -0.0019,0.0076 l -0.0058,0.0228 c 0,0.0019 0,0.0019 -0.0019,0.0038 -0.0019,0.0095 -0.0057,0.019 -0.0095,0.0305 0,0.0019 -0.0019,0.0038 -0.0019,0.0076 -0.0057,0.0133 -0.0095,0.0285 -0.0152,0.0418 -0.0057,0.0133 -0.0095,0.0266 -0.0133,0.038 0,0.0019 -0.0019,0.0019 -0.0019,0.0038 0,0.0019 0,0.0019 -0.0019,0.0038 -0.0019,0.0038 -0.0038,0.0095 -0.0038,0.0133 0,0.0019 -0.0019,0.0038 -0.0019,0.0057 v 0.002 c 0,0.0019 -0.0019,0.0038 -0.0019,0.0076 0,0.0019 -0.0019,0.0038 -0.0019,0.0076 v 0.0038 c 0,0.0019 0,0.0038 -0.0019,0.0057 v 0.0076 c 0,0.0076 -0.0019,0.0152 0,0.0209 0.0152,0.1635 0.019,0.5572 0.1407,0.6275 l 0.3157,0.1845 c -0.1217,-0.0704 -0.1255,-0.464 -0.1407,-0.6275 v -0.021 -0.0076 c 0,-0.0019 0,-0.0038 0.0019,-0.0057 0,-0.0038 0.0019,-0.0076 0.0019,-0.0095 0,-0.0019 0.0019,-0.0038 0.0019,-0.0076 0,-0.0019 0.0019,-0.0057 0.0019,-0.0076 0.0019,-0.0038 0.0019,-0.0095 0.0038,-0.0133 0,-0.0019 0.0019,-0.0038 0.0019,-0.0076 0.0038,-0.0133 0.0095,-0.0247 0.0133,-0.038 0.0057,-0.0134 0.0095,-0.0267 0.0152,-0.04 0,-0.0019 0.0019,-0.0019 0.0019,-0.0038 v -0.0019 c 0.0038,-0.0095 0.0057,-0.019 0.0095,-0.0304 v -0.0038 l 0.0057,-0.0228 v -0.0019 c 0,-0.0019 0,-0.0038 0.0019,-0.0057 0.0019,-0.0057 0.0019,-0.0134 0.0038,-0.0191 V 19.7231 19.7155 19.706 19.6908 19.6813 19.6661 19.6585 c 0,-0.0076 -0.0019,-0.0171 -0.0038,-0.0247 -0.0057,-0.0324 -0.0114,-0.0628 -0.0171,-0.0932 -0.0019,-0.0095 -0.0038,-0.0171 -0.0038,-0.0266 -0.0019,-0.0343 -0.0057,-0.059 -0.0095,-0.0837 z"
           fill="#403572"
           id="path28" />
        <path
           d="m 19.5166,17.3251 c 0.1654,-0.095 0.3404,-0.1521 0.5096,-0.1293 l 0.1122,0.0571 0.1807,-0.0685 c 0.0894,0.0095 0.1445,0.1674 0.1483,0.1769 0.0475,0.1939 0.0532,0.2111 0.0494,0.4411 -0.0019,0.0894 -0.0437,0.5211 -0.0323,0.6371 0.0095,0.097 0.0323,0.0932 0.0666,0.1578 0.0608,0.1122 0.0418,0.3271 0.019,0.4888 -0.0133,0.0893 -0.0399,0.2205 -0.0799,0.3099 -0.0456,0.0989 -0.135,0.1521 -0.1749,0.2605 -0.0571,0.156 -0.0247,0.31 -0.059,0.4621 -0.0399,0.175 -0.1464,0.2453 -0.1521,0.4469 l 0.154,-0.0627 c 0.0514,0.0989 0.1464,0.3004 0.2434,0.3213 0.0799,-0.0209 0.1617,-0.0418 0.2415,-0.0627 0.2815,-0.0285 0.5972,-0.0476 0.8805,-0.0723 0.2586,-0.0228 0.4602,-0.0932 0.5553,0.1674 0,0.213 0.0209,0.9166 0.0152,1.1999 l -5.4482,3.1396 c -0.0057,-0.2776 0.0095,-1.0003 0.0095,-1.2132 0.0932,-0.369 0.3404,-0.5553 0.5971,-0.8311 0.2834,-0.3023 0.5952,-0.6446 0.8786,-0.9413 0.0799,-0.0722 0.1616,-0.1445 0.2415,-0.2168 0.0951,-0.1331 0.1902,-0.443 0.2396,-0.599 l 0.1141,-0.0989 c -0.0266,-0.1521 -0.116,-0.1141 -0.154,-0.211 -0.0153,-0.1712 -0.0305,-0.3404 -0.0457,-0.5116 -0.0228,0.0152 -0.1065,0.0381 -0.1198,0.0362 -0.1502,-0.0229 -0.154,-0.4621 -0.1692,-0.639 -0.0076,-0.0799 0.0932,-0.2073 0.0646,-0.3461 -0.1654,-0.8063 0.0666,-1.3654 0.4374,-1.7191 0.1616,-0.1673 0.407,-0.424 0.677,-0.58 z"
           fill="#6c8cc7"
           id="path29" />
        <path
           d="m 19.741,21.0391 c 0.0856,-0.0495 0.0457,0.0399 0.0438,0.0437 l -0.1845,0.4165 c 0.0114,0.0456 0.2415,0.9108 0.2415,0.9622 0,0.0513 -0.3042,0.4488 -0.3423,0.4697 -0.0361,0.0209 -0.3423,-0.0152 -0.3423,-0.0742 0,-0.057 0.2225,-1.179 0.2358,-1.2379 l -0.1958,-0.1978 c -0.0019,-0.0019 -0.0286,-0.0532 0.057,-0.1027 z"
           fill="#403572"
           id="path30" />
        <path
           d="m 19.5205,23.1005 -0.2301,-0.1331 c -0.0133,-0.0076 -0.0228,-0.0171 -0.0228,-0.0267 0,-0.0019 0,-0.0076 0.0019,-0.0152 l 0.2301,0.1332 c -0.0019,0.0076 -0.0019,0.0133 -0.0019,0.0152 0,0.0095 0.0095,0.019 0.0228,0.0266 z"
           fill="#acc5ea"
           id="path31" />
        <path
           d="m 19.4996,23.0586 -0.2301,-0.1331 c 0.019,-0.1483 0.2225,-1.1657 0.2339,-1.2228 l 0.2301,0.1331 c -0.0114,0.0571 -0.2149,1.0745 -0.2339,1.2228 z"
           fill="#acc5ea"
           id="path32" />
        <path
           d="M 20.129,21.2406 19.9446,21.1341 19.8989,21.1075 H 19.897 19.8951 19.8932 19.8913 19.8818 19.8799 19.878 c -0.0038,0 -0.0057,0.0019 -0.0095,0.0038 h -0.0019 c -0.0057,0.0019 -0.0114,0.0057 -0.019,0.0095 l -0.483,0.2815 c -0.0076,0.0038 -0.0133,0.0076 -0.0191,0.0114 -0.0019,0.0019 -0.0038,0.0019 -0.0038,0.0038 -0.0038,0.0038 -0.0095,0.0076 -0.0133,0.0114 l -0.0019,0.0019 c 0,0 0,0.0019 -0.0019,0.0019 l -0.0038,0.0038 -0.0019,0.0019 v 0.0038 c 0,0.0019 -0.0019,0.0019 -0.0019,0.0038 0,0.0019 -0.0019,0.0019 -0.0019,0.0038 l -0.0019,0.0019 -0.0019,0.0019 c 0,0 0,0.0019 -0.0019,0.0019 0,0 0,0.0019 -0.0019,0.0019 0,0 0,0.0019 -0.0019,0.0019 0,0 0,0.0019 -0.0019,0.0019 v 0.0247 c 0,0.0038 0,0.0057 0.0019,0.0076 v 0.0019 c 0,0.0019 0.0019,0.0038 0.0019,0.0058 0,0.0019 0.0019,0.0019 0.0019,0.0019 l 0.1959,0.1977 0.2301,0.1331 -0.1959,-0.1977 c 0,0 0,-0.0019 -0.0019,-0.0019 0,-0.0019 -0.0019,-0.0038 -0.0019,-0.0057 v -0.0019 c 0,-0.0019 -0.0019,-0.0057 -0.0019,-0.0076 v -0.0019 -0.0096 -0.0038 -0.0019 c 0,-0.0019 0.0019,-0.0038 0.0019,-0.0076 0,-0.0019 0.0019,-0.0057 0.0038,-0.0076 0.0019,-0.0019 0.0019,-0.0057 0.0038,-0.0076 0.0019,-0.0019 0.0038,-0.0057 0.0057,-0.0076 v -0.0019 c 0.0019,-0.0019 0.0038,-0.0038 0.0057,-0.0076 0,0 0,-0.0019 0.0019,-0.0019 l 0.0019,-0.0019 c 0.0038,-0.0038 0.0076,-0.0076 0.0133,-0.0114 l 0.0038,-0.0038 c 0.0057,-0.0038 0.0115,-0.0076 0.0191,-0.0114 l 0.4868,-0.2815 c 0.0076,-0.0038 0.0133,-0.0076 0.019,-0.0095 0.0038,-0.0019 0.0095,-0.0038 0.0114,-0.0038 h 0.0019 c 0.0038,0 0.0076,-0.0019 0.0095,-0.0019 0.0019,0.0038 0.0038,0.0057 0.0057,0.0057 z"
           fill="#acc5ea"
           id="path33" />
        <path
           d="m 20.0809,21.2539 c 0.0855,-0.0494 0.0456,0.0399 0.0437,0.0438 l -0.1844,0.4164 c 0.0114,0.0456 0.2415,0.9109 0.2415,0.9622 0,0.0514 -0.3043,0.4488 -0.3423,0.4697 -0.0362,0.021 -0.3423,-0.0152 -0.3423,-0.0741 0,-0.0571 0.2225,-1.179 0.2358,-1.238 L 19.537,21.6361 c -0.0019,-0.0019 -0.0285,-0.0532 0.0571,-0.1026 z"
           fill="#ffffff"
           id="path34" />
        <path
           d="m 20.9654,25.4756 c 0.0114,0.019 0.0267,0.0323 0.0438,0.0418 l 0.2814,0.1635 C 21.245,25.6543 21.2145,25.5973 21.2145,25.5155 L 20.9331,25.352 c 0.0019,0.0513 0.0133,0.0931 0.0323,0.1236 z"
           fill="#c68620"
           id="path35" />
        <path
           d="M 24.4267,21.0961 C 24.421,21.0923 24.4172,21.0904 24.4115,21.0885 h -0.0019 c -0.0019,0 -0.0038,-0.0019 -0.0038,-0.0019 -0.0019,0 -0.0038,-0.0019 -0.0076,-0.0019 -0.0019,0 -0.0057,-0.0019 -0.0076,-0.0019 -0.0019,0 -0.0038,0 -0.0038,-0.0019 h -0.0019 c -0.0058,0 -0.0096,-0.0019 -0.0153,-0.0019 h -0.0361 c -0.0019,0 -0.0038,0 -0.0057,0.0019 -0.0038,0 -0.0076,0.0019 -0.0114,0.0019 -0.0019,0 -0.0038,0 -0.0057,0.0019 -0.0019,0 -0.0038,0.0019 -0.0057,0.0019 -0.0057,0.0019 -0.0114,0.0038 -0.019,0.0057 -0.0019,0 -0.0038,0.0019 -0.0057,0.0019 -0.0019,0 -0.0019,0.0019 -0.0038,0.0019 -0.0115,0.0038 -0.021,0.0095 -0.0324,0.0152 l -3.0578,1.7647 c -0.0133,0.0076 -0.0266,0.0171 -0.0399,0.0266 -0.0019,0.0019 -0.0038,0.0038 -0.0076,0.0057 -0.0114,0.0096 -0.0248,0.021 -0.0362,0.0324 -0.0019,0 -0.0019,0.0019 -0.0038,0.0019 l -0.0057,0.0057 c -0.0057,0.0057 -0.0114,0.0114 -0.0171,0.019 l -0.0057,0.0057 c -0.0019,0.0019 -0.0038,0.0038 -0.0038,0.0057 -0.0038,0.0038 -0.0076,0.0076 -0.0095,0.0114 -0.0019,0.0019 -0.0038,0.0057 -0.0057,0.0076 -0.0019,0.0019 -0.0038,0.0038 -0.0057,0.0076 -0.0019,0.0038 -0.0057,0.0057 -0.0076,0.0095 l -0.0057,0.0057 c -0.0019,0.0038 -0.0057,0.0077 -0.0076,0.0115 -0.0019,0.0019 -0.0038,0.0057 -0.0057,0.0076 0,0.0019 -0.0019,0.0019 -0.0019,0.0038 -0.0038,0.0076 -0.0095,0.0152 -0.0134,0.0228 v 0.0019 c 0,0.0019 -0.0019,0.0038 -0.0019,0.0038 -0.0038,0.0057 -0.0057,0.0114 -0.0095,0.0152 -0.0019,0.0019 -0.0019,0.0057 -0.0038,0.0076 -0.0019,0.0019 -0.0019,0.0057 -0.0038,0.0076 -0.0019,0.0019 -0.0019,0.0038 -0.0038,0.0076 -0.0019,0.0057 -0.0057,0.0114 -0.0076,0.0171 0,0.0019 -0.0019,0.0019 -0.0019,0.0038 v 0.0019 c -0.0038,0.0076 -0.0057,0.0153 -0.0095,0.0229 0,0.0019 0,0.0019 -0.0019,0.0038 -0.0019,0.0019 -0.0019,0.0057 -0.0038,0.0076 -0.0019,0.0038 -0.0038,0.0076 -0.0038,0.0114 -0.0019,0.0038 -0.0019,0.0057 -0.0019,0.0095 -0.0019,0.0038 -0.0019,0.0076 -0.0038,0.0114 0,0.0019 -0.0019,0.0038 -0.0019,0.0076 -0.0019,0.0038 -0.0019,0.0076 -0.0019,0.0114 -0.0019,0.0038 -0.0019,0.0095 -0.0038,0.0133 0,0.0019 0,0.0038 -0.0019,0.0057 0,0.0038 -0.0019,0.0057 -0.0019,0.0095 -0.0019,0.0076 -0.0019,0.0134 -0.0038,0.021 0,0.0019 0,0.0038 -0.0019,0.0057 v 0.0057 c -0.0019,0.0152 -0.0038,0.0304 -0.0038,0.0456 l 0.0057,2.029 0.2814,0.1636 -0.0057,-2.0291 c 0,-0.0152 0.0019,-0.0304 0.0038,-0.0456 0,-0.0038 0,-0.0076 0.0019,-0.0114 0.0019,-0.0076 0.0019,-0.0133 0.0038,-0.0209 0,-0.0057 0.0019,-0.0095 0.0019,-0.0152 0.0019,-0.0038 0.0019,-0.0095 0.0038,-0.0133 0.0019,-0.0057 0.0038,-0.0115 0.0057,-0.0191 0.0019,-0.0038 0.0019,-0.0076 0.0038,-0.0114 0.0019,-0.0076 0.0038,-0.0133 0.0077,-0.0209 0.0019,-0.0019 0.0019,-0.0057 0.0038,-0.0076 l 0.0114,-0.0285 c 0,-0.0019 0.0019,-0.0019 0.0019,-0.0038 0.0038,-0.0076 0.0076,-0.0171 0.0114,-0.0247 0.0019,-0.0019 0.0019,-0.0057 0.0038,-0.0077 0.0038,-0.0076 0.0076,-0.0152 0.0133,-0.0228 0,-0.0019 0.0019,-0.0038 0.0019,-0.0038 0.0057,-0.0095 0.0114,-0.0171 0.0171,-0.0266 0.0019,-0.0019 0.0038,-0.0057 0.0057,-0.0076 0.0038,-0.0057 0.0076,-0.0114 0.0133,-0.019 0.0019,-0.0038 0.0057,-0.0057 0.0076,-0.0095 0.0038,-0.0057 0.0076,-0.0095 0.0114,-0.0152 0.0038,-0.0038 0.0076,-0.0076 0.0095,-0.0134 0.0039,-0.0038 0.0058,-0.0076 0.0096,-0.0114 0.0057,-0.0057 0.0114,-0.0114 0.0171,-0.019 0.0019,-0.0038 0.0057,-0.0057 0.0095,-0.0095 0.0114,-0.0114 0.0228,-0.0228 0.0361,-0.0323 0.0019,-0.0019 0.0038,-0.0038 0.0076,-0.0057 0.0133,-0.0095 0.0266,-0.019 0.0399,-0.0266 l 3.0579,-1.7648 c 0.0114,-0.0057 0.0209,-0.0114 0.0323,-0.0152 0.0038,-0.0019 0.0076,-0.0019 0.0095,-0.0038 l 0.0171,-0.0057 c 0.0038,-0.0019 0.0076,-0.0019 0.0114,-0.0038 0.0038,0 0.0076,-0.0019 0.0114,-0.0019 0.0038,0 0.0096,-0.0019 0.0134,-0.0019 h 0.0285 c 0.0057,0 0.0133,0.0019 0.019,0.0019 0.0019,0 0.0038,0 0.0038,0.0019 0.0057,0.0019 0.0095,0.0019 0.0133,0.0038 0.0019,0 0.0038,0.0019 0.0038,0.0019 0.0057,0.0019 0.0114,0.0057 0.0171,0.0076 z"
           fill="#c02032"
           id="path36" />
        <path
           d="m 24.5255,21.2787 c 0.1426,-0.0817 0.2586,-0.0152 0.2586,0.1465 l 0.0057,2.029 c 0,0.1635 -0.116,0.3632 -0.2567,0.445 l -3.0578,1.7647 c -0.1427,0.0818 -0.2587,0.0152 -0.2587,-0.1464 l -0.0057,-2.0291 c 0,-0.1635 0.116,-0.3632 0.2568,-0.445 z"
           fill="#ee7e8b"
           id="path37" />
        <path
           d="m 24.7841,21.6971 0.0019,0.4069 -3.5732,2.0595 -0.0019,-0.407 z"
           fill="#ffffff"
           id="path38" />
        <path
           d="m 24.4211,22.9635 c 0.0286,-0.0152 0.0476,-0.0019 0.0419,0.0304 l -0.1141,0.5496 c -0.0038,0.0228 -0.0209,0.0457 -0.0419,0.0571 l -0.7378,0.4259 c -0.0285,0.0152 -0.0475,0.0019 -0.0418,-0.0304 l 0.1141,-0.5496 c 0.0038,-0.0228 0.0209,-0.0456 0.0418,-0.057 z"
           fill="#c68620"
           id="path39" />
        <path
           d="m 23.698,24.114 c 0,-0.0019 -0.0019,-0.0038 -0.0019,-0.0057 V 24.1045 24.0988 24.095 c 0,-0.0019 0,-0.0057 0.0019,-0.0095 l -0.1122,-0.0647 v 0.0228 c 0,0.0019 0.0019,0.0038 0.0019,0.0057 0,0 0,0.0019 0.0019,0.0019 l 0.0057,0.0057 0.1122,0.0647 -0.0057,-0.0057 c -0.0019,0 -0.0019,-0.0019 -0.0038,-0.0019 z m 0.812,-1.1296 c 0,0 -0.0019,0 -0.0019,-0.0019 H 24.5062 24.5043 24.4986 24.4967 24.491 24.4891 24.4872 24.4853 c -0.0019,0 -0.0038,0.0019 -0.0076,0.0038 l -0.7397,0.426 c -0.0019,0.0019 -0.0057,0.0038 -0.0076,0.0057 l -0.0019,0.0019 c -0.0019,0.0019 -0.0038,0.0019 -0.0057,0.0038 l -0.0039,0.0038 -0.0019,0.0019 -0.0038,0.0038 c 0,0 0,0.0019 -0.0019,0.0019 v 0.0019 c 0,0.0019 -0.0019,0.0019 -0.0019,0.0038 l -0.0019,0.0019 c 0,0.0019 -0.0019,0.0019 -0.0019,0.0038 0,0.0019 -0.0019,0.0019 -0.0019,0.0038 v 0.0019 c 0,0.0019 0,0.0019 -0.0019,0.0038 0,0 0,0.0019 -0.0019,0.0019 0,0.0019 0,0.0019 -0.0019,0.0038 0,0.0019 0,0.0019 -0.0019,0.0038 l -0.1141,0.5496 0.1122,0.0647 0.1141,-0.5496 c 0,-0.0019 0.0019,-0.0057 0.0019,-0.0076 0,-0.0019 0.0019,-0.0057 0.0038,-0.0076 0.0019,-0.0019 0.0019,-0.0057 0.0038,-0.0076 0.0019,-0.0019 0.0038,-0.0038 0.0038,-0.0076 l 0.0057,-0.0057 0.0019,-0.0019 c 0.0019,-0.002 0.0019,-0.0039 0.0038,-0.0039 0.0019,-0.0019 0.0038,-0.0038 0.0058,-0.0038 l 0.0019,-0.0019 c 0.0019,-0.0019 0.0057,-0.0038 0.0076,-0.0057 L 24.588,23.051 c 0.0038,-0.0019 0.0057,-0.0038 0.0095,-0.0038 h 0.0019 c 0.0019,0 0.0057,-0.0019 0.0076,-0.0019 h 0.0076 c 0.0019,0 0.0038,0.0019 0.0057,0.0019 z"
           fill="#e8cfac"
           id="path40" />
        <path
           d="m 21.5573,24.1616 c 0.019,-0.0115 0.0342,-0.0019 0.0342,0.019 v 0.1806 c 0,0.0228 -0.0152,0.0495 -0.0342,0.059 l -0.1578,0.0913 c -0.0191,0.0114 -0.0343,0.0019 -0.0343,-0.0191 v -0.1806 c 0,-0.0209 0.0152,-0.0495 0.0343,-0.059 z"
           fill="#c68620"
           id="path41" />
        <path
           d="m 24.5905,23.0529 c 0.0286,-0.0152 0.0476,-0.0019 0.0419,0.0304 l -0.1141,0.5496 c -0.0038,0.0228 -0.021,0.0456 -0.0419,0.057 l -0.7397,0.426 c -0.0285,0.0152 -0.0475,0.0019 -0.0418,-0.0304 l 0.1141,-0.5496 c 0.0038,-0.0228 0.0209,-0.0456 0.0418,-0.0571 z"
           fill="#ffffff"
           id="path42" />
        <path
           d="m 21.5153,24.5875 -0.1198,-0.0684 c 0,0.0114 0.0038,0.019 0.0095,0.0228 l 0.1198,0.0685 C 21.5191,24.6046 21.5153,24.597 21.5153,24.5875 Z"
           fill="#e8cfac"
           id="path43" />
        <path
           d="m 21.6122,24.1844 c 0,0 -0.0019,0 -0.0019,-0.0019 H 21.6084 21.6065 21.6046 21.6027 21.597 21.5951 21.5932 21.5913 c -0.0019,0 -0.0038,0.0019 -0.0057,0.0019 l -0.1578,0.0913 c -0.0038,0.0019 -0.0076,0.0057 -0.0095,0.0076 h -0.0019 l -0.0019,0.0019 -0.0019,0.0019 -0.0019,0.0019 c -0.0019,0.0019 -0.0019,0.0019 -0.0019,0.0038 v 0.0038 c 0,0.0019 -0.0019,0.0019 -0.0019,0.0038 0,0.0019 -0.0019,0.0019 -0.0019,0.0038 0,0 0,0.0019 -0.0019,0.0019 0,0.0019 -0.0019,0.0019 -0.0019,0.0038 0,0 0,0.0019 -0.0019,0.0019 0,0.0019 0,0.0019 -0.0019,0.0038 0,0.0019 0,0.0019 -0.0019,0.0038 v 0.0038 c 0,0.0019 0,0.0019 -0.0019,0.0038 v 0.194 l 0.1198,0.0684 v -0.1806 -0.0076 -0.0019 c 0,-0.0019 0.0019,-0.0057 0.0019,-0.0076 0,-0.0019 0.0019,-0.0057 0.0038,-0.0076 0.0019,-0.0019 0.0019,-0.0057 0.0038,-0.0076 0.0019,-0.0019 0.0038,-0.0057 0.0057,-0.0076 l 0.0057,-0.0057 0.0019,-0.002 0.0019,-0.0019 c 0.0038,-0.0038 0.0076,-0.0057 0.0095,-0.0076 l 0.1578,-0.0912 c 0.0019,-0.0019 0.0038,-0.0019 0.0057,-0.0038 h 0.0019 c 0.0019,0 0.0038,-0.0019 0.0057,-0.0019 h 0.0057 c 0.0019,0 0.0038,0.0019 0.0057,0.0019 z"
           fill="#e8cfac"
           id="path44" />
        <path
           d="m 22.0099,23.92 c 0.0191,-0.0114 0.0343,-0.0019 0.0343,0.0191 v 0.1806 c 0,0.0228 -0.0152,0.0495 -0.0343,0.059 l -0.1578,0.0912 c -0.019,0.0115 -0.0342,0.0019 -0.0342,-0.019 v -0.1806 c 0,-0.0209 0.0152,-0.0495 0.0342,-0.059 z"
           fill="#c68620"
           id="path45" />
        <path
           d="m 21.7072,24.2566 c 0.019,-0.0114 0.0342,-0.0019 0.0342,0.019 v 0.1807 c 0,0.0228 -0.0152,0.0494 -0.0342,0.0589 l -0.1578,0.0913 c -0.019,0.0114 -0.0343,0.0019 -0.0343,-0.019 v -0.1807 c 0,-0.0209 0.0153,-0.0494 0.0343,-0.0589 z"
           fill="#ffffff"
           id="path46" />
        <path
           d="m 21.9733,24.3441 -0.1198,-0.0685 c 0,0.0114 0.0038,0.019 0.0095,0.0228 l 0.1198,0.0685 c -0.0057,-0.0038 -0.0095,-0.0114 -0.0095,-0.0228 z"
           fill="#e8cfac"
           id="path47" />
        <path
           d="m 22.0703,23.941 c 0,0 -0.002,0 -0.002,-0.0019 H 22.0664 22.0645 22.0626 22.0607 22.055 22.0531 22.0512 22.0493 c -0.0019,0 -0.0038,0.0019 -0.0057,0.0019 l -0.1578,0.0912 c -0.0038,0.0019 -0.0076,0.0057 -0.0095,0.0076 h -0.0019 l -0.0019,0.0019 -0.0019,0.0019 -0.0019,0.0019 c -0.0019,0.0019 -0.0019,0.0019 -0.0019,0.0039 v 0.0038 c 0,0.0019 -0.0019,0.0019 -0.0019,0.0038 0,0.0019 -0.0019,0.0019 -0.0019,0.0038 0,0 0,0.0019 -0.0019,0.0019 0,0.0019 -0.0019,0.0019 -0.0019,0.0038 0,0 0,0.0019 -0.0019,0.0019 0,0.0019 0,0.0019 -0.0019,0.0038 0,0.0019 0,0.0019 -0.0019,0.0038 v 0.0038 c 0,0.0019 0,0.0019 -0.0019,0.0038 v 0.1939 l 0.1198,0.0685 v -0.1807 -0.0076 -0.0019 c 0,-0.0019 0.0019,-0.0057 0.0019,-0.0076 0,-0.0019 0.0019,-0.0057 0.0038,-0.0076 0.0019,-0.0019 0.0019,-0.0057 0.0038,-0.0076 0.0019,-0.0019 0.0038,-0.0057 0.0057,-0.0076 l 0.0057,-0.0057 0.0019,-0.0019 0.0019,-0.0019 c 0.0038,-0.0038 0.0076,-0.0057 0.0095,-0.0076 l 0.1578,-0.0913 c 0.0019,-0.0019 0.0038,-0.0019 0.0057,-0.0038 h 0.0019 c 0.0019,0 0.0038,-0.0019 0.0057,-0.0019 h 0.0057 c 0.0019,0 0.0039,0.0019 0.0058,0.0019 z"
           fill="#e8cfac"
           id="path48" />
        <path
           d="m 22.4357,23.6861 c 0.019,-0.0114 0.0342,-0.0019 0.0342,0.019 v 0.1807 c 0,0.0228 -0.0152,0.0494 -0.0342,0.0589 l -0.1578,0.0913 c -0.019,0.0114 -0.0342,0.0019 -0.0342,-0.019 v -0.1807 c 0,-0.0209 0.0152,-0.0494 0.0342,-0.0589 z"
           fill="#c68620"
           id="path49" />
        <path
           d="m 22.1637,24.0132 c 0.0191,-0.0114 0.0343,-0.0019 0.0343,0.019 v 0.1807 c 0,0.0228 -0.0152,0.0494 -0.0343,0.0589 l -0.1578,0.0913 c -0.019,0.0114 -0.0342,0.0019 -0.0342,-0.019 v -0.1807 c 0,-0.0209 0.0152,-0.0494 0.0342,-0.0589 z"
           fill="#ffffff"
           id="path50" />
        <path
           d="m 22.4054,24.1121 -0.1198,-0.0685 c 0,0.0114 0.0038,0.019 0.0096,0.0228 l 0.1198,0.0685 c -0.0057,-0.0057 -0.0096,-0.0133 -0.0096,-0.0228 z"
           fill="#e8cfac"
           id="path51" />
        <path
           d="m 22.5019,23.709 c 0,0 -0.0019,0 -0.0019,-0.0019 H 22.4981 22.4962 22.4943 22.4924 22.4867 22.4848 22.4829 22.481 c -0.0019,0 -0.0038,0.0019 -0.0057,0.0019 l -0.1579,0.0912 c -0.0038,0.0019 -0.0076,0.0057 -0.0095,0.0076 H 22.306 l -0.0019,0.0019 -0.0019,0.002 -0.0019,0.0019 c -0.0019,0.0019 -0.0019,0.0019 -0.0019,0.0038 v 0.0038 c 0,0.0019 -0.0019,0.0019 -0.0019,0.0038 0,0.0019 -0.0019,0.0019 -0.0019,0.0038 0,0 0,0.0019 -0.0019,0.0019 0,0.0019 -0.0019,0.0019 -0.0019,0.0038 0,0 0,0.0019 -0.0019,0.0019 0,0.0019 0,0.0019 -0.0019,0.0038 0,0.0019 0,0.0019 -0.0019,0.0038 v 0.0038 c 0,0.0019 0,0.0019 -0.0019,0.0038 v 0.194 l 0.1198,0.0684 v -0.1806 -0.0077 -0.0019 c 0,-0.0019 0.0019,-0.0057 0.0019,-0.0076 0,-0.0019 0.0019,-0.0057 0.0038,-0.0076 0.0019,-0.0019 0.0019,-0.0057 0.0038,-0.0076 0.0019,-0.0019 0.0038,-0.0057 0.0057,-0.0076 l 0.0057,-0.0057 0.0019,-0.0019 0.0019,-0.0019 c 0.0038,-0.0038 0.0076,-0.0057 0.0095,-0.0076 l 0.1579,-0.0913 c 0.0019,-0.0019 0.0038,-0.0019 0.0057,-0.0038 h 0.0019 c 0.0019,0 0.0038,-0.0019 0.0057,-0.0019 h 0.0057 c 0.0019,0 0.0038,0.0019 0.0057,0.0019 z"
           fill="#e8cfac"
           id="path52" />
        <path
           d="m 22.5973,23.7812 c 0.0191,-0.0115 0.0343,-0.0019 0.0343,0.019 v 0.1806 c 0,0.0228 -0.0152,0.0495 -0.0343,0.059 l -0.1578,0.0913 c -0.019,0.0114 -0.0342,0.0019 -0.0342,-0.0191 v -0.1806 c 0,-0.0209 0.0152,-0.0495 0.0342,-0.059 z"
           fill="#ffffff"
           id="path53" />
        <path
           d="m 26.6299,12.6221 v 0.0449 c 0,0.0534 -0.0067,0.1012 -0.02,0.1435 -0.0134,0.0424 -0.0326,0.0783 -0.0577,0.108 -0.025,0.0296 -0.0551,0.0522 -0.0903,0.0678 -0.0348,0.0157 -0.0739,0.0235 -0.1172,0.0235 -0.042,0 -0.0805,-0.0078 -0.1157,-0.0235 -0.0348,-0.0156 -0.0651,-0.0382 -0.0908,-0.0678 -0.0254,-0.0297 -0.0451,-0.0656 -0.0591,-0.108 -0.014,-0.0423 -0.021,-0.0901 -0.021,-0.1435 v -0.0449 c 0,-0.0534 0.0068,-0.1011 0.0205,-0.1431 0.014,-0.0423 0.0337,-0.0783 0.0591,-0.1079 0.0254,-0.03 0.0555,-0.0527 0.0903,-0.0684 0.0352,-0.0156 0.0738,-0.0234 0.1158,-0.0234 0.0432,0 0.0823,0.0078 0.1171,0.0234 0.0352,0.0157 0.0653,0.0384 0.0904,0.0684 0.0254,0.0296 0.0447,0.0656 0.0581,0.1079 0.0136,0.042 0.0205,0.0897 0.0205,0.1431 z m -0.0933,0.0449 v -0.0459 c 0,-0.0423 -0.0044,-0.0798 -0.0132,-0.1123 -0.0084,-0.0326 -0.021,-0.0599 -0.0376,-0.082 -0.0166,-0.0222 -0.0369,-0.0389 -0.061,-0.0503 -0.0238,-0.0114 -0.0508,-0.0171 -0.081,-0.0171 -0.0293,0 -0.0559,0.0057 -0.0796,0.0171 -0.0235,0.0114 -0.0437,0.0281 -0.0606,0.0503 -0.0166,0.0221 -0.0294,0.0494 -0.0386,0.082 -0.0091,0.0325 -0.0136,0.07 -0.0136,0.1123 v 0.0459 c 0,0.0426 0.0045,0.0804 0.0136,0.1133 0.0092,0.0325 0.0222,0.06 0.0391,0.0825 0.0173,0.0221 0.0376,0.0389 0.061,0.0503 0.0238,0.0114 0.0503,0.0171 0.0796,0.0171 0.0306,0 0.0578,-0.0057 0.0816,-0.0171 0.0237,-0.0114 0.0438,-0.0282 0.06,-0.0503 0.0166,-0.0225 0.0292,-0.05 0.0376,-0.0825 0.0085,-0.0329 0.0127,-0.0707 0.0127,-0.1133 z m 0.3111,-0.0938 v 0.6299 h -0.0909 v -0.7314 h 0.083 z m 0.3559,0.1582 v 0.0103 c 0,0.0384 -0.0045,0.0741 -0.0137,0.1069 -0.0091,0.0326 -0.0224,0.0609 -0.04,0.085 -0.0173,0.0241 -0.0386,0.0428 -0.064,0.0561 -0.0254,0.0134 -0.0545,0.0201 -0.0874,0.0201 -0.0335,0 -0.0631,-0.0056 -0.0888,-0.0166 C 26.884,12.9821 26.8621,12.966 26.8442,12.9448 26.8263,12.9237 26.812,12.8983 26.8013,12.8687 26.7909,12.839 26.7837,12.8057 26.7798,12.7686 v -0.0547 c 0.0039,-0.0391 0.0112,-0.0741 0.022,-0.105 0.0107,-0.0309 0.0249,-0.0573 0.0424,-0.0791 0.0179,-0.0222 0.0396,-0.0389 0.065,-0.0503 0.0254,-0.0117 0.0547,-0.0176 0.0879,-0.0176 0.0332,0 0.0626,0.0065 0.0883,0.0195 0.0258,0.0127 0.0474,0.031 0.065,0.0547 0.0176,0.0238 0.0308,0.0523 0.0395,0.0855 0.0092,0.0329 0.0137,0.0695 0.0137,0.1098 z m -0.0908,0.0103 v -0.0103 c 0,-0.0263 -0.0028,-0.0511 -0.0083,-0.0742 -0.0055,-0.0234 -0.0142,-0.0439 -0.0259,-0.0615 -0.0114,-0.0179 -0.026,-0.0319 -0.0439,-0.042 -0.0179,-0.0104 -0.0393,-0.0156 -0.064,-0.0156 -0.0228,0 -0.0426,0.0039 -0.0596,0.0117 -0.0166,0.0078 -0.0307,0.0184 -0.0424,0.0317 -0.0118,0.0131 -0.0214,0.028 -0.0289,0.045 -0.0071,0.0166 -0.0125,0.0338 -0.0161,0.0517 v 0.1265 c 0.0065,0.0228 0.0157,0.0443 0.0274,0.0644 0.0117,0.0199 0.0273,0.036 0.0468,0.0484 0.0196,0.012 0.0442,0.018 0.0738,0.018 0.0244,0 0.0454,-0.005 0.063,-0.0151 0.0179,-0.0104 0.0325,-0.0246 0.0439,-0.0425 0.0117,-0.0179 0.0204,-0.0384 0.0259,-0.0615 0.0055,-0.0234 0.0083,-0.0483 0.0083,-0.0747 z m 0.4253,0.2681 c -0.0368,0 -0.0702,-0.0062 -0.1001,-0.0186 -0.0296,-0.0127 -0.0552,-0.0304 -0.0767,-0.0532 -0.0211,-0.0228 -0.0374,-0.0498 -0.0488,-0.0811 -0.0114,-0.0312 -0.0171,-0.0654 -0.0171,-0.1025 v -0.0205 c 0,-0.043 0.0064,-0.0812 0.0191,-0.1148 0.0126,-0.0338 0.0299,-0.0625 0.0517,-0.0859 0.0218,-0.0234 0.0466,-0.0412 0.0742,-0.0532 0.0277,-0.0121 0.0563,-0.0181 0.086,-0.0181 0.0377,0 0.0703,0.0065 0.0976,0.0195 0.0277,0.0131 0.0503,0.0313 0.0679,0.0547 0.0176,0.0231 0.0306,0.0505 0.0391,0.0821 0.0084,0.0312 0.0127,0.0654 0.0127,0.1025 v 0.0405 h -0.3946 v -0.0737 h 0.3042 v -0.0068 c -0.0013,-0.0235 -0.0062,-0.0463 -0.0146,-0.0684 -0.0082,-0.0221 -0.0212,-0.0404 -0.0391,-0.0547 -0.0179,-0.0143 -0.0423,-0.0215 -0.0732,-0.0215 -0.0205,0 -0.0394,0.0044 -0.0567,0.0132 -0.0172,0.0085 -0.032,0.0212 -0.0444,0.0381 -0.0124,0.0169 -0.022,0.0376 -0.0288,0.062 -0.0069,0.0244 -0.0103,0.0526 -0.0103,0.0845 v 0.0205 c 0,0.0251 0.0034,0.0487 0.0103,0.0708 0.0071,0.0218 0.0174,0.041 0.0307,0.0576 0.0137,0.0166 0.0302,0.0296 0.0494,0.0391 0.0195,0.0094 0.0416,0.0141 0.0664,0.0141 0.0319,0 0.0589,-0.0065 0.081,-0.0195 0.0222,-0.013 0.0415,-0.0304 0.0581,-0.0522 l 0.0547,0.0434 c -0.0114,0.0173 -0.0259,0.0337 -0.0434,0.0493 -0.0176,0.0157 -0.0393,0.0284 -0.065,0.0381 -0.0254,0.0098 -0.0555,0.0147 -0.0903,0.0147 z m 0.4014,-0.4253 V 13 h -0.0904 v -0.5283 h 0.0855 z m -0.0215,0.1313 -0.0376,-0.0014 c 3e-4,-0.0362 0.0057,-0.0695 0.0161,-0.1001 0.0104,-0.031 0.025,-0.0578 0.0439,-0.0806 0.0189,-0.0228 0.0414,-0.0404 0.0674,-0.0527 0.0264,-0.0127 0.0555,-0.0191 0.0874,-0.0191 0.0261,0 0.0495,0.0036 0.0703,0.0108 0.0209,0.0068 0.0386,0.0179 0.0533,0.0332 0.0149,0.0153 0.0263,0.0351 0.0341,0.0595 0.0078,0.0241 0.0117,0.0536 0.0117,0.0884 V 13 h -0.0908 v -0.3472 c 0,-0.0276 -0.004,-0.0498 -0.0122,-0.0664 -0.0081,-0.0169 -0.02,-0.0291 -0.0356,-0.0366 -0.0156,-0.0078 -0.0349,-0.0117 -0.0576,-0.0117 -0.0225,0 -0.043,0.0047 -0.0616,0.0141 -0.0182,0.0095 -0.034,0.0225 -0.0473,0.0391 -0.013,0.0166 -0.0233,0.0357 -0.0308,0.0571 -0.0072,0.0212 -0.0107,0.0437 -0.0107,0.0674 z m 1.0434,0.1939 v -0.272 c 0,-0.0208 -0.0042,-0.0389 -0.0127,-0.0542 -0.0081,-0.0156 -0.0205,-0.0277 -0.0371,-0.0361 -0.0166,-0.0085 -0.0371,-0.0127 -0.0615,-0.0127 -0.0228,0 -0.0428,0.0039 -0.0601,0.0117 -0.0169,0.0078 -0.0302,0.0181 -0.04,0.0307 -0.0094,0.0127 -0.0142,0.0264 -0.0142,0.0411 h -0.0903 c 0,-0.0189 0.0049,-0.0376 0.0147,-0.0562 0.0097,-0.0185 0.0237,-0.0353 0.0419,-0.0503 0.0186,-0.0153 0.0407,-0.0273 0.0665,-0.0361 0.026,-0.0091 0.055,-0.0137 0.0869,-0.0137 0.0384,0 0.0722,0.0065 0.1015,0.0195 0.0297,0.0131 0.0528,0.0328 0.0694,0.0591 0.0169,0.0261 0.0254,0.0588 0.0254,0.0982 v 0.2461 c 0,0.0175 0.0014,0.0363 0.0044,0.0561 0.0032,0.0199 0.0079,0.037 0.0141,0.0513 V 13 h -0.0942 c -0.0046,-0.0104 -0.0082,-0.0243 -0.0108,-0.0415 -0.0026,-0.0176 -0.0039,-0.0339 -0.0039,-0.0488 z m 0.0157,-0.23 9e-4,0.0635 h -0.0913 c -0.0257,0 -0.0486,0.0021 -0.0688,0.0063 -0.0202,0.0039 -0.0371,0.0099 -0.0508,0.0181 -0.0137,0.0081 -0.0241,0.0184 -0.0313,0.0307 -0.0071,0.0121 -0.0107,0.0262 -0.0107,0.0425 0,0.0166 0.0037,0.0318 0.0112,0.0454 0.0075,0.0137 0.0187,0.0246 0.0337,0.0327 0.0153,0.0079 0.034,0.0118 0.0562,0.0118 0.0276,0 0.0521,-0.0059 0.0732,-0.0176 0.0212,-0.0117 0.0379,-0.0261 0.0503,-0.043 0.0127,-0.0169 0.0195,-0.0333 0.0205,-0.0493 l 0.0386,0.0435 c -0.0023,0.0136 -0.0085,0.0288 -0.0186,0.0454 -0.0101,0.0166 -0.0236,0.0325 -0.0405,0.0478 -0.0166,0.015 -0.0365,0.0275 -0.0596,0.0376 -0.0227,0.0098 -0.0485,0.0147 -0.0771,0.0147 -0.0358,0 -0.0672,-0.007 -0.0942,-0.021 -0.0267,-0.014 -0.0476,-0.0327 -0.0626,-0.0562 -0.0146,-0.0237 -0.0219,-0.0503 -0.0219,-0.0796 0,-0.0283 0.0055,-0.0532 0.0166,-0.0747 0.011,-0.0218 0.027,-0.0399 0.0478,-0.0542 0.0209,-0.0146 0.0459,-0.0257 0.0752,-0.0332 0.0293,-0.0075 0.062,-0.0112 0.0982,-0.0112 z m 0.5551,-0.0952 V 13 h -0.0903 v -0.5283 h 0.0854 z m -0.0215,0.1313 -0.0376,-0.0014 c 4e-4,-0.0362 0.0057,-0.0695 0.0162,-0.1001 0.0104,-0.031 0.025,-0.0578 0.0439,-0.0806 0.0189,-0.0228 0.0413,-0.0404 0.0674,-0.0527 0.0264,-0.0127 0.0555,-0.0191 0.0874,-0.0191 0.026,0 0.0495,0.0036 0.0703,0.0108 0.0208,0.0068 0.0386,0.0179 0.0532,0.0332 0.015,0.0153 0.0264,0.0351 0.0342,0.0595 0.0078,0.0241 0.0117,0.0536 0.0117,0.0884 V 13 h -0.0908 v -0.3472 c 0,-0.0276 -0.0041,-0.0498 -0.0122,-0.0664 -0.0081,-0.0169 -0.02,-0.0291 -0.0356,-0.0366 -0.0157,-0.0078 -0.0349,-0.0117 -0.0577,-0.0117 -0.0224,0 -0.0429,0.0047 -0.0615,0.0141 -0.0182,0.0095 -0.034,0.0225 -0.0474,0.0391 -0.013,0.0166 -0.0232,0.0357 -0.0307,0.0571 -0.0072,0.0212 -0.0108,0.0437 -0.0108,0.0674 z m 0.7032,0.294 c -0.0368,0 -0.0702,-0.0062 -0.1001,-0.0186 -0.0297,-0.0127 -0.0552,-0.0304 -0.0767,-0.0532 -0.0211,-0.0228 -0.0374,-0.0498 -0.0488,-0.0811 -0.0114,-0.0312 -0.0171,-0.0654 -0.0171,-0.1025 v -0.0205 c 0,-0.043 0.0063,-0.0812 0.019,-0.1148 0.0127,-0.0338 0.03,-0.0625 0.0518,-0.0859 0.0218,-0.0234 0.0465,-0.0412 0.0742,-0.0532 0.0277,-0.0121 0.0563,-0.0181 0.0859,-0.0181 0.0378,0 0.0704,0.0065 0.0977,0.0195 0.0277,0.0131 0.0503,0.0313 0.0679,0.0547 0.0176,0.0231 0.0306,0.0505 0.039,0.0821 0.0085,0.0312 0.0127,0.0654 0.0127,0.1025 v 0.0405 h -0.3945 v -0.0737 h 0.3042 v -0.0068 c -0.0013,-0.0235 -0.0062,-0.0463 -0.0146,-0.0684 -0.0082,-0.0221 -0.0212,-0.0404 -0.0391,-0.0547 -0.0179,-0.0143 -0.0423,-0.0215 -0.0733,-0.0215 -0.0205,0 -0.0393,0.0044 -0.0566,0.0132 -0.0172,0.0085 -0.0321,0.0212 -0.0444,0.0381 -0.0124,0.0169 -0.022,0.0376 -0.0288,0.062 -0.0069,0.0244 -0.0103,0.0526 -0.0103,0.0845 v 0.0205 c 0,0.0251 0.0034,0.0487 0.0103,0.0708 0.0071,0.0218 0.0174,0.041 0.0307,0.0576 0.0137,0.0166 0.0301,0.0296 0.0493,0.0391 0.0196,0.0094 0.0417,0.0141 0.0665,0.0141 0.0319,0 0.0589,-0.0065 0.081,-0.0195 0.0221,-0.013 0.0415,-0.0304 0.0581,-0.0522 l 0.0547,0.0434 c -0.0114,0.0173 -0.0259,0.0337 -0.0435,0.0493 -0.0175,0.0157 -0.0392,0.0284 -0.0649,0.0381 -0.0254,0.0098 -0.0555,0.0147 -0.0903,0.0147 z m 0.4448,-0.1036 0.1357,-0.4345 H 30.854 L 30.8423,12.5581 30.7041,13 H 30.646 Z M 30.5674,12.4717 30.6831,12.9111 30.6914,13 h -0.061 l -0.1533,-0.5283 z m 0.4165,0.436 0.1103,-0.436 h 0.0899 L 31.0308,13 H 30.9702 Z M 30.8672,12.4717 31,12.8989 31.0151,13 h -0.0576 l -0.1421,-0.4429 -0.0117,-0.0854 z m 0.9692,0.438 v -0.272 c 0,-0.0208 -0.0042,-0.0389 -0.0127,-0.0542 -0.0081,-0.0156 -0.0205,-0.0277 -0.0371,-0.0361 -0.0166,-0.0085 -0.0371,-0.0127 -0.0615,-0.0127 -0.0228,0 -0.0428,0.0039 -0.0601,0.0117 -0.0169,0.0078 -0.0302,0.0181 -0.04,0.0307 -0.0094,0.0127 -0.0142,0.0264 -0.0142,0.0411 h -0.0903 c 0,-0.0189 0.0049,-0.0376 0.0147,-0.0562 0.0097,-0.0185 0.0237,-0.0353 0.0419,-0.0503 0.0186,-0.0153 0.0407,-0.0273 0.0665,-0.0361 0.026,-0.0091 0.055,-0.0137 0.0869,-0.0137 0.0384,0 0.0722,0.0065 0.1015,0.0195 0.0297,0.0131 0.0528,0.0328 0.0694,0.0591 0.0169,0.0261 0.0254,0.0588 0.0254,0.0982 v 0.2461 c 0,0.0175 0.0014,0.0363 0.0044,0.0561 0.0032,0.0199 0.0079,0.037 0.0141,0.0513 V 13 h -0.0942 c -0.0046,-0.0104 -0.0082,-0.0243 -0.0108,-0.0415 -0.0026,-0.0176 -0.0039,-0.0339 -0.0039,-0.0488 z m 0.0157,-0.23 9e-4,0.0635 h -0.0913 c -0.0257,0 -0.0486,0.0021 -0.0688,0.0063 -0.0202,0.0039 -0.0371,0.0099 -0.0508,0.0181 -0.0137,0.0081 -0.0241,0.0184 -0.0313,0.0307 -0.0071,0.0121 -0.0107,0.0262 -0.0107,0.0425 0,0.0166 0.0037,0.0318 0.0112,0.0454 0.0075,0.0137 0.0187,0.0246 0.0337,0.0327 0.0153,0.0079 0.034,0.0118 0.0562,0.0118 0.0276,0 0.0521,-0.0059 0.0732,-0.0176 0.0212,-0.0117 0.0379,-0.0261 0.0503,-0.043 0.0127,-0.0169 0.0195,-0.0333 0.0205,-0.0493 l 0.0386,0.0435 c -0.0023,0.0136 -0.0085,0.0288 -0.0186,0.0454 -0.0101,0.0166 -0.0236,0.0325 -0.0405,0.0478 -0.0166,0.015 -0.0365,0.0275 -0.0596,0.0376 -0.0227,0.0098 -0.0485,0.0147 -0.0771,0.0147 -0.0358,0 -0.0672,-0.007 -0.0942,-0.021 -0.0267,-0.014 -0.0476,-0.0327 -0.0626,-0.0562 -0.0146,-0.0237 -0.0219,-0.0503 -0.0219,-0.0796 0,-0.0283 0.0055,-0.0532 0.0166,-0.0747 0.011,-0.0218 0.027,-0.0399 0.0478,-0.0542 0.0209,-0.0146 0.0459,-0.0257 0.0752,-0.0332 0.0293,-0.0075 0.062,-0.0112 0.0982,-0.0112 z m 0.4282,0.2558 c 0.0215,0 0.0413,-0.0043 0.0595,-0.0131 0.0183,-0.0088 0.0332,-0.0209 0.045,-0.0362 0.0117,-0.0156 0.0184,-0.0333 0.02,-0.0532 h 0.0859 c -0.0016,0.0313 -0.0122,0.0604 -0.0317,0.0874 -0.0192,0.0267 -0.0444,0.0484 -0.0757,0.065 -0.0312,0.0162 -0.0656,0.0244 -0.103,0.0244 -0.0397,0 -0.0744,-0.007 -0.104,-0.021 -0.0293,-0.014 -0.0537,-0.0332 -0.0733,-0.0576 -0.0192,-0.0245 -0.0337,-0.0525 -0.0434,-0.084 -0.0095,-0.0319 -0.0142,-0.0656 -0.0142,-0.1011 v -0.0205 c 0,-0.0355 0.0047,-0.069 0.0142,-0.1006 0.0097,-0.0319 0.0242,-0.0601 0.0434,-0.0845 0.0196,-0.0244 0.044,-0.0436 0.0733,-0.0576 0.0296,-0.014 0.0643,-0.021 0.104,-0.021 0.0413,0 0.0774,0.0085 0.1084,0.0254 0.0309,0.0166 0.0551,0.0394 0.0727,0.0684 0.0179,0.0286 0.0277,0.0612 0.0293,0.0976 h -0.0859 c -0.0016,-0.0218 -0.0078,-0.0415 -0.0186,-0.0591 -0.0104,-0.0175 -0.0247,-0.0315 -0.0429,-0.042 -0.0179,-0.0107 -0.0389,-0.0161 -0.063,-0.0161 -0.0277,0 -0.051,0.0056 -0.0699,0.0166 -0.0185,0.0108 -0.0333,0.0254 -0.0444,0.044 -0.0107,0.0182 -0.0185,0.0386 -0.0234,0.061 -0.0046,0.0222 -0.0069,0.0448 -0.0069,0.0679 v 0.0205 c 0,0.0231 0.0023,0.0459 0.0069,0.0684 0.0045,0.0224 0.0122,0.0428 0.0229,0.061 0.0111,0.0182 0.0259,0.0329 0.0445,0.0439 0.0188,0.0108 0.0423,0.0161 0.0703,0.0161 z m 0.5234,0 c 0.0215,0 0.0414,-0.0043 0.0596,-0.0131 0.0182,-0.0088 0.0332,-0.0209 0.0449,-0.0362 0.0117,-0.0156 0.0184,-0.0333 0.02,-0.0532 h 0.086 c -0.0017,0.0313 -0.0122,0.0604 -0.0318,0.0874 -0.0192,0.0267 -0.0444,0.0484 -0.0757,0.065 -0.0312,0.0162 -0.0656,0.0244 -0.103,0.0244 -0.0397,0 -0.0744,-0.007 -0.104,-0.021 -0.0293,-0.014 -0.0537,-0.0332 -0.0732,-0.0576 -0.0192,-0.0245 -0.0337,-0.0525 -0.0435,-0.084 -0.0094,-0.0319 -0.0142,-0.0656 -0.0142,-0.1011 v -0.0205 c 0,-0.0355 0.0048,-0.069 0.0142,-0.1006 0.0098,-0.0319 0.0243,-0.0601 0.0435,-0.0845 0.0195,-0.0244 0.0439,-0.0436 0.0732,-0.0576 0.0296,-0.014 0.0643,-0.021 0.104,-0.021 0.0414,0 0.0775,0.0085 0.1084,0.0254 0.0309,0.0166 0.0552,0.0394 0.0728,0.0684 0.0179,0.0286 0.0276,0.0612 0.0293,0.0976 h -0.086 c -0.0016,-0.0218 -0.0078,-0.0415 -0.0185,-0.0591 -0.0104,-0.0175 -0.0248,-0.0315 -0.043,-0.042 -0.0179,-0.0107 -0.0389,-0.0161 -0.063,-0.0161 -0.0277,0 -0.0509,0.0056 -0.0698,0.0166 -0.0186,0.0108 -0.0334,0.0254 -0.0444,0.044 -0.0108,0.0182 -0.0186,0.0386 -0.0235,0.061 -0.0045,0.0222 -0.0068,0.0448 -0.0068,0.0679 v 0.0205 c 0,0.0231 0.0023,0.0459 0.0068,0.0684 0.0046,0.0224 0.0122,0.0428 0.023,0.061 0.011,0.0182 0.0258,0.0329 0.0444,0.0439 0.0189,0.0108 0.0423,0.0161 0.0703,0.0161 z m 0.2881,-0.1938 v -0.0112 c 0,-0.0381 0.0055,-0.0734 0.0166,-0.106 0.0111,-0.0329 0.027,-0.0613 0.0478,-0.0854 0.0209,-0.0245 0.0461,-0.0433 0.0757,-0.0567 0.0297,-0.0136 0.0629,-0.0205 0.0996,-0.0205 0.0372,0 0.0705,0.0069 0.1001,0.0205 0.03,0.0134 0.0554,0.0322 0.0762,0.0567 0.0212,0.0241 0.0373,0.0525 0.0484,0.0854 0.011,0.0326 0.0166,0.0679 0.0166,0.106 v 0.0112 c 0,0.0381 -0.0056,0.0734 -0.0166,0.106 -0.0111,0.0325 -0.0272,0.061 -0.0484,0.0854 -0.0208,0.0241 -0.046,0.043 -0.0757,0.0566 -0.0293,0.0134 -0.0625,0.0201 -0.0996,0.0201 -0.0371,0 -0.0705,-0.0067 -0.1001,-0.0201 -0.0296,-0.0136 -0.055,-0.0325 -0.0762,-0.0566 -0.0208,-0.0244 -0.0367,-0.0529 -0.0478,-0.0854 -0.0111,-0.0326 -0.0166,-0.0679 -0.0166,-0.106 z m 0.0903,-0.0112 v 0.0112 c 0,0.0264 0.0031,0.0513 0.0093,0.0747 0.0062,0.0231 0.0155,0.0436 0.0278,0.0615 0.0127,0.0179 0.0285,0.0321 0.0474,0.0425 0.0189,0.0101 0.0409,0.0151 0.0659,0.0151 0.0248,0 0.0464,-0.005 0.065,-0.0151 0.0188,-0.0104 0.0345,-0.0246 0.0468,-0.0425 0.0124,-0.0179 0.0217,-0.0384 0.0279,-0.0615 0.0065,-0.0234 0.0097,-0.0483 0.0097,-0.0747 v -0.0112 c 0,-0.0261 -0.0032,-0.0506 -0.0097,-0.0738 -0.0062,-0.0234 -0.0157,-0.0441 -0.0284,-0.062 -0.0123,-0.0182 -0.0279,-0.0325 -0.0468,-0.0429 -0.0186,-0.0105 -0.0404,-0.0157 -0.0655,-0.0157 -0.0247,0 -0.0465,0.0052 -0.0654,0.0157 -0.0185,0.0104 -0.0342,0.0247 -0.0469,0.0429 -0.0123,0.0179 -0.0216,0.0386 -0.0278,0.062 -0.0062,0.0232 -0.0093,0.0477 -0.0093,0.0738 z m 0.8272,0.1474 v -0.4062 h 0.0908 V 13 h -0.0864 z m 0.0171,-0.1113 0.0376,-0.001 c 0,0.0352 -0.0038,0.0677 -0.0113,0.0977 -0.0071,0.0296 -0.0188,0.0553 -0.0351,0.0771 -0.0163,0.0218 -0.0376,0.0389 -0.064,0.0513 -0.0264,0.012 -0.0584,0.0181 -0.0962,0.0181 -0.0257,0 -0.0493,-0.0038 -0.0708,-0.0113 -0.0211,-0.0075 -0.0394,-0.019 -0.0547,-0.0346 -0.0153,-0.0157 -0.0271,-0.036 -0.0356,-0.0611 -0.0081,-0.025 -0.0122,-0.0551 -0.0122,-0.0903 v -0.3408 h 0.0903 v 0.3418 c 0,0.0237 0.0026,0.0434 0.0078,0.0591 0.0056,0.0153 0.0129,0.0275 0.022,0.0366 0.0094,0.0088 0.0199,0.015 0.0312,0.0185 0.0118,0.0036 0.0238,0.0054 0.0362,0.0054 0.0384,0 0.0688,-0.0073 0.0913,-0.022 0.0225,-0.0149 0.0386,-0.035 0.0483,-0.06 0.0101,-0.0254 0.0152,-0.0536 0.0152,-0.0845 z M 34.459,12.4717 V 12.541 H 34.1733 V 12.4717 Z M 34.27,12.3433 h 0.0904 v 0.5258 c 0,0.0179 0.0027,0.0315 0.0083,0.0406 0.0055,0.0091 0.0126,0.0151 0.0214,0.018 0.0088,0.003 0.0183,0.0044 0.0284,0.0044 0.0074,0 0.0153,-6e-4 0.0234,-0.0019 0.0085,-0.0017 0.0148,-0.003 0.019,-0.0039 L 34.4614,13 c -0.0071,0.0023 -0.0166,0.0044 -0.0283,0.0063 -0.0114,0.0023 -0.0252,0.0035 -0.0415,0.0035 -0.0221,0 -0.0425,-0.0044 -0.061,-0.0132 C 34.312,12.9878 34.2972,12.9731 34.2861,12.9526 34.2754,12.9318 34.27,12.9038 34.27,12.8687 Z"
           fill="#000000"
           id="path54" />
      </g>
    </g>
  </g>
</svg>
