<svg width="62" height="52" viewBox="0 0 62 52" fill="none" xmlns="http://www.w3.org/2000/svg">
<path d="M3.26369 0H57.8952C59.6901 0 61.1584 1.46873 61.1584 3.26364V36.917H0.000488281V3.26364C0.000488281 1.46873 1.46879 0 3.26369 0Z" fill="#666666"/>
<path d="M2.21625 34.7009H58.9424V3.2632C58.9424 2.6912 58.4668 2.21567 57.8949 2.21567H3.26335C2.69179 2.21567 2.21582 2.6912 2.21582 3.2632V34.7011L2.21625 34.7009Z" fill="#6C8CC7"/>
<path d="M61.1583 36.917V40.4858C61.1583 42.2812 59.5395 43.7494 57.5608 43.7494H3.59757C1.61881 43.7494 0 42.2812 0 40.4858V36.917H61.1579H61.1583Z" fill="#C2C2C4" fill-opacity="0.1"/>
<path d="M13.9934 6.94412H46.9881H51.8997C52.4952 6.94412 52.9819 7.4313 52.9819 8.0263V14.4657V34.7013H8V14.4657V8.0263C8 7.43087 8.48675 6.94412 9.08218 6.94412H13.9938H13.9934Z" fill="white"/>
<path d="M9.17012 6.95505H51.9882C52.5837 6.95505 53.0704 7.4418 53.0704 8.03722V10.2013H8.08838V8.03722C8.08838 7.4418 8.57513 6.95505 9.17055 6.95505H9.17012Z" fill="#D6D6D6"/>
<path d="M26.3088 7.98547H49.9391C50.1001 7.98547 50.2311 8.13633 50.2311 8.31957V8.93936C50.2311 9.12276 50.0997 9.27345 49.9391 9.27345H26.3088C26.1489 9.27345 26.0171 9.12359 26.0171 8.93936V8.31957C26.0169 8.136 26.1482 7.98547 26.3088 7.98547Z" fill="white"/>
<path d="M10.6452 7.87207C10.9891 7.87207 11.2683 8.15066 11.2683 8.4951C11.2683 8.83924 10.9892 9.11813 10.6452 9.11813C10.3007 9.11813 10.0215 8.83953 10.0215 8.4951C10.0216 8.15023 10.3007 7.87207 10.6452 7.87207Z" fill="#C02032"/>
<path d="M13.1045 7.87207C13.449 7.87207 13.7275 8.15066 13.7275 8.4951C13.7275 8.83924 13.4489 9.11813 13.1045 9.11813C12.7606 9.11813 12.4814 8.83953 12.4814 8.4951C12.4814 8.15023 12.7605 7.87207 13.1045 7.87207Z" fill="#939393"/>
<path d="M15.5732 7.90643C15.9178 7.90643 16.1963 8.18503 16.1963 8.52946C16.1963 8.87361 15.9177 9.15249 15.5732 9.15249C15.2294 9.15249 14.9502 8.87389 14.9502 8.52946C14.9502 8.1846 15.2292 7.90643 15.5732 7.90643Z" fill="#C9C9C9"/>
<path d="M30.5793 41.3137C31.1997 41.3137 31.7026 40.8108 31.7026 40.1905C31.7026 39.5701 31.1997 39.0672 30.5793 39.0672C29.959 39.0672 29.4561 39.5701 29.4561 40.1905C29.4561 40.8108 29.959 41.3137 30.5793 41.3137Z" fill="#B6B6B8"/>
<path d="M37.6328 48.8832L42.8216 50.5456H18.3369L22.5234 48.8832V43.7495H37.6325V48.8832H37.6328Z" fill="#C2C2C4"/>
<path d="M37.6325 48.8832L22.5234 43.7495H37.6325V48.8832Z" fill="#B0B0B0"/>
<path d="M22.5232 48.8832H37.6323L42.8211 50.5455V51.2616H30.5789H18.3364V50.5455L22.523 48.8832H22.5232Z" fill="#B0B0B0"/>
<path d="M27.4644 8.23547V8.98547H27.374V8.23547H27.4644ZM27.4429 8.70129L27.4053 8.69983C27.4056 8.6637 27.411 8.63033 27.4214 8.59973C27.4318 8.56881 27.4465 8.54195 27.4653 8.51917C27.4842 8.49638 27.5067 8.4788 27.5327 8.46643C27.5591 8.45374 27.5882 8.44739 27.6201 8.44739C27.6462 8.44739 27.6696 8.45097 27.6904 8.45813C27.7113 8.46497 27.729 8.47603 27.7437 8.49133C27.7586 8.50663 27.77 8.52649 27.7778 8.5509C27.7856 8.57499 27.7896 8.60445 27.7896 8.63928V8.98547H27.6987V8.63831C27.6987 8.61064 27.6947 8.5885 27.6865 8.5719C27.6784 8.55497 27.6665 8.54277 27.6509 8.53528C27.6353 8.52747 27.616 8.52356 27.5933 8.52356C27.5708 8.52356 27.5503 8.52828 27.5317 8.53772C27.5135 8.54716 27.4977 8.56018 27.4844 8.57678C27.4714 8.59338 27.4611 8.61243 27.4536 8.63391C27.4465 8.65507 27.4429 8.67753 27.4429 8.70129ZM28.246 8.45715V8.52649H27.9604V8.45715H28.246ZM28.057 8.32874H28.1474V8.85461C28.1474 8.87252 28.1501 8.88603 28.1557 8.89514C28.1612 8.90426 28.1684 8.91028 28.1771 8.91321C28.1859 8.91614 28.1954 8.9176 28.2055 8.9176C28.213 8.9176 28.2208 8.91695 28.2289 8.91565C28.2374 8.91402 28.2437 8.91272 28.2479 8.91174L28.2484 8.98547C28.2413 8.98775 28.2318 8.98987 28.2201 8.99182C28.2087 8.9941 28.1949 8.99524 28.1786 8.99524C28.1565 8.99524 28.1361 8.99084 28.1176 8.98206C28.099 8.97327 28.0842 8.95862 28.0731 8.93811C28.0624 8.91728 28.057 8.88928 28.057 8.85413V8.32874ZM28.6731 8.45715V8.52649H28.3875V8.45715H28.6731ZM28.4842 8.32874H28.5745V8.85461C28.5745 8.87252 28.5773 8.88603 28.5828 8.89514C28.5883 8.90426 28.5955 8.91028 28.6043 8.91321C28.6131 8.91614 28.6225 8.9176 28.6326 8.9176C28.6401 8.9176 28.6479 8.91695 28.6561 8.91565C28.6645 8.91402 28.6709 8.91272 28.6751 8.91174L28.6756 8.98547C28.6684 8.98775 28.659 8.98987 28.6473 8.99182C28.6359 8.9941 28.622 8.99524 28.6058 8.99524C28.5836 8.99524 28.5633 8.99084 28.5447 8.98206C28.5262 8.97327 28.5114 8.95862 28.5003 8.93811C28.4896 8.91728 28.4842 8.88928 28.4842 8.85413V8.32874ZM28.9694 8.55872V9.1886H28.8786V8.45715H28.9616L28.9694 8.55872ZM29.3254 8.71692V8.72717C29.3254 8.76558 29.3208 8.80123 29.3117 8.83411C29.3026 8.86666 29.2893 8.89498 29.2717 8.91907C29.2544 8.94316 29.2331 8.96187 29.2077 8.97522C29.1823 8.98857 29.1532 8.99524 29.1203 8.99524C29.0868 8.99524 29.0572 8.98971 29.0314 8.97864C29.0057 8.96757 28.9839 8.95146 28.966 8.9303C28.9481 8.90914 28.9338 8.88375 28.923 8.85413C28.9126 8.8245 28.9055 8.79114 28.9016 8.75403V8.69934C28.9055 8.66028 28.9128 8.62528 28.9235 8.59436C28.9343 8.56344 28.9484 8.53707 28.966 8.51526C28.9839 8.49312 29.0056 8.47636 29.031 8.46497C29.0563 8.45325 29.0856 8.44739 29.1188 8.44739C29.1521 8.44739 29.1815 8.4539 29.2072 8.46692C29.2329 8.47961 29.2546 8.49784 29.2722 8.52161C29.2897 8.54537 29.3029 8.57385 29.3117 8.60706C29.3208 8.63993 29.3254 8.67655 29.3254 8.71692ZM29.2346 8.72717V8.71692C29.2346 8.69055 29.2318 8.66581 29.2263 8.6427C29.2207 8.61926 29.2121 8.59875 29.2004 8.58118C29.189 8.56327 29.1743 8.54928 29.1564 8.53918C29.1385 8.52877 29.1172 8.52356 29.0925 8.52356C29.0697 8.52356 29.0498 8.52747 29.0329 8.53528C29.0163 8.54309 29.0021 8.55367 28.9904 8.56702C28.9787 8.58004 28.9691 8.59501 28.9616 8.61194C28.9545 8.62854 28.9491 8.64579 28.9455 8.6637V8.79016C28.952 8.81295 28.9611 8.83443 28.9729 8.85461C28.9846 8.87447 29.0002 8.89058 29.0197 8.90295C29.0393 8.915 29.0638 8.92102 29.0935 8.92102C29.1179 8.92102 29.1389 8.91597 29.1564 8.90588C29.1743 8.89547 29.189 8.88131 29.2004 8.8634C29.2121 8.8455 29.2207 8.82499 29.2263 8.80188C29.2318 8.77844 29.2346 8.75354 29.2346 8.72717ZM29.8482 8.84534C29.8482 8.83232 29.8453 8.82027 29.8395 8.8092C29.8339 8.79781 29.8224 8.78756 29.8048 8.77844C29.7875 8.769 29.7615 8.76086 29.7267 8.75403C29.6974 8.74784 29.6708 8.74052 29.6471 8.73206C29.6236 8.72359 29.6036 8.71334 29.587 8.70129C29.5707 8.68925 29.5582 8.67509 29.5494 8.65881C29.5406 8.64254 29.5362 8.62349 29.5362 8.60168C29.5362 8.58085 29.5408 8.56116 29.5499 8.5426C29.5593 8.52405 29.5725 8.50761 29.5895 8.49329C29.6067 8.47896 29.6274 8.46773 29.6515 8.45959C29.6756 8.45146 29.7024 8.44739 29.732 8.44739C29.7743 8.44739 29.8105 8.45487 29.8404 8.46985C29.8704 8.48482 29.8933 8.50484 29.9093 8.52991C29.9252 8.55465 29.9332 8.58215 29.9332 8.61243H29.8429C29.8429 8.59778 29.8385 8.58362 29.8297 8.56995C29.8212 8.55595 29.8087 8.54439 29.7921 8.53528C29.7758 8.52616 29.7558 8.52161 29.732 8.52161C29.707 8.52161 29.6866 8.52551 29.671 8.53333C29.6557 8.54081 29.6445 8.55042 29.6373 8.56213C29.6305 8.57385 29.6271 8.58622 29.6271 8.59924C29.6271 8.60901 29.6287 8.6178 29.6319 8.62561C29.6355 8.6331 29.6417 8.6401 29.6505 8.64661C29.6593 8.65279 29.6716 8.65865 29.6876 8.66418C29.7035 8.66972 29.7239 8.67525 29.7486 8.68079C29.7919 8.69055 29.8276 8.70227 29.8556 8.71594C29.8836 8.72961 29.9044 8.74638 29.9181 8.76624C29.9317 8.78609 29.9386 8.81018 29.9386 8.8385C29.9386 8.86161 29.9337 8.88277 29.9239 8.90198C29.9145 8.92118 29.9007 8.93778 29.8824 8.95178C29.8645 8.96545 29.843 8.9762 29.818 8.98401C29.7932 8.9915 29.7654 8.99524 29.7345 8.99524C29.6879 8.99524 29.6485 8.98694 29.6163 8.97034C29.5841 8.95374 29.5597 8.93225 29.5431 8.90588C29.5265 8.87952 29.5182 8.85168 29.5182 8.82239H29.609C29.6103 8.84713 29.6174 8.86682 29.6305 8.88147C29.6435 8.89579 29.6594 8.90605 29.6783 8.91223C29.6972 8.91809 29.7159 8.92102 29.7345 8.92102C29.7592 8.92102 29.7799 8.91777 29.7965 8.91125C29.8134 8.90474 29.8263 8.89579 29.8351 8.8844C29.8438 8.87301 29.8482 8.85999 29.8482 8.84534ZM30.1533 8.93762C30.1533 8.92232 30.158 8.90946 30.1675 8.89905C30.1772 8.88831 30.1912 8.88293 30.2095 8.88293C30.2277 8.88293 30.2415 8.88831 30.251 8.89905C30.2607 8.90946 30.2656 8.92232 30.2656 8.93762C30.2656 8.9526 30.2607 8.96529 30.251 8.97571C30.2415 8.98612 30.2277 8.99133 30.2095 8.99133C30.1912 8.99133 30.1772 8.98612 30.1675 8.97571C30.158 8.96529 30.1533 8.9526 30.1533 8.93762ZM30.1538 8.50647C30.1538 8.49117 30.1585 8.47831 30.168 8.4679C30.1777 8.45715 30.1917 8.45178 30.21 8.45178C30.2282 8.45178 30.242 8.45715 30.2515 8.4679C30.2612 8.47831 30.2661 8.49117 30.2661 8.50647C30.2661 8.52144 30.2612 8.53414 30.2515 8.54456C30.242 8.55497 30.2282 8.56018 30.21 8.56018C30.1917 8.56018 30.1777 8.55497 30.168 8.54456C30.1585 8.53414 30.1538 8.52144 30.1538 8.50647ZM30.8139 8.27454L30.5175 9.04651H30.4398L30.7367 8.27454H30.8139ZM31.2176 8.27454L30.9212 9.04651H30.8436L31.1404 8.27454H31.2176Z" fill="#696A6C"/>
<path d="M31.7238 8.84534C31.7238 8.83232 31.7209 8.82027 31.715 8.8092C31.7095 8.79781 31.6979 8.78756 31.6804 8.77844C31.6631 8.769 31.6371 8.76086 31.6022 8.75403C31.5729 8.74784 31.5464 8.74052 31.5227 8.73206C31.4992 8.72359 31.4792 8.71334 31.4626 8.70129C31.4463 8.68925 31.4338 8.67509 31.425 8.65881C31.4162 8.64254 31.4118 8.62349 31.4118 8.60168C31.4118 8.58085 31.4164 8.56116 31.4255 8.5426C31.4349 8.52405 31.4481 8.50761 31.465 8.49329C31.4823 8.47896 31.503 8.46773 31.5271 8.45959C31.5511 8.45146 31.578 8.44739 31.6076 8.44739C31.6499 8.44739 31.6861 8.45487 31.716 8.46985C31.746 8.48482 31.7689 8.50484 31.7849 8.52991C31.8008 8.55465 31.8088 8.58215 31.8088 8.61243H31.7185C31.7185 8.59778 31.7141 8.58362 31.7053 8.56995C31.6968 8.55595 31.6843 8.54439 31.6677 8.53528C31.6514 8.52616 31.6314 8.52161 31.6076 8.52161C31.5826 8.52161 31.5622 8.52551 31.5466 8.53333C31.5313 8.54081 31.5201 8.55042 31.5129 8.56213C31.5061 8.57385 31.5026 8.58622 31.5026 8.59924C31.5026 8.60901 31.5043 8.6178 31.5075 8.62561C31.5111 8.6331 31.5173 8.6401 31.5261 8.64661C31.5349 8.65279 31.5472 8.65865 31.5632 8.66418C31.5791 8.66972 31.5995 8.67525 31.6242 8.68079C31.6675 8.69055 31.7032 8.70227 31.7312 8.71594C31.7591 8.72961 31.78 8.74638 31.7937 8.76624C31.8073 8.78609 31.8142 8.81018 31.8142 8.8385C31.8142 8.86161 31.8093 8.88277 31.7995 8.90198C31.7901 8.92118 31.7762 8.93778 31.758 8.95178C31.7401 8.96545 31.7186 8.9762 31.6936 8.98401C31.6688 8.9915 31.641 8.99524 31.6101 8.99524C31.5635 8.99524 31.5241 8.98694 31.4919 8.97034C31.4597 8.95374 31.4353 8.93225 31.4187 8.90588C31.4021 8.87952 31.3938 8.85168 31.3938 8.82239H31.4846C31.4859 8.84713 31.493 8.86682 31.5061 8.88147C31.5191 8.89579 31.535 8.90605 31.5539 8.91223C31.5728 8.91809 31.5915 8.92102 31.6101 8.92102C31.6348 8.92102 31.6555 8.91777 31.6721 8.91125C31.689 8.90474 31.7019 8.89579 31.7106 8.8844C31.7194 8.87301 31.7238 8.85999 31.7238 8.84534ZM32.3443 8.89514V8.62317C32.3443 8.60234 32.3401 8.58427 32.3316 8.56897C32.3235 8.55334 32.3111 8.5413 32.2945 8.53284C32.2779 8.52437 32.2574 8.52014 32.233 8.52014C32.2102 8.52014 32.1902 8.52405 32.1729 8.53186C32.156 8.53967 32.1427 8.54993 32.1329 8.56262C32.1235 8.57532 32.1188 8.58899 32.1188 8.60364H32.0284C32.0284 8.58476 32.0333 8.56604 32.0431 8.54749C32.0528 8.52893 32.0668 8.51217 32.0851 8.49719C32.1036 8.48189 32.1257 8.46985 32.1515 8.46106C32.1775 8.45194 32.2065 8.44739 32.2384 8.44739C32.2768 8.44739 32.3106 8.4539 32.3399 8.46692C32.3696 8.47994 32.3927 8.49963 32.4093 8.526C32.4262 8.55204 32.4347 8.58476 32.4347 8.62415V8.87024C32.4347 8.88782 32.4361 8.90653 32.4391 8.92639C32.4423 8.94625 32.447 8.96334 32.4532 8.97766V8.98547H32.359C32.3544 8.97506 32.3508 8.96122 32.3482 8.94397C32.3456 8.92639 32.3443 8.91012 32.3443 8.89514ZM32.36 8.66516L32.3609 8.72864H32.2696C32.2439 8.72864 32.221 8.73075 32.2008 8.73499C32.1806 8.73889 32.1637 8.74491 32.15 8.75305C32.1363 8.76119 32.1259 8.77144 32.1188 8.78381C32.1116 8.79586 32.108 8.81002 32.108 8.82629C32.108 8.8429 32.1118 8.85803 32.1192 8.8717C32.1267 8.88538 32.138 8.89628 32.1529 8.90442C32.1682 8.91223 32.1869 8.91614 32.2091 8.91614C32.2368 8.91614 32.2612 8.91028 32.2823 8.89856C32.3035 8.88684 32.3202 8.87252 32.3326 8.85559C32.3453 8.83866 32.3521 8.82222 32.3531 8.80627L32.3917 8.84973C32.3894 8.8634 32.3832 8.87854 32.3731 8.89514C32.3631 8.91174 32.3495 8.92769 32.3326 8.94299C32.316 8.95797 32.2962 8.9705 32.273 8.98059C32.2503 8.99036 32.2245 8.99524 32.1959 8.99524C32.1601 8.99524 32.1287 8.98824 32.1017 8.97424C32.075 8.96025 32.0541 8.94153 32.0392 8.91809C32.0245 8.89433 32.0172 8.8678 32.0172 8.8385C32.0172 8.81018 32.0227 8.78528 32.0338 8.76379C32.0449 8.74198 32.0608 8.72392 32.0816 8.70959C32.1025 8.69495 32.1275 8.68388 32.1568 8.67639C32.1861 8.6689 32.2188 8.66516 32.255 8.66516H32.36ZM32.7671 8.54016V8.98547H32.6768V8.45715H32.7646L32.7671 8.54016ZM32.9321 8.45422L32.9316 8.53821C32.9242 8.53658 32.917 8.5356 32.9102 8.53528C32.9036 8.53463 32.8962 8.5343 32.8877 8.5343C32.8669 8.5343 32.8485 8.53756 32.8325 8.54407C32.8166 8.55058 32.8031 8.55969 32.792 8.57141C32.7809 8.58313 32.7721 8.59713 32.7656 8.6134C32.7594 8.62935 32.7554 8.64693 32.7534 8.66614L32.728 8.68079C32.728 8.64889 32.7311 8.61894 32.7373 8.59094C32.7438 8.56295 32.7537 8.53821 32.7671 8.51672C32.7804 8.49491 32.7974 8.47799 32.8179 8.46594C32.8387 8.45357 32.8634 8.44739 32.8921 8.44739C32.8986 8.44739 32.9061 8.4482 32.9146 8.44983C32.923 8.45113 32.9289 8.4526 32.9321 8.45422ZM33.4076 8.89514V8.62317C33.4076 8.60234 33.4034 8.58427 33.3949 8.56897C33.3868 8.55334 33.3744 8.5413 33.3578 8.53284C33.3412 8.52437 33.3207 8.52014 33.2963 8.52014C33.2735 8.52014 33.2535 8.52405 33.2362 8.53186C33.2193 8.53967 33.206 8.54993 33.1962 8.56262C33.1868 8.57532 33.182 8.58899 33.182 8.60364H33.0917C33.0917 8.58476 33.0966 8.56604 33.1063 8.54749C33.1161 8.52893 33.1301 8.51217 33.1483 8.49719C33.1669 8.48189 33.189 8.46985 33.2147 8.46106C33.2408 8.45194 33.2698 8.44739 33.3017 8.44739C33.3401 8.44739 33.3739 8.4539 33.4032 8.46692C33.4328 8.47994 33.456 8.49963 33.4726 8.526C33.4895 8.55204 33.4979 8.58476 33.4979 8.62415V8.87024C33.4979 8.88782 33.4994 8.90653 33.5023 8.92639C33.5056 8.94625 33.5103 8.96334 33.5165 8.97766V8.98547H33.4223C33.4177 8.97506 33.4141 8.96122 33.4115 8.94397C33.4089 8.92639 33.4076 8.91012 33.4076 8.89514ZM33.4232 8.66516L33.4242 8.72864H33.3329C33.3072 8.72864 33.2842 8.73075 33.2641 8.73499C33.2439 8.73889 33.227 8.74491 33.2133 8.75305C33.1996 8.76119 33.1892 8.77144 33.182 8.78381C33.1749 8.79586 33.1713 8.81002 33.1713 8.82629C33.1713 8.8429 33.175 8.85803 33.1825 8.8717C33.19 8.88538 33.2012 8.89628 33.2162 8.90442C33.2315 8.91223 33.2502 8.91614 33.2724 8.91614C33.3 8.91614 33.3244 8.91028 33.3456 8.89856C33.3668 8.88684 33.3835 8.87252 33.3959 8.85559C33.4086 8.83866 33.4154 8.82222 33.4164 8.80627L33.455 8.84973C33.4527 8.8634 33.4465 8.87854 33.4364 8.89514C33.4263 8.91174 33.4128 8.92769 33.3959 8.94299C33.3793 8.95797 33.3594 8.9705 33.3363 8.98059C33.3135 8.99036 33.2878 8.99524 33.2592 8.99524C33.2234 8.99524 33.192 8.98824 33.1649 8.97424C33.1382 8.96025 33.1174 8.94153 33.1024 8.91809C33.0878 8.89433 33.0805 8.8678 33.0805 8.8385C33.0805 8.81018 33.086 8.78528 33.0971 8.76379C33.1081 8.74198 33.1241 8.72392 33.1449 8.70959C33.1658 8.69495 33.1908 8.68388 33.2201 8.67639C33.2494 8.6689 33.2821 8.66516 33.3183 8.66516H33.4232ZM33.7415 8.93762C33.7415 8.92232 33.7462 8.90946 33.7557 8.89905C33.7654 8.88831 33.7794 8.88293 33.7977 8.88293C33.8159 8.88293 33.8297 8.88831 33.8392 8.89905C33.8489 8.90946 33.8538 8.92232 33.8538 8.93762C33.8538 8.9526 33.8489 8.96529 33.8392 8.97571C33.8297 8.98612 33.8159 8.99133 33.7977 8.99133C33.7794 8.99133 33.7654 8.98612 33.7557 8.97571C33.7462 8.96529 33.7415 8.9526 33.7415 8.93762ZM34.2385 8.98547H34.1481V8.40149C34.1481 8.3634 34.155 8.33134 34.1687 8.3053C34.1826 8.27893 34.2027 8.25907 34.2287 8.24573C34.2548 8.23206 34.2857 8.22522 34.3215 8.22522C34.3319 8.22522 34.3423 8.22587 34.3527 8.22717C34.3635 8.22847 34.3739 8.23043 34.384 8.23303L34.3791 8.30676C34.3723 8.30514 34.3645 8.304 34.3557 8.30334C34.3472 8.30269 34.3387 8.30237 34.3303 8.30237C34.3111 8.30237 34.2945 8.30627 34.2805 8.31409C34.2668 8.32157 34.2564 8.33264 34.2492 8.34729C34.2421 8.36194 34.2385 8.38 34.2385 8.40149V8.98547ZM34.3508 8.45715V8.52649H34.0646V8.45715H34.3508ZM34.8746 8.8634V8.45715H34.9654V8.98547H34.879L34.8746 8.8634ZM34.8917 8.75208L34.9293 8.7511C34.9293 8.78625 34.9256 8.81881 34.9181 8.84875C34.9109 8.87838 34.8992 8.90409 34.8829 8.9259C34.8666 8.94771 34.8453 8.9648 34.8189 8.97717C34.7926 8.98922 34.7605 8.99524 34.7228 8.99524C34.697 8.99524 34.6734 8.9915 34.652 8.98401C34.6308 8.97652 34.6126 8.96497 34.5973 8.94934C34.582 8.93372 34.5701 8.91337 34.5616 8.88831C34.5535 8.86324 34.5494 8.83313 34.5494 8.79797V8.45715H34.6397V8.79895C34.6397 8.82271 34.6424 8.84241 34.6476 8.85803C34.6531 8.87333 34.6604 8.88554 34.6695 8.89465C34.679 8.90344 34.6894 8.90963 34.7008 8.91321C34.7125 8.91679 34.7245 8.91858 34.7369 8.91858C34.7753 8.91858 34.8058 8.91125 34.8282 8.89661C34.8507 8.88163 34.8668 8.86161 34.8766 8.83655C34.8867 8.81116 34.8917 8.783 34.8917 8.75208ZM35.2935 8.56995V8.98547H35.2031V8.45715H35.2886L35.2935 8.56995ZM35.272 8.70129L35.2344 8.69983C35.2347 8.6637 35.2401 8.63033 35.2505 8.59973C35.2609 8.56881 35.2756 8.54195 35.2944 8.51917C35.3133 8.49638 35.3358 8.4788 35.3618 8.46643C35.3882 8.45374 35.4173 8.44739 35.4492 8.44739C35.4753 8.44739 35.4987 8.45097 35.5195 8.45813C35.5404 8.46497 35.5581 8.47603 35.5728 8.49133C35.5877 8.50663 35.5991 8.52649 35.6069 8.5509C35.6147 8.57499 35.6187 8.60445 35.6187 8.63928V8.98547H35.5278V8.63831C35.5278 8.61064 35.5238 8.5885 35.5156 8.5719C35.5075 8.55497 35.4956 8.54277 35.48 8.53528C35.4644 8.52747 35.4451 8.52356 35.4224 8.52356C35.3999 8.52356 35.3794 8.52828 35.3608 8.53772C35.3426 8.54716 35.3268 8.56018 35.3135 8.57678C35.3005 8.59338 35.2902 8.61243 35.2827 8.63391C35.2756 8.65507 35.272 8.67753 35.272 8.70129ZM36.1889 8.88293V8.23547H36.2797V8.98547H36.1967L36.1889 8.88293ZM35.8334 8.72717V8.71692C35.8334 8.67655 35.8383 8.63993 35.848 8.60706C35.8581 8.57385 35.8723 8.54537 35.8905 8.52161C35.9091 8.49784 35.9311 8.47961 35.9564 8.46692C35.9822 8.4539 36.0108 8.44739 36.0424 8.44739C36.0756 8.44739 36.1046 8.45325 36.1293 8.46497C36.1544 8.47636 36.1755 8.49312 36.1928 8.51526C36.2104 8.53707 36.2242 8.56344 36.2343 8.59436C36.2444 8.62528 36.2514 8.66028 36.2553 8.69934V8.74426C36.2517 8.783 36.2447 8.81783 36.2343 8.84875C36.2242 8.87968 36.2104 8.90605 36.1928 8.92786C36.1755 8.94967 36.1544 8.96643 36.1293 8.97815C36.1042 8.98954 36.0749 8.99524 36.0414 8.99524C36.0105 8.99524 35.9822 8.98857 35.9564 8.97522C35.9311 8.96187 35.9091 8.94316 35.8905 8.91907C35.8723 8.89498 35.8581 8.86666 35.848 8.83411C35.8383 8.80123 35.8334 8.76558 35.8334 8.72717ZM35.9242 8.71692V8.72717C35.9242 8.75354 35.9268 8.77828 35.932 8.80139C35.9376 8.8245 35.946 8.84485 35.9574 8.86243C35.9688 8.88 35.9833 8.89384 36.0009 8.90393C36.0185 8.9137 36.0395 8.91858 36.0639 8.91858C36.0938 8.91858 36.1184 8.91223 36.1376 8.89954C36.1571 8.88684 36.1728 8.87008 36.1845 8.84924C36.1962 8.82841 36.2053 8.80579 36.2118 8.78137V8.6637C36.2079 8.64579 36.2022 8.62854 36.1947 8.61194C36.1876 8.59501 36.1781 8.58004 36.1664 8.56702C36.155 8.55367 36.1409 8.54309 36.1239 8.53528C36.1073 8.52747 36.0876 8.52356 36.0648 8.52356C36.0401 8.52356 36.0188 8.52877 36.0009 8.53918C35.9833 8.54928 35.9688 8.56327 35.9574 8.58118C35.946 8.59875 35.9376 8.61926 35.932 8.6427C35.9268 8.66581 35.9242 8.69055 35.9242 8.71692ZM36.5218 8.93762C36.5218 8.92232 36.5265 8.90946 36.5359 8.89905C36.5457 8.88831 36.5597 8.88293 36.5779 8.88293C36.5962 8.88293 36.61 8.88831 36.6194 8.89905C36.6292 8.90946 36.6341 8.92232 36.6341 8.93762C36.6341 8.9526 36.6292 8.96529 36.6194 8.97571C36.61 8.98612 36.5962 8.99133 36.5779 8.99133C36.5597 8.99133 36.5457 8.98612 36.5359 8.97571C36.5265 8.96529 36.5218 8.9526 36.5218 8.93762ZM36.8835 8.23547H36.9743V8.88293L36.9665 8.98547H36.8835V8.23547ZM37.3313 8.71692V8.72717C37.3313 8.76558 37.3267 8.80123 37.3176 8.83411C37.3085 8.86666 37.2951 8.89498 37.2775 8.91907C37.26 8.94316 37.2385 8.96187 37.2131 8.97522C37.1877 8.98857 37.1586 8.99524 37.1257 8.99524C37.0922 8.99524 37.0627 8.98954 37.0373 8.97815C37.0122 8.96643 36.9911 8.94967 36.9738 8.92786C36.9566 8.90605 36.9427 8.87968 36.9323 8.84875C36.9222 8.81783 36.9152 8.783 36.9113 8.74426V8.69934C36.9152 8.66028 36.9222 8.62528 36.9323 8.59436C36.9427 8.56344 36.9566 8.53707 36.9738 8.51526C36.9911 8.49312 37.0122 8.47636 37.0373 8.46497C37.0624 8.45325 37.0915 8.44739 37.1247 8.44739C37.1579 8.44739 37.1874 8.4539 37.2131 8.46692C37.2388 8.47961 37.2603 8.49784 37.2775 8.52161C37.2951 8.54537 37.3085 8.57385 37.3176 8.60706C37.3267 8.63993 37.3313 8.67655 37.3313 8.71692ZM37.2404 8.72717V8.71692C37.2404 8.69055 37.238 8.66581 37.2331 8.6427C37.2282 8.61926 37.2204 8.59875 37.2097 8.58118C37.1989 8.56327 37.1848 8.54928 37.1672 8.53918C37.1496 8.52877 37.128 8.52356 37.1022 8.52356C37.0795 8.52356 37.0596 8.52747 37.0427 8.53528C37.0261 8.54309 37.0119 8.55367 37.0002 8.56702C36.9885 8.58004 36.9789 8.59501 36.9714 8.61194C36.9642 8.62854 36.9589 8.64579 36.9553 8.6637V8.78137C36.9605 8.80416 36.9689 8.82613 36.9807 8.84729C36.9927 8.86812 37.0087 8.88521 37.0285 8.89856C37.0487 8.91191 37.0736 8.91858 37.1032 8.91858C37.1276 8.91858 37.1485 8.9137 37.1657 8.90393C37.1833 8.89384 37.1975 8.88 37.2082 8.86243C37.2193 8.84485 37.2274 8.8245 37.2326 8.80139C37.2378 8.77828 37.2404 8.75354 37.2404 8.72717ZM37.6358 8.54016V8.98547H37.5455V8.45715H37.6334L37.6358 8.54016ZM37.8009 8.45422L37.8004 8.53821C37.7929 8.53658 37.7857 8.5356 37.7789 8.53528C37.7724 8.53463 37.7649 8.5343 37.7564 8.5343C37.7356 8.5343 37.7172 8.53756 37.7013 8.54407C37.6853 8.55058 37.6718 8.55969 37.6607 8.57141C37.6497 8.58313 37.6409 8.59713 37.6344 8.6134C37.6282 8.62935 37.6241 8.64693 37.6222 8.66614L37.5968 8.68079C37.5968 8.64889 37.5999 8.61894 37.6061 8.59094C37.6126 8.56295 37.6225 8.53821 37.6358 8.51672C37.6492 8.49491 37.6661 8.47799 37.6866 8.46594C37.7075 8.45357 37.7322 8.44739 37.7608 8.44739C37.7673 8.44739 37.7748 8.4482 37.7833 8.44983C37.7918 8.45113 37.7976 8.4526 37.8009 8.45422ZM38.0752 8.23547V8.98547H37.9844V8.23547H38.0752ZM38.3979 8.45715L38.1675 8.70374L38.0386 8.83752L38.0312 8.74133L38.1235 8.63098L38.2876 8.45715H38.3979ZM38.3154 8.98547L38.127 8.73352L38.1738 8.65295L38.4219 8.98547H38.3154ZM38.8783 8.27063V8.98547H38.788V8.38342L38.6059 8.44983V8.36829L38.8642 8.27063H38.8783ZM39.5682 8.27454L39.2718 9.04651H39.1941L39.491 8.27454H39.5682Z" fill="#202124"/>
<path fill-rule="evenodd" clip-rule="evenodd" d="M32.4112 25.3926C32.1833 25.3926 32 25.1246 32 24.7963C32 24.4679 32.1833 24.2001 32.4112 24.2001H46.5885C46.8164 24.2001 46.9997 24.4679 46.9997 24.7963C46.9997 25.1246 46.8164 25.3926 46.5885 25.3926H32.4112ZM32.4114 29C32.1836 29 32 28.7324 32 28.4037C32 28.0754 32.1836 27.8076 32.4114 27.8076H46.5885C46.8164 27.8076 47 28.0754 47 28.4037C47 28.7324 46.8164 29 46.5885 29H32.4114ZM32.4112 18.1924C32.1833 18.1924 32 17.9246 32 17.5962C32 17.2676 32.1833 17 32.4112 17H42.5679C42.7957 17 42.9793 17.2676 42.9793 17.5962C42.9793 17.9246 42.7957 18.1924 42.5679 18.1924H32.4112ZM32.4112 21.7925C32.1833 21.7925 32 21.5249 32 21.1963C32 20.868 32.1833 20.6001 32.4112 20.6001H46.5739C46.8017 20.6001 46.9851 20.868 46.9851 21.1963C46.9851 21.5249 46.8017 21.7925 46.5739 21.7925H32.4112Z" fill="#D6D6D6"/>
<path d="M27.998 24.1635C27.977 24.3726 27.785 24.4772 27.6214 24.5723C27.4693 24.6598 27.3172 24.7492 27.1669 24.8366C26.9235 24.9774 26.682 25.1181 26.4386 25.2588C26.1344 25.4357 25.832 25.6125 25.5277 25.7875C25.1931 25.9814 24.8584 26.1773 24.5218 26.3713C24.1852 26.5671 23.8486 26.763 23.5101 26.9589C23.2001 27.1395 22.8921 27.3183 22.5821 27.4989C22.3292 27.6453 22.0782 27.7918 21.8253 27.9382C21.6598 28.0333 21.4944 28.1303 21.3289 28.2253C21.2034 28.2976 21.0855 28.3699 20.9429 28.4117C20.5721 28.5182 20.1613 28.4821 19.8266 28.2881C19.7068 28.2177 19.5851 28.1493 19.4653 28.0789C19.2447 27.9515 19.0261 27.826 18.8055 27.6986C18.5164 27.5312 18.2274 27.3639 17.9383 27.1985C17.6093 27.0083 17.2785 26.8181 16.9495 26.628C16.6091 26.4321 16.2687 26.2343 15.9283 26.0385C15.6069 25.8521 15.2856 25.6677 14.9623 25.4813L14.1408 25.0078C13.9449 24.8937 13.7471 24.7815 13.5513 24.6674C13.4619 24.616 13.3725 24.5647 13.2831 24.5115C13.1424 24.4297 13.0036 24.3004 13.0036 24.1254C13.0036 24.2852 13.0036 24.4449 13.0017 24.6065C13.0017 24.6636 12.9979 24.7225 13.0017 24.7815C13.0131 24.9355 13.1348 25.0553 13.2622 25.1314C13.3402 25.1789 13.42 25.2227 13.4999 25.2683C13.7053 25.3862 13.9107 25.506 14.116 25.6239C14.4127 25.7951 14.7075 25.9662 15.0041 26.1374C15.3559 26.3408 15.7096 26.5443 16.0614 26.7478C16.4284 26.9608 16.7954 27.1718 17.1644 27.3848C17.5143 27.5864 17.8623 27.788 18.2122 27.9895C18.5031 28.1569 18.7922 28.3242 19.0831 28.4916C19.279 28.6057 19.4767 28.7179 19.6726 28.832C19.7867 28.8966 19.8989 28.9708 20.0225 29.0164C20.4085 29.1571 20.8611 29.1267 21.2167 28.9194C21.3518 28.8415 21.4868 28.7616 21.6218 28.6836C21.8709 28.5391 22.12 28.3946 22.3672 28.2501C22.6924 28.0618 23.0157 27.8735 23.3409 27.6834C23.7041 27.4723 24.0673 27.2612 24.4286 27.0501L25.5182 26.4169C25.8434 26.2267 26.1686 26.0385 26.4957 25.8483C26.7486 25.7019 27.0015 25.5555 27.2544 25.4071C27.3932 25.3254 27.534 25.2455 27.6728 25.1637C27.7146 25.139 27.7584 25.1143 27.7983 25.0858C27.9048 25.0059 27.9885 24.8956 27.9904 24.7568C27.9923 24.6864 27.9904 24.618 27.9904 24.5476C27.9904 24.4088 27.9904 24.268 27.9923 24.1292C27.9999 24.1425 27.998 24.154 27.998 24.1635C27.998 24.1673 27.998 24.1578 27.998 24.1635Z" fill="#A0A8BE"/>
<path d="M27.7277 23.7526C28.089 23.9618 28.0909 24.3022 27.7315 24.5114L21.1822 28.3185C20.8228 28.5276 20.2352 28.5276 19.8739 28.3185L13.281 24.5114C12.9197 24.3022 12.9178 23.9618 13.2772 23.7526L19.8264 19.9456C20.1858 19.7364 20.7734 19.7364 21.1347 19.9456L27.7277 23.7526Z" fill="#E4ECF9"/>
<path d="M21.692 20.6797C21.7129 20.6778 21.7339 20.674 21.7529 20.6721C21.7719 20.6702 21.7928 20.6683 21.8099 20.6664H21.8137C21.8327 20.6645 21.8499 20.6626 21.867 20.6626H21.9335C21.9449 20.6626 21.9564 20.6645 21.9678 20.6664C21.9697 20.6664 21.9735 20.6664 21.9754 20.6683C21.983 20.6702 21.9887 20.6721 21.9963 20.674C22.0001 20.674 22.002 20.6759 22.0058 20.6759C22.0115 20.6778 22.0172 20.6797 22.021 20.6816C22.0229 20.6835 22.0267 20.6835 22.0286 20.6854C22.0343 20.6873 22.0381 20.6892 22.0438 20.693C22.0476 20.6949 22.0495 20.6968 22.0533 20.6968L21.7377 20.5123L21.7358 20.5104C21.7339 20.5085 21.732 20.5085 21.7301 20.5066C21.7263 20.5047 21.7205 20.5009 21.7148 20.499C21.7148 20.499 21.7129 20.499 21.7129 20.4971C21.711 20.4971 21.7091 20.4952 21.7072 20.4952C21.7015 20.4933 21.6958 20.4914 21.692 20.4895C21.6901 20.4895 21.6901 20.4876 21.6882 20.4876C21.6863 20.4876 21.6844 20.4876 21.6825 20.4857C21.6749 20.4838 21.6692 20.4819 21.6616 20.48C21.6597 20.48 21.6578 20.48 21.6559 20.4781H21.654C21.6426 20.4762 21.6312 20.4743 21.6198 20.4743H21.6122C21.5931 20.4724 21.5741 20.4724 21.5551 20.4743H21.5532H21.5513C21.5342 20.4743 21.5152 20.4762 21.4981 20.4781H21.4943L21.4372 20.4838C21.4163 20.4857 21.3954 20.4895 21.3745 20.4914H21.3706C21.3497 20.4933 21.3269 20.4971 21.3041 20.499C21.0207 20.5237 20.707 20.5447 20.4236 20.5713C20.3438 20.5922 20.262 20.6131 20.1821 20.634L20.4978 20.8185C20.5777 20.7976 20.6594 20.7767 20.7393 20.7557C21.0207 20.7272 21.3364 20.7082 21.6198 20.6835C21.6426 20.6816 21.6654 20.6797 21.6863 20.6759C21.6882 20.6797 21.6901 20.6797 21.692 20.6797Z" fill="#403572"/>
<path d="M20.469 20.8109L20.1533 20.6264H20.1552L20.469 20.8109Z" fill="#28289E"/>
<path d="M20.4714 20.8109L20.1558 20.6264L20.1672 20.6321L20.4828 20.8166C20.479 20.8166 20.4752 20.8128 20.4714 20.8109Z" fill="#2929A3"/>
<path d="M20.4827 20.8166L20.167 20.6321C20.1708 20.634 20.1746 20.634 20.1765 20.6359L20.4922 20.8204C20.4903 20.8204 20.4865 20.8185 20.4827 20.8166Z" fill="#2A2AA8"/>
<path d="M20.4924 20.8204L20.1768 20.6359C20.1787 20.6359 20.1806 20.6378 20.1825 20.6378L20.4981 20.8223C20.4981 20.8223 20.4962 20.8223 20.4924 20.8204Z" fill="#2C2CAD"/>
<path d="M20.1023 20.5656L19.7866 20.3811C19.7885 20.3811 19.7885 20.3792 19.7904 20.3792L20.1061 20.5637C20.1042 20.5637 20.1023 20.5656 20.1023 20.5656Z" fill="#2A2ABC"/>
<path d="M20.1062 20.5637L19.7905 20.3792C19.8286 20.364 19.8666 20.3488 19.9046 20.3317L20.2203 20.5161C20.1823 20.5332 20.1442 20.5485 20.1062 20.5637Z" fill="#403572"/>
<path d="M20.22 20.5161L19.9043 20.3317C19.9157 20.326 19.929 20.3222 19.9404 20.3165L20.2561 20.5009C20.2428 20.5066 20.2314 20.5123 20.22 20.5161Z" fill="#403572"/>
<path d="M18.6723 21.0828C18.6571 20.9117 18.6419 20.7424 18.6267 20.5713L18.311 20.3868C18.3262 20.558 18.3415 20.7272 18.3567 20.8983C18.3947 20.9953 18.4841 20.9573 18.5107 21.1094L18.8264 21.2939C18.7998 21.1418 18.7104 21.1798 18.6723 21.0828Z" fill="#403572"/>
<path d="M18.5109 21.1113L18.3968 21.2102C18.393 21.2216 18.3892 21.2349 18.3854 21.2482C18.3816 21.2578 18.3778 21.2692 18.3759 21.2806C18.374 21.2863 18.3721 21.2939 18.3702 21.2996C18.3664 21.3091 18.3645 21.3186 18.3607 21.3281C18.3588 21.3338 18.3569 21.3376 18.355 21.3433C18.3512 21.3585 18.3455 21.3719 18.3398 21.3871C18.3398 21.389 18.3398 21.389 18.3379 21.3909L18.3093 21.4764V21.4783C18.2998 21.5069 18.2884 21.5354 18.2789 21.5639C18.2789 21.5658 18.2789 21.5658 18.277 21.5677C18.2656 21.5962 18.2542 21.6229 18.2428 21.6495C18.2409 21.6533 18.239 21.6552 18.239 21.659C18.2333 21.6723 18.2276 21.6837 18.2219 21.697C18.22 21.7027 18.2181 21.7065 18.2143 21.7122C18.2105 21.7199 18.2086 21.7256 18.2048 21.7313C18.201 21.737 18.199 21.7427 18.1952 21.7484L18.1895 21.7598C18.1857 21.7674 18.1819 21.7731 18.1781 21.7807C18.1762 21.7826 18.1762 21.7845 18.1743 21.7864C18.1686 21.7959 18.1629 21.8035 18.1572 21.8111C18.0773 21.8834 17.9956 21.9557 17.9157 22.0279C17.6343 22.3265 17.3205 22.6688 17.0372 22.9692C17.0086 22.9996 16.982 23.0282 16.9535 23.0548L16.944 23.0643C16.9154 23.0928 16.8888 23.1214 16.8622 23.148C16.8375 23.1727 16.8147 23.1974 16.7899 23.2221C16.7861 23.2259 16.7823 23.2316 16.7766 23.2355L16.7082 23.3096L16.7044 23.3134C16.7025 23.3153 16.7006 23.3191 16.6987 23.321C16.6815 23.34 16.6644 23.361 16.6492 23.3819C16.6473 23.3838 16.6454 23.3876 16.6435 23.3895C16.6435 23.3914 16.6416 23.3914 16.6416 23.3933C16.634 23.4028 16.6264 23.4142 16.6188 23.4237C16.615 23.4294 16.6093 23.4351 16.6055 23.4427L16.6036 23.4446C16.5998 23.4484 16.5979 23.4541 16.5941 23.4579C16.5884 23.4675 16.5808 23.477 16.5751 23.4865C16.5732 23.4884 16.5713 23.4922 16.5713 23.4941C16.5694 23.4979 16.5655 23.5036 16.5636 23.5074C16.5598 23.5131 16.556 23.5188 16.5522 23.5264C16.5484 23.5321 16.5446 23.5397 16.5408 23.5454L16.5351 23.5568C16.5332 23.5587 16.5332 23.5606 16.5313 23.5625C16.5256 23.5739 16.518 23.5873 16.5123 23.5987C16.5104 23.6006 16.5104 23.6025 16.5104 23.6044C16.5085 23.6082 16.5066 23.612 16.5066 23.6139C16.5028 23.6215 16.5009 23.6272 16.4971 23.6348C16.4933 23.6424 16.4895 23.6519 16.4876 23.6595C16.4857 23.6633 16.4857 23.6671 16.4838 23.669C16.4838 23.6709 16.4819 23.6728 16.4819 23.6747C16.4762 23.6899 16.4705 23.7033 16.4667 23.7185C16.4667 23.7204 16.4648 23.7223 16.4648 23.7242L16.4591 23.7413C16.4553 23.7508 16.4534 23.7603 16.4495 23.7698C16.4476 23.7774 16.4457 23.7869 16.4419 23.7945C16.4419 24.0075 16.4267 24.732 16.4324 25.0078L16.7481 25.1922C16.7424 24.9146 16.7576 24.192 16.7576 23.979C16.7614 23.96 16.7671 23.9429 16.7728 23.9238L16.7785 23.9067C16.7842 23.8877 16.7918 23.8687 16.7975 23.8516C16.7994 23.8478 16.7994 23.844 16.8013 23.8421C16.8071 23.8269 16.8147 23.8116 16.8204 23.7964C16.8223 23.7926 16.8242 23.7888 16.8242 23.7869C16.8318 23.7698 16.8413 23.7546 16.8489 23.7375L16.8546 23.7261C16.8622 23.7128 16.8698 23.7014 16.8774 23.688C16.8793 23.6842 16.8831 23.6785 16.885 23.6747C16.8926 23.6633 16.9002 23.65 16.9078 23.6386C16.9116 23.6348 16.9135 23.6291 16.9173 23.6253C16.9231 23.6177 16.9269 23.612 16.9326 23.6044C16.9402 23.5949 16.9478 23.5835 16.9554 23.5739C16.9573 23.5701 16.9611 23.5663 16.9649 23.5625C16.9801 23.5416 16.9972 23.5226 17.0143 23.5017L17.0257 23.4903C17.0486 23.4655 17.0695 23.4408 17.0942 23.4161C17.098 23.4123 17.1018 23.4066 17.1075 23.4028C17.1303 23.3781 17.1551 23.3534 17.1798 23.3286C17.2064 23.302 17.2349 23.2735 17.2615 23.245L17.2711 23.2355C17.2977 23.2069 17.3262 23.1784 17.3547 23.148C17.6381 22.8456 17.9499 22.5033 18.2333 22.2067C18.3131 22.1344 18.3949 22.0621 18.4748 21.9899C18.4767 21.988 18.4767 21.9861 18.4786 21.9842L18.49 21.9671C18.49 21.9652 18.4919 21.9652 18.4919 21.9633C18.4938 21.9614 18.4938 21.9595 18.4957 21.9576C18.4976 21.9538 18.4995 21.9499 18.5033 21.9461C18.5052 21.9423 18.5071 21.9404 18.509 21.9366L18.5147 21.9252C18.5166 21.9233 18.5166 21.9214 18.5185 21.9195L18.5242 21.9081C18.528 21.9024 18.5299 21.8948 18.5337 21.8891C18.5356 21.8872 18.5356 21.8853 18.5375 21.8815C18.5394 21.8796 18.5394 21.8758 18.5413 21.8739C18.547 21.8625 18.5528 21.8492 18.5585 21.8359C18.5604 21.8339 18.5604 21.832 18.5623 21.8282C18.5623 21.8282 18.5623 21.8263 18.5642 21.8263C18.5756 21.7997 18.587 21.7731 18.5984 21.7446V21.7427V21.7408C18.6098 21.7122 18.6193 21.6837 18.6288 21.6552V21.6533C18.6383 21.6248 18.6497 21.5962 18.6573 21.5677C18.6573 21.5658 18.6573 21.5658 18.6592 21.5639C18.6649 21.5487 18.6688 21.5335 18.6745 21.5202C18.6764 21.5145 18.6783 21.5107 18.6802 21.505C18.684 21.4955 18.6859 21.4859 18.6897 21.4764C18.6916 21.4707 18.6935 21.4631 18.6954 21.4574C18.6992 21.446 18.703 21.4346 18.7049 21.4251C18.7087 21.4118 18.7125 21.3985 18.7163 21.3871L18.8304 21.2882L18.5109 21.1113ZM20.3555 17.1959L20.0398 17.0114H20.0379L20.0265 17.0057C20.0246 17.0057 20.0227 17.0038 20.0227 17.0038H20.0208C20.0208 17.0038 20.0189 17.0038 20.0189 17.0019C20.0151 17.0019 20.0132 17 20.0094 17H20.0037L19.823 17.0685L19.7108 17.0114C19.6975 17.0095 19.6842 17.0076 19.669 17.0076H19.6063C19.6025 17.0076 19.5986 17.0076 19.5948 17.0095C19.5815 17.0095 19.5701 17.0114 19.5568 17.0133C19.5511 17.0133 19.5435 17.0133 19.5378 17.0152C19.534 17.0152 19.5283 17.0171 19.5245 17.0171C19.5207 17.0171 19.515 17.019 19.5112 17.019C19.4922 17.0228 19.475 17.0266 19.456 17.0323H19.4541C19.4503 17.0342 19.4465 17.0342 19.4427 17.0361C19.4256 17.0399 19.4104 17.0456 19.3933 17.0513C19.3857 17.0532 19.38 17.057 19.3724 17.059L19.3438 17.0704C19.34 17.0723 19.3381 17.0723 19.3343 17.0742C19.3191 17.0799 19.3039 17.0875 19.2887 17.0951C19.2811 17.0989 19.2735 17.1027 19.2659 17.1046C19.243 17.116 19.2202 17.1274 19.1993 17.1407C19.1784 17.1521 19.1575 17.1654 19.1366 17.1788L19.1194 17.1902C19.1042 17.1997 19.089 17.2111 19.0719 17.2225C19.0662 17.2263 19.0624 17.2301 19.0567 17.2339C19.0377 17.2472 19.0168 17.2624 18.9977 17.2776C18.9939 17.2795 18.9901 17.2833 18.9882 17.2852C18.9711 17.2986 18.9559 17.31 18.9407 17.3233C18.935 17.3271 18.9293 17.3328 18.9236 17.3366C18.9084 17.3499 18.8931 17.3613 18.8779 17.3746C18.8741 17.3784 18.8703 17.3803 18.8665 17.3841C18.8475 17.3993 18.8304 17.4165 18.8133 17.4317C18.8095 17.4355 18.8038 17.4393 18.8 17.4431C18.7867 17.4564 18.7733 17.4678 18.76 17.4811C18.7543 17.4849 18.7505 17.4906 18.7448 17.4944C18.7296 17.5096 18.7144 17.5249 18.6992 17.5382L18.6973 17.5401L18.6535 17.5838C18.6497 17.5876 18.6459 17.5914 18.6421 17.5971L18.6117 17.6275C18.6079 17.6332 18.6022 17.637 18.5984 17.6409L18.5699 17.6694L18.5604 17.6789C18.5489 17.6922 18.5356 17.7036 18.5242 17.715L18.8399 17.8995C18.8513 17.8881 18.8627 17.8748 18.876 17.8633C18.8798 17.8595 18.8817 17.8557 18.8855 17.8538L18.9141 17.8253L18.9274 17.812C18.9369 17.8025 18.9464 17.7911 18.9578 17.7816C18.9616 17.7778 18.9654 17.7721 18.9711 17.7683L19.0148 17.7245L19.0187 17.7207C19.0339 17.7055 19.0491 17.6922 19.0643 17.677C19.07 17.6732 19.0738 17.6675 19.0795 17.6637C19.0928 17.6504 19.1061 17.6389 19.1194 17.6256C19.1232 17.6218 19.1289 17.618 19.1327 17.6142C19.1499 17.599 19.1689 17.5819 19.186 17.5667C19.1898 17.5629 19.1936 17.561 19.1974 17.5572C19.2126 17.5439 19.2278 17.5306 19.243 17.5191C19.2487 17.5153 19.2545 17.5096 19.2602 17.5058C19.2754 17.4925 19.2925 17.4811 19.3077 17.4678C19.3115 17.4659 19.3153 17.4621 19.3191 17.4602C19.3381 17.445 19.3571 17.4317 19.3781 17.4165C19.3838 17.4127 19.3876 17.4089 19.3933 17.405C19.4085 17.3936 19.4237 17.3841 19.4408 17.3727L19.4579 17.3613C19.4788 17.348 19.4998 17.3347 19.5207 17.3233C19.5435 17.31 19.5663 17.2986 19.5872 17.2871C19.5948 17.2833 19.6025 17.2795 19.6101 17.2776C19.6253 17.27 19.6405 17.2624 19.6557 17.2567C19.6671 17.251 19.6804 17.2472 19.6918 17.2415C19.6994 17.2396 19.7051 17.2358 19.7127 17.2339C19.7299 17.2282 19.7451 17.2225 19.7622 17.2187C19.766 17.2168 19.7698 17.2168 19.7736 17.2149C19.7926 17.2092 19.8116 17.2054 19.8306 17.2016C19.8345 17.2016 19.8402 17.1997 19.844 17.1997C19.8554 17.1978 19.8668 17.1959 19.8763 17.1959C19.8896 17.194 19.901 17.1921 19.9143 17.1921C19.9257 17.1921 19.9352 17.1921 19.9466 17.1902H19.9771C19.9942 17.1902 20.0132 17.1921 20.0303 17.194L20.1425 17.251L20.3232 17.1826C20.3289 17.1826 20.3346 17.1845 20.3422 17.1864H20.3441C20.3441 17.1902 20.3498 17.194 20.3555 17.1959ZM18.3721 19.4303C18.3721 19.4246 18.3702 19.417 18.3702 19.4113C18.3664 19.3808 18.3626 19.3523 18.3607 19.3238C18.3607 19.3162 18.3588 19.3105 18.3588 19.3029C18.3569 19.2801 18.355 19.2572 18.355 19.2344C18.355 19.2268 18.355 19.2192 18.3531 19.2116C18.3512 19.1831 18.3512 19.1565 18.3512 19.1279V19.1222C18.3512 19.0975 18.3512 19.0709 18.3531 19.0462V19.0233C18.355 19.0005 18.355 18.9796 18.3569 18.9587C18.3569 18.9549 18.3569 18.9492 18.3588 18.9435C18.3607 18.9187 18.3645 18.8921 18.3664 18.8674C18.3664 18.8598 18.3683 18.8522 18.3702 18.8465C18.3721 18.8313 18.374 18.8161 18.3778 18.8027C18.3797 18.7951 18.3797 18.7875 18.3816 18.7799C18.3835 18.7647 18.3873 18.7514 18.3892 18.7362C18.3911 18.7305 18.3911 18.7229 18.393 18.7172C18.3987 18.6867 18.4063 18.6582 18.4139 18.6297C18.4158 18.624 18.4177 18.6183 18.4177 18.6126C18.4253 18.5879 18.431 18.565 18.4387 18.5422C18.4387 18.5403 18.4387 18.5403 18.4406 18.5384C18.4463 18.5194 18.4539 18.5004 18.4615 18.4814C18.4634 18.4757 18.4672 18.4681 18.4691 18.4624C18.4748 18.449 18.4786 18.4357 18.4843 18.4243C18.4862 18.4186 18.49 18.411 18.4919 18.4053C18.4976 18.3939 18.5033 18.3806 18.509 18.3692C18.5109 18.3635 18.5147 18.3578 18.5166 18.3521C18.5242 18.3368 18.5318 18.3216 18.5394 18.3083C18.5413 18.3064 18.5413 18.3045 18.5432 18.3026C18.5528 18.2855 18.5623 18.2703 18.5718 18.2532C18.5737 18.2494 18.5775 18.2437 18.5794 18.2399C18.587 18.2285 18.5946 18.2151 18.6003 18.2037C18.6041 18.198 18.6079 18.1923 18.6098 18.1866C18.6174 18.1752 18.625 18.1619 18.6345 18.1505C18.6383 18.1467 18.6402 18.141 18.644 18.1372C18.6573 18.1201 18.6688 18.1029 18.6821 18.0858C18.684 18.0839 18.6859 18.0801 18.6878 18.0782L18.7391 18.0155C18.7391 18.0155 18.7391 18.0136 18.741 18.0136C18.7676 17.9831 18.7943 17.9546 18.8209 17.928L18.8418 17.9071L18.5261 17.7226L18.509 17.7397L18.5052 17.7435C18.4767 17.7702 18.4501 17.7987 18.4253 17.8291L18.4234 17.831C18.4063 17.8519 18.3892 17.8709 18.3721 17.8938C18.3702 17.8957 18.3702 17.8976 18.3683 17.8995L18.3664 17.9014C18.3531 17.9185 18.3398 17.9356 18.3284 17.9527C18.3265 17.9546 18.3265 17.9565 18.3246 17.9565C18.3227 17.9603 18.3208 17.9622 18.3189 17.966C18.3112 17.9774 18.3036 17.9888 18.2941 18.0022C18.2922 18.006 18.2903 18.0079 18.2884 18.0117C18.2865 18.0136 18.2865 18.0155 18.2846 18.0193C18.277 18.0307 18.2694 18.0421 18.2637 18.0554L18.258 18.0668C18.258 18.0687 18.2561 18.0687 18.2561 18.0706C18.2466 18.0877 18.2371 18.1029 18.2276 18.1201C18.2257 18.122 18.2257 18.1239 18.2238 18.1258C18.2162 18.141 18.2086 18.1543 18.201 18.1695C18.201 18.1714 18.199 18.1714 18.199 18.1733C18.1971 18.1771 18.1952 18.1809 18.1933 18.1866C18.1876 18.198 18.1819 18.2113 18.1762 18.2227C18.1743 18.2247 18.1743 18.2285 18.1724 18.2304C18.1705 18.2342 18.1686 18.238 18.1686 18.2418C18.1629 18.2551 18.1572 18.2665 18.1534 18.2798L18.1477 18.2912C18.1477 18.2931 18.1458 18.2969 18.1458 18.2988C18.1382 18.3178 18.1325 18.3368 18.1249 18.3559C18.1249 18.3578 18.1249 18.3578 18.123 18.3597C18.1154 18.3825 18.1078 18.4072 18.1021 18.43C18.1021 18.4338 18.1002 18.4357 18.1002 18.4395C18.1002 18.4414 18.0983 18.4452 18.0983 18.4471C18.0907 18.4757 18.083 18.5042 18.0773 18.5346C18.0773 18.5365 18.0773 18.5384 18.0754 18.5403C18.0735 18.546 18.0735 18.5498 18.0735 18.5555C18.0697 18.5688 18.0678 18.5841 18.0659 18.5993C18.064 18.6069 18.064 18.6145 18.0621 18.624C18.0602 18.6392 18.0583 18.6544 18.0564 18.6677C18.0564 18.6734 18.0545 18.6772 18.0545 18.6829V18.6886C18.0507 18.7134 18.0488 18.7381 18.0469 18.7647C18.0469 18.7685 18.0469 18.7742 18.045 18.7799C18.0431 18.8008 18.0412 18.8237 18.0412 18.8446V18.8674C18.0412 18.8921 18.0393 18.9168 18.0393 18.9416V18.9492C18.0393 18.9758 18.0412 19.0043 18.0412 19.0328C18.0412 19.0405 18.0412 19.0481 18.0431 19.0557C18.045 19.0785 18.045 19.1013 18.0469 19.1241C18.0469 19.1317 18.0488 19.1374 18.0488 19.145C18.0507 19.1736 18.0545 19.204 18.0583 19.2325C18.0583 19.2382 18.0602 19.2458 18.0602 19.2515L18.0716 19.3257C18.0735 19.3333 18.0735 19.3428 18.0754 19.3523C18.0811 19.3827 18.0869 19.4151 18.0926 19.4455C18.0945 19.4531 18.0945 19.4626 18.0964 19.4702V19.5273C18.0964 19.5311 18.0964 19.5349 18.0945 19.5387C18.0945 19.5444 18.0926 19.552 18.0907 19.5577C18.0907 19.5596 18.0888 19.5634 18.0888 19.5653L18.083 19.5881C18.083 19.59 18.083 19.59 18.0811 19.5919C18.0792 19.6014 18.0754 19.6109 18.0716 19.6224C18.0716 19.6243 18.0697 19.6262 18.0697 19.63C18.064 19.6433 18.0602 19.6585 18.0545 19.6718C18.0488 19.6851 18.045 19.6984 18.0412 19.7098C18.0412 19.7117 18.0393 19.7117 18.0393 19.7136C18.0393 19.7155 18.0393 19.7155 18.0374 19.7174C18.0355 19.7212 18.0336 19.7269 18.0336 19.7307C18.0336 19.7326 18.0317 19.7345 18.0317 19.7364V19.7384C18.0317 19.7403 18.0298 19.7422 18.0298 19.746C18.0298 19.7479 18.0279 19.7498 18.0279 19.7536V19.7574C18.0279 19.7593 18.0279 19.7612 18.026 19.7631V19.7707C18.026 19.7783 18.0241 19.7859 18.026 19.7916C18.0412 19.9551 18.045 20.3488 18.1667 20.4191L18.4824 20.6036C18.3607 20.5332 18.3569 20.1396 18.3417 19.9761V19.9551V19.9475C18.3417 19.9456 18.3417 19.9437 18.3436 19.9418C18.3436 19.938 18.3455 19.9342 18.3455 19.9323C18.3455 19.9304 18.3474 19.9285 18.3474 19.9247C18.3474 19.9228 18.3493 19.919 18.3493 19.9171C18.3512 19.9133 18.3512 19.9076 18.3531 19.9038C18.3531 19.9019 18.355 19.9 18.355 19.8962C18.3588 19.8829 18.3645 19.8715 18.3683 19.8582C18.374 19.8448 18.3778 19.8315 18.3835 19.8182C18.3835 19.8163 18.3854 19.8163 18.3854 19.8144V19.8125C18.3892 19.803 18.3911 19.7935 18.3949 19.7821V19.7783L18.4006 19.7555V19.7536C18.4006 19.7517 18.4006 19.7498 18.4025 19.7479C18.4044 19.7422 18.4044 19.7345 18.4063 19.7288V19.7231V19.7155V19.706V19.6908V19.6813V19.6661V19.6585C18.4063 19.6509 18.4044 19.6414 18.4025 19.6338C18.3968 19.6014 18.3911 19.571 18.3854 19.5406C18.3835 19.5311 18.3816 19.5235 18.3816 19.514C18.3797 19.4797 18.3759 19.455 18.3721 19.4303Z" fill="#403572"/>
<path d="M19.5166 17.3251C19.682 17.2301 19.857 17.173 20.0262 17.1958L20.1384 17.2529L20.3191 17.1844C20.4085 17.1939 20.4636 17.3518 20.4674 17.3613C20.5149 17.5552 20.5206 17.5724 20.5168 17.8024C20.5149 17.8918 20.4731 18.3235 20.4845 18.4395C20.494 18.5365 20.5168 18.5327 20.5511 18.5973C20.6119 18.7095 20.5929 18.9244 20.5701 19.0861C20.5568 19.1754 20.5302 19.3066 20.4902 19.396C20.4446 19.4949 20.3552 19.5481 20.3153 19.6565C20.2582 19.8125 20.2906 19.9665 20.2563 20.1186C20.2164 20.2936 20.1099 20.3639 20.1042 20.5655L20.2582 20.5028C20.3096 20.6017 20.4046 20.8032 20.5016 20.8241C20.5815 20.8032 20.6633 20.7823 20.7431 20.7614C21.0246 20.7329 21.3403 20.7138 21.6236 20.6891C21.8822 20.6663 22.0838 20.5959 22.1789 20.8565C22.1789 21.0695 22.1998 21.7731 22.1941 22.0564L16.7459 25.196C16.7402 24.9184 16.7554 24.1957 16.7554 23.9828C16.8486 23.6138 17.0958 23.4275 17.3525 23.1517C17.6359 22.8494 17.9477 22.5071 18.2311 22.2104C18.311 22.1382 18.3927 22.0659 18.4726 21.9936C18.5677 21.8605 18.6628 21.5506 18.7122 21.3946L18.8263 21.2957C18.7997 21.1436 18.7103 21.1816 18.6723 21.0847C18.657 20.9135 18.6418 20.7443 18.6266 20.5731C18.6038 20.5883 18.5201 20.6112 18.5068 20.6093C18.3566 20.5864 18.3528 20.1472 18.3376 19.9703C18.33 19.8904 18.4308 19.763 18.4022 19.6242C18.2368 18.8179 18.4688 18.2588 18.8396 17.9051C19.0012 17.7378 19.2466 17.4811 19.5166 17.3251Z" fill="#6C8CC7"/>
<path d="M19.741 21.0391C19.8266 20.9896 19.7867 21.079 19.7848 21.0828L19.6003 21.4993C19.6117 21.5449 19.8418 22.4101 19.8418 22.4615C19.8418 22.5128 19.5376 22.9103 19.4995 22.9312C19.4634 22.9521 19.1572 22.916 19.1572 22.857C19.1572 22.8 19.3797 21.678 19.393 21.6191L19.1972 21.4213C19.1953 21.4194 19.1686 21.3681 19.2542 21.3186L19.741 21.0391Z" fill="#403572"/>
<path d="M19.5205 23.1005L19.2904 22.9674C19.2771 22.9598 19.2676 22.9503 19.2676 22.9407C19.2676 22.9388 19.2676 22.9331 19.2695 22.9255L19.4996 23.0587C19.4977 23.0663 19.4977 23.072 19.4977 23.0739C19.4977 23.0834 19.5072 23.0929 19.5205 23.1005Z" fill="#ACC5EA"/>
<path d="M19.4996 23.0586L19.2695 22.9255C19.2885 22.7772 19.492 21.7598 19.5034 21.7027L19.7335 21.8358C19.7221 21.8929 19.5186 22.9103 19.4996 23.0586Z" fill="#ACC5EA"/>
<path d="M20.129 21.2406L19.9446 21.1341L19.8989 21.1075H19.897H19.8951H19.8932H19.8913H19.8818H19.8799H19.878C19.8742 21.1075 19.8723 21.1094 19.8685 21.1113H19.8666C19.8609 21.1132 19.8552 21.117 19.8476 21.1208L19.3646 21.4023C19.357 21.4061 19.3513 21.4099 19.3455 21.4137C19.3436 21.4156 19.3417 21.4156 19.3417 21.4175C19.3379 21.4213 19.3322 21.4251 19.3284 21.4289L19.3265 21.4308C19.3265 21.4308 19.3265 21.4327 19.3246 21.4327L19.3208 21.4365L19.3189 21.4384V21.4422C19.3189 21.4441 19.317 21.4441 19.317 21.446C19.317 21.4479 19.3151 21.4479 19.3151 21.4498L19.3132 21.4517L19.3113 21.4536C19.3113 21.4536 19.3113 21.4555 19.3094 21.4555C19.3094 21.4555 19.3094 21.4574 19.3075 21.4574C19.3075 21.4574 19.3075 21.4593 19.3056 21.4593C19.3056 21.4593 19.3056 21.4612 19.3037 21.4612V21.4859C19.3037 21.4897 19.3037 21.4916 19.3056 21.4935V21.4954C19.3056 21.4973 19.3075 21.4992 19.3075 21.5012C19.3075 21.5031 19.3094 21.5031 19.3094 21.5031L19.5053 21.7008L19.7354 21.8339L19.5395 21.6362C19.5395 21.6362 19.5395 21.6343 19.5376 21.6343C19.5376 21.6324 19.5357 21.6305 19.5357 21.6286V21.6267C19.5357 21.6248 19.5338 21.621 19.5338 21.6191V21.6172V21.6076V21.6038V21.6019C19.5338 21.6 19.5357 21.5981 19.5357 21.5943C19.5357 21.5924 19.5376 21.5886 19.5395 21.5867C19.5414 21.5848 19.5414 21.581 19.5433 21.5791C19.5452 21.5772 19.5471 21.5734 19.549 21.5715V21.5696C19.5509 21.5677 19.5528 21.5658 19.5547 21.562C19.5547 21.562 19.5547 21.5601 19.5566 21.5601L19.5585 21.5582C19.5623 21.5544 19.5661 21.5506 19.5718 21.5468L19.5756 21.543C19.5813 21.5392 19.5871 21.5354 19.5947 21.5316L20.0815 21.2501C20.0891 21.2463 20.0948 21.2425 20.1005 21.2406C20.1043 21.2387 20.11 21.2368 20.1119 21.2368H20.1138C20.1176 21.2368 20.1214 21.2349 20.1233 21.2349C20.1252 21.2387 20.1271 21.2406 20.129 21.2406Z" fill="#ACC5EA"/>
<path d="M20.0809 21.2539C20.1664 21.2045 20.1265 21.2938 20.1246 21.2977L19.9402 21.7141C19.9516 21.7597 20.1817 22.625 20.1817 22.6763C20.1817 22.7277 19.8774 23.1251 19.8394 23.146C19.8032 23.167 19.4971 23.1308 19.4971 23.0719C19.4971 23.0148 19.7196 21.8929 19.7329 21.8339L19.537 21.6361C19.5351 21.6342 19.5085 21.5829 19.5941 21.5335L20.0809 21.2539Z" fill="white"/>
<path d="M20.9654 25.4756C20.9768 25.4946 20.9921 25.5079 21.0092 25.5174L21.2906 25.6809C21.245 25.6543 21.2145 25.5973 21.2145 25.5155L20.9331 25.352C20.935 25.4033 20.9464 25.4451 20.9654 25.4756Z" fill="#C68620"/>
<path d="M24.4267 21.0961C24.421 21.0923 24.4172 21.0904 24.4115 21.0885H24.4096C24.4077 21.0885 24.4058 21.0866 24.4058 21.0866C24.4039 21.0866 24.402 21.0847 24.3982 21.0847C24.3963 21.0847 24.3925 21.0828 24.3906 21.0828C24.3887 21.0828 24.3868 21.0828 24.3868 21.0809H24.3849C24.3791 21.0809 24.3753 21.079 24.3696 21.079H24.3335C24.3316 21.079 24.3297 21.079 24.3278 21.0809C24.324 21.0809 24.3202 21.0828 24.3164 21.0828C24.3145 21.0828 24.3126 21.0828 24.3107 21.0847C24.3088 21.0847 24.3069 21.0866 24.305 21.0866C24.2993 21.0885 24.2936 21.0904 24.286 21.0923C24.2841 21.0923 24.2822 21.0942 24.2803 21.0942C24.2784 21.0942 24.2784 21.0961 24.2765 21.0961C24.265 21.0999 24.2555 21.1056 24.2441 21.1113L21.1863 22.876C21.173 22.8836 21.1597 22.8931 21.1464 22.9026C21.1445 22.9045 21.1426 22.9064 21.1388 22.9083C21.1274 22.9179 21.114 22.9293 21.1026 22.9407C21.1007 22.9407 21.1007 22.9426 21.0988 22.9426L21.0931 22.9483C21.0874 22.954 21.0817 22.9597 21.076 22.9673L21.0703 22.973C21.0684 22.9749 21.0665 22.9768 21.0665 22.9787C21.0627 22.9825 21.0589 22.9863 21.057 22.9901C21.0551 22.992 21.0532 22.9958 21.0513 22.9977C21.0494 22.9996 21.0475 23.0015 21.0456 23.0053C21.0437 23.0091 21.0399 23.011 21.038 23.0148L21.0323 23.0205C21.0304 23.0243 21.0266 23.0282 21.0247 23.032C21.0228 23.0339 21.0209 23.0377 21.019 23.0396C21.019 23.0415 21.0171 23.0415 21.0171 23.0434C21.0133 23.051 21.0076 23.0586 21.0037 23.0662V23.0681C21.0037 23.07 21.0018 23.0719 21.0018 23.0719C20.998 23.0776 20.9961 23.0833 20.9923 23.0871C20.9904 23.089 20.9904 23.0928 20.9885 23.0947C20.9866 23.0966 20.9866 23.1004 20.9847 23.1023C20.9828 23.1042 20.9828 23.1061 20.9809 23.1099C20.979 23.1156 20.9752 23.1213 20.9733 23.127C20.9733 23.1289 20.9714 23.1289 20.9714 23.1308V23.1327C20.9676 23.1403 20.9657 23.148 20.9619 23.1556C20.9619 23.1575 20.9619 23.1575 20.96 23.1594C20.9581 23.1613 20.9581 23.1651 20.9562 23.167C20.9543 23.1708 20.9524 23.1746 20.9524 23.1784C20.9505 23.1822 20.9505 23.1841 20.9505 23.1879C20.9486 23.1917 20.9486 23.1955 20.9467 23.1993C20.9467 23.2012 20.9448 23.2031 20.9448 23.2069C20.9429 23.2107 20.9429 23.2145 20.9429 23.2183C20.941 23.2221 20.941 23.2278 20.9391 23.2316C20.9391 23.2335 20.9391 23.2354 20.9372 23.2373C20.9372 23.2411 20.9353 23.243 20.9353 23.2468C20.9334 23.2544 20.9334 23.2602 20.9315 23.2678C20.9315 23.2697 20.9315 23.2716 20.9296 23.2735V23.2792C20.9277 23.2944 20.9258 23.3096 20.9258 23.3248L20.9315 25.3538L21.2129 25.5174L21.2072 23.4883C21.2072 23.4731 21.2091 23.4579 21.211 23.4427C21.211 23.4389 21.211 23.4351 21.2129 23.4313C21.2148 23.4237 21.2148 23.418 21.2167 23.4104C21.2167 23.4047 21.2186 23.4009 21.2186 23.3952C21.2205 23.3914 21.2205 23.3857 21.2224 23.3819C21.2243 23.3762 21.2262 23.3704 21.2281 23.3628C21.23 23.359 21.23 23.3552 21.2319 23.3514C21.2338 23.3438 21.2357 23.3381 21.2396 23.3305C21.2415 23.3286 21.2415 23.3248 21.2434 23.3229L21.2548 23.2944C21.2548 23.2925 21.2567 23.2925 21.2567 23.2906C21.2605 23.283 21.2643 23.2735 21.2681 23.2659C21.27 23.264 21.27 23.2602 21.2719 23.2582C21.2757 23.2506 21.2795 23.243 21.2852 23.2354C21.2852 23.2335 21.2871 23.2316 21.2871 23.2316C21.2928 23.2221 21.2985 23.2145 21.3042 23.205C21.3061 23.2031 21.308 23.1993 21.3099 23.1974C21.3137 23.1917 21.3175 23.186 21.3232 23.1784C21.3251 23.1746 21.3289 23.1727 21.3308 23.1689C21.3346 23.1632 21.3384 23.1594 21.3422 23.1537C21.346 23.1499 21.3498 23.1461 21.3517 23.1403C21.3556 23.1365 21.3575 23.1327 21.3613 23.1289C21.367 23.1232 21.3727 23.1175 21.3784 23.1099C21.3803 23.1061 21.3841 23.1042 21.3879 23.1004C21.3993 23.089 21.4107 23.0776 21.424 23.0681C21.4259 23.0662 21.4278 23.0643 21.4316 23.0624C21.4449 23.0529 21.4582 23.0434 21.4715 23.0358L24.5294 21.271C24.5408 21.2653 24.5503 21.2596 24.5617 21.2558C24.5655 21.2539 24.5693 21.2539 24.5712 21.252L24.5883 21.2463C24.5921 21.2444 24.5959 21.2444 24.5997 21.2425C24.6035 21.2425 24.6073 21.2406 24.6111 21.2406C24.6149 21.2406 24.6207 21.2387 24.6245 21.2387H24.653C24.6587 21.2387 24.6663 21.2406 24.672 21.2406C24.6739 21.2406 24.6758 21.2406 24.6758 21.2425C24.6815 21.2444 24.6853 21.2444 24.6891 21.2463C24.691 21.2463 24.6929 21.2482 24.6929 21.2482C24.6986 21.2501 24.7043 21.2539 24.71 21.2558L24.4267 21.0961Z" fill="#C02032"/>
<path d="M24.5255 21.2787C24.6681 21.197 24.7841 21.2635 24.7841 21.4252L24.7898 23.4542C24.7898 23.6177 24.6738 23.8174 24.5331 23.8992L21.4753 25.6639C21.3326 25.7457 21.2166 25.6791 21.2166 25.5175L21.2109 23.4884C21.2109 23.3249 21.3269 23.1252 21.4677 23.0434L24.5255 21.2787Z" fill="#EE7E8B"/>
<path d="M24.7841 21.6971L24.786 22.104L21.2128 24.1635L21.2109 23.7565L24.7841 21.6971Z" fill="white"/>
<path d="M24.4211 22.9635C24.4497 22.9483 24.4687 22.9616 24.463 22.9939L24.3489 23.5435C24.3451 23.5663 24.328 23.5892 24.307 23.6006L23.5692 24.0265C23.5407 24.0417 23.5217 24.0284 23.5274 23.9961L23.6415 23.4465C23.6453 23.4237 23.6624 23.4009 23.6833 23.3895L24.4211 22.9635Z" fill="#C68620"/>
<path d="M23.698 24.114C23.698 24.1121 23.6961 24.1102 23.6961 24.1083V24.1045V24.0988V24.095C23.6961 24.0931 23.6961 24.0893 23.698 24.0855L23.5858 24.0208V24.0436C23.5858 24.0455 23.5877 24.0474 23.5877 24.0493C23.5877 24.0493 23.5877 24.0512 23.5896 24.0512L23.5953 24.0569L23.7075 24.1216L23.7018 24.1159C23.6999 24.1159 23.6999 24.114 23.698 24.114ZM24.51 22.9844C24.51 22.9844 24.5081 22.9844 24.5081 22.9825H24.5062H24.5043H24.4986H24.4967H24.491H24.4891H24.4872H24.4853C24.4834 22.9825 24.4815 22.9844 24.4777 22.9863L23.738 23.4123C23.7361 23.4142 23.7323 23.4161 23.7304 23.418L23.7285 23.4199C23.7266 23.4218 23.7247 23.4218 23.7228 23.4237L23.7189 23.4275L23.717 23.4294L23.7132 23.4332C23.7132 23.4332 23.7132 23.4351 23.7113 23.4351V23.437C23.7113 23.4389 23.7094 23.4389 23.7094 23.4408L23.7075 23.4427C23.7075 23.4446 23.7056 23.4446 23.7056 23.4465C23.7056 23.4484 23.7037 23.4484 23.7037 23.4503V23.4522C23.7037 23.4541 23.7037 23.4541 23.7018 23.456C23.7018 23.456 23.7018 23.4579 23.6999 23.4579C23.6999 23.4598 23.6999 23.4598 23.698 23.4617C23.698 23.4636 23.698 23.4636 23.6961 23.4655L23.582 24.0151L23.6942 24.0798L23.8083 23.5302C23.8083 23.5283 23.8102 23.5245 23.8102 23.5226C23.8102 23.5207 23.8121 23.5169 23.814 23.515C23.8159 23.5131 23.8159 23.5093 23.8178 23.5074C23.8197 23.5055 23.8216 23.5036 23.8216 23.4998L23.8273 23.4941L23.8292 23.4922C23.8311 23.4902 23.8311 23.4883 23.833 23.4883C23.8349 23.4864 23.8368 23.4845 23.8388 23.4845L23.8407 23.4826C23.8426 23.4807 23.8464 23.4788 23.8483 23.4769L24.588 23.051C24.5918 23.0491 24.5937 23.0472 24.5975 23.0472H24.5994C24.6013 23.0472 24.6051 23.0453 24.607 23.0453H24.6146C24.6165 23.0453 24.6184 23.0472 24.6203 23.0472L24.51 22.9844Z" fill="#E8CFAC"/>
<path d="M21.5573 24.1616C21.5763 24.1501 21.5915 24.1597 21.5915 24.1806V24.3612C21.5915 24.384 21.5763 24.4107 21.5573 24.4202L21.3995 24.5115C21.3804 24.5229 21.3652 24.5134 21.3652 24.4924V24.3118C21.3652 24.2909 21.3804 24.2623 21.3995 24.2528L21.5573 24.1616Z" fill="#C68620"/>
<path d="M24.5905 23.0529C24.6191 23.0377 24.6381 23.051 24.6324 23.0833L24.5183 23.6329C24.5145 23.6557 24.4973 23.6785 24.4764 23.6899L23.7367 24.1159C23.7082 24.1311 23.6892 24.1178 23.6949 24.0855L23.809 23.5359C23.8128 23.5131 23.8299 23.4903 23.8508 23.4788L24.5905 23.0529Z" fill="white"/>
<path d="M21.5153 24.5875L21.3955 24.5191C21.3955 24.5305 21.3993 24.5381 21.405 24.5419L21.5248 24.6104C21.5191 24.6046 21.5153 24.597 21.5153 24.5875Z" fill="#E8CFAC"/>
<path d="M21.6122 24.1844C21.6122 24.1844 21.6103 24.1844 21.6103 24.1825H21.6084H21.6065H21.6046H21.6027H21.597H21.5951H21.5932H21.5913C21.5894 24.1825 21.5875 24.1844 21.5856 24.1844L21.4278 24.2757C21.424 24.2776 21.4202 24.2814 21.4183 24.2833H21.4164L21.4145 24.2852L21.4126 24.2871L21.4107 24.289C21.4088 24.2909 21.4088 24.2909 21.4088 24.2928V24.2966C21.4088 24.2985 21.4069 24.2985 21.4069 24.3004C21.4069 24.3023 21.405 24.3023 21.405 24.3042C21.405 24.3042 21.405 24.3061 21.4031 24.3061C21.4031 24.308 21.4012 24.308 21.4012 24.3099C21.4012 24.3099 21.4012 24.3118 21.3993 24.3118C21.3993 24.3137 21.3993 24.3137 21.3974 24.3156C21.3974 24.3175 21.3974 24.3175 21.3955 24.3194V24.3232C21.3955 24.3251 21.3955 24.3251 21.3936 24.327V24.521L21.5134 24.5894V24.4088V24.4012V24.3993C21.5134 24.3974 21.5153 24.3936 21.5153 24.3917C21.5153 24.3898 21.5172 24.386 21.5191 24.3841C21.521 24.3822 21.521 24.3784 21.5229 24.3765C21.5248 24.3746 21.5267 24.3708 21.5286 24.3689L21.5343 24.3632L21.5362 24.3612L21.5381 24.3593C21.5419 24.3555 21.5457 24.3536 21.5476 24.3517L21.7054 24.2605C21.7073 24.2586 21.7092 24.2586 21.7111 24.2567H21.713C21.7149 24.2567 21.7168 24.2548 21.7187 24.2548H21.7244C21.7263 24.2548 21.7282 24.2567 21.7301 24.2567L21.6122 24.1844Z" fill="#E8CFAC"/>
<path d="M22.0099 23.92C22.029 23.9086 22.0442 23.9181 22.0442 23.9391V24.1197C22.0442 24.1425 22.029 24.1692 22.0099 24.1787L21.8521 24.2699C21.8331 24.2814 21.8179 24.2718 21.8179 24.2509V24.0703C21.8179 24.0494 21.8331 24.0208 21.8521 24.0113L22.0099 23.92Z" fill="#C68620"/>
<path d="M21.7072 24.2566C21.7262 24.2452 21.7414 24.2547 21.7414 24.2756V24.4563C21.7414 24.4791 21.7262 24.5057 21.7072 24.5152L21.5494 24.6065C21.5304 24.6179 21.5151 24.6084 21.5151 24.5875V24.4068C21.5151 24.3859 21.5304 24.3574 21.5494 24.3479L21.7072 24.2566Z" fill="white"/>
<path d="M21.9733 24.3441L21.8535 24.2756C21.8535 24.287 21.8573 24.2946 21.863 24.2984L21.9828 24.3669C21.9771 24.3631 21.9733 24.3555 21.9733 24.3441Z" fill="#E8CFAC"/>
<path d="M22.0703 23.941C22.0703 23.941 22.0683 23.941 22.0683 23.9391H22.0664H22.0645H22.0626H22.0607H22.055H22.0531H22.0512H22.0493C22.0474 23.9391 22.0455 23.941 22.0436 23.941L21.8858 24.0322C21.882 24.0341 21.8782 24.0379 21.8763 24.0398H21.8744L21.8725 24.0417L21.8706 24.0436L21.8687 24.0455C21.8668 24.0474 21.8668 24.0474 21.8668 24.0494V24.0532C21.8668 24.0551 21.8649 24.0551 21.8649 24.057C21.8649 24.0589 21.863 24.0589 21.863 24.0608C21.863 24.0608 21.863 24.0627 21.8611 24.0627C21.8611 24.0646 21.8592 24.0646 21.8592 24.0665C21.8592 24.0665 21.8592 24.0684 21.8573 24.0684C21.8573 24.0703 21.8573 24.0703 21.8554 24.0722C21.8554 24.0741 21.8554 24.0741 21.8535 24.076V24.0798C21.8535 24.0817 21.8535 24.0817 21.8516 24.0836V24.2775L21.9714 24.346V24.1653V24.1577V24.1558C21.9714 24.1539 21.9733 24.1501 21.9733 24.1482C21.9733 24.1463 21.9752 24.1425 21.9771 24.1406C21.979 24.1387 21.979 24.1349 21.9809 24.133C21.9828 24.1311 21.9847 24.1273 21.9866 24.1254L21.9923 24.1197L21.9942 24.1178L21.9961 24.1159C21.9999 24.1121 22.0037 24.1102 22.0056 24.1083L22.1634 24.017C22.1653 24.0151 22.1672 24.0151 22.1691 24.0132H22.171C22.1729 24.0132 22.1748 24.0113 22.1767 24.0113H22.1824C22.1843 24.0113 22.1863 24.0132 22.1882 24.0132L22.0703 23.941Z" fill="#E8CFAC"/>
<path d="M22.4357 23.6861C22.4547 23.6747 22.4699 23.6842 22.4699 23.7051V23.8858C22.4699 23.9086 22.4547 23.9352 22.4357 23.9447L22.2779 24.036C22.2589 24.0474 22.2437 24.0379 22.2437 24.017V23.8363C22.2437 23.8154 22.2589 23.7869 22.2779 23.7774L22.4357 23.6861Z" fill="#C68620"/>
<path d="M22.1637 24.0132C22.1828 24.0018 22.198 24.0113 22.198 24.0322V24.2129C22.198 24.2357 22.1828 24.2623 22.1637 24.2718L22.0059 24.3631C21.9869 24.3745 21.9717 24.365 21.9717 24.3441V24.1634C21.9717 24.1425 21.9869 24.114 22.0059 24.1045L22.1637 24.0132Z" fill="white"/>
<path d="M22.4054 24.1121L22.2856 24.0436C22.2856 24.055 22.2894 24.0626 22.2952 24.0664L22.415 24.1349C22.4093 24.1292 22.4054 24.1216 22.4054 24.1121Z" fill="#E8CFAC"/>
<path d="M22.5019 23.709C22.5019 23.709 22.5 23.709 22.5 23.7071H22.4981H22.4962H22.4943H22.4924H22.4867H22.4848H22.4829H22.481C22.4791 23.7071 22.4772 23.709 22.4753 23.709L22.3174 23.8002C22.3136 23.8021 22.3098 23.8059 22.3079 23.8078H22.306L22.3041 23.8097L22.3022 23.8117L22.3003 23.8136C22.2984 23.8155 22.2984 23.8155 22.2984 23.8174V23.8212C22.2984 23.8231 22.2965 23.8231 22.2965 23.825C22.2965 23.8269 22.2946 23.8269 22.2946 23.8288C22.2946 23.8288 22.2946 23.8307 22.2927 23.8307C22.2927 23.8326 22.2908 23.8326 22.2908 23.8345C22.2908 23.8345 22.2908 23.8364 22.2889 23.8364C22.2889 23.8383 22.2889 23.8383 22.287 23.8402C22.287 23.8421 22.287 23.8421 22.2851 23.844V23.8478C22.2851 23.8497 22.2851 23.8497 22.2832 23.8516V24.0456L22.403 24.114V23.9334V23.9257V23.9238C22.403 23.9219 22.4049 23.9181 22.4049 23.9162C22.4049 23.9143 22.4068 23.9105 22.4087 23.9086C22.4106 23.9067 22.4106 23.9029 22.4125 23.901C22.4144 23.8991 22.4163 23.8953 22.4182 23.8934L22.4239 23.8877L22.4258 23.8858L22.4277 23.8839C22.4315 23.8801 22.4353 23.8782 22.4372 23.8763L22.5951 23.785C22.597 23.7831 22.5989 23.7831 22.6008 23.7812H22.6027C22.6046 23.7812 22.6065 23.7793 22.6084 23.7793H22.6141C22.616 23.7793 22.6179 23.7812 22.6198 23.7812L22.5019 23.709Z" fill="#E8CFAC"/>
<path d="M22.5973 23.7812C22.6164 23.7697 22.6316 23.7793 22.6316 23.8002V23.9808C22.6316 24.0036 22.6164 24.0303 22.5973 24.0398L22.4395 24.1311C22.4205 24.1425 22.4053 24.133 22.4053 24.112V23.9314C22.4053 23.9105 22.4205 23.8819 22.4395 23.8724L22.5973 23.7812Z" fill="white"/>
<path d="M26.6299 12.6221V12.667C26.6299 12.7204 26.6232 12.7682 26.6099 12.8105C26.5965 12.8529 26.5773 12.8888 26.5522 12.9185C26.5272 12.9481 26.4971 12.9707 26.4619 12.9863C26.4271 13.002 26.388 13.0098 26.3447 13.0098C26.3027 13.0098 26.2642 13.002 26.229 12.9863C26.1942 12.9707 26.1639 12.9481 26.1382 12.9185C26.1128 12.8888 26.0931 12.8529 26.0791 12.8105C26.0651 12.7682 26.0581 12.7204 26.0581 12.667V12.6221C26.0581 12.5687 26.0649 12.521 26.0786 12.479C26.0926 12.4367 26.1123 12.4007 26.1377 12.3711C26.1631 12.3411 26.1932 12.3184 26.228 12.3027C26.2632 12.2871 26.3018 12.2793 26.3438 12.2793C26.387 12.2793 26.4261 12.2871 26.4609 12.3027C26.4961 12.3184 26.5262 12.3411 26.5513 12.3711C26.5767 12.4007 26.596 12.4367 26.6094 12.479C26.623 12.521 26.6299 12.5687 26.6299 12.6221ZM26.5366 12.667V12.6211C26.5366 12.5788 26.5322 12.5413 26.5234 12.5088C26.515 12.4762 26.5024 12.4489 26.4858 12.4268C26.4692 12.4046 26.4489 12.3879 26.4248 12.3765C26.401 12.3651 26.374 12.3594 26.3438 12.3594C26.3145 12.3594 26.2879 12.3651 26.2642 12.3765C26.2407 12.3879 26.2205 12.4046 26.2036 12.4268C26.187 12.4489 26.1742 12.4762 26.165 12.5088C26.1559 12.5413 26.1514 12.5788 26.1514 12.6211V12.667C26.1514 12.7096 26.1559 12.7474 26.165 12.7803C26.1742 12.8128 26.1872 12.8403 26.2041 12.8628C26.2214 12.8849 26.2417 12.9017 26.2651 12.9131C26.2889 12.9245 26.3154 12.9302 26.3447 12.9302C26.3753 12.9302 26.4025 12.9245 26.4263 12.9131C26.45 12.9017 26.4701 12.8849 26.4863 12.8628C26.5029 12.8403 26.5155 12.8128 26.5239 12.7803C26.5324 12.7474 26.5366 12.7096 26.5366 12.667ZM26.8477 12.5732V13.2031H26.7568V12.4717H26.8398L26.8477 12.5732ZM27.2036 12.7314V12.7417C27.2036 12.7801 27.1991 12.8158 27.1899 12.8486C27.1808 12.8812 27.1675 12.9095 27.1499 12.9336C27.1326 12.9577 27.1113 12.9764 27.0859 12.9897C27.0605 13.0031 27.0314 13.0098 26.9985 13.0098C26.965 13.0098 26.9354 13.0042 26.9097 12.9932C26.884 12.9821 26.8621 12.966 26.8442 12.9448C26.8263 12.9237 26.812 12.8983 26.8013 12.8687C26.7909 12.839 26.7837 12.8057 26.7798 12.7686V12.7139C26.7837 12.6748 26.791 12.6398 26.8018 12.6089C26.8125 12.578 26.8267 12.5516 26.8442 12.5298C26.8621 12.5076 26.8838 12.4909 26.9092 12.4795C26.9346 12.4678 26.9639 12.4619 26.9971 12.4619C27.0303 12.4619 27.0597 12.4684 27.0854 12.4814C27.1112 12.4941 27.1328 12.5124 27.1504 12.5361C27.168 12.5599 27.1812 12.5884 27.1899 12.6216C27.1991 12.6545 27.2036 12.6911 27.2036 12.7314ZM27.1128 12.7417V12.7314C27.1128 12.7051 27.11 12.6803 27.1045 12.6572C27.099 12.6338 27.0903 12.6133 27.0786 12.5957C27.0672 12.5778 27.0526 12.5638 27.0347 12.5537C27.0168 12.5433 26.9954 12.5381 26.9707 12.5381C26.9479 12.5381 26.9281 12.542 26.9111 12.5498C26.8945 12.5576 26.8804 12.5682 26.8687 12.5815C26.8569 12.5946 26.8473 12.6095 26.8398 12.6265C26.8327 12.6431 26.8273 12.6603 26.8237 12.6782V12.8047C26.8302 12.8275 26.8394 12.849 26.8511 12.8691C26.8628 12.889 26.8784 12.9051 26.8979 12.9175C26.9175 12.9295 26.9421 12.9355 26.9717 12.9355C26.9961 12.9355 27.0171 12.9305 27.0347 12.9204C27.0526 12.91 27.0672 12.8958 27.0786 12.8779C27.0903 12.86 27.099 12.8395 27.1045 12.8164C27.11 12.793 27.1128 12.7681 27.1128 12.7417ZM27.5381 13.0098C27.5013 13.0098 27.4679 13.0036 27.438 12.9912C27.4084 12.9785 27.3828 12.9608 27.3613 12.938C27.3402 12.9152 27.3239 12.8882 27.3125 12.8569C27.3011 12.8257 27.2954 12.7915 27.2954 12.7544V12.7339C27.2954 12.6909 27.3018 12.6527 27.3145 12.6191C27.3271 12.5853 27.3444 12.5566 27.3662 12.5332C27.388 12.5098 27.4128 12.492 27.4404 12.48C27.4681 12.4679 27.4967 12.4619 27.5264 12.4619C27.5641 12.4619 27.5967 12.4684 27.624 12.4814C27.6517 12.4945 27.6743 12.5127 27.6919 12.5361C27.7095 12.5592 27.7225 12.5866 27.731 12.6182C27.7394 12.6494 27.7437 12.6836 27.7437 12.7207V12.7612H27.3491V12.6875H27.6533V12.6807C27.652 12.6572 27.6471 12.6344 27.6387 12.6123C27.6305 12.5902 27.6175 12.5719 27.5996 12.5576C27.5817 12.5433 27.5573 12.5361 27.5264 12.5361C27.5059 12.5361 27.487 12.5405 27.4697 12.5493C27.4525 12.5578 27.4377 12.5705 27.4253 12.5874C27.4129 12.6043 27.4033 12.625 27.3965 12.6494C27.3896 12.6738 27.3862 12.702 27.3862 12.7339V12.7544C27.3862 12.7795 27.3896 12.8031 27.3965 12.8252C27.4036 12.847 27.4139 12.8662 27.4272 12.8828C27.4409 12.8994 27.4574 12.9124 27.4766 12.9219C27.4961 12.9313 27.5182 12.936 27.543 12.936C27.5749 12.936 27.6019 12.9295 27.624 12.9165C27.6462 12.9035 27.6655 12.8861 27.6821 12.8643L27.7368 12.9077C27.7254 12.925 27.7109 12.9414 27.6934 12.957C27.6758 12.9727 27.6541 12.9854 27.6284 12.9951C27.603 13.0049 27.5729 13.0098 27.5381 13.0098ZM27.9395 12.5845V13H27.8491V12.4717H27.9346L27.9395 12.5845ZM27.918 12.7158L27.8804 12.7144C27.8807 12.6782 27.8861 12.6449 27.8965 12.6143C27.9069 12.5833 27.9215 12.5565 27.9404 12.5337C27.9593 12.5109 27.9818 12.4933 28.0078 12.481C28.0342 12.4683 28.0633 12.4619 28.0952 12.4619C28.1213 12.4619 28.1447 12.4655 28.1655 12.4727C28.1864 12.4795 28.2041 12.4906 28.2188 12.5059C28.2337 12.5212 28.2451 12.541 28.2529 12.5654C28.2607 12.5895 28.2646 12.619 28.2646 12.6538V13H28.1738V12.6528C28.1738 12.6252 28.1698 12.603 28.1616 12.5864C28.1535 12.5695 28.1416 12.5573 28.126 12.5498C28.1104 12.542 28.0911 12.5381 28.0684 12.5381C28.0459 12.5381 28.0254 12.5428 28.0068 12.5522C27.9886 12.5617 27.9728 12.5747 27.9595 12.5913C27.9465 12.6079 27.9362 12.627 27.9287 12.6484C27.9215 12.6696 27.918 12.6921 27.918 12.7158ZM28.9614 12.9097V12.6377C28.9614 12.6169 28.9572 12.5988 28.9487 12.5835C28.9406 12.5679 28.9282 12.5558 28.9116 12.5474C28.895 12.5389 28.8745 12.5347 28.8501 12.5347C28.8273 12.5347 28.8073 12.5386 28.79 12.5464C28.7731 12.5542 28.7598 12.5645 28.75 12.5771C28.7406 12.5898 28.7358 12.6035 28.7358 12.6182H28.6455C28.6455 12.5993 28.6504 12.5806 28.6602 12.562C28.6699 12.5435 28.6839 12.5267 28.7021 12.5117C28.7207 12.4964 28.7428 12.4844 28.7686 12.4756C28.7946 12.4665 28.8236 12.4619 28.8555 12.4619C28.8939 12.4619 28.9277 12.4684 28.957 12.4814C28.9867 12.4945 29.0098 12.5142 29.0264 12.5405C29.0433 12.5666 29.0518 12.5993 29.0518 12.6387V12.8848C29.0518 12.9023 29.0532 12.9211 29.0562 12.9409C29.0594 12.9608 29.0641 12.9779 29.0703 12.9922V13H28.9761C28.9715 12.9896 28.9679 12.9757 28.9653 12.9585C28.9627 12.9409 28.9614 12.9246 28.9614 12.9097ZM28.9771 12.6797L28.978 12.7432H28.8867C28.861 12.7432 28.8381 12.7453 28.8179 12.7495C28.7977 12.7534 28.7808 12.7594 28.7671 12.7676C28.7534 12.7757 28.743 12.786 28.7358 12.7983C28.7287 12.8104 28.7251 12.8245 28.7251 12.8408C28.7251 12.8574 28.7288 12.8726 28.7363 12.8862C28.7438 12.8999 28.755 12.9108 28.77 12.9189C28.7853 12.9268 28.804 12.9307 28.8262 12.9307C28.8538 12.9307 28.8783 12.9248 28.8994 12.9131C28.9206 12.9014 28.9373 12.887 28.9497 12.8701C28.9624 12.8532 28.9692 12.8368 28.9702 12.8208L29.0088 12.8643C29.0065 12.8779 29.0003 12.8931 28.9902 12.9097C28.9801 12.9263 28.9666 12.9422 28.9497 12.9575C28.9331 12.9725 28.9132 12.985 28.8901 12.9951C28.8674 13.0049 28.8416 13.0098 28.813 13.0098C28.7772 13.0098 28.7458 13.0028 28.7188 12.9888C28.6921 12.9748 28.6712 12.9561 28.6562 12.9326C28.6416 12.9089 28.6343 12.8823 28.6343 12.853C28.6343 12.8247 28.6398 12.7998 28.6509 12.7783C28.6619 12.7565 28.6779 12.7384 28.6987 12.7241C28.7196 12.7095 28.7446 12.6984 28.7739 12.6909C28.8032 12.6834 28.8359 12.6797 28.8721 12.6797H28.9771ZM29.5322 12.5845V13H29.4419V12.4717H29.5273L29.5322 12.5845ZM29.5107 12.7158L29.4731 12.7144C29.4735 12.6782 29.4788 12.6449 29.4893 12.6143C29.4997 12.5833 29.5143 12.5565 29.5332 12.5337C29.5521 12.5109 29.5745 12.4933 29.6006 12.481C29.627 12.4683 29.6561 12.4619 29.688 12.4619C29.714 12.4619 29.7375 12.4655 29.7583 12.4727C29.7791 12.4795 29.7969 12.4906 29.8115 12.5059C29.8265 12.5212 29.8379 12.541 29.8457 12.5654C29.8535 12.5895 29.8574 12.619 29.8574 12.6538V13H29.7666V12.6528C29.7666 12.6252 29.7625 12.603 29.7544 12.5864C29.7463 12.5695 29.7344 12.5573 29.7188 12.5498C29.7031 12.542 29.6839 12.5381 29.6611 12.5381C29.6387 12.5381 29.6182 12.5428 29.5996 12.5522C29.5814 12.5617 29.5656 12.5747 29.5522 12.5913C29.5392 12.6079 29.529 12.627 29.5215 12.6484C29.5143 12.6696 29.5107 12.6921 29.5107 12.7158ZM30.2139 13.0098C30.1771 13.0098 30.1437 13.0036 30.1138 12.9912C30.0841 12.9785 30.0586 12.9608 30.0371 12.938C30.016 12.9152 29.9997 12.8882 29.9883 12.8569C29.9769 12.8257 29.9712 12.7915 29.9712 12.7544V12.7339C29.9712 12.6909 29.9775 12.6527 29.9902 12.6191C30.0029 12.5853 30.0202 12.5566 30.042 12.5332C30.0638 12.5098 30.0885 12.492 30.1162 12.48C30.1439 12.4679 30.1725 12.4619 30.2021 12.4619C30.2399 12.4619 30.2725 12.4684 30.2998 12.4814C30.3275 12.4945 30.3501 12.5127 30.3677 12.5361C30.3853 12.5592 30.3983 12.5866 30.4067 12.6182C30.4152 12.6494 30.4194 12.6836 30.4194 12.7207V12.7612H30.0249V12.6875H30.3291V12.6807C30.3278 12.6572 30.3229 12.6344 30.3145 12.6123C30.3063 12.5902 30.2933 12.5719 30.2754 12.5576C30.2575 12.5433 30.2331 12.5361 30.2021 12.5361C30.1816 12.5361 30.1628 12.5405 30.1455 12.5493C30.1283 12.5578 30.1134 12.5705 30.1011 12.5874C30.0887 12.6043 30.0791 12.625 30.0723 12.6494C30.0654 12.6738 30.062 12.702 30.062 12.7339V12.7544C30.062 12.7795 30.0654 12.8031 30.0723 12.8252C30.0794 12.847 30.0897 12.8662 30.103 12.8828C30.1167 12.8994 30.1331 12.9124 30.1523 12.9219C30.1719 12.9313 30.194 12.936 30.2188 12.936C30.2507 12.936 30.2777 12.9295 30.2998 12.9165C30.3219 12.9035 30.3413 12.8861 30.3579 12.8643L30.4126 12.9077C30.4012 12.925 30.3867 12.9414 30.3691 12.957C30.3516 12.9727 30.3299 12.9854 30.3042 12.9951C30.2788 13.0049 30.2487 13.0098 30.2139 13.0098ZM30.6587 12.9062L30.7944 12.4717H30.854L30.8423 12.5581L30.7041 13H30.646L30.6587 12.9062ZM30.5674 12.4717L30.6831 12.9111L30.6914 13H30.6304L30.4771 12.4717H30.5674ZM30.9839 12.9077L31.0942 12.4717H31.1841L31.0308 13H30.9702L30.9839 12.9077ZM30.8672 12.4717L31 12.8989L31.0151 13H30.9575L30.8154 12.5571L30.8037 12.4717H30.8672ZM31.8364 12.9097V12.6377C31.8364 12.6169 31.8322 12.5988 31.8237 12.5835C31.8156 12.5679 31.8032 12.5558 31.7866 12.5474C31.77 12.5389 31.7495 12.5347 31.7251 12.5347C31.7023 12.5347 31.6823 12.5386 31.665 12.5464C31.6481 12.5542 31.6348 12.5645 31.625 12.5771C31.6156 12.5898 31.6108 12.6035 31.6108 12.6182H31.5205C31.5205 12.5993 31.5254 12.5806 31.5352 12.562C31.5449 12.5435 31.5589 12.5267 31.5771 12.5117C31.5957 12.4964 31.6178 12.4844 31.6436 12.4756C31.6696 12.4665 31.6986 12.4619 31.7305 12.4619C31.7689 12.4619 31.8027 12.4684 31.832 12.4814C31.8617 12.4945 31.8848 12.5142 31.9014 12.5405C31.9183 12.5666 31.9268 12.5993 31.9268 12.6387V12.8848C31.9268 12.9023 31.9282 12.9211 31.9312 12.9409C31.9344 12.9608 31.9391 12.9779 31.9453 12.9922V13H31.8511C31.8465 12.9896 31.8429 12.9757 31.8403 12.9585C31.8377 12.9409 31.8364 12.9246 31.8364 12.9097ZM31.8521 12.6797L31.853 12.7432H31.7617C31.736 12.7432 31.7131 12.7453 31.6929 12.7495C31.6727 12.7534 31.6558 12.7594 31.6421 12.7676C31.6284 12.7757 31.618 12.786 31.6108 12.7983C31.6037 12.8104 31.6001 12.8245 31.6001 12.8408C31.6001 12.8574 31.6038 12.8726 31.6113 12.8862C31.6188 12.8999 31.63 12.9108 31.645 12.9189C31.6603 12.9268 31.679 12.9307 31.7012 12.9307C31.7288 12.9307 31.7533 12.9248 31.7744 12.9131C31.7956 12.9014 31.8123 12.887 31.8247 12.8701C31.8374 12.8532 31.8442 12.8368 31.8452 12.8208L31.8838 12.8643C31.8815 12.8779 31.8753 12.8931 31.8652 12.9097C31.8551 12.9263 31.8416 12.9422 31.8247 12.9575C31.8081 12.9725 31.7882 12.985 31.7651 12.9951C31.7424 13.0049 31.7166 13.0098 31.688 13.0098C31.6522 13.0098 31.6208 13.0028 31.5938 12.9888C31.5671 12.9748 31.5462 12.9561 31.5312 12.9326C31.5166 12.9089 31.5093 12.8823 31.5093 12.853C31.5093 12.8247 31.5148 12.7998 31.5259 12.7783C31.5369 12.7565 31.5529 12.7384 31.5737 12.7241C31.5946 12.7095 31.6196 12.6984 31.6489 12.6909C31.6782 12.6834 31.7109 12.6797 31.7471 12.6797H31.8521ZM32.2803 12.9355C32.3018 12.9355 32.3216 12.9312 32.3398 12.9224C32.3581 12.9136 32.373 12.9015 32.3848 12.8862C32.3965 12.8706 32.4032 12.8529 32.4048 12.833H32.4907C32.4891 12.8643 32.4785 12.8934 32.459 12.9204C32.4398 12.9471 32.4146 12.9688 32.3833 12.9854C32.3521 13.0016 32.3177 13.0098 32.2803 13.0098C32.2406 13.0098 32.2059 13.0028 32.1763 12.9888C32.147 12.9748 32.1226 12.9556 32.103 12.9312C32.0838 12.9067 32.0693 12.8787 32.0596 12.8472C32.0501 12.8153 32.0454 12.7816 32.0454 12.7461V12.7256C32.0454 12.6901 32.0501 12.6566 32.0596 12.625C32.0693 12.5931 32.0838 12.5649 32.103 12.5405C32.1226 12.5161 32.147 12.4969 32.1763 12.4829C32.2059 12.4689 32.2406 12.4619 32.2803 12.4619C32.3216 12.4619 32.3577 12.4704 32.3887 12.4873C32.4196 12.5039 32.4438 12.5267 32.4614 12.5557C32.4793 12.5843 32.4891 12.6169 32.4907 12.6533H32.4048C32.4032 12.6315 32.397 12.6118 32.3862 12.5942C32.3758 12.5767 32.3615 12.5627 32.3433 12.5522C32.3254 12.5415 32.3044 12.5361 32.2803 12.5361C32.2526 12.5361 32.2293 12.5417 32.2104 12.5527C32.1919 12.5635 32.1771 12.5781 32.166 12.5967C32.1553 12.6149 32.1475 12.6353 32.1426 12.6577C32.138 12.6799 32.1357 12.7025 32.1357 12.7256V12.7461C32.1357 12.7692 32.138 12.792 32.1426 12.8145C32.1471 12.8369 32.1548 12.8573 32.1655 12.8755C32.1766 12.8937 32.1914 12.9084 32.21 12.9194C32.2288 12.9302 32.2523 12.9355 32.2803 12.9355ZM32.8037 12.9355C32.8252 12.9355 32.8451 12.9312 32.8633 12.9224C32.8815 12.9136 32.8965 12.9015 32.9082 12.8862C32.9199 12.8706 32.9266 12.8529 32.9282 12.833H33.0142C33.0125 12.8643 33.002 12.8934 32.9824 12.9204C32.9632 12.9471 32.938 12.9688 32.9067 12.9854C32.8755 13.0016 32.8411 13.0098 32.8037 13.0098C32.764 13.0098 32.7293 13.0028 32.6997 12.9888C32.6704 12.9748 32.646 12.9556 32.6265 12.9312C32.6073 12.9067 32.5928 12.8787 32.583 12.8472C32.5736 12.8153 32.5688 12.7816 32.5688 12.7461V12.7256C32.5688 12.6901 32.5736 12.6566 32.583 12.625C32.5928 12.5931 32.6073 12.5649 32.6265 12.5405C32.646 12.5161 32.6704 12.4969 32.6997 12.4829C32.7293 12.4689 32.764 12.4619 32.8037 12.4619C32.8451 12.4619 32.8812 12.4704 32.9121 12.4873C32.943 12.5039 32.9673 12.5267 32.9849 12.5557C33.0028 12.5843 33.0125 12.6169 33.0142 12.6533H32.9282C32.9266 12.6315 32.9204 12.6118 32.9097 12.5942C32.8993 12.5767 32.8849 12.5627 32.8667 12.5522C32.8488 12.5415 32.8278 12.5361 32.8037 12.5361C32.776 12.5361 32.7528 12.5417 32.7339 12.5527C32.7153 12.5635 32.7005 12.5781 32.6895 12.5967C32.6787 12.6149 32.6709 12.6353 32.666 12.6577C32.6615 12.6799 32.6592 12.7025 32.6592 12.7256V12.7461C32.6592 12.7692 32.6615 12.792 32.666 12.8145C32.6706 12.8369 32.6782 12.8573 32.689 12.8755C32.7 12.8937 32.7148 12.9084 32.7334 12.9194C32.7523 12.9302 32.7757 12.9355 32.8037 12.9355ZM33.0918 12.7417V12.7305C33.0918 12.6924 33.0973 12.6571 33.1084 12.6245C33.1195 12.5916 33.1354 12.5632 33.1562 12.5391C33.1771 12.5146 33.2023 12.4958 33.2319 12.4824C33.2616 12.4688 33.2948 12.4619 33.3315 12.4619C33.3687 12.4619 33.402 12.4688 33.4316 12.4824C33.4616 12.4958 33.487 12.5146 33.5078 12.5391C33.529 12.5632 33.5451 12.5916 33.5562 12.6245C33.5672 12.6571 33.5728 12.6924 33.5728 12.7305V12.7417C33.5728 12.7798 33.5672 12.8151 33.5562 12.8477C33.5451 12.8802 33.529 12.9087 33.5078 12.9331C33.487 12.9572 33.4618 12.9761 33.4321 12.9897C33.4028 13.0031 33.3696 13.0098 33.3325 13.0098C33.2954 13.0098 33.262 13.0031 33.2324 12.9897C33.2028 12.9761 33.1774 12.9572 33.1562 12.9331C33.1354 12.9087 33.1195 12.8802 33.1084 12.8477C33.0973 12.8151 33.0918 12.7798 33.0918 12.7417ZM33.1821 12.7305V12.7417C33.1821 12.7681 33.1852 12.793 33.1914 12.8164C33.1976 12.8395 33.2069 12.86 33.2192 12.8779C33.2319 12.8958 33.2477 12.91 33.2666 12.9204C33.2855 12.9305 33.3075 12.9355 33.3325 12.9355C33.3573 12.9355 33.3789 12.9305 33.3975 12.9204C33.4163 12.91 33.432 12.8958 33.4443 12.8779C33.4567 12.86 33.466 12.8395 33.4722 12.8164C33.4787 12.793 33.4819 12.7681 33.4819 12.7417V12.7305C33.4819 12.7044 33.4787 12.6799 33.4722 12.6567C33.466 12.6333 33.4565 12.6126 33.4438 12.5947C33.4315 12.5765 33.4159 12.5622 33.397 12.5518C33.3784 12.5413 33.3566 12.5361 33.3315 12.5361C33.3068 12.5361 33.285 12.5413 33.2661 12.5518C33.2476 12.5622 33.2319 12.5765 33.2192 12.5947C33.2069 12.6126 33.1976 12.6333 33.1914 12.6567C33.1852 12.6799 33.1821 12.7044 33.1821 12.7305ZM34.0093 12.8779V12.4717H34.1001V13H34.0137L34.0093 12.8779ZM34.0264 12.7666L34.064 12.7656C34.064 12.8008 34.0602 12.8333 34.0527 12.8633C34.0456 12.8929 34.0339 12.9186 34.0176 12.9404C34.0013 12.9622 33.98 12.9793 33.9536 12.9917C33.9272 13.0037 33.8952 13.0098 33.8574 13.0098C33.8317 13.0098 33.8081 13.006 33.7866 12.9985C33.7655 12.991 33.7472 12.9795 33.7319 12.9639C33.7166 12.9482 33.7048 12.9279 33.6963 12.9028C33.6882 12.8778 33.6841 12.8477 33.6841 12.8125V12.4717H33.7744V12.8135C33.7744 12.8372 33.777 12.8569 33.7822 12.8726C33.7878 12.8879 33.7951 12.9001 33.8042 12.9092C33.8136 12.918 33.8241 12.9242 33.8354 12.9277C33.8472 12.9313 33.8592 12.9331 33.8716 12.9331C33.91 12.9331 33.9404 12.9258 33.9629 12.9111C33.9854 12.8962 34.0015 12.8761 34.0112 12.8511C34.0213 12.8257 34.0264 12.7975 34.0264 12.7666ZM34.459 12.4717V12.541H34.1733V12.4717H34.459ZM34.27 12.3433H34.3604V12.8691C34.3604 12.887 34.3631 12.9006 34.3687 12.9097C34.3742 12.9188 34.3813 12.9248 34.3901 12.9277C34.3989 12.9307 34.4084 12.9321 34.4185 12.9321C34.4259 12.9321 34.4338 12.9315 34.4419 12.9302C34.4504 12.9285 34.4567 12.9272 34.4609 12.9263L34.4614 13C34.4543 13.0023 34.4448 13.0044 34.4331 13.0063C34.4217 13.0086 34.4079 13.0098 34.3916 13.0098C34.3695 13.0098 34.3491 13.0054 34.3306 12.9966C34.312 12.9878 34.2972 12.9731 34.2861 12.9526C34.2754 12.9318 34.27 12.9038 34.27 12.8687V12.3433Z" fill="black"/>
</svg>
