<svg width="151" height="36" viewBox="0 0 151 36" fill="none" xmlns="http://www.w3.org/2000/svg">
<g clip-path="url(#clip0_108_1850)">
<mask id="mask0_108_1850" style="mask-type:luminance" maskUnits="userSpaceOnUse" x="0" y="0" width="151" height="36">
<path d="M150.614 0H0V36H150.614V0Z" fill="white"/>
</mask>
<g mask="url(#mask0_108_1850)">
<path d="M31.9229 0.405939H44.2764C46.1012 0.377147 47.926 0.454589 49.742 0.637889C50.8628 0.774975 51.9519 1.10967 52.9607 1.62709C53.8838 2.10014 54.6933 2.7757 55.3313 3.60548C55.9496 4.38856 56.2846 5.36568 56.2794 6.37183C56.2709 7.50165 55.8548 8.58862 55.1109 9.42472C54.257 10.3983 53.1609 11.1173 51.939 11.5054C53.8221 11.9239 55.2689 12.6402 56.2794 13.6543C56.7618 14.1067 57.1467 14.6566 57.41 15.2691C57.6732 15.8815 57.8089 16.5432 57.8086 17.212C57.7939 18.334 57.4534 19.4262 56.8304 20.3502C56.1607 21.3848 55.2406 22.225 54.1593 22.7891C52.8536 23.4455 51.4321 23.8271 49.9791 23.9113C48.9374 23.9977 46.43 24.0512 42.4567 24.0716H31.9229V0.405939ZM38.1597 4.35591V9.81352H42.2464C44.6771 9.81352 46.1873 9.7863 46.7772 9.7317C47.6769 9.69367 48.5485 9.4008 49.2947 8.88577C49.584 8.67802 49.8188 8.40067 49.9784 8.07825C50.138 7.75582 50.2173 7.39819 50.2095 7.03698C50.2192 6.69802 50.1534 6.36124 50.0169 6.05215C49.8804 5.74307 49.6768 5.46979 49.4215 5.25301C48.894 4.79821 48.1149 4.52077 47.0844 4.42072C46.4678 4.36842 44.6871 4.34227 41.7423 4.34227L38.1597 4.35591ZM38.1597 13.7669V20.0842H43.9325C45.3597 20.1184 46.7876 20.0705 48.2095 19.9409C49.0337 19.8522 49.8157 19.5243 50.4632 18.9961C50.7533 18.752 50.9841 18.4428 51.1375 18.0925C51.291 17.7421 51.3631 17.3602 51.348 16.9767C51.3655 16.307 51.1258 15.657 50.6802 15.1654C50.1449 14.6219 49.4682 14.2467 48.7304 14.0842C47.8824 13.8568 46.0393 13.7431 43.2013 13.7431L38.1597 13.7669Z" fill="#201B50"/>
<path d="M83.5173 15.3701L89.564 16.8403C88.7616 19.2708 87.1169 21.3176 84.94 22.5947C82.7897 23.8522 80.0576 24.481 76.7431 24.481C72.643 24.481 69.2719 23.4064 66.6298 21.2575C63.9876 19.1086 62.6677 16.1728 62.6699 12.4502C62.6699 8.50935 63.9965 5.44969 66.6497 3.27118C69.303 1.09267 72.7943 0.00227402 77.1235 0C80.9074 0 83.9762 0.85617 86.3286 2.5685C87.7912 3.66014 88.8941 5.18057 89.4907 6.9278L83.3175 8.05688C82.9474 6.8246 82.1287 5.78434 81.0303 5.15065C79.7438 4.40795 78.2834 4.03984 76.8067 4.08641C74.5158 4.08641 72.6585 4.71632 71.2339 5.97612C69.8094 7.23593 69.096 9.27458 69.0938 12.0921C69.0938 15.087 69.796 17.2189 71.2005 18.4878C72.6051 19.7567 74.4314 20.39 76.6794 20.3877C78.1916 20.4301 79.6816 20.0084 80.9562 19.1768C82.1517 18.3741 83.0059 17.1052 83.5173 15.3701Z" fill="#201B50"/>
<path d="M123.212 24.0718H116.428L113.73 18.6823H101.377L98.826 24.0581H92.2183L104.238 0.392395H110.836L123.212 24.0718ZM111.731 14.7085L107.473 5.92508L103.3 14.7085H111.731Z" fill="#201B50"/>
<path d="M126.952 24.0717V0.405945H136.968C140.752 0.405945 143.225 0.519646 144.384 0.747048C146.058 1.05294 147.606 1.85892 148.832 3.06313C149.429 3.6637 149.897 4.3849 150.206 5.18071C150.516 5.97651 150.659 6.82945 150.627 7.6851C150.671 8.988 150.31 10.2716 149.596 11.3519C148.912 12.3352 148.006 13.1355 146.955 13.6851C145.942 14.2328 144.849 14.6117 143.72 14.8073C141.574 15.0715 139.413 15.1854 137.253 15.1484H133.189V24.0717H126.952ZM133.189 4.40708V11.1234H136.604C139.066 11.1234 140.71 11.0006 141.536 10.755C142.279 10.5592 142.954 10.1565 143.486 9.59183C143.733 9.31748 143.923 8.99415 144.043 8.64195C144.164 8.28968 144.212 7.91595 144.185 7.5438C144.159 7.17173 144.058 6.80914 143.889 6.47849C143.72 6.14783 143.486 5.85613 143.202 5.62141C142.481 5.0353 141.611 4.67092 140.695 4.57082C139.203 4.42894 137.705 4.37427 136.208 4.40708H133.189Z" fill="#201B50"/>
<path d="M12.7344 35.8123L12.8545 35.8942L12.9747 35.8123C15.6692 30.9448 17.9496 23.6794 12.8545 17.3928C7.74954 23.6794 10.0299 30.9619 12.7344 35.8123Z" fill="#C02032"/>
<path d="M13.6426 35.311C19.1349 31.1052 23.1014 23.8806 20.8076 11.4849C17.9362 12.8834 15.7393 14.398 14.0999 16.0148C19.1115 22.8437 16.6208 30.2797 13.6426 35.311Z" fill="#C02032"/>
<path d="M12.0468 35.311C9.06187 30.2797 6.57784 22.8437 11.5894 16.0148C9.94671 14.398 7.75306 12.8698 4.88171 11.4849C2.58795 23.8806 6.55446 31.1052 12.0468 35.311Z" fill="#C02032"/>
<path d="M12.8448 14.4935C14.7742 12.477 17.0016 10.7827 19.4456 9.47243C16.5776 5.49176 13.0151 0.64469 12.8515 0.422974C12.6879 0.64469 9.12535 5.49176 6.25732 9.47587C8.69722 10.785 10.9202 12.4782 12.8448 14.4935Z" fill="#C02032"/>
<path d="M6.03684 32.2172C6.7046 32.606 9.32221 33.8579 11.1051 34.8471C6.13032 30.8937 2.3608 24.4707 3.01187 14.0398L2.79818 14.3809C1.5428 16.4071 -4.34353 25.46 6.03684 32.2172Z" fill="#C02032"/>
<path d="M22.6775 14.0398C23.3452 24.4639 19.5657 30.8869 14.5908 34.8471C16.3771 33.8579 18.978 32.6129 19.6558 32.224C30.0395 25.4668 24.1532 16.4139 22.8978 14.3877L22.6775 14.0398Z" fill="#C02032"/>
<path d="M39.6552 35.8943H37.9624L37.2946 34.5537H34.2129L33.5752 35.8943H31.9258L34.9308 29.9897H36.5768L39.6552 35.8943ZM36.7905 33.5577L35.7287 31.3678L34.687 33.5577H36.7905Z" fill="#201B50"/>
<path d="M40.1963 33.9739L41.7088 33.8614C41.7411 34.0344 41.8067 34.1992 41.9018 34.3462C41.997 34.4932 42.1198 34.6194 42.2631 34.7175C42.6056 34.9182 42.9973 35.0141 43.3916 34.9938C43.7837 35.0193 44.1752 34.9343 44.5234 34.7482C44.6313 34.6968 44.7238 34.6169 44.7913 34.5168C44.8588 34.4166 44.8989 34.2998 44.9074 34.1785C44.9063 34.1133 44.8914 34.049 44.8637 33.9901C44.8361 33.9313 44.7963 33.8791 44.7472 33.8374C44.581 33.7108 44.3894 33.6235 44.1862 33.5816C44.0026 33.5305 43.5885 33.4452 42.9409 33.3224C42.3251 33.2409 41.7295 33.043 41.1846 32.7391C40.9756 32.6203 40.8002 32.4481 40.6756 32.2396C40.5509 32.0309 40.4813 31.7929 40.4734 31.5487C40.4782 31.2351 40.5972 30.9346 40.8073 30.7061C41.0679 30.4205 41.4007 30.214 41.7689 30.1092C42.2616 29.9594 42.7742 29.8892 43.2881 29.9011C44.2519 29.9011 44.9797 30.0637 45.4717 30.3889C45.6961 30.5235 45.8841 30.7132 46.0187 30.9406C46.1535 31.1681 46.2304 31.4263 46.2429 31.6919L44.6837 31.7431C44.6619 31.6093 44.6125 31.4816 44.5389 31.3687C44.4651 31.2559 44.3688 31.1602 44.2563 31.0882C43.9452 30.9337 43.5998 30.8654 43.2547 30.8903C42.8892 30.872 42.5249 30.9445 42.193 31.1018C42.1212 31.1322 42.0597 31.1831 42.0159 31.2485C41.972 31.3139 41.9477 31.3909 41.9459 31.4702C41.9524 31.5424 41.977 31.6118 42.0173 31.6715C42.0577 31.7313 42.1124 31.7794 42.1762 31.8113C42.6312 32.0134 43.1127 32.1466 43.6053 32.207C44.1734 32.2948 44.7322 32.4364 45.2746 32.6299C45.6045 32.7534 45.8985 32.9599 46.1294 33.2303C46.339 33.5029 46.4475 33.8423 46.4359 34.1887C46.4243 34.5351 46.2933 34.8661 46.066 35.1234C45.7883 35.4395 45.4281 35.6679 45.0275 35.7817C44.4845 35.9371 43.922 36.0094 43.3582 35.9966C42.5774 36.0442 41.7993 35.8644 41.1145 35.4781C40.8625 35.3119 40.6494 35.091 40.4907 34.8309C40.332 34.5709 40.2315 34.2782 40.1963 33.9739Z" fill="#201B50"/>
<path d="M47.4849 33.9738L48.9973 33.8612C49.0302 34.0346 49.0964 34.1994 49.1921 34.3464C49.2878 34.4934 49.4111 34.6195 49.5549 34.7174C49.8961 34.9181 50.2868 35.0141 50.6801 34.9937C51.0733 35.0196 51.4661 34.9347 51.8153 34.7481C51.9226 34.6963 52.0143 34.6161 52.0813 34.5161C52.1482 34.4159 52.1877 34.2994 52.1959 34.1784C52.1948 34.1132 52.1799 34.0489 52.1522 33.99C52.1246 33.9311 52.0848 33.8791 52.0357 33.8373C51.8698 33.7102 51.6782 33.6227 51.4747 33.5815C51.2944 33.5303 50.8771 33.4451 50.2294 33.3223C49.6137 33.2404 49.0183 33.0426 48.4731 32.739C48.2641 32.6201 48.0887 32.4481 47.9641 32.2394C47.8395 32.0309 47.7698 31.7928 47.762 31.5485C47.7682 31.2353 47.8871 30.9355 48.0958 30.706C48.3572 30.4196 48.6912 30.2129 49.0607 30.1091C49.5522 29.9591 50.0638 29.8889 50.5766 29.901C51.5448 29.901 52.2727 30.0636 52.7602 30.3888C52.9856 30.5222 53.1745 30.7115 53.3092 30.9393C53.4441 31.1671 53.5205 31.4259 53.5315 31.6918L51.9756 31.7429C51.9531 31.6089 51.9032 31.4812 51.8289 31.3683C51.7547 31.2554 51.6579 31.1599 51.5448 31.088C51.2388 30.9362 50.8995 30.868 50.5599 30.8902C50.1945 30.8727 49.8303 30.9452 49.4981 31.1017C49.4269 31.1327 49.3659 31.1839 49.3222 31.2491C49.2784 31.3144 49.2537 31.391 49.251 31.4701C49.2576 31.5424 49.2822 31.6117 49.3226 31.6715C49.3629 31.7312 49.4177 31.7793 49.4815 31.8112C49.9375 32.0136 50.42 32.1469 50.9138 32.2069C51.4817 32.2955 52.0405 32.4371 52.5832 32.6298C52.9121 32.7533 53.205 32.9598 53.4346 33.2302C53.643 33.4969 53.7519 33.8306 53.7418 34.1716C53.7357 34.5237 53.6052 34.8617 53.3745 35.1233C53.095 35.4388 52.7339 35.667 52.3328 35.7816C51.7898 35.9373 51.2272 36.0097 50.6634 35.9965C49.8815 36.0436 49.1026 35.8639 48.4164 35.478C48.1624 35.3128 47.9471 35.0923 47.7861 34.8323C47.6251 34.5722 47.5222 34.2791 47.4849 33.9738Z" fill="#201B50"/>
<path d="M55.1675 35.8943V29.9897H60.8835V30.9892H56.7267V32.299H60.5964V33.2916H56.7267V34.9016H61.0304V35.8943H55.1675Z" fill="#201B50"/>
<path d="M64.1923 35.8943V30.9892H61.9053V29.9897H68.0319V30.9892H65.7516V35.8943H64.1923Z" fill="#201B50"/>
<path d="M72.2222 35.8943V29.9897H74.5595L75.9518 34.0319L77.3337 30.0034H79.6713V35.9079H78.2257V31.245L76.6964 35.8943H75.1968L73.6712 31.245V35.8943H72.2222Z" fill="#201B50"/>
<path d="M88.2716 35.8943H86.5788L85.9111 34.5537H82.8297L82.1953 35.8943H80.5425L83.5477 29.9897H85.1865L88.2716 35.8943ZM85.4071 33.5577L84.3456 31.3678L83.3034 33.5577H85.4071Z" fill="#201B50"/>
<path d="M89.2197 35.8943V29.9897H90.7356L93.8911 33.9329V29.9897H95.3367V35.8943H93.7742L90.6653 32.0432V35.8943H89.2197Z" fill="#201B50"/>
<path d="M104.04 35.8943H102.345L101.677 34.5537H98.5949L97.9605 35.8943H96.3047L99.3099 29.9897H100.955L104.04 35.8943ZM101.173 33.5577L100.111 31.3678L99.0693 33.5577H101.173Z" fill="#201B50"/>
<path d="M108.558 33.7247V32.7287H111.914V35.0823C111.48 35.3801 111.001 35.6015 110.495 35.7373C109.885 35.9204 109.252 36.0134 108.615 36.0135C107.894 36.0297 107.178 35.8975 106.509 35.6247C105.956 35.4054 105.484 35.017 105.156 34.5127C104.859 34.0445 104.703 33.498 104.705 32.9402C104.696 32.3521 104.873 31.7766 105.21 31.2995C105.584 30.7921 106.098 30.4097 106.685 30.2012C107.278 29.9869 107.904 29.8863 108.532 29.9044C109.306 29.8631 110.078 30.0227 110.776 30.3683C111.024 30.4977 111.244 30.6772 111.422 30.8959C111.6 31.1146 111.734 31.3679 111.814 31.6406L110.268 31.8623C110.151 31.5662 109.933 31.3237 109.654 31.1801C109.307 31.0006 108.921 30.9137 108.532 30.9277C107.951 30.8979 107.378 31.0725 106.909 31.4223C106.704 31.6028 106.543 31.8297 106.439 32.0849C106.335 32.3401 106.289 32.6165 106.308 32.8925C106.287 33.1857 106.33 33.4802 106.436 33.7538C106.542 34.0272 106.707 34.2728 106.919 34.4717C107.372 34.8383 107.939 35.0249 108.515 34.997C108.848 34.9969 109.178 34.9475 109.497 34.8504C109.791 34.7659 110.075 34.6457 110.341 34.4922V33.7247H108.558Z" fill="#201B50"/>
<path d="M113.457 35.8943V29.9897H119.172V30.9892H115.012V32.299H118.881V33.2916H115.012V34.9016H119.319V35.8943H113.457Z" fill="#201B50"/>
<path d="M120.725 35.8943V29.9897H123.062L124.451 34.0319L125.836 30.0034H128.174V35.9079H126.728V31.245L125.195 35.8943H123.699L122.174 31.245V35.8943H120.725Z" fill="#201B50"/>
<path d="M129.823 35.8943V29.9897H135.539V30.9892H131.379V32.299H135.249V33.2916H131.379V34.9016H135.686V35.8943H129.823Z" fill="#201B50"/>
<path d="M137.129 35.8943V29.9897H138.641L141.796 33.9329V29.9897H143.242V35.8943H141.683L138.575 32.0432V35.8943H137.129Z" fill="#201B50"/>
<path d="M146.731 35.8943V30.9892H144.444V29.9897H150.571V30.9892H148.29V35.8943H146.731Z" fill="#201B50"/>
</g>
</g>
<defs>
<clipPath id="clip0_108_1850">
<rect width="151" height="36" fill="white"/>
</clipPath>
</defs>
</svg>
